G04 #@! TF.GenerationSoftware,KiCad,Pcbnew,(5.1.4)-1*
G04 #@! TF.CreationDate,2019-11-16T11:50:56-05:00*
G04 #@! TF.ProjectId,Feather-ZED-F9P-GPS,46656174-6865-4722-9d5a-45442d463950,rev?*
G04 #@! TF.SameCoordinates,Original*
G04 #@! TF.FileFunction,Soldermask,Top*
G04 #@! TF.FilePolarity,Negative*
%FSLAX46Y46*%
G04 Gerber Fmt 4.6, Leading zero omitted, Abs format (unit mm)*
G04 Created by KiCad (PCBNEW (5.1.4)-1) date 2019-11-16 11:50:56*
%MOMM*%
%LPD*%
G04 APERTURE LIST*
%ADD10C,0.100000*%
G04 APERTURE END LIST*
D10*
G36*
X85040964Y-98163689D02*
G01*
X85214749Y-98235673D01*
X85232235Y-98242916D01*
X85404373Y-98357935D01*
X85550765Y-98504327D01*
X85665094Y-98675432D01*
X85665785Y-98676467D01*
X85745011Y-98867736D01*
X85785400Y-99070784D01*
X85785400Y-99277816D01*
X85745011Y-99480864D01*
X85665785Y-99672133D01*
X85665784Y-99672135D01*
X85550765Y-99844273D01*
X85404373Y-99990665D01*
X85232235Y-100105684D01*
X85232234Y-100105685D01*
X85232233Y-100105685D01*
X85040964Y-100184911D01*
X84837916Y-100225300D01*
X84630884Y-100225300D01*
X84427836Y-100184911D01*
X84236567Y-100105685D01*
X84236566Y-100105685D01*
X84236565Y-100105684D01*
X84064427Y-99990665D01*
X83918035Y-99844273D01*
X83803016Y-99672135D01*
X83803015Y-99672133D01*
X83723789Y-99480864D01*
X83683400Y-99277816D01*
X83683400Y-99070784D01*
X83723789Y-98867736D01*
X83803015Y-98676467D01*
X83803707Y-98675432D01*
X83918035Y-98504327D01*
X84064427Y-98357935D01*
X84236565Y-98242916D01*
X84254051Y-98235673D01*
X84427836Y-98163689D01*
X84630884Y-98123300D01*
X84837916Y-98123300D01*
X85040964Y-98163689D01*
X85040964Y-98163689D01*
G37*
G36*
X102398610Y-98125150D02*
G01*
X102487827Y-98133937D01*
X102657666Y-98185457D01*
X102814191Y-98269122D01*
X102849929Y-98298452D01*
X102951386Y-98381714D01*
X103034648Y-98483171D01*
X103063978Y-98518909D01*
X103063979Y-98518911D01*
X103130554Y-98643462D01*
X103147643Y-98675434D01*
X103199163Y-98845273D01*
X103216559Y-99021900D01*
X103199163Y-99198527D01*
X103147643Y-99368366D01*
X103063978Y-99524891D01*
X103034648Y-99560629D01*
X102951386Y-99662086D01*
X102849929Y-99745348D01*
X102814191Y-99774678D01*
X102657666Y-99858343D01*
X102487827Y-99909863D01*
X102421642Y-99916382D01*
X102355460Y-99922900D01*
X102266940Y-99922900D01*
X102200758Y-99916382D01*
X102134573Y-99909863D01*
X101964734Y-99858343D01*
X101808209Y-99774678D01*
X101772471Y-99745348D01*
X101671014Y-99662086D01*
X101587752Y-99560629D01*
X101558422Y-99524891D01*
X101474757Y-99368366D01*
X101423237Y-99198527D01*
X101405841Y-99021900D01*
X101423237Y-98845273D01*
X101474757Y-98675434D01*
X101491847Y-98643462D01*
X101558421Y-98518911D01*
X101558422Y-98518909D01*
X101587752Y-98483171D01*
X101671014Y-98381714D01*
X101772471Y-98298452D01*
X101808209Y-98269122D01*
X101964734Y-98185457D01*
X102134573Y-98133937D01*
X102223790Y-98125150D01*
X102266940Y-98120900D01*
X102355460Y-98120900D01*
X102398610Y-98125150D01*
X102398610Y-98125150D01*
G37*
G36*
X90512200Y-99922900D02*
G01*
X88710200Y-99922900D01*
X88710200Y-98120900D01*
X90512200Y-98120900D01*
X90512200Y-99922900D01*
X90512200Y-99922900D01*
G37*
G36*
X92238610Y-98125150D02*
G01*
X92327827Y-98133937D01*
X92497666Y-98185457D01*
X92654191Y-98269122D01*
X92689929Y-98298452D01*
X92791386Y-98381714D01*
X92874648Y-98483171D01*
X92903978Y-98518909D01*
X92903979Y-98518911D01*
X92970554Y-98643462D01*
X92987643Y-98675434D01*
X93039163Y-98845273D01*
X93056559Y-99021900D01*
X93039163Y-99198527D01*
X92987643Y-99368366D01*
X92903978Y-99524891D01*
X92874648Y-99560629D01*
X92791386Y-99662086D01*
X92689929Y-99745348D01*
X92654191Y-99774678D01*
X92497666Y-99858343D01*
X92327827Y-99909863D01*
X92261642Y-99916382D01*
X92195460Y-99922900D01*
X92106940Y-99922900D01*
X92040758Y-99916382D01*
X91974573Y-99909863D01*
X91804734Y-99858343D01*
X91648209Y-99774678D01*
X91612471Y-99745348D01*
X91511014Y-99662086D01*
X91427752Y-99560629D01*
X91398422Y-99524891D01*
X91314757Y-99368366D01*
X91263237Y-99198527D01*
X91245841Y-99021900D01*
X91263237Y-98845273D01*
X91314757Y-98675434D01*
X91331847Y-98643462D01*
X91398421Y-98518911D01*
X91398422Y-98518909D01*
X91427752Y-98483171D01*
X91511014Y-98381714D01*
X91612471Y-98298452D01*
X91648209Y-98269122D01*
X91804734Y-98185457D01*
X91974573Y-98133937D01*
X92063790Y-98125150D01*
X92106940Y-98120900D01*
X92195460Y-98120900D01*
X92238610Y-98125150D01*
X92238610Y-98125150D01*
G37*
G36*
X97318610Y-98125150D02*
G01*
X97407827Y-98133937D01*
X97577666Y-98185457D01*
X97734191Y-98269122D01*
X97769929Y-98298452D01*
X97871386Y-98381714D01*
X97954648Y-98483171D01*
X97983978Y-98518909D01*
X97983979Y-98518911D01*
X98050554Y-98643462D01*
X98067643Y-98675434D01*
X98119163Y-98845273D01*
X98136559Y-99021900D01*
X98119163Y-99198527D01*
X98067643Y-99368366D01*
X97983978Y-99524891D01*
X97954648Y-99560629D01*
X97871386Y-99662086D01*
X97769929Y-99745348D01*
X97734191Y-99774678D01*
X97577666Y-99858343D01*
X97407827Y-99909863D01*
X97341642Y-99916382D01*
X97275460Y-99922900D01*
X97186940Y-99922900D01*
X97120758Y-99916382D01*
X97054573Y-99909863D01*
X96884734Y-99858343D01*
X96728209Y-99774678D01*
X96692471Y-99745348D01*
X96591014Y-99662086D01*
X96507752Y-99560629D01*
X96478422Y-99524891D01*
X96394757Y-99368366D01*
X96343237Y-99198527D01*
X96325841Y-99021900D01*
X96343237Y-98845273D01*
X96394757Y-98675434D01*
X96411847Y-98643462D01*
X96478421Y-98518911D01*
X96478422Y-98518909D01*
X96507752Y-98483171D01*
X96591014Y-98381714D01*
X96692471Y-98298452D01*
X96728209Y-98269122D01*
X96884734Y-98185457D01*
X97054573Y-98133937D01*
X97143790Y-98125150D01*
X97186940Y-98120900D01*
X97275460Y-98120900D01*
X97318610Y-98125150D01*
X97318610Y-98125150D01*
G37*
G36*
X94778610Y-98125150D02*
G01*
X94867827Y-98133937D01*
X95037666Y-98185457D01*
X95194191Y-98269122D01*
X95229929Y-98298452D01*
X95331386Y-98381714D01*
X95414648Y-98483171D01*
X95443978Y-98518909D01*
X95443979Y-98518911D01*
X95510554Y-98643462D01*
X95527643Y-98675434D01*
X95579163Y-98845273D01*
X95596559Y-99021900D01*
X95579163Y-99198527D01*
X95527643Y-99368366D01*
X95443978Y-99524891D01*
X95414648Y-99560629D01*
X95331386Y-99662086D01*
X95229929Y-99745348D01*
X95194191Y-99774678D01*
X95037666Y-99858343D01*
X94867827Y-99909863D01*
X94801642Y-99916382D01*
X94735460Y-99922900D01*
X94646940Y-99922900D01*
X94580758Y-99916382D01*
X94514573Y-99909863D01*
X94344734Y-99858343D01*
X94188209Y-99774678D01*
X94152471Y-99745348D01*
X94051014Y-99662086D01*
X93967752Y-99560629D01*
X93938422Y-99524891D01*
X93854757Y-99368366D01*
X93803237Y-99198527D01*
X93785841Y-99021900D01*
X93803237Y-98845273D01*
X93854757Y-98675434D01*
X93871847Y-98643462D01*
X93938421Y-98518911D01*
X93938422Y-98518909D01*
X93967752Y-98483171D01*
X94051014Y-98381714D01*
X94152471Y-98298452D01*
X94188209Y-98269122D01*
X94344734Y-98185457D01*
X94514573Y-98133937D01*
X94603790Y-98125150D01*
X94646940Y-98120900D01*
X94735460Y-98120900D01*
X94778610Y-98125150D01*
X94778610Y-98125150D01*
G37*
G36*
X99858610Y-98125150D02*
G01*
X99947827Y-98133937D01*
X100117666Y-98185457D01*
X100274191Y-98269122D01*
X100309929Y-98298452D01*
X100411386Y-98381714D01*
X100494648Y-98483171D01*
X100523978Y-98518909D01*
X100523979Y-98518911D01*
X100590554Y-98643462D01*
X100607643Y-98675434D01*
X100659163Y-98845273D01*
X100676559Y-99021900D01*
X100659163Y-99198527D01*
X100607643Y-99368366D01*
X100523978Y-99524891D01*
X100494648Y-99560629D01*
X100411386Y-99662086D01*
X100309929Y-99745348D01*
X100274191Y-99774678D01*
X100117666Y-99858343D01*
X99947827Y-99909863D01*
X99881642Y-99916382D01*
X99815460Y-99922900D01*
X99726940Y-99922900D01*
X99660758Y-99916382D01*
X99594573Y-99909863D01*
X99424734Y-99858343D01*
X99268209Y-99774678D01*
X99232471Y-99745348D01*
X99131014Y-99662086D01*
X99047752Y-99560629D01*
X99018422Y-99524891D01*
X98934757Y-99368366D01*
X98883237Y-99198527D01*
X98865841Y-99021900D01*
X98883237Y-98845273D01*
X98934757Y-98675434D01*
X98951847Y-98643462D01*
X99018421Y-98518911D01*
X99018422Y-98518909D01*
X99047752Y-98483171D01*
X99131014Y-98381714D01*
X99232471Y-98298452D01*
X99268209Y-98269122D01*
X99424734Y-98185457D01*
X99594573Y-98133937D01*
X99683790Y-98125150D01*
X99726940Y-98120900D01*
X99815460Y-98120900D01*
X99858610Y-98125150D01*
X99858610Y-98125150D01*
G37*
G36*
X66734643Y-97517819D02*
G01*
X66800827Y-97524337D01*
X66970666Y-97575857D01*
X67127191Y-97659522D01*
X67162929Y-97688852D01*
X67264386Y-97772114D01*
X67337404Y-97861088D01*
X67376978Y-97909309D01*
X67460643Y-98065834D01*
X67512163Y-98235673D01*
X67529559Y-98412300D01*
X67512163Y-98588927D01*
X67460643Y-98758766D01*
X67376978Y-98915291D01*
X67362052Y-98933478D01*
X67264386Y-99052486D01*
X67169617Y-99130260D01*
X67127191Y-99165078D01*
X66970666Y-99248743D01*
X66800827Y-99300263D01*
X66734642Y-99306782D01*
X66668460Y-99313300D01*
X66579940Y-99313300D01*
X66513758Y-99306782D01*
X66447573Y-99300263D01*
X66277734Y-99248743D01*
X66121209Y-99165078D01*
X66078783Y-99130260D01*
X65984014Y-99052486D01*
X65886348Y-98933478D01*
X65871422Y-98915291D01*
X65787757Y-98758766D01*
X65736237Y-98588927D01*
X65718841Y-98412300D01*
X65736237Y-98235673D01*
X65787757Y-98065834D01*
X65871422Y-97909309D01*
X65910996Y-97861088D01*
X65984014Y-97772114D01*
X66085471Y-97688852D01*
X66121209Y-97659522D01*
X66277734Y-97575857D01*
X66447573Y-97524337D01*
X66513757Y-97517819D01*
X66579940Y-97511300D01*
X66668460Y-97511300D01*
X66734643Y-97517819D01*
X66734643Y-97517819D01*
G37*
G36*
X69274643Y-97517819D02*
G01*
X69340827Y-97524337D01*
X69510666Y-97575857D01*
X69667191Y-97659522D01*
X69702929Y-97688852D01*
X69804386Y-97772114D01*
X69877404Y-97861088D01*
X69916978Y-97909309D01*
X70000643Y-98065834D01*
X70052163Y-98235673D01*
X70069559Y-98412300D01*
X70052163Y-98588927D01*
X70000643Y-98758766D01*
X69916978Y-98915291D01*
X69902052Y-98933478D01*
X69804386Y-99052486D01*
X69709617Y-99130260D01*
X69667191Y-99165078D01*
X69510666Y-99248743D01*
X69340827Y-99300263D01*
X69274642Y-99306782D01*
X69208460Y-99313300D01*
X69119940Y-99313300D01*
X69053758Y-99306782D01*
X68987573Y-99300263D01*
X68817734Y-99248743D01*
X68661209Y-99165078D01*
X68618783Y-99130260D01*
X68524014Y-99052486D01*
X68426348Y-98933478D01*
X68411422Y-98915291D01*
X68327757Y-98758766D01*
X68276237Y-98588927D01*
X68258841Y-98412300D01*
X68276237Y-98235673D01*
X68327757Y-98065834D01*
X68411422Y-97909309D01*
X68450996Y-97861088D01*
X68524014Y-97772114D01*
X68625471Y-97688852D01*
X68661209Y-97659522D01*
X68817734Y-97575857D01*
X68987573Y-97524337D01*
X69053757Y-97517819D01*
X69119940Y-97511300D01*
X69208460Y-97511300D01*
X69274643Y-97517819D01*
X69274643Y-97517819D01*
G37*
G36*
X71814643Y-97517819D02*
G01*
X71880827Y-97524337D01*
X72050666Y-97575857D01*
X72207191Y-97659522D01*
X72242929Y-97688852D01*
X72344386Y-97772114D01*
X72417404Y-97861088D01*
X72456978Y-97909309D01*
X72540643Y-98065834D01*
X72592163Y-98235673D01*
X72609559Y-98412300D01*
X72592163Y-98588927D01*
X72540643Y-98758766D01*
X72456978Y-98915291D01*
X72442052Y-98933478D01*
X72344386Y-99052486D01*
X72249617Y-99130260D01*
X72207191Y-99165078D01*
X72050666Y-99248743D01*
X71880827Y-99300263D01*
X71814642Y-99306782D01*
X71748460Y-99313300D01*
X71659940Y-99313300D01*
X71593758Y-99306782D01*
X71527573Y-99300263D01*
X71357734Y-99248743D01*
X71201209Y-99165078D01*
X71158783Y-99130260D01*
X71064014Y-99052486D01*
X70966348Y-98933478D01*
X70951422Y-98915291D01*
X70867757Y-98758766D01*
X70816237Y-98588927D01*
X70798841Y-98412300D01*
X70816237Y-98235673D01*
X70867757Y-98065834D01*
X70951422Y-97909309D01*
X70990996Y-97861088D01*
X71064014Y-97772114D01*
X71165471Y-97688852D01*
X71201209Y-97659522D01*
X71357734Y-97575857D01*
X71527573Y-97524337D01*
X71593757Y-97517819D01*
X71659940Y-97511300D01*
X71748460Y-97511300D01*
X71814643Y-97517819D01*
X71814643Y-97517819D01*
G37*
G36*
X64985200Y-99313300D02*
G01*
X63183200Y-99313300D01*
X63183200Y-97511300D01*
X64985200Y-97511300D01*
X64985200Y-99313300D01*
X64985200Y-99313300D01*
G37*
G36*
X74354643Y-97517819D02*
G01*
X74420827Y-97524337D01*
X74590666Y-97575857D01*
X74747191Y-97659522D01*
X74782929Y-97688852D01*
X74884386Y-97772114D01*
X74957404Y-97861088D01*
X74996978Y-97909309D01*
X75080643Y-98065834D01*
X75132163Y-98235673D01*
X75149559Y-98412300D01*
X75132163Y-98588927D01*
X75080643Y-98758766D01*
X74996978Y-98915291D01*
X74982052Y-98933478D01*
X74884386Y-99052486D01*
X74789617Y-99130260D01*
X74747191Y-99165078D01*
X74590666Y-99248743D01*
X74420827Y-99300263D01*
X74354642Y-99306782D01*
X74288460Y-99313300D01*
X74199940Y-99313300D01*
X74133758Y-99306782D01*
X74067573Y-99300263D01*
X73897734Y-99248743D01*
X73741209Y-99165078D01*
X73698783Y-99130260D01*
X73604014Y-99052486D01*
X73506348Y-98933478D01*
X73491422Y-98915291D01*
X73407757Y-98758766D01*
X73356237Y-98588927D01*
X73338841Y-98412300D01*
X73356237Y-98235673D01*
X73407757Y-98065834D01*
X73491422Y-97909309D01*
X73530996Y-97861088D01*
X73604014Y-97772114D01*
X73705471Y-97688852D01*
X73741209Y-97659522D01*
X73897734Y-97575857D01*
X74067573Y-97524337D01*
X74133757Y-97517819D01*
X74199940Y-97511300D01*
X74288460Y-97511300D01*
X74354643Y-97517819D01*
X74354643Y-97517819D01*
G37*
G36*
X56095599Y-97599337D02*
G01*
X56105208Y-97602252D01*
X56114072Y-97606990D01*
X56121837Y-97613363D01*
X56132048Y-97625806D01*
X56138978Y-97636175D01*
X56156305Y-97653502D01*
X56176680Y-97667115D01*
X56199320Y-97676491D01*
X56223353Y-97681271D01*
X56247857Y-97681270D01*
X56271890Y-97676488D01*
X56294529Y-97667110D01*
X56314902Y-97653495D01*
X56332229Y-97636168D01*
X56339158Y-97625798D01*
X56349363Y-97613363D01*
X56357128Y-97606990D01*
X56365992Y-97602252D01*
X56375601Y-97599337D01*
X56391740Y-97597748D01*
X56879461Y-97597748D01*
X56897799Y-97599554D01*
X56910050Y-97600156D01*
X56928469Y-97600156D01*
X56950749Y-97602350D01*
X57034833Y-97619076D01*
X57056260Y-97625576D01*
X57135458Y-97658380D01*
X57140903Y-97661291D01*
X57140909Y-97661293D01*
X57149769Y-97666029D01*
X57149773Y-97666032D01*
X57155214Y-97668940D01*
X57226499Y-97716571D01*
X57243804Y-97730772D01*
X57304428Y-97791396D01*
X57318629Y-97808701D01*
X57366260Y-97879986D01*
X57369168Y-97885427D01*
X57369171Y-97885431D01*
X57373907Y-97894291D01*
X57373909Y-97894297D01*
X57376820Y-97899742D01*
X57409624Y-97978940D01*
X57416124Y-98000367D01*
X57432850Y-98084451D01*
X57435044Y-98106731D01*
X57435044Y-98125150D01*
X57435646Y-98137401D01*
X57437452Y-98155739D01*
X57437452Y-98643462D01*
X57435646Y-98661799D01*
X57435044Y-98674050D01*
X57435044Y-98692469D01*
X57432850Y-98714749D01*
X57416124Y-98798833D01*
X57409624Y-98820260D01*
X57376820Y-98899458D01*
X57373909Y-98904903D01*
X57373907Y-98904909D01*
X57369171Y-98913769D01*
X57369168Y-98913773D01*
X57366260Y-98919214D01*
X57318629Y-98990499D01*
X57304428Y-99007804D01*
X57243804Y-99068428D01*
X57226499Y-99082629D01*
X57155214Y-99130260D01*
X57149773Y-99133168D01*
X57149769Y-99133171D01*
X57140909Y-99137907D01*
X57140903Y-99137909D01*
X57135458Y-99140820D01*
X57056260Y-99173624D01*
X57034833Y-99180124D01*
X56950749Y-99196850D01*
X56928469Y-99199044D01*
X56910050Y-99199044D01*
X56897799Y-99199646D01*
X56879462Y-99201452D01*
X56391740Y-99201452D01*
X56375601Y-99199863D01*
X56365992Y-99196948D01*
X56357128Y-99192210D01*
X56349363Y-99185837D01*
X56339152Y-99173394D01*
X56332222Y-99163025D01*
X56314895Y-99145698D01*
X56294520Y-99132085D01*
X56271880Y-99122709D01*
X56247847Y-99117929D01*
X56223343Y-99117930D01*
X56199310Y-99122712D01*
X56176671Y-99132090D01*
X56156298Y-99145705D01*
X56138971Y-99163032D01*
X56132042Y-99173402D01*
X56121837Y-99185837D01*
X56114072Y-99192210D01*
X56105208Y-99196948D01*
X56095599Y-99199863D01*
X56079460Y-99201452D01*
X55591738Y-99201452D01*
X55573401Y-99199646D01*
X55561150Y-99199044D01*
X55542731Y-99199044D01*
X55520451Y-99196850D01*
X55436367Y-99180124D01*
X55414940Y-99173624D01*
X55335742Y-99140820D01*
X55330297Y-99137909D01*
X55330291Y-99137907D01*
X55321431Y-99133171D01*
X55321427Y-99133168D01*
X55315986Y-99130260D01*
X55244701Y-99082629D01*
X55227396Y-99068428D01*
X55166772Y-99007804D01*
X55152571Y-98990499D01*
X55104940Y-98919214D01*
X55102032Y-98913773D01*
X55102029Y-98913769D01*
X55097293Y-98904909D01*
X55097291Y-98904903D01*
X55094380Y-98899458D01*
X55061576Y-98820260D01*
X55055076Y-98798833D01*
X55038350Y-98714749D01*
X55036156Y-98692469D01*
X55036156Y-98674050D01*
X55035554Y-98661799D01*
X55033748Y-98643462D01*
X55033748Y-98155739D01*
X55035554Y-98137401D01*
X55036156Y-98125150D01*
X55036156Y-98106731D01*
X55038350Y-98084451D01*
X55055076Y-98000367D01*
X55061576Y-97978940D01*
X55094380Y-97899742D01*
X55097291Y-97894297D01*
X55097293Y-97894291D01*
X55102029Y-97885431D01*
X55102032Y-97885427D01*
X55104940Y-97879986D01*
X55152571Y-97808701D01*
X55166772Y-97791396D01*
X55227396Y-97730772D01*
X55244701Y-97716571D01*
X55315986Y-97668940D01*
X55321427Y-97666032D01*
X55321431Y-97666029D01*
X55330291Y-97661293D01*
X55330297Y-97661291D01*
X55335742Y-97658380D01*
X55414940Y-97625576D01*
X55436367Y-97619076D01*
X55520451Y-97602350D01*
X55542731Y-97600156D01*
X55561150Y-97600156D01*
X55573401Y-97599554D01*
X55591739Y-97597748D01*
X56079460Y-97597748D01*
X56095599Y-97599337D01*
X56095599Y-97599337D01*
G37*
G36*
X52583968Y-97653165D02*
G01*
X52622638Y-97664896D01*
X52658277Y-97683946D01*
X52689517Y-97709583D01*
X52715154Y-97740823D01*
X52734204Y-97776462D01*
X52745935Y-97815132D01*
X52750500Y-97861488D01*
X52750500Y-98937712D01*
X52745935Y-98984068D01*
X52734204Y-99022738D01*
X52715154Y-99058377D01*
X52689517Y-99089617D01*
X52658277Y-99115254D01*
X52622638Y-99134304D01*
X52583968Y-99146035D01*
X52537612Y-99150600D01*
X51886388Y-99150600D01*
X51840032Y-99146035D01*
X51801362Y-99134304D01*
X51765723Y-99115254D01*
X51734483Y-99089617D01*
X51708846Y-99058377D01*
X51689796Y-99022738D01*
X51678065Y-98984068D01*
X51673500Y-98937712D01*
X51673500Y-97861488D01*
X51678065Y-97815132D01*
X51689796Y-97776462D01*
X51708846Y-97740823D01*
X51734483Y-97709583D01*
X51765723Y-97683946D01*
X51801362Y-97664896D01*
X51840032Y-97653165D01*
X51886388Y-97648600D01*
X52537612Y-97648600D01*
X52583968Y-97653165D01*
X52583968Y-97653165D01*
G37*
G36*
X54458968Y-97653165D02*
G01*
X54497638Y-97664896D01*
X54533277Y-97683946D01*
X54564517Y-97709583D01*
X54590154Y-97740823D01*
X54609204Y-97776462D01*
X54620935Y-97815132D01*
X54625500Y-97861488D01*
X54625500Y-98937712D01*
X54620935Y-98984068D01*
X54609204Y-99022738D01*
X54590154Y-99058377D01*
X54564517Y-99089617D01*
X54533277Y-99115254D01*
X54497638Y-99134304D01*
X54458968Y-99146035D01*
X54412612Y-99150600D01*
X53761388Y-99150600D01*
X53715032Y-99146035D01*
X53676362Y-99134304D01*
X53640723Y-99115254D01*
X53609483Y-99089617D01*
X53583846Y-99058377D01*
X53564796Y-99022738D01*
X53553065Y-98984068D01*
X53548500Y-98937712D01*
X53548500Y-97861488D01*
X53553065Y-97815132D01*
X53564796Y-97776462D01*
X53583846Y-97740823D01*
X53609483Y-97709583D01*
X53640723Y-97683946D01*
X53676362Y-97664896D01*
X53715032Y-97653165D01*
X53761388Y-97648600D01*
X54412612Y-97648600D01*
X54458968Y-97653165D01*
X54458968Y-97653165D01*
G37*
G36*
X49332768Y-97648931D02*
G01*
X49371438Y-97660662D01*
X49407077Y-97679712D01*
X49438317Y-97705349D01*
X49463954Y-97736589D01*
X49483004Y-97772228D01*
X49494735Y-97810898D01*
X49499300Y-97857254D01*
X49499300Y-98933478D01*
X49494735Y-98979834D01*
X49483004Y-99018504D01*
X49463954Y-99054143D01*
X49438317Y-99085383D01*
X49407077Y-99111020D01*
X49371438Y-99130070D01*
X49332768Y-99141801D01*
X49286412Y-99146366D01*
X48635188Y-99146366D01*
X48588832Y-99141801D01*
X48550162Y-99130070D01*
X48514523Y-99111020D01*
X48483283Y-99085383D01*
X48457646Y-99054143D01*
X48438596Y-99018504D01*
X48426865Y-98979834D01*
X48422300Y-98933478D01*
X48422300Y-97857254D01*
X48426865Y-97810898D01*
X48438596Y-97772228D01*
X48457646Y-97736589D01*
X48483283Y-97705349D01*
X48514523Y-97679712D01*
X48550162Y-97660662D01*
X48588832Y-97648931D01*
X48635188Y-97644366D01*
X49286412Y-97644366D01*
X49332768Y-97648931D01*
X49332768Y-97648931D01*
G37*
G36*
X51207768Y-97648931D02*
G01*
X51246438Y-97660662D01*
X51282077Y-97679712D01*
X51313317Y-97705349D01*
X51338954Y-97736589D01*
X51358004Y-97772228D01*
X51369735Y-97810898D01*
X51374300Y-97857254D01*
X51374300Y-98933478D01*
X51369735Y-98979834D01*
X51358004Y-99018504D01*
X51338954Y-99054143D01*
X51313317Y-99085383D01*
X51282077Y-99111020D01*
X51246438Y-99130070D01*
X51207768Y-99141801D01*
X51161412Y-99146366D01*
X50510188Y-99146366D01*
X50463832Y-99141801D01*
X50425162Y-99130070D01*
X50389523Y-99111020D01*
X50358283Y-99085383D01*
X50332646Y-99054143D01*
X50313596Y-99018504D01*
X50301865Y-98979834D01*
X50297300Y-98933478D01*
X50297300Y-97857254D01*
X50301865Y-97810898D01*
X50313596Y-97772228D01*
X50332646Y-97736589D01*
X50358283Y-97705349D01*
X50389523Y-97679712D01*
X50425162Y-97660662D01*
X50463832Y-97648931D01*
X50510188Y-97644366D01*
X51161412Y-97644366D01*
X51207768Y-97648931D01*
X51207768Y-97648931D01*
G37*
G36*
X56146399Y-94894237D02*
G01*
X56156008Y-94897152D01*
X56164872Y-94901890D01*
X56172637Y-94908263D01*
X56182848Y-94920706D01*
X56189778Y-94931075D01*
X56207105Y-94948402D01*
X56227480Y-94962015D01*
X56250120Y-94971391D01*
X56274153Y-94976171D01*
X56298657Y-94976170D01*
X56322690Y-94971388D01*
X56345329Y-94962010D01*
X56365702Y-94948395D01*
X56383029Y-94931068D01*
X56389958Y-94920698D01*
X56400163Y-94908263D01*
X56407928Y-94901890D01*
X56416792Y-94897152D01*
X56426401Y-94894237D01*
X56442540Y-94892648D01*
X56930261Y-94892648D01*
X56948599Y-94894454D01*
X56960850Y-94895056D01*
X56979269Y-94895056D01*
X57001549Y-94897250D01*
X57085633Y-94913976D01*
X57107060Y-94920476D01*
X57186258Y-94953280D01*
X57191703Y-94956191D01*
X57191709Y-94956193D01*
X57200569Y-94960929D01*
X57200573Y-94960932D01*
X57206014Y-94963840D01*
X57277299Y-95011471D01*
X57294604Y-95025672D01*
X57355228Y-95086296D01*
X57369429Y-95103601D01*
X57417060Y-95174886D01*
X57419968Y-95180327D01*
X57419971Y-95180331D01*
X57424707Y-95189191D01*
X57424709Y-95189197D01*
X57427620Y-95194642D01*
X57460424Y-95273840D01*
X57466924Y-95295267D01*
X57483650Y-95379351D01*
X57485844Y-95401631D01*
X57485844Y-95420050D01*
X57486446Y-95432301D01*
X57488252Y-95450639D01*
X57488252Y-95938362D01*
X57486446Y-95956699D01*
X57485844Y-95968950D01*
X57485844Y-95987369D01*
X57483650Y-96009649D01*
X57466924Y-96093733D01*
X57460424Y-96115160D01*
X57427620Y-96194358D01*
X57424709Y-96199803D01*
X57424707Y-96199809D01*
X57419971Y-96208669D01*
X57419968Y-96208673D01*
X57417060Y-96214114D01*
X57369429Y-96285399D01*
X57355228Y-96302704D01*
X57294604Y-96363328D01*
X57277299Y-96377529D01*
X57206014Y-96425160D01*
X57200573Y-96428068D01*
X57200569Y-96428071D01*
X57191709Y-96432807D01*
X57191703Y-96432809D01*
X57186258Y-96435720D01*
X57107060Y-96468524D01*
X57085633Y-96475024D01*
X57001549Y-96491750D01*
X56979269Y-96493944D01*
X56960850Y-96493944D01*
X56948599Y-96494546D01*
X56930262Y-96496352D01*
X56442540Y-96496352D01*
X56426401Y-96494763D01*
X56416792Y-96491848D01*
X56407928Y-96487110D01*
X56400163Y-96480737D01*
X56389952Y-96468294D01*
X56383022Y-96457925D01*
X56365695Y-96440598D01*
X56345320Y-96426985D01*
X56322680Y-96417609D01*
X56298647Y-96412829D01*
X56274143Y-96412830D01*
X56250110Y-96417612D01*
X56227471Y-96426990D01*
X56207098Y-96440605D01*
X56189771Y-96457932D01*
X56182842Y-96468302D01*
X56172637Y-96480737D01*
X56164872Y-96487110D01*
X56156008Y-96491848D01*
X56146399Y-96494763D01*
X56130260Y-96496352D01*
X55642538Y-96496352D01*
X55624201Y-96494546D01*
X55611950Y-96493944D01*
X55593531Y-96493944D01*
X55571251Y-96491750D01*
X55487167Y-96475024D01*
X55465740Y-96468524D01*
X55386542Y-96435720D01*
X55381097Y-96432809D01*
X55381091Y-96432807D01*
X55372231Y-96428071D01*
X55372227Y-96428068D01*
X55366786Y-96425160D01*
X55295501Y-96377529D01*
X55278196Y-96363328D01*
X55217572Y-96302704D01*
X55203371Y-96285399D01*
X55155740Y-96214114D01*
X55152832Y-96208673D01*
X55152829Y-96208669D01*
X55148093Y-96199809D01*
X55148091Y-96199803D01*
X55145180Y-96194358D01*
X55112376Y-96115160D01*
X55105876Y-96093733D01*
X55089150Y-96009649D01*
X55086956Y-95987369D01*
X55086956Y-95968950D01*
X55086354Y-95956699D01*
X55084548Y-95938362D01*
X55084548Y-95450639D01*
X55086354Y-95432301D01*
X55086956Y-95420050D01*
X55086956Y-95401631D01*
X55089150Y-95379351D01*
X55105876Y-95295267D01*
X55112376Y-95273840D01*
X55145180Y-95194642D01*
X55148091Y-95189197D01*
X55148093Y-95189191D01*
X55152829Y-95180331D01*
X55152832Y-95180327D01*
X55155740Y-95174886D01*
X55203371Y-95103601D01*
X55217572Y-95086296D01*
X55278196Y-95025672D01*
X55295501Y-95011471D01*
X55366786Y-94963840D01*
X55372227Y-94960932D01*
X55372231Y-94960929D01*
X55381091Y-94956193D01*
X55381097Y-94956191D01*
X55386542Y-94953280D01*
X55465740Y-94920476D01*
X55487167Y-94913976D01*
X55571251Y-94897250D01*
X55593531Y-94895056D01*
X55611950Y-94895056D01*
X55624201Y-94894454D01*
X55642539Y-94892648D01*
X56130260Y-94892648D01*
X56146399Y-94894237D01*
X56146399Y-94894237D01*
G37*
G36*
X51258568Y-94948065D02*
G01*
X51297238Y-94959796D01*
X51332877Y-94978846D01*
X51364117Y-95004483D01*
X51389754Y-95035723D01*
X51408804Y-95071362D01*
X51420535Y-95110032D01*
X51425100Y-95156388D01*
X51425100Y-96232612D01*
X51420535Y-96278968D01*
X51408804Y-96317638D01*
X51389754Y-96353277D01*
X51364117Y-96384517D01*
X51332877Y-96410154D01*
X51297238Y-96429204D01*
X51258568Y-96440935D01*
X51212212Y-96445500D01*
X50560988Y-96445500D01*
X50514632Y-96440935D01*
X50475962Y-96429204D01*
X50440323Y-96410154D01*
X50409083Y-96384517D01*
X50383446Y-96353277D01*
X50364396Y-96317638D01*
X50352665Y-96278968D01*
X50348100Y-96232612D01*
X50348100Y-95156388D01*
X50352665Y-95110032D01*
X50364396Y-95071362D01*
X50383446Y-95035723D01*
X50409083Y-95004483D01*
X50440323Y-94978846D01*
X50475962Y-94959796D01*
X50514632Y-94948065D01*
X50560988Y-94943500D01*
X51212212Y-94943500D01*
X51258568Y-94948065D01*
X51258568Y-94948065D01*
G37*
G36*
X49383568Y-94948065D02*
G01*
X49422238Y-94959796D01*
X49457877Y-94978846D01*
X49489117Y-95004483D01*
X49514754Y-95035723D01*
X49533804Y-95071362D01*
X49545535Y-95110032D01*
X49550100Y-95156388D01*
X49550100Y-96232612D01*
X49545535Y-96278968D01*
X49533804Y-96317638D01*
X49514754Y-96353277D01*
X49489117Y-96384517D01*
X49457877Y-96410154D01*
X49422238Y-96429204D01*
X49383568Y-96440935D01*
X49337212Y-96445500D01*
X48685988Y-96445500D01*
X48639632Y-96440935D01*
X48600962Y-96429204D01*
X48565323Y-96410154D01*
X48534083Y-96384517D01*
X48508446Y-96353277D01*
X48489396Y-96317638D01*
X48477665Y-96278968D01*
X48473100Y-96232612D01*
X48473100Y-95156388D01*
X48477665Y-95110032D01*
X48489396Y-95071362D01*
X48508446Y-95035723D01*
X48534083Y-95004483D01*
X48565323Y-94978846D01*
X48600962Y-94959796D01*
X48639632Y-94948065D01*
X48685988Y-94943500D01*
X49337212Y-94943500D01*
X49383568Y-94948065D01*
X49383568Y-94948065D01*
G37*
G36*
X52634768Y-94948065D02*
G01*
X52673438Y-94959796D01*
X52709077Y-94978846D01*
X52740317Y-95004483D01*
X52765954Y-95035723D01*
X52785004Y-95071362D01*
X52796735Y-95110032D01*
X52801300Y-95156388D01*
X52801300Y-96232612D01*
X52796735Y-96278968D01*
X52785004Y-96317638D01*
X52765954Y-96353277D01*
X52740317Y-96384517D01*
X52709077Y-96410154D01*
X52673438Y-96429204D01*
X52634768Y-96440935D01*
X52588412Y-96445500D01*
X51937188Y-96445500D01*
X51890832Y-96440935D01*
X51852162Y-96429204D01*
X51816523Y-96410154D01*
X51785283Y-96384517D01*
X51759646Y-96353277D01*
X51740596Y-96317638D01*
X51728865Y-96278968D01*
X51724300Y-96232612D01*
X51724300Y-95156388D01*
X51728865Y-95110032D01*
X51740596Y-95071362D01*
X51759646Y-95035723D01*
X51785283Y-95004483D01*
X51816523Y-94978846D01*
X51852162Y-94959796D01*
X51890832Y-94948065D01*
X51937188Y-94943500D01*
X52588412Y-94943500D01*
X52634768Y-94948065D01*
X52634768Y-94948065D01*
G37*
G36*
X54509768Y-94948065D02*
G01*
X54548438Y-94959796D01*
X54584077Y-94978846D01*
X54615317Y-95004483D01*
X54640954Y-95035723D01*
X54660004Y-95071362D01*
X54671735Y-95110032D01*
X54676300Y-95156388D01*
X54676300Y-96232612D01*
X54671735Y-96278968D01*
X54660004Y-96317638D01*
X54640954Y-96353277D01*
X54615317Y-96384517D01*
X54584077Y-96410154D01*
X54548438Y-96429204D01*
X54509768Y-96440935D01*
X54463412Y-96445500D01*
X53812188Y-96445500D01*
X53765832Y-96440935D01*
X53727162Y-96429204D01*
X53691523Y-96410154D01*
X53660283Y-96384517D01*
X53634646Y-96353277D01*
X53615596Y-96317638D01*
X53603865Y-96278968D01*
X53599300Y-96232612D01*
X53599300Y-95156388D01*
X53603865Y-95110032D01*
X53615596Y-95071362D01*
X53634646Y-95035723D01*
X53660283Y-95004483D01*
X53691523Y-94978846D01*
X53727162Y-94959796D01*
X53765832Y-94948065D01*
X53812188Y-94943500D01*
X54463412Y-94943500D01*
X54509768Y-94948065D01*
X54509768Y-94948065D01*
G37*
G36*
X79435400Y-94126900D02*
G01*
X77333400Y-94126900D01*
X77333400Y-93224900D01*
X79435400Y-93224900D01*
X79435400Y-94126900D01*
X79435400Y-94126900D01*
G37*
G36*
X101357187Y-91027196D02*
G01*
X101593953Y-91125268D01*
X101593955Y-91125269D01*
X101807039Y-91267647D01*
X101988253Y-91448861D01*
X102130632Y-91661947D01*
X102228704Y-91898713D01*
X102278700Y-92150061D01*
X102278700Y-92406339D01*
X102228704Y-92657687D01*
X102130632Y-92894453D01*
X102130631Y-92894455D01*
X101988253Y-93107539D01*
X101807039Y-93288753D01*
X101593955Y-93431131D01*
X101593954Y-93431132D01*
X101593953Y-93431132D01*
X101357187Y-93529204D01*
X101105839Y-93579200D01*
X100849561Y-93579200D01*
X100598213Y-93529204D01*
X100361447Y-93431132D01*
X100361446Y-93431132D01*
X100361445Y-93431131D01*
X100148361Y-93288753D01*
X99967147Y-93107539D01*
X99824769Y-92894455D01*
X99824768Y-92894453D01*
X99726696Y-92657687D01*
X99676700Y-92406339D01*
X99676700Y-92150061D01*
X99726696Y-91898713D01*
X99824768Y-91661947D01*
X99967147Y-91448861D01*
X100148361Y-91267647D01*
X100361445Y-91125269D01*
X100361447Y-91125268D01*
X100598213Y-91027196D01*
X100849561Y-90977200D01*
X101105839Y-90977200D01*
X101357187Y-91027196D01*
X101357187Y-91027196D01*
G37*
G36*
X83577187Y-91027196D02*
G01*
X83813953Y-91125268D01*
X83813955Y-91125269D01*
X84027039Y-91267647D01*
X84208253Y-91448861D01*
X84350632Y-91661947D01*
X84448704Y-91898713D01*
X84498700Y-92150061D01*
X84498700Y-92406339D01*
X84448704Y-92657687D01*
X84350632Y-92894453D01*
X84350631Y-92894455D01*
X84208253Y-93107539D01*
X84027039Y-93288753D01*
X83813955Y-93431131D01*
X83813954Y-93431132D01*
X83813953Y-93431132D01*
X83577187Y-93529204D01*
X83325839Y-93579200D01*
X83069561Y-93579200D01*
X82818213Y-93529204D01*
X82581447Y-93431132D01*
X82581446Y-93431132D01*
X82581445Y-93431131D01*
X82368361Y-93288753D01*
X82187147Y-93107539D01*
X82044769Y-92894455D01*
X82044768Y-92894453D01*
X81946696Y-92657687D01*
X81896700Y-92406339D01*
X81896700Y-92150061D01*
X81946696Y-91898713D01*
X82044768Y-91661947D01*
X82187147Y-91448861D01*
X82368361Y-91267647D01*
X82581445Y-91125269D01*
X82581447Y-91125268D01*
X82818213Y-91027196D01*
X83069561Y-90977200D01*
X83325839Y-90977200D01*
X83577187Y-91027196D01*
X83577187Y-91027196D01*
G37*
G36*
X56108299Y-91897037D02*
G01*
X56117908Y-91899952D01*
X56126772Y-91904690D01*
X56134537Y-91911063D01*
X56144748Y-91923506D01*
X56151678Y-91933875D01*
X56169005Y-91951202D01*
X56189380Y-91964815D01*
X56212020Y-91974191D01*
X56236053Y-91978971D01*
X56260557Y-91978970D01*
X56284590Y-91974188D01*
X56307229Y-91964810D01*
X56327602Y-91951195D01*
X56344929Y-91933868D01*
X56351858Y-91923498D01*
X56362063Y-91911063D01*
X56369828Y-91904690D01*
X56378692Y-91899952D01*
X56388301Y-91897037D01*
X56404440Y-91895448D01*
X56892161Y-91895448D01*
X56910499Y-91897254D01*
X56922750Y-91897856D01*
X56941169Y-91897856D01*
X56963449Y-91900050D01*
X57047533Y-91916776D01*
X57068960Y-91923276D01*
X57148158Y-91956080D01*
X57153603Y-91958991D01*
X57153609Y-91958993D01*
X57162469Y-91963729D01*
X57162473Y-91963732D01*
X57167914Y-91966640D01*
X57239199Y-92014271D01*
X57256504Y-92028472D01*
X57317128Y-92089096D01*
X57331329Y-92106401D01*
X57378960Y-92177686D01*
X57381868Y-92183127D01*
X57381871Y-92183131D01*
X57386607Y-92191991D01*
X57386609Y-92191997D01*
X57389520Y-92197442D01*
X57422324Y-92276640D01*
X57428824Y-92298067D01*
X57445550Y-92382151D01*
X57447744Y-92404431D01*
X57447744Y-92422850D01*
X57448346Y-92435101D01*
X57450152Y-92453439D01*
X57450152Y-92941162D01*
X57448346Y-92959499D01*
X57447744Y-92971750D01*
X57447744Y-92990169D01*
X57445550Y-93012449D01*
X57428824Y-93096533D01*
X57422324Y-93117960D01*
X57389520Y-93197158D01*
X57386609Y-93202603D01*
X57386607Y-93202609D01*
X57381871Y-93211469D01*
X57381868Y-93211473D01*
X57378960Y-93216914D01*
X57331329Y-93288199D01*
X57317128Y-93305504D01*
X57256504Y-93366128D01*
X57239199Y-93380329D01*
X57167914Y-93427960D01*
X57162473Y-93430868D01*
X57162469Y-93430871D01*
X57153609Y-93435607D01*
X57153603Y-93435609D01*
X57148158Y-93438520D01*
X57068960Y-93471324D01*
X57047533Y-93477824D01*
X56963449Y-93494550D01*
X56941169Y-93496744D01*
X56922750Y-93496744D01*
X56910499Y-93497346D01*
X56892162Y-93499152D01*
X56404440Y-93499152D01*
X56388301Y-93497563D01*
X56378692Y-93494648D01*
X56369828Y-93489910D01*
X56362063Y-93483537D01*
X56351852Y-93471094D01*
X56344922Y-93460725D01*
X56327595Y-93443398D01*
X56307220Y-93429785D01*
X56284580Y-93420409D01*
X56260547Y-93415629D01*
X56236043Y-93415630D01*
X56212010Y-93420412D01*
X56189371Y-93429790D01*
X56168998Y-93443405D01*
X56151671Y-93460732D01*
X56144742Y-93471102D01*
X56134537Y-93483537D01*
X56126772Y-93489910D01*
X56117908Y-93494648D01*
X56108299Y-93497563D01*
X56092160Y-93499152D01*
X55604438Y-93499152D01*
X55586101Y-93497346D01*
X55573850Y-93496744D01*
X55555431Y-93496744D01*
X55533151Y-93494550D01*
X55449067Y-93477824D01*
X55427640Y-93471324D01*
X55348442Y-93438520D01*
X55342997Y-93435609D01*
X55342991Y-93435607D01*
X55334131Y-93430871D01*
X55334127Y-93430868D01*
X55328686Y-93427960D01*
X55257401Y-93380329D01*
X55240096Y-93366128D01*
X55179472Y-93305504D01*
X55165271Y-93288199D01*
X55117640Y-93216914D01*
X55114732Y-93211473D01*
X55114729Y-93211469D01*
X55109993Y-93202609D01*
X55109991Y-93202603D01*
X55107080Y-93197158D01*
X55074276Y-93117960D01*
X55067776Y-93096533D01*
X55051050Y-93012449D01*
X55048856Y-92990169D01*
X55048856Y-92971750D01*
X55048254Y-92959499D01*
X55046448Y-92941162D01*
X55046448Y-92453439D01*
X55048254Y-92435101D01*
X55048856Y-92422850D01*
X55048856Y-92404431D01*
X55051050Y-92382151D01*
X55067776Y-92298067D01*
X55074276Y-92276640D01*
X55107080Y-92197442D01*
X55109991Y-92191997D01*
X55109993Y-92191991D01*
X55114729Y-92183131D01*
X55114732Y-92183127D01*
X55117640Y-92177686D01*
X55165271Y-92106401D01*
X55179472Y-92089096D01*
X55240096Y-92028472D01*
X55257401Y-92014271D01*
X55328686Y-91966640D01*
X55334127Y-91963732D01*
X55334131Y-91963729D01*
X55342991Y-91958993D01*
X55342997Y-91958991D01*
X55348442Y-91956080D01*
X55427640Y-91923276D01*
X55449067Y-91916776D01*
X55533151Y-91900050D01*
X55555431Y-91897856D01*
X55573850Y-91897856D01*
X55586101Y-91897254D01*
X55604439Y-91895448D01*
X56092160Y-91895448D01*
X56108299Y-91897037D01*
X56108299Y-91897037D01*
G37*
G36*
X52596668Y-91950865D02*
G01*
X52635338Y-91962596D01*
X52670977Y-91981646D01*
X52702217Y-92007283D01*
X52727854Y-92038523D01*
X52746904Y-92074162D01*
X52758635Y-92112832D01*
X52763200Y-92159188D01*
X52763200Y-93235412D01*
X52758635Y-93281768D01*
X52746904Y-93320438D01*
X52727854Y-93356077D01*
X52702217Y-93387317D01*
X52670977Y-93412954D01*
X52635338Y-93432004D01*
X52596668Y-93443735D01*
X52550312Y-93448300D01*
X51899088Y-93448300D01*
X51852732Y-93443735D01*
X51814062Y-93432004D01*
X51778423Y-93412954D01*
X51747183Y-93387317D01*
X51721546Y-93356077D01*
X51702496Y-93320438D01*
X51690765Y-93281768D01*
X51686200Y-93235412D01*
X51686200Y-92159188D01*
X51690765Y-92112832D01*
X51702496Y-92074162D01*
X51721546Y-92038523D01*
X51747183Y-92007283D01*
X51778423Y-91981646D01*
X51814062Y-91962596D01*
X51852732Y-91950865D01*
X51899088Y-91946300D01*
X52550312Y-91946300D01*
X52596668Y-91950865D01*
X52596668Y-91950865D01*
G37*
G36*
X54471668Y-91950865D02*
G01*
X54510338Y-91962596D01*
X54545977Y-91981646D01*
X54577217Y-92007283D01*
X54602854Y-92038523D01*
X54621904Y-92074162D01*
X54633635Y-92112832D01*
X54638200Y-92159188D01*
X54638200Y-93235412D01*
X54633635Y-93281768D01*
X54621904Y-93320438D01*
X54602854Y-93356077D01*
X54577217Y-93387317D01*
X54545977Y-93412954D01*
X54510338Y-93432004D01*
X54471668Y-93443735D01*
X54425312Y-93448300D01*
X53774088Y-93448300D01*
X53727732Y-93443735D01*
X53689062Y-93432004D01*
X53653423Y-93412954D01*
X53622183Y-93387317D01*
X53596546Y-93356077D01*
X53577496Y-93320438D01*
X53565765Y-93281768D01*
X53561200Y-93235412D01*
X53561200Y-92159188D01*
X53565765Y-92112832D01*
X53577496Y-92074162D01*
X53596546Y-92038523D01*
X53622183Y-92007283D01*
X53653423Y-91981646D01*
X53689062Y-91962596D01*
X53727732Y-91950865D01*
X53774088Y-91946300D01*
X54425312Y-91946300D01*
X54471668Y-91950865D01*
X54471668Y-91950865D01*
G37*
G36*
X49345468Y-91942398D02*
G01*
X49384138Y-91954129D01*
X49419777Y-91973179D01*
X49451017Y-91998816D01*
X49476654Y-92030056D01*
X49495704Y-92065695D01*
X49507435Y-92104365D01*
X49512000Y-92150721D01*
X49512000Y-93226945D01*
X49507435Y-93273301D01*
X49495704Y-93311971D01*
X49476654Y-93347610D01*
X49451017Y-93378850D01*
X49419777Y-93404487D01*
X49384138Y-93423537D01*
X49345468Y-93435268D01*
X49299112Y-93439833D01*
X48647888Y-93439833D01*
X48601532Y-93435268D01*
X48562862Y-93423537D01*
X48527223Y-93404487D01*
X48495983Y-93378850D01*
X48470346Y-93347610D01*
X48451296Y-93311971D01*
X48439565Y-93273301D01*
X48435000Y-93226945D01*
X48435000Y-92150721D01*
X48439565Y-92104365D01*
X48451296Y-92065695D01*
X48470346Y-92030056D01*
X48495983Y-91998816D01*
X48527223Y-91973179D01*
X48562862Y-91954129D01*
X48601532Y-91942398D01*
X48647888Y-91937833D01*
X49299112Y-91937833D01*
X49345468Y-91942398D01*
X49345468Y-91942398D01*
G37*
G36*
X51220468Y-91942398D02*
G01*
X51259138Y-91954129D01*
X51294777Y-91973179D01*
X51326017Y-91998816D01*
X51351654Y-92030056D01*
X51370704Y-92065695D01*
X51382435Y-92104365D01*
X51387000Y-92150721D01*
X51387000Y-93226945D01*
X51382435Y-93273301D01*
X51370704Y-93311971D01*
X51351654Y-93347610D01*
X51326017Y-93378850D01*
X51294777Y-93404487D01*
X51259138Y-93423537D01*
X51220468Y-93435268D01*
X51174112Y-93439833D01*
X50522888Y-93439833D01*
X50476532Y-93435268D01*
X50437862Y-93423537D01*
X50402223Y-93404487D01*
X50370983Y-93378850D01*
X50345346Y-93347610D01*
X50326296Y-93311971D01*
X50314565Y-93273301D01*
X50310000Y-93226945D01*
X50310000Y-92150721D01*
X50314565Y-92104365D01*
X50326296Y-92065695D01*
X50345346Y-92030056D01*
X50370983Y-91998816D01*
X50402223Y-91973179D01*
X50437862Y-91954129D01*
X50476532Y-91942398D01*
X50522888Y-91937833D01*
X51174112Y-91937833D01*
X51220468Y-91942398D01*
X51220468Y-91942398D01*
G37*
G36*
X79435400Y-92626900D02*
G01*
X77333400Y-92626900D01*
X77333400Y-91724900D01*
X79435400Y-91724900D01*
X79435400Y-92626900D01*
X79435400Y-92626900D01*
G37*
G36*
X56120999Y-88493437D02*
G01*
X56130608Y-88496352D01*
X56139472Y-88501090D01*
X56147237Y-88507463D01*
X56157448Y-88519906D01*
X56164378Y-88530275D01*
X56181705Y-88547602D01*
X56202080Y-88561215D01*
X56224720Y-88570591D01*
X56248753Y-88575371D01*
X56273257Y-88575370D01*
X56297290Y-88570588D01*
X56319929Y-88561210D01*
X56340302Y-88547595D01*
X56357629Y-88530268D01*
X56364558Y-88519898D01*
X56374763Y-88507463D01*
X56382528Y-88501090D01*
X56391392Y-88496352D01*
X56401001Y-88493437D01*
X56417140Y-88491848D01*
X56904861Y-88491848D01*
X56923199Y-88493654D01*
X56935450Y-88494256D01*
X56953869Y-88494256D01*
X56976149Y-88496450D01*
X57060233Y-88513176D01*
X57081660Y-88519676D01*
X57160858Y-88552480D01*
X57166303Y-88555391D01*
X57166309Y-88555393D01*
X57175169Y-88560129D01*
X57175173Y-88560132D01*
X57180614Y-88563040D01*
X57251899Y-88610671D01*
X57269204Y-88624872D01*
X57329828Y-88685496D01*
X57344029Y-88702801D01*
X57391660Y-88774086D01*
X57394568Y-88779527D01*
X57394571Y-88779531D01*
X57399307Y-88788391D01*
X57399309Y-88788397D01*
X57402220Y-88793842D01*
X57435024Y-88873040D01*
X57441524Y-88894467D01*
X57458250Y-88978551D01*
X57460444Y-89000831D01*
X57460444Y-89019250D01*
X57461046Y-89031501D01*
X57462852Y-89049839D01*
X57462852Y-89537562D01*
X57461046Y-89555899D01*
X57460444Y-89568150D01*
X57460444Y-89586569D01*
X57458250Y-89608849D01*
X57441524Y-89692933D01*
X57435024Y-89714360D01*
X57402220Y-89793558D01*
X57399309Y-89799003D01*
X57399307Y-89799009D01*
X57394571Y-89807869D01*
X57394568Y-89807873D01*
X57391660Y-89813314D01*
X57344029Y-89884599D01*
X57329828Y-89901904D01*
X57269204Y-89962528D01*
X57251899Y-89976729D01*
X57180614Y-90024360D01*
X57175173Y-90027268D01*
X57175169Y-90027271D01*
X57166309Y-90032007D01*
X57166303Y-90032009D01*
X57160858Y-90034920D01*
X57081660Y-90067724D01*
X57060233Y-90074224D01*
X56976149Y-90090950D01*
X56953869Y-90093144D01*
X56935450Y-90093144D01*
X56923199Y-90093746D01*
X56904862Y-90095552D01*
X56417140Y-90095552D01*
X56401001Y-90093963D01*
X56391392Y-90091048D01*
X56382528Y-90086310D01*
X56374763Y-90079937D01*
X56364552Y-90067494D01*
X56357622Y-90057125D01*
X56340295Y-90039798D01*
X56319920Y-90026185D01*
X56297280Y-90016809D01*
X56273247Y-90012029D01*
X56248743Y-90012030D01*
X56224710Y-90016812D01*
X56202071Y-90026190D01*
X56181698Y-90039805D01*
X56164371Y-90057132D01*
X56157442Y-90067502D01*
X56147237Y-90079937D01*
X56139472Y-90086310D01*
X56130608Y-90091048D01*
X56120999Y-90093963D01*
X56104860Y-90095552D01*
X55617138Y-90095552D01*
X55598801Y-90093746D01*
X55586550Y-90093144D01*
X55568131Y-90093144D01*
X55545851Y-90090950D01*
X55461767Y-90074224D01*
X55440340Y-90067724D01*
X55361142Y-90034920D01*
X55355697Y-90032009D01*
X55355691Y-90032007D01*
X55346831Y-90027271D01*
X55346827Y-90027268D01*
X55341386Y-90024360D01*
X55270101Y-89976729D01*
X55252796Y-89962528D01*
X55192172Y-89901904D01*
X55177971Y-89884599D01*
X55130340Y-89813314D01*
X55127432Y-89807873D01*
X55127429Y-89807869D01*
X55122693Y-89799009D01*
X55122691Y-89799003D01*
X55119780Y-89793558D01*
X55086976Y-89714360D01*
X55080476Y-89692933D01*
X55063750Y-89608849D01*
X55061556Y-89586569D01*
X55061556Y-89568150D01*
X55060954Y-89555899D01*
X55059148Y-89537562D01*
X55059148Y-89049839D01*
X55060954Y-89031501D01*
X55061556Y-89019250D01*
X55061556Y-89000831D01*
X55063750Y-88978551D01*
X55080476Y-88894467D01*
X55086976Y-88873040D01*
X55119780Y-88793842D01*
X55122691Y-88788397D01*
X55122693Y-88788391D01*
X55127429Y-88779531D01*
X55127432Y-88779527D01*
X55130340Y-88774086D01*
X55177971Y-88702801D01*
X55192172Y-88685496D01*
X55252796Y-88624872D01*
X55270101Y-88610671D01*
X55341386Y-88563040D01*
X55346827Y-88560132D01*
X55346831Y-88560129D01*
X55355691Y-88555393D01*
X55355697Y-88555391D01*
X55361142Y-88552480D01*
X55440340Y-88519676D01*
X55461767Y-88513176D01*
X55545851Y-88496450D01*
X55568131Y-88494256D01*
X55586550Y-88494256D01*
X55598801Y-88493654D01*
X55617139Y-88491848D01*
X56104860Y-88491848D01*
X56120999Y-88493437D01*
X56120999Y-88493437D01*
G37*
G36*
X54484368Y-88547265D02*
G01*
X54523038Y-88558996D01*
X54558677Y-88578046D01*
X54589917Y-88603683D01*
X54615554Y-88634923D01*
X54634604Y-88670562D01*
X54646335Y-88709232D01*
X54650900Y-88755588D01*
X54650900Y-89831812D01*
X54646335Y-89878168D01*
X54634604Y-89916838D01*
X54615554Y-89952477D01*
X54589917Y-89983717D01*
X54558677Y-90009354D01*
X54523038Y-90028404D01*
X54484368Y-90040135D01*
X54438012Y-90044700D01*
X53786788Y-90044700D01*
X53740432Y-90040135D01*
X53701762Y-90028404D01*
X53666123Y-90009354D01*
X53634883Y-89983717D01*
X53609246Y-89952477D01*
X53590196Y-89916838D01*
X53578465Y-89878168D01*
X53573900Y-89831812D01*
X53573900Y-88755588D01*
X53578465Y-88709232D01*
X53590196Y-88670562D01*
X53609246Y-88634923D01*
X53634883Y-88603683D01*
X53666123Y-88578046D01*
X53701762Y-88558996D01*
X53740432Y-88547265D01*
X53786788Y-88542700D01*
X54438012Y-88542700D01*
X54484368Y-88547265D01*
X54484368Y-88547265D01*
G37*
G36*
X52609368Y-88547265D02*
G01*
X52648038Y-88558996D01*
X52683677Y-88578046D01*
X52714917Y-88603683D01*
X52740554Y-88634923D01*
X52759604Y-88670562D01*
X52771335Y-88709232D01*
X52775900Y-88755588D01*
X52775900Y-89831812D01*
X52771335Y-89878168D01*
X52759604Y-89916838D01*
X52740554Y-89952477D01*
X52714917Y-89983717D01*
X52683677Y-90009354D01*
X52648038Y-90028404D01*
X52609368Y-90040135D01*
X52563012Y-90044700D01*
X51911788Y-90044700D01*
X51865432Y-90040135D01*
X51826762Y-90028404D01*
X51791123Y-90009354D01*
X51759883Y-89983717D01*
X51734246Y-89952477D01*
X51715196Y-89916838D01*
X51703465Y-89878168D01*
X51698900Y-89831812D01*
X51698900Y-88755588D01*
X51703465Y-88709232D01*
X51715196Y-88670562D01*
X51734246Y-88634923D01*
X51759883Y-88603683D01*
X51791123Y-88578046D01*
X51826762Y-88558996D01*
X51865432Y-88547265D01*
X51911788Y-88542700D01*
X52563012Y-88542700D01*
X52609368Y-88547265D01*
X52609368Y-88547265D01*
G37*
G36*
X49358168Y-88547265D02*
G01*
X49396838Y-88558996D01*
X49432477Y-88578046D01*
X49463717Y-88603683D01*
X49489354Y-88634923D01*
X49508404Y-88670562D01*
X49520135Y-88709232D01*
X49524700Y-88755588D01*
X49524700Y-89831812D01*
X49520135Y-89878168D01*
X49508404Y-89916838D01*
X49489354Y-89952477D01*
X49463717Y-89983717D01*
X49432477Y-90009354D01*
X49396838Y-90028404D01*
X49358168Y-90040135D01*
X49311812Y-90044700D01*
X48660588Y-90044700D01*
X48614232Y-90040135D01*
X48575562Y-90028404D01*
X48539923Y-90009354D01*
X48508683Y-89983717D01*
X48483046Y-89952477D01*
X48463996Y-89916838D01*
X48452265Y-89878168D01*
X48447700Y-89831812D01*
X48447700Y-88755588D01*
X48452265Y-88709232D01*
X48463996Y-88670562D01*
X48483046Y-88634923D01*
X48508683Y-88603683D01*
X48539923Y-88578046D01*
X48575562Y-88558996D01*
X48614232Y-88547265D01*
X48660588Y-88542700D01*
X49311812Y-88542700D01*
X49358168Y-88547265D01*
X49358168Y-88547265D01*
G37*
G36*
X51233168Y-88547265D02*
G01*
X51271838Y-88558996D01*
X51307477Y-88578046D01*
X51338717Y-88603683D01*
X51364354Y-88634923D01*
X51383404Y-88670562D01*
X51395135Y-88709232D01*
X51399700Y-88755588D01*
X51399700Y-89831812D01*
X51395135Y-89878168D01*
X51383404Y-89916838D01*
X51364354Y-89952477D01*
X51338717Y-89983717D01*
X51307477Y-90009354D01*
X51271838Y-90028404D01*
X51233168Y-90040135D01*
X51186812Y-90044700D01*
X50535588Y-90044700D01*
X50489232Y-90040135D01*
X50450562Y-90028404D01*
X50414923Y-90009354D01*
X50383683Y-89983717D01*
X50358046Y-89952477D01*
X50338996Y-89916838D01*
X50327265Y-89878168D01*
X50322700Y-89831812D01*
X50322700Y-88755588D01*
X50327265Y-88709232D01*
X50338996Y-88670562D01*
X50358046Y-88634923D01*
X50383683Y-88603683D01*
X50414923Y-88578046D01*
X50450562Y-88558996D01*
X50489232Y-88547265D01*
X50535588Y-88542700D01*
X51186812Y-88542700D01*
X51233168Y-88547265D01*
X51233168Y-88547265D01*
G37*
G36*
X82038142Y-87573718D02*
G01*
X82104327Y-87580237D01*
X82274166Y-87631757D01*
X82430691Y-87715422D01*
X82466429Y-87744752D01*
X82567886Y-87828014D01*
X82651148Y-87929471D01*
X82680478Y-87965209D01*
X82764143Y-88121734D01*
X82815663Y-88291573D01*
X82833059Y-88468200D01*
X82815663Y-88644827D01*
X82764143Y-88814666D01*
X82680478Y-88971191D01*
X82669397Y-88984693D01*
X82567886Y-89108386D01*
X82466429Y-89191648D01*
X82430691Y-89220978D01*
X82274166Y-89304643D01*
X82104327Y-89356163D01*
X82038143Y-89362681D01*
X81971960Y-89369200D01*
X81883440Y-89369200D01*
X81817257Y-89362681D01*
X81751073Y-89356163D01*
X81581234Y-89304643D01*
X81424709Y-89220978D01*
X81388971Y-89191648D01*
X81287514Y-89108386D01*
X81186003Y-88984693D01*
X81174922Y-88971191D01*
X81091257Y-88814666D01*
X81039737Y-88644827D01*
X81022341Y-88468200D01*
X81039737Y-88291573D01*
X81091257Y-88121734D01*
X81174922Y-87965209D01*
X81204252Y-87929471D01*
X81287514Y-87828014D01*
X81388971Y-87744752D01*
X81424709Y-87715422D01*
X81581234Y-87631757D01*
X81751073Y-87580237D01*
X81817258Y-87573718D01*
X81883440Y-87567200D01*
X81971960Y-87567200D01*
X82038142Y-87573718D01*
X82038142Y-87573718D01*
G37*
G36*
X102358142Y-87573718D02*
G01*
X102424327Y-87580237D01*
X102594166Y-87631757D01*
X102750691Y-87715422D01*
X102786429Y-87744752D01*
X102887886Y-87828014D01*
X102971148Y-87929471D01*
X103000478Y-87965209D01*
X103084143Y-88121734D01*
X103135663Y-88291573D01*
X103153059Y-88468200D01*
X103135663Y-88644827D01*
X103084143Y-88814666D01*
X103000478Y-88971191D01*
X102989397Y-88984693D01*
X102887886Y-89108386D01*
X102786429Y-89191648D01*
X102750691Y-89220978D01*
X102594166Y-89304643D01*
X102424327Y-89356163D01*
X102358143Y-89362681D01*
X102291960Y-89369200D01*
X102203440Y-89369200D01*
X102137257Y-89362681D01*
X102071073Y-89356163D01*
X101901234Y-89304643D01*
X101744709Y-89220978D01*
X101708971Y-89191648D01*
X101607514Y-89108386D01*
X101506003Y-88984693D01*
X101494922Y-88971191D01*
X101411257Y-88814666D01*
X101359737Y-88644827D01*
X101342341Y-88468200D01*
X101359737Y-88291573D01*
X101411257Y-88121734D01*
X101494922Y-87965209D01*
X101524252Y-87929471D01*
X101607514Y-87828014D01*
X101708971Y-87744752D01*
X101744709Y-87715422D01*
X101901234Y-87631757D01*
X102071073Y-87580237D01*
X102137258Y-87573718D01*
X102203440Y-87567200D01*
X102291960Y-87567200D01*
X102358142Y-87573718D01*
X102358142Y-87573718D01*
G37*
G36*
X71756368Y-86083465D02*
G01*
X71795038Y-86095196D01*
X71830677Y-86114246D01*
X71861917Y-86139883D01*
X71887554Y-86171123D01*
X71906604Y-86206762D01*
X71918335Y-86245432D01*
X71922900Y-86291788D01*
X71922900Y-87368012D01*
X71918335Y-87414368D01*
X71906604Y-87453038D01*
X71887554Y-87488677D01*
X71861917Y-87519917D01*
X71830677Y-87545554D01*
X71795038Y-87564604D01*
X71756368Y-87576335D01*
X71710012Y-87580900D01*
X71058788Y-87580900D01*
X71012432Y-87576335D01*
X70973762Y-87564604D01*
X70938123Y-87545554D01*
X70906883Y-87519917D01*
X70881246Y-87488677D01*
X70862196Y-87453038D01*
X70850465Y-87414368D01*
X70845900Y-87368012D01*
X70845900Y-86291788D01*
X70850465Y-86245432D01*
X70862196Y-86206762D01*
X70881246Y-86171123D01*
X70906883Y-86139883D01*
X70938123Y-86114246D01*
X70973762Y-86095196D01*
X71012432Y-86083465D01*
X71058788Y-86078900D01*
X71710012Y-86078900D01*
X71756368Y-86083465D01*
X71756368Y-86083465D01*
G37*
G36*
X69881368Y-86083465D02*
G01*
X69920038Y-86095196D01*
X69955677Y-86114246D01*
X69986917Y-86139883D01*
X70012554Y-86171123D01*
X70031604Y-86206762D01*
X70043335Y-86245432D01*
X70047900Y-86291788D01*
X70047900Y-87368012D01*
X70043335Y-87414368D01*
X70031604Y-87453038D01*
X70012554Y-87488677D01*
X69986917Y-87519917D01*
X69955677Y-87545554D01*
X69920038Y-87564604D01*
X69881368Y-87576335D01*
X69835012Y-87580900D01*
X69183788Y-87580900D01*
X69137432Y-87576335D01*
X69098762Y-87564604D01*
X69063123Y-87545554D01*
X69031883Y-87519917D01*
X69006246Y-87488677D01*
X68987196Y-87453038D01*
X68975465Y-87414368D01*
X68970900Y-87368012D01*
X68970900Y-86291788D01*
X68975465Y-86245432D01*
X68987196Y-86206762D01*
X69006246Y-86171123D01*
X69031883Y-86139883D01*
X69063123Y-86114246D01*
X69098762Y-86095196D01*
X69137432Y-86083465D01*
X69183788Y-86078900D01*
X69835012Y-86078900D01*
X69881368Y-86083465D01*
X69881368Y-86083465D01*
G37*
G36*
X102358143Y-85033719D02*
G01*
X102424327Y-85040237D01*
X102594166Y-85091757D01*
X102750691Y-85175422D01*
X102770573Y-85191739D01*
X102887886Y-85288014D01*
X102971148Y-85389471D01*
X103000478Y-85425209D01*
X103084143Y-85581734D01*
X103135663Y-85751573D01*
X103153059Y-85928200D01*
X103135663Y-86104827D01*
X103084143Y-86274666D01*
X103000478Y-86431191D01*
X102971148Y-86466929D01*
X102887886Y-86568386D01*
X102786429Y-86651648D01*
X102750691Y-86680978D01*
X102594166Y-86764643D01*
X102424327Y-86816163D01*
X102358143Y-86822681D01*
X102291960Y-86829200D01*
X102203440Y-86829200D01*
X102137257Y-86822681D01*
X102071073Y-86816163D01*
X101901234Y-86764643D01*
X101744709Y-86680978D01*
X101708971Y-86651648D01*
X101607514Y-86568386D01*
X101524252Y-86466929D01*
X101494922Y-86431191D01*
X101411257Y-86274666D01*
X101359737Y-86104827D01*
X101342341Y-85928200D01*
X101359737Y-85751573D01*
X101411257Y-85581734D01*
X101494922Y-85425209D01*
X101524252Y-85389471D01*
X101607514Y-85288014D01*
X101724827Y-85191739D01*
X101744709Y-85175422D01*
X101901234Y-85091757D01*
X102071073Y-85040237D01*
X102137257Y-85033719D01*
X102203440Y-85027200D01*
X102291960Y-85027200D01*
X102358143Y-85033719D01*
X102358143Y-85033719D01*
G37*
G36*
X82038143Y-85033719D02*
G01*
X82104327Y-85040237D01*
X82274166Y-85091757D01*
X82430691Y-85175422D01*
X82450573Y-85191739D01*
X82567886Y-85288014D01*
X82651148Y-85389471D01*
X82680478Y-85425209D01*
X82764143Y-85581734D01*
X82815663Y-85751573D01*
X82833059Y-85928200D01*
X82815663Y-86104827D01*
X82764143Y-86274666D01*
X82680478Y-86431191D01*
X82651148Y-86466929D01*
X82567886Y-86568386D01*
X82466429Y-86651648D01*
X82430691Y-86680978D01*
X82274166Y-86764643D01*
X82104327Y-86816163D01*
X82038143Y-86822681D01*
X81971960Y-86829200D01*
X81883440Y-86829200D01*
X81817257Y-86822681D01*
X81751073Y-86816163D01*
X81581234Y-86764643D01*
X81424709Y-86680978D01*
X81388971Y-86651648D01*
X81287514Y-86568386D01*
X81204252Y-86466929D01*
X81174922Y-86431191D01*
X81091257Y-86274666D01*
X81039737Y-86104827D01*
X81022341Y-85928200D01*
X81039737Y-85751573D01*
X81091257Y-85581734D01*
X81174922Y-85425209D01*
X81204252Y-85389471D01*
X81287514Y-85288014D01*
X81404827Y-85191739D01*
X81424709Y-85175422D01*
X81581234Y-85091757D01*
X81751073Y-85040237D01*
X81817257Y-85033719D01*
X81883440Y-85027200D01*
X81971960Y-85027200D01*
X82038143Y-85033719D01*
X82038143Y-85033719D01*
G37*
G36*
X64694068Y-84998265D02*
G01*
X64732738Y-85009996D01*
X64768377Y-85029046D01*
X64799617Y-85054683D01*
X64825254Y-85085923D01*
X64844304Y-85121562D01*
X64856035Y-85160232D01*
X64860600Y-85206588D01*
X64860600Y-85857812D01*
X64856035Y-85904168D01*
X64844304Y-85942838D01*
X64825254Y-85978477D01*
X64799617Y-86009717D01*
X64768377Y-86035354D01*
X64732738Y-86054404D01*
X64694068Y-86066135D01*
X64647712Y-86070700D01*
X63571488Y-86070700D01*
X63525132Y-86066135D01*
X63486462Y-86054404D01*
X63450823Y-86035354D01*
X63419583Y-86009717D01*
X63393946Y-85978477D01*
X63374896Y-85942838D01*
X63363165Y-85904168D01*
X63358600Y-85857812D01*
X63358600Y-85206588D01*
X63363165Y-85160232D01*
X63374896Y-85121562D01*
X63393946Y-85085923D01*
X63419583Y-85054683D01*
X63450823Y-85029046D01*
X63486462Y-85009996D01*
X63525132Y-84998265D01*
X63571488Y-84993700D01*
X64647712Y-84993700D01*
X64694068Y-84998265D01*
X64694068Y-84998265D01*
G37*
G36*
X66497468Y-84998265D02*
G01*
X66536138Y-85009996D01*
X66571777Y-85029046D01*
X66603017Y-85054683D01*
X66628654Y-85085923D01*
X66647704Y-85121562D01*
X66659435Y-85160232D01*
X66664000Y-85206588D01*
X66664000Y-85857812D01*
X66659435Y-85904168D01*
X66647704Y-85942838D01*
X66628654Y-85978477D01*
X66603017Y-86009717D01*
X66571777Y-86035354D01*
X66536138Y-86054404D01*
X66497468Y-86066135D01*
X66451112Y-86070700D01*
X65374888Y-86070700D01*
X65328532Y-86066135D01*
X65289862Y-86054404D01*
X65254223Y-86035354D01*
X65222983Y-86009717D01*
X65197346Y-85978477D01*
X65178296Y-85942838D01*
X65166565Y-85904168D01*
X65162000Y-85857812D01*
X65162000Y-85206588D01*
X65166565Y-85160232D01*
X65178296Y-85121562D01*
X65197346Y-85085923D01*
X65222983Y-85054683D01*
X65254223Y-85029046D01*
X65289862Y-85009996D01*
X65328532Y-84998265D01*
X65374888Y-84993700D01*
X66451112Y-84993700D01*
X66497468Y-84998265D01*
X66497468Y-84998265D01*
G37*
G36*
X71769068Y-84241965D02*
G01*
X71807738Y-84253696D01*
X71843377Y-84272746D01*
X71874617Y-84298383D01*
X71900254Y-84329623D01*
X71919304Y-84365262D01*
X71931035Y-84403932D01*
X71935600Y-84450288D01*
X71935600Y-85526512D01*
X71931035Y-85572868D01*
X71919304Y-85611538D01*
X71900254Y-85647177D01*
X71874617Y-85678417D01*
X71843377Y-85704054D01*
X71807738Y-85723104D01*
X71769068Y-85734835D01*
X71722712Y-85739400D01*
X71071488Y-85739400D01*
X71025132Y-85734835D01*
X70986462Y-85723104D01*
X70950823Y-85704054D01*
X70919583Y-85678417D01*
X70893946Y-85647177D01*
X70874896Y-85611538D01*
X70863165Y-85572868D01*
X70858600Y-85526512D01*
X70858600Y-84450288D01*
X70863165Y-84403932D01*
X70874896Y-84365262D01*
X70893946Y-84329623D01*
X70919583Y-84298383D01*
X70950823Y-84272746D01*
X70986462Y-84253696D01*
X71025132Y-84241965D01*
X71071488Y-84237400D01*
X71722712Y-84237400D01*
X71769068Y-84241965D01*
X71769068Y-84241965D01*
G37*
G36*
X69894068Y-84241965D02*
G01*
X69932738Y-84253696D01*
X69968377Y-84272746D01*
X69999617Y-84298383D01*
X70025254Y-84329623D01*
X70044304Y-84365262D01*
X70056035Y-84403932D01*
X70060600Y-84450288D01*
X70060600Y-85526512D01*
X70056035Y-85572868D01*
X70044304Y-85611538D01*
X70025254Y-85647177D01*
X69999617Y-85678417D01*
X69968377Y-85704054D01*
X69932738Y-85723104D01*
X69894068Y-85734835D01*
X69847712Y-85739400D01*
X69196488Y-85739400D01*
X69150132Y-85734835D01*
X69111462Y-85723104D01*
X69075823Y-85704054D01*
X69044583Y-85678417D01*
X69018946Y-85647177D01*
X68999896Y-85611538D01*
X68988165Y-85572868D01*
X68983600Y-85526512D01*
X68983600Y-84450288D01*
X68988165Y-84403932D01*
X68999896Y-84365262D01*
X69018946Y-84329623D01*
X69044583Y-84298383D01*
X69075823Y-84272746D01*
X69111462Y-84253696D01*
X69150132Y-84241965D01*
X69196488Y-84237400D01*
X69847712Y-84237400D01*
X69894068Y-84241965D01*
X69894068Y-84241965D01*
G37*
G36*
X52108368Y-84210865D02*
G01*
X52147038Y-84222596D01*
X52182677Y-84241646D01*
X52213917Y-84267283D01*
X52239554Y-84298523D01*
X52258604Y-84334162D01*
X52270335Y-84372832D01*
X52274900Y-84419188D01*
X52274900Y-85070412D01*
X52270335Y-85116768D01*
X52258604Y-85155438D01*
X52239554Y-85191077D01*
X52213917Y-85222317D01*
X52182677Y-85247954D01*
X52147038Y-85267004D01*
X52108368Y-85278735D01*
X52062012Y-85283300D01*
X50985788Y-85283300D01*
X50939432Y-85278735D01*
X50900762Y-85267004D01*
X50865123Y-85247954D01*
X50833883Y-85222317D01*
X50808246Y-85191077D01*
X50789196Y-85155438D01*
X50777465Y-85116768D01*
X50772900Y-85070412D01*
X50772900Y-84419188D01*
X50777465Y-84372832D01*
X50789196Y-84334162D01*
X50808246Y-84298523D01*
X50833883Y-84267283D01*
X50865123Y-84241646D01*
X50900762Y-84222596D01*
X50939432Y-84210865D01*
X50985788Y-84206300D01*
X52062012Y-84206300D01*
X52108368Y-84210865D01*
X52108368Y-84210865D01*
G37*
G36*
X54343568Y-84198165D02*
G01*
X54382238Y-84209896D01*
X54417877Y-84228946D01*
X54449117Y-84254583D01*
X54474754Y-84285823D01*
X54493804Y-84321462D01*
X54505535Y-84360132D01*
X54510100Y-84406488D01*
X54510100Y-85057712D01*
X54505535Y-85104068D01*
X54493804Y-85142738D01*
X54474754Y-85178377D01*
X54449117Y-85209617D01*
X54417877Y-85235254D01*
X54382238Y-85254304D01*
X54343568Y-85266035D01*
X54297212Y-85270600D01*
X53220988Y-85270600D01*
X53174632Y-85266035D01*
X53135962Y-85254304D01*
X53100323Y-85235254D01*
X53069083Y-85209617D01*
X53043446Y-85178377D01*
X53024396Y-85142738D01*
X53012665Y-85104068D01*
X53008100Y-85057712D01*
X53008100Y-84406488D01*
X53012665Y-84360132D01*
X53024396Y-84321462D01*
X53043446Y-84285823D01*
X53069083Y-84254583D01*
X53100323Y-84228946D01*
X53135962Y-84209896D01*
X53174632Y-84198165D01*
X53220988Y-84193600D01*
X54297212Y-84193600D01*
X54343568Y-84198165D01*
X54343568Y-84198165D01*
G37*
G36*
X82038143Y-82493719D02*
G01*
X82104327Y-82500237D01*
X82274166Y-82551757D01*
X82430691Y-82635422D01*
X82466429Y-82664752D01*
X82567886Y-82748014D01*
X82627865Y-82821100D01*
X82680478Y-82885209D01*
X82764143Y-83041734D01*
X82815663Y-83211573D01*
X82833059Y-83388200D01*
X82815663Y-83564827D01*
X82764143Y-83734666D01*
X82680478Y-83891191D01*
X82651541Y-83926450D01*
X82567886Y-84028386D01*
X82476386Y-84103477D01*
X82430691Y-84140978D01*
X82430689Y-84140979D01*
X82301756Y-84209896D01*
X82274166Y-84224643D01*
X82104327Y-84276163D01*
X82038142Y-84282682D01*
X81971960Y-84289200D01*
X81883440Y-84289200D01*
X81817258Y-84282682D01*
X81751073Y-84276163D01*
X81581234Y-84224643D01*
X81553645Y-84209896D01*
X81424711Y-84140979D01*
X81424709Y-84140978D01*
X81379014Y-84103477D01*
X81287514Y-84028386D01*
X81203859Y-83926450D01*
X81174922Y-83891191D01*
X81091257Y-83734666D01*
X81039737Y-83564827D01*
X81022341Y-83388200D01*
X81039737Y-83211573D01*
X81091257Y-83041734D01*
X81174922Y-82885209D01*
X81227535Y-82821100D01*
X81287514Y-82748014D01*
X81388971Y-82664752D01*
X81424709Y-82635422D01*
X81581234Y-82551757D01*
X81751073Y-82500237D01*
X81817257Y-82493719D01*
X81883440Y-82487200D01*
X81971960Y-82487200D01*
X82038143Y-82493719D01*
X82038143Y-82493719D01*
G37*
G36*
X102358143Y-82493719D02*
G01*
X102424327Y-82500237D01*
X102594166Y-82551757D01*
X102750691Y-82635422D01*
X102786429Y-82664752D01*
X102887886Y-82748014D01*
X102947865Y-82821100D01*
X103000478Y-82885209D01*
X103084143Y-83041734D01*
X103135663Y-83211573D01*
X103153059Y-83388200D01*
X103135663Y-83564827D01*
X103084143Y-83734666D01*
X103000478Y-83891191D01*
X102971541Y-83926450D01*
X102887886Y-84028386D01*
X102796386Y-84103477D01*
X102750691Y-84140978D01*
X102750689Y-84140979D01*
X102621756Y-84209896D01*
X102594166Y-84224643D01*
X102424327Y-84276163D01*
X102358142Y-84282682D01*
X102291960Y-84289200D01*
X102203440Y-84289200D01*
X102137258Y-84282682D01*
X102071073Y-84276163D01*
X101901234Y-84224643D01*
X101873645Y-84209896D01*
X101744711Y-84140979D01*
X101744709Y-84140978D01*
X101699014Y-84103477D01*
X101607514Y-84028386D01*
X101523859Y-83926450D01*
X101494922Y-83891191D01*
X101411257Y-83734666D01*
X101359737Y-83564827D01*
X101342341Y-83388200D01*
X101359737Y-83211573D01*
X101411257Y-83041734D01*
X101494922Y-82885209D01*
X101547535Y-82821100D01*
X101607514Y-82748014D01*
X101708971Y-82664752D01*
X101744709Y-82635422D01*
X101901234Y-82551757D01*
X102071073Y-82500237D01*
X102137257Y-82493719D01*
X102203440Y-82487200D01*
X102291960Y-82487200D01*
X102358143Y-82493719D01*
X102358143Y-82493719D01*
G37*
G36*
X66497468Y-83123265D02*
G01*
X66536138Y-83134996D01*
X66571777Y-83154046D01*
X66603017Y-83179683D01*
X66628654Y-83210923D01*
X66647704Y-83246562D01*
X66659435Y-83285232D01*
X66664000Y-83331588D01*
X66664000Y-83982812D01*
X66659435Y-84029168D01*
X66647704Y-84067838D01*
X66628654Y-84103477D01*
X66603017Y-84134717D01*
X66571777Y-84160354D01*
X66536138Y-84179404D01*
X66497468Y-84191135D01*
X66451112Y-84195700D01*
X65374888Y-84195700D01*
X65328532Y-84191135D01*
X65289862Y-84179404D01*
X65254223Y-84160354D01*
X65222983Y-84134717D01*
X65197346Y-84103477D01*
X65178296Y-84067838D01*
X65166565Y-84029168D01*
X65162000Y-83982812D01*
X65162000Y-83331588D01*
X65166565Y-83285232D01*
X65178296Y-83246562D01*
X65197346Y-83210923D01*
X65222983Y-83179683D01*
X65254223Y-83154046D01*
X65289862Y-83134996D01*
X65328532Y-83123265D01*
X65374888Y-83118700D01*
X66451112Y-83118700D01*
X66497468Y-83123265D01*
X66497468Y-83123265D01*
G37*
G36*
X64694068Y-83123265D02*
G01*
X64732738Y-83134996D01*
X64768377Y-83154046D01*
X64799617Y-83179683D01*
X64825254Y-83210923D01*
X64844304Y-83246562D01*
X64856035Y-83285232D01*
X64860600Y-83331588D01*
X64860600Y-83982812D01*
X64856035Y-84029168D01*
X64844304Y-84067838D01*
X64825254Y-84103477D01*
X64799617Y-84134717D01*
X64768377Y-84160354D01*
X64732738Y-84179404D01*
X64694068Y-84191135D01*
X64647712Y-84195700D01*
X63571488Y-84195700D01*
X63525132Y-84191135D01*
X63486462Y-84179404D01*
X63450823Y-84160354D01*
X63419583Y-84134717D01*
X63393946Y-84103477D01*
X63374896Y-84067838D01*
X63363165Y-84029168D01*
X63358600Y-83982812D01*
X63358600Y-83331588D01*
X63363165Y-83285232D01*
X63374896Y-83246562D01*
X63393946Y-83210923D01*
X63419583Y-83179683D01*
X63450823Y-83154046D01*
X63486462Y-83134996D01*
X63525132Y-83123265D01*
X63571488Y-83118700D01*
X64647712Y-83118700D01*
X64694068Y-83123265D01*
X64694068Y-83123265D01*
G37*
G36*
X52108368Y-82335865D02*
G01*
X52147038Y-82347596D01*
X52182677Y-82366646D01*
X52213917Y-82392283D01*
X52239554Y-82423523D01*
X52258604Y-82459162D01*
X52270335Y-82497832D01*
X52274900Y-82544188D01*
X52274900Y-83195412D01*
X52270335Y-83241768D01*
X52258604Y-83280438D01*
X52239554Y-83316077D01*
X52213917Y-83347317D01*
X52182677Y-83372954D01*
X52147038Y-83392004D01*
X52108368Y-83403735D01*
X52062012Y-83408300D01*
X50985788Y-83408300D01*
X50939432Y-83403735D01*
X50900762Y-83392004D01*
X50865123Y-83372954D01*
X50833883Y-83347317D01*
X50808246Y-83316077D01*
X50789196Y-83280438D01*
X50777465Y-83241768D01*
X50772900Y-83195412D01*
X50772900Y-82544188D01*
X50777465Y-82497832D01*
X50789196Y-82459162D01*
X50808246Y-82423523D01*
X50833883Y-82392283D01*
X50865123Y-82366646D01*
X50900762Y-82347596D01*
X50939432Y-82335865D01*
X50985788Y-82331300D01*
X52062012Y-82331300D01*
X52108368Y-82335865D01*
X52108368Y-82335865D01*
G37*
G36*
X54343568Y-82323165D02*
G01*
X54382238Y-82334896D01*
X54417877Y-82353946D01*
X54449117Y-82379583D01*
X54474754Y-82410823D01*
X54493804Y-82446462D01*
X54505535Y-82485132D01*
X54510100Y-82531488D01*
X54510100Y-83182712D01*
X54505535Y-83229068D01*
X54493804Y-83267738D01*
X54474754Y-83303377D01*
X54449117Y-83334617D01*
X54417877Y-83360254D01*
X54382238Y-83379304D01*
X54343568Y-83391035D01*
X54297212Y-83395600D01*
X53220988Y-83395600D01*
X53174632Y-83391035D01*
X53135962Y-83379304D01*
X53100323Y-83360254D01*
X53069083Y-83334617D01*
X53043446Y-83303377D01*
X53024396Y-83267738D01*
X53012665Y-83229068D01*
X53008100Y-83182712D01*
X53008100Y-82531488D01*
X53012665Y-82485132D01*
X53024396Y-82446462D01*
X53043446Y-82410823D01*
X53069083Y-82379583D01*
X53100323Y-82353946D01*
X53135962Y-82334896D01*
X53174632Y-82323165D01*
X53220988Y-82318600D01*
X54297212Y-82318600D01*
X54343568Y-82323165D01*
X54343568Y-82323165D01*
G37*
G36*
X73437700Y-82821100D02*
G01*
X59175700Y-82821100D01*
X59175700Y-80919100D01*
X73437700Y-80919100D01*
X73437700Y-82821100D01*
X73437700Y-82821100D01*
G37*
G36*
X82038143Y-79953719D02*
G01*
X82104327Y-79960237D01*
X82274166Y-80011757D01*
X82430691Y-80095422D01*
X82466429Y-80124752D01*
X82567886Y-80208014D01*
X82651148Y-80309471D01*
X82680478Y-80345209D01*
X82764143Y-80501734D01*
X82815663Y-80671573D01*
X82833059Y-80848200D01*
X82815663Y-81024827D01*
X82764143Y-81194666D01*
X82680478Y-81351191D01*
X82651148Y-81386929D01*
X82567886Y-81488386D01*
X82466429Y-81571648D01*
X82430691Y-81600978D01*
X82274166Y-81684643D01*
X82104327Y-81736163D01*
X82038143Y-81742681D01*
X81971960Y-81749200D01*
X81883440Y-81749200D01*
X81817257Y-81742681D01*
X81751073Y-81736163D01*
X81581234Y-81684643D01*
X81424709Y-81600978D01*
X81388971Y-81571648D01*
X81287514Y-81488386D01*
X81204252Y-81386929D01*
X81174922Y-81351191D01*
X81091257Y-81194666D01*
X81039737Y-81024827D01*
X81022341Y-80848200D01*
X81039737Y-80671573D01*
X81091257Y-80501734D01*
X81174922Y-80345209D01*
X81204252Y-80309471D01*
X81287514Y-80208014D01*
X81388971Y-80124752D01*
X81424709Y-80095422D01*
X81581234Y-80011757D01*
X81751073Y-79960237D01*
X81817257Y-79953719D01*
X81883440Y-79947200D01*
X81971960Y-79947200D01*
X82038143Y-79953719D01*
X82038143Y-79953719D01*
G37*
G36*
X102358143Y-79953719D02*
G01*
X102424327Y-79960237D01*
X102594166Y-80011757D01*
X102750691Y-80095422D01*
X102786429Y-80124752D01*
X102887886Y-80208014D01*
X102971148Y-80309471D01*
X103000478Y-80345209D01*
X103084143Y-80501734D01*
X103135663Y-80671573D01*
X103153059Y-80848200D01*
X103135663Y-81024827D01*
X103084143Y-81194666D01*
X103000478Y-81351191D01*
X102971148Y-81386929D01*
X102887886Y-81488386D01*
X102786429Y-81571648D01*
X102750691Y-81600978D01*
X102594166Y-81684643D01*
X102424327Y-81736163D01*
X102358143Y-81742681D01*
X102291960Y-81749200D01*
X102203440Y-81749200D01*
X102137257Y-81742681D01*
X102071073Y-81736163D01*
X101901234Y-81684643D01*
X101744709Y-81600978D01*
X101708971Y-81571648D01*
X101607514Y-81488386D01*
X101524252Y-81386929D01*
X101494922Y-81351191D01*
X101411257Y-81194666D01*
X101359737Y-81024827D01*
X101342341Y-80848200D01*
X101359737Y-80671573D01*
X101411257Y-80501734D01*
X101494922Y-80345209D01*
X101524252Y-80309471D01*
X101607514Y-80208014D01*
X101708971Y-80124752D01*
X101744709Y-80095422D01*
X101901234Y-80011757D01*
X102071073Y-79960237D01*
X102137257Y-79953719D01*
X102203440Y-79947200D01*
X102291960Y-79947200D01*
X102358143Y-79953719D01*
X102358143Y-79953719D01*
G37*
G36*
X70167700Y-79981100D02*
G01*
X68745700Y-79981100D01*
X68745700Y-78559100D01*
X70167700Y-78559100D01*
X70167700Y-79981100D01*
X70167700Y-79981100D01*
G37*
G36*
X72267700Y-79981100D02*
G01*
X70845700Y-79981100D01*
X70845700Y-78559100D01*
X72267700Y-78559100D01*
X72267700Y-79981100D01*
X72267700Y-79981100D01*
G37*
G36*
X68067700Y-79981100D02*
G01*
X66645700Y-79981100D01*
X66645700Y-78559100D01*
X68067700Y-78559100D01*
X68067700Y-79981100D01*
X68067700Y-79981100D01*
G37*
G36*
X65967700Y-79981100D02*
G01*
X64545700Y-79981100D01*
X64545700Y-78559100D01*
X65967700Y-78559100D01*
X65967700Y-79981100D01*
X65967700Y-79981100D01*
G37*
G36*
X61767700Y-79981100D02*
G01*
X60345700Y-79981100D01*
X60345700Y-78559100D01*
X61767700Y-78559100D01*
X61767700Y-79981100D01*
X61767700Y-79981100D01*
G37*
G36*
X63867700Y-79981100D02*
G01*
X62445700Y-79981100D01*
X62445700Y-78559100D01*
X63867700Y-78559100D01*
X63867700Y-79981100D01*
X63867700Y-79981100D01*
G37*
G36*
X59807700Y-79601100D02*
G01*
X57905700Y-79601100D01*
X57905700Y-64239100D01*
X59807700Y-64239100D01*
X59807700Y-79601100D01*
X59807700Y-79601100D01*
G37*
G36*
X74707700Y-79601100D02*
G01*
X72805700Y-79601100D01*
X72805700Y-64239100D01*
X74707700Y-64239100D01*
X74707700Y-79601100D01*
X74707700Y-79601100D01*
G37*
G36*
X102358142Y-77413718D02*
G01*
X102424327Y-77420237D01*
X102594166Y-77471757D01*
X102750691Y-77555422D01*
X102786429Y-77584752D01*
X102887886Y-77668014D01*
X102971148Y-77769471D01*
X103000478Y-77805209D01*
X103084143Y-77961734D01*
X103135663Y-78131573D01*
X103153059Y-78308200D01*
X103135663Y-78484827D01*
X103084143Y-78654666D01*
X103000478Y-78811191D01*
X102971148Y-78846929D01*
X102887886Y-78948386D01*
X102786429Y-79031648D01*
X102750691Y-79060978D01*
X102594166Y-79144643D01*
X102424327Y-79196163D01*
X102358143Y-79202681D01*
X102291960Y-79209200D01*
X102203440Y-79209200D01*
X102137257Y-79202681D01*
X102071073Y-79196163D01*
X101901234Y-79144643D01*
X101744709Y-79060978D01*
X101708971Y-79031648D01*
X101607514Y-78948386D01*
X101524252Y-78846929D01*
X101494922Y-78811191D01*
X101411257Y-78654666D01*
X101359737Y-78484827D01*
X101342341Y-78308200D01*
X101359737Y-78131573D01*
X101411257Y-77961734D01*
X101494922Y-77805209D01*
X101524252Y-77769471D01*
X101607514Y-77668014D01*
X101708971Y-77584752D01*
X101744709Y-77555422D01*
X101901234Y-77471757D01*
X102071073Y-77420237D01*
X102137258Y-77413718D01*
X102203440Y-77407200D01*
X102291960Y-77407200D01*
X102358142Y-77413718D01*
X102358142Y-77413718D01*
G37*
G36*
X82038142Y-77413718D02*
G01*
X82104327Y-77420237D01*
X82274166Y-77471757D01*
X82430691Y-77555422D01*
X82466429Y-77584752D01*
X82567886Y-77668014D01*
X82651148Y-77769471D01*
X82680478Y-77805209D01*
X82764143Y-77961734D01*
X82815663Y-78131573D01*
X82833059Y-78308200D01*
X82815663Y-78484827D01*
X82764143Y-78654666D01*
X82680478Y-78811191D01*
X82651148Y-78846929D01*
X82567886Y-78948386D01*
X82466429Y-79031648D01*
X82430691Y-79060978D01*
X82274166Y-79144643D01*
X82104327Y-79196163D01*
X82038143Y-79202681D01*
X81971960Y-79209200D01*
X81883440Y-79209200D01*
X81817257Y-79202681D01*
X81751073Y-79196163D01*
X81581234Y-79144643D01*
X81424709Y-79060978D01*
X81388971Y-79031648D01*
X81287514Y-78948386D01*
X81204252Y-78846929D01*
X81174922Y-78811191D01*
X81091257Y-78654666D01*
X81039737Y-78484827D01*
X81022341Y-78308200D01*
X81039737Y-78131573D01*
X81091257Y-77961734D01*
X81174922Y-77805209D01*
X81204252Y-77769471D01*
X81287514Y-77668014D01*
X81388971Y-77584752D01*
X81424709Y-77555422D01*
X81581234Y-77471757D01*
X81751073Y-77420237D01*
X81817258Y-77413718D01*
X81883440Y-77407200D01*
X81971960Y-77407200D01*
X82038142Y-77413718D01*
X82038142Y-77413718D01*
G37*
G36*
X61767700Y-77881100D02*
G01*
X60345700Y-77881100D01*
X60345700Y-76459100D01*
X61767700Y-76459100D01*
X61767700Y-77881100D01*
X61767700Y-77881100D01*
G37*
G36*
X68067700Y-77881100D02*
G01*
X66645700Y-77881100D01*
X66645700Y-76459100D01*
X68067700Y-76459100D01*
X68067700Y-77881100D01*
X68067700Y-77881100D01*
G37*
G36*
X72267700Y-77881100D02*
G01*
X70845700Y-77881100D01*
X70845700Y-76459100D01*
X72267700Y-76459100D01*
X72267700Y-77881100D01*
X72267700Y-77881100D01*
G37*
G36*
X70167700Y-77881100D02*
G01*
X68745700Y-77881100D01*
X68745700Y-76459100D01*
X70167700Y-76459100D01*
X70167700Y-77881100D01*
X70167700Y-77881100D01*
G37*
G36*
X65967700Y-77881100D02*
G01*
X64545700Y-77881100D01*
X64545700Y-76459100D01*
X65967700Y-76459100D01*
X65967700Y-77881100D01*
X65967700Y-77881100D01*
G37*
G36*
X63867700Y-77881100D02*
G01*
X62445700Y-77881100D01*
X62445700Y-76459100D01*
X63867700Y-76459100D01*
X63867700Y-77881100D01*
X63867700Y-77881100D01*
G37*
G36*
X79337168Y-76463865D02*
G01*
X79375838Y-76475596D01*
X79411477Y-76494646D01*
X79442717Y-76520283D01*
X79468354Y-76551523D01*
X79487404Y-76587162D01*
X79499135Y-76625832D01*
X79503700Y-76672188D01*
X79503700Y-77323412D01*
X79499135Y-77369768D01*
X79487404Y-77408438D01*
X79468354Y-77444077D01*
X79442717Y-77475317D01*
X79411477Y-77500954D01*
X79375838Y-77520004D01*
X79337168Y-77531735D01*
X79290812Y-77536300D01*
X78214588Y-77536300D01*
X78168232Y-77531735D01*
X78129562Y-77520004D01*
X78093923Y-77500954D01*
X78062683Y-77475317D01*
X78037046Y-77444077D01*
X78017996Y-77408438D01*
X78006265Y-77369768D01*
X78001700Y-77323412D01*
X78001700Y-76672188D01*
X78006265Y-76625832D01*
X78017996Y-76587162D01*
X78037046Y-76551523D01*
X78062683Y-76520283D01*
X78093923Y-76494646D01*
X78129562Y-76475596D01*
X78168232Y-76463865D01*
X78214588Y-76459300D01*
X79290812Y-76459300D01*
X79337168Y-76463865D01*
X79337168Y-76463865D01*
G37*
G36*
X77292468Y-76235265D02*
G01*
X77331138Y-76246996D01*
X77366777Y-76266046D01*
X77398017Y-76291683D01*
X77423654Y-76322923D01*
X77442704Y-76358562D01*
X77454435Y-76397232D01*
X77459000Y-76443588D01*
X77459000Y-77094812D01*
X77454435Y-77141168D01*
X77442704Y-77179838D01*
X77423654Y-77215477D01*
X77398017Y-77246717D01*
X77366777Y-77272354D01*
X77331138Y-77291404D01*
X77292468Y-77303135D01*
X77246112Y-77307700D01*
X76169888Y-77307700D01*
X76123532Y-77303135D01*
X76084862Y-77291404D01*
X76049223Y-77272354D01*
X76017983Y-77246717D01*
X75992346Y-77215477D01*
X75973296Y-77179838D01*
X75961565Y-77141168D01*
X75957000Y-77094812D01*
X75957000Y-76443588D01*
X75961565Y-76397232D01*
X75973296Y-76358562D01*
X75992346Y-76322923D01*
X76017983Y-76291683D01*
X76049223Y-76266046D01*
X76084862Y-76246996D01*
X76123532Y-76235265D01*
X76169888Y-76230700D01*
X77246112Y-76230700D01*
X77292468Y-76235265D01*
X77292468Y-76235265D01*
G37*
G36*
X82038143Y-74873719D02*
G01*
X82104327Y-74880237D01*
X82274166Y-74931757D01*
X82430691Y-75015422D01*
X82466429Y-75044752D01*
X82567886Y-75128014D01*
X82651148Y-75229471D01*
X82680478Y-75265209D01*
X82764143Y-75421734D01*
X82815663Y-75591573D01*
X82833059Y-75768200D01*
X82815663Y-75944827D01*
X82764143Y-76114666D01*
X82680478Y-76271191D01*
X82655932Y-76301100D01*
X82567886Y-76408386D01*
X82466429Y-76491648D01*
X82430691Y-76520978D01*
X82274166Y-76604643D01*
X82104327Y-76656163D01*
X82038142Y-76662682D01*
X81971960Y-76669200D01*
X81883440Y-76669200D01*
X81817258Y-76662682D01*
X81751073Y-76656163D01*
X81581234Y-76604643D01*
X81424709Y-76520978D01*
X81388971Y-76491648D01*
X81287514Y-76408386D01*
X81199468Y-76301100D01*
X81174922Y-76271191D01*
X81091257Y-76114666D01*
X81039737Y-75944827D01*
X81022341Y-75768200D01*
X81039737Y-75591573D01*
X81091257Y-75421734D01*
X81174922Y-75265209D01*
X81204252Y-75229471D01*
X81287514Y-75128014D01*
X81388971Y-75044752D01*
X81424709Y-75015422D01*
X81581234Y-74931757D01*
X81751073Y-74880237D01*
X81817257Y-74873719D01*
X81883440Y-74867200D01*
X81971960Y-74867200D01*
X82038143Y-74873719D01*
X82038143Y-74873719D01*
G37*
G36*
X102358143Y-74873719D02*
G01*
X102424327Y-74880237D01*
X102594166Y-74931757D01*
X102750691Y-75015422D01*
X102786429Y-75044752D01*
X102887886Y-75128014D01*
X102971148Y-75229471D01*
X103000478Y-75265209D01*
X103084143Y-75421734D01*
X103135663Y-75591573D01*
X103153059Y-75768200D01*
X103135663Y-75944827D01*
X103084143Y-76114666D01*
X103000478Y-76271191D01*
X102975932Y-76301100D01*
X102887886Y-76408386D01*
X102786429Y-76491648D01*
X102750691Y-76520978D01*
X102594166Y-76604643D01*
X102424327Y-76656163D01*
X102358142Y-76662682D01*
X102291960Y-76669200D01*
X102203440Y-76669200D01*
X102137258Y-76662682D01*
X102071073Y-76656163D01*
X101901234Y-76604643D01*
X101744709Y-76520978D01*
X101708971Y-76491648D01*
X101607514Y-76408386D01*
X101519468Y-76301100D01*
X101494922Y-76271191D01*
X101411257Y-76114666D01*
X101359737Y-75944827D01*
X101342341Y-75768200D01*
X101359737Y-75591573D01*
X101411257Y-75421734D01*
X101494922Y-75265209D01*
X101524252Y-75229471D01*
X101607514Y-75128014D01*
X101708971Y-75044752D01*
X101744709Y-75015422D01*
X101901234Y-74931757D01*
X102071073Y-74880237D01*
X102137257Y-74873719D01*
X102203440Y-74867200D01*
X102291960Y-74867200D01*
X102358143Y-74873719D01*
X102358143Y-74873719D01*
G37*
G36*
X72267700Y-75781100D02*
G01*
X70845700Y-75781100D01*
X70845700Y-74359100D01*
X72267700Y-74359100D01*
X72267700Y-75781100D01*
X72267700Y-75781100D01*
G37*
G36*
X68067700Y-75781100D02*
G01*
X66645700Y-75781100D01*
X66645700Y-74359100D01*
X68067700Y-74359100D01*
X68067700Y-75781100D01*
X68067700Y-75781100D01*
G37*
G36*
X63867700Y-75781100D02*
G01*
X62445700Y-75781100D01*
X62445700Y-74359100D01*
X63867700Y-74359100D01*
X63867700Y-75781100D01*
X63867700Y-75781100D01*
G37*
G36*
X65967700Y-75781100D02*
G01*
X64545700Y-75781100D01*
X64545700Y-74359100D01*
X65967700Y-74359100D01*
X65967700Y-75781100D01*
X65967700Y-75781100D01*
G37*
G36*
X61767700Y-75781100D02*
G01*
X60345700Y-75781100D01*
X60345700Y-74359100D01*
X61767700Y-74359100D01*
X61767700Y-75781100D01*
X61767700Y-75781100D01*
G37*
G36*
X70167700Y-75781100D02*
G01*
X68745700Y-75781100D01*
X68745700Y-74359100D01*
X70167700Y-74359100D01*
X70167700Y-75781100D01*
X70167700Y-75781100D01*
G37*
G36*
X79337168Y-74588865D02*
G01*
X79375838Y-74600596D01*
X79411477Y-74619646D01*
X79442717Y-74645283D01*
X79468354Y-74676523D01*
X79487404Y-74712162D01*
X79499135Y-74750832D01*
X79503700Y-74797188D01*
X79503700Y-75448412D01*
X79499135Y-75494768D01*
X79487404Y-75533438D01*
X79468354Y-75569077D01*
X79442717Y-75600317D01*
X79411477Y-75625954D01*
X79375838Y-75645004D01*
X79337168Y-75656735D01*
X79290812Y-75661300D01*
X78214588Y-75661300D01*
X78168232Y-75656735D01*
X78129562Y-75645004D01*
X78093923Y-75625954D01*
X78062683Y-75600317D01*
X78037046Y-75569077D01*
X78017996Y-75533438D01*
X78006265Y-75494768D01*
X78001700Y-75448412D01*
X78001700Y-74797188D01*
X78006265Y-74750832D01*
X78017996Y-74712162D01*
X78037046Y-74676523D01*
X78062683Y-74645283D01*
X78093923Y-74619646D01*
X78129562Y-74600596D01*
X78168232Y-74588865D01*
X78214588Y-74584300D01*
X79290812Y-74584300D01*
X79337168Y-74588865D01*
X79337168Y-74588865D01*
G37*
G36*
X77292468Y-74360265D02*
G01*
X77331138Y-74371996D01*
X77366777Y-74391046D01*
X77398017Y-74416683D01*
X77423654Y-74447923D01*
X77442704Y-74483562D01*
X77454435Y-74522232D01*
X77459000Y-74568588D01*
X77459000Y-75219812D01*
X77454435Y-75266168D01*
X77442704Y-75304838D01*
X77423654Y-75340477D01*
X77398017Y-75371717D01*
X77366777Y-75397354D01*
X77331138Y-75416404D01*
X77292468Y-75428135D01*
X77246112Y-75432700D01*
X76169888Y-75432700D01*
X76123532Y-75428135D01*
X76084862Y-75416404D01*
X76049223Y-75397354D01*
X76017983Y-75371717D01*
X75992346Y-75340477D01*
X75973296Y-75304838D01*
X75961565Y-75266168D01*
X75957000Y-75219812D01*
X75957000Y-74568588D01*
X75961565Y-74522232D01*
X75973296Y-74483562D01*
X75992346Y-74447923D01*
X76017983Y-74416683D01*
X76049223Y-74391046D01*
X76084862Y-74371996D01*
X76123532Y-74360265D01*
X76169888Y-74355700D01*
X77246112Y-74355700D01*
X77292468Y-74360265D01*
X77292468Y-74360265D01*
G37*
G36*
X80073768Y-73098365D02*
G01*
X80112438Y-73110096D01*
X80148077Y-73129146D01*
X80179317Y-73154783D01*
X80204954Y-73186023D01*
X80224004Y-73221662D01*
X80235735Y-73260332D01*
X80240300Y-73306688D01*
X80240300Y-73957912D01*
X80235735Y-74004268D01*
X80224004Y-74042938D01*
X80204954Y-74078577D01*
X80179317Y-74109817D01*
X80148077Y-74135454D01*
X80112438Y-74154504D01*
X80073768Y-74166235D01*
X80027412Y-74170800D01*
X78951188Y-74170800D01*
X78904832Y-74166235D01*
X78866162Y-74154504D01*
X78830523Y-74135454D01*
X78799283Y-74109817D01*
X78773646Y-74078577D01*
X78754596Y-74042938D01*
X78742865Y-74004268D01*
X78738300Y-73957912D01*
X78738300Y-73306688D01*
X78742865Y-73260332D01*
X78754596Y-73221662D01*
X78773646Y-73186023D01*
X78799283Y-73154783D01*
X78830523Y-73129146D01*
X78866162Y-73110096D01*
X78904832Y-73098365D01*
X78951188Y-73093800D01*
X80027412Y-73093800D01*
X80073768Y-73098365D01*
X80073768Y-73098365D01*
G37*
G36*
X102358143Y-72333719D02*
G01*
X102424327Y-72340237D01*
X102594166Y-72391757D01*
X102750691Y-72475422D01*
X102786429Y-72504752D01*
X102887886Y-72588014D01*
X102971148Y-72689471D01*
X103000478Y-72725209D01*
X103084143Y-72881734D01*
X103135663Y-73051573D01*
X103153059Y-73228200D01*
X103135663Y-73404827D01*
X103084143Y-73574666D01*
X103000478Y-73731191D01*
X102971148Y-73766929D01*
X102887886Y-73868386D01*
X102786429Y-73951648D01*
X102750691Y-73980978D01*
X102594166Y-74064643D01*
X102424327Y-74116163D01*
X102358142Y-74122682D01*
X102291960Y-74129200D01*
X102203440Y-74129200D01*
X102137258Y-74122682D01*
X102071073Y-74116163D01*
X101901234Y-74064643D01*
X101744709Y-73980978D01*
X101708971Y-73951648D01*
X101607514Y-73868386D01*
X101524252Y-73766929D01*
X101494922Y-73731191D01*
X101411257Y-73574666D01*
X101359737Y-73404827D01*
X101342341Y-73228200D01*
X101359737Y-73051573D01*
X101411257Y-72881734D01*
X101494922Y-72725209D01*
X101524252Y-72689471D01*
X101607514Y-72588014D01*
X101708971Y-72504752D01*
X101744709Y-72475422D01*
X101901234Y-72391757D01*
X102071073Y-72340237D01*
X102137257Y-72333719D01*
X102203440Y-72327200D01*
X102291960Y-72327200D01*
X102358143Y-72333719D01*
X102358143Y-72333719D01*
G37*
G36*
X82038143Y-72333719D02*
G01*
X82104327Y-72340237D01*
X82274166Y-72391757D01*
X82430691Y-72475422D01*
X82466429Y-72504752D01*
X82567886Y-72588014D01*
X82651148Y-72689471D01*
X82680478Y-72725209D01*
X82764143Y-72881734D01*
X82815663Y-73051573D01*
X82833059Y-73228200D01*
X82815663Y-73404827D01*
X82764143Y-73574666D01*
X82680478Y-73731191D01*
X82651148Y-73766929D01*
X82567886Y-73868386D01*
X82466429Y-73951648D01*
X82430691Y-73980978D01*
X82274166Y-74064643D01*
X82104327Y-74116163D01*
X82038142Y-74122682D01*
X81971960Y-74129200D01*
X81883440Y-74129200D01*
X81817258Y-74122682D01*
X81751073Y-74116163D01*
X81581234Y-74064643D01*
X81424709Y-73980978D01*
X81388971Y-73951648D01*
X81287514Y-73868386D01*
X81204252Y-73766929D01*
X81174922Y-73731191D01*
X81091257Y-73574666D01*
X81039737Y-73404827D01*
X81022341Y-73228200D01*
X81039737Y-73051573D01*
X81091257Y-72881734D01*
X81174922Y-72725209D01*
X81204252Y-72689471D01*
X81287514Y-72588014D01*
X81388971Y-72504752D01*
X81424709Y-72475422D01*
X81581234Y-72391757D01*
X81751073Y-72340237D01*
X81817257Y-72333719D01*
X81883440Y-72327200D01*
X81971960Y-72327200D01*
X82038143Y-72333719D01*
X82038143Y-72333719D01*
G37*
G36*
X65967700Y-73681100D02*
G01*
X64545700Y-73681100D01*
X64545700Y-72259100D01*
X65967700Y-72259100D01*
X65967700Y-73681100D01*
X65967700Y-73681100D01*
G37*
G36*
X68067700Y-73681100D02*
G01*
X66645700Y-73681100D01*
X66645700Y-72259100D01*
X68067700Y-72259100D01*
X68067700Y-73681100D01*
X68067700Y-73681100D01*
G37*
G36*
X70167700Y-73681100D02*
G01*
X68745700Y-73681100D01*
X68745700Y-72259100D01*
X70167700Y-72259100D01*
X70167700Y-73681100D01*
X70167700Y-73681100D01*
G37*
G36*
X72267700Y-73681100D02*
G01*
X70845700Y-73681100D01*
X70845700Y-72259100D01*
X72267700Y-72259100D01*
X72267700Y-73681100D01*
X72267700Y-73681100D01*
G37*
G36*
X63867700Y-73681100D02*
G01*
X62445700Y-73681100D01*
X62445700Y-72259100D01*
X63867700Y-72259100D01*
X63867700Y-73681100D01*
X63867700Y-73681100D01*
G37*
G36*
X61767700Y-73681100D02*
G01*
X60345700Y-73681100D01*
X60345700Y-72259100D01*
X61767700Y-72259100D01*
X61767700Y-73681100D01*
X61767700Y-73681100D01*
G37*
G36*
X80073768Y-71223365D02*
G01*
X80112438Y-71235096D01*
X80148077Y-71254146D01*
X80179317Y-71279783D01*
X80204954Y-71311023D01*
X80224004Y-71346662D01*
X80235735Y-71385332D01*
X80240300Y-71431688D01*
X80240300Y-72082912D01*
X80235735Y-72129268D01*
X80224004Y-72167938D01*
X80204954Y-72203577D01*
X80179317Y-72234817D01*
X80148077Y-72260454D01*
X80112438Y-72279504D01*
X80073768Y-72291235D01*
X80027412Y-72295800D01*
X78951188Y-72295800D01*
X78904832Y-72291235D01*
X78866162Y-72279504D01*
X78830523Y-72260454D01*
X78799283Y-72234817D01*
X78773646Y-72203577D01*
X78754596Y-72167938D01*
X78742865Y-72129268D01*
X78738300Y-72082912D01*
X78738300Y-71431688D01*
X78742865Y-71385332D01*
X78754596Y-71346662D01*
X78773646Y-71311023D01*
X78799283Y-71279783D01*
X78830523Y-71254146D01*
X78866162Y-71235096D01*
X78904832Y-71223365D01*
X78951188Y-71218800D01*
X80027412Y-71218800D01*
X80073768Y-71223365D01*
X80073768Y-71223365D01*
G37*
G36*
X55791368Y-70810065D02*
G01*
X55830038Y-70821796D01*
X55865677Y-70840846D01*
X55896917Y-70866483D01*
X55922554Y-70897723D01*
X55941604Y-70933362D01*
X55953335Y-70972032D01*
X55957900Y-71018388D01*
X55957900Y-71669612D01*
X55953335Y-71715968D01*
X55941604Y-71754638D01*
X55922554Y-71790277D01*
X55896917Y-71821517D01*
X55865677Y-71847154D01*
X55830038Y-71866204D01*
X55791368Y-71877935D01*
X55745012Y-71882500D01*
X54668788Y-71882500D01*
X54622432Y-71877935D01*
X54583762Y-71866204D01*
X54548123Y-71847154D01*
X54516883Y-71821517D01*
X54491246Y-71790277D01*
X54472196Y-71754638D01*
X54460465Y-71715968D01*
X54455900Y-71669612D01*
X54455900Y-71018388D01*
X54460465Y-70972032D01*
X54472196Y-70933362D01*
X54491246Y-70897723D01*
X54516883Y-70866483D01*
X54548123Y-70840846D01*
X54583762Y-70821796D01*
X54622432Y-70810065D01*
X54668788Y-70805500D01*
X55745012Y-70805500D01*
X55791368Y-70810065D01*
X55791368Y-70810065D01*
G37*
G36*
X53606968Y-70810065D02*
G01*
X53645638Y-70821796D01*
X53681277Y-70840846D01*
X53712517Y-70866483D01*
X53738154Y-70897723D01*
X53757204Y-70933362D01*
X53768935Y-70972032D01*
X53773500Y-71018388D01*
X53773500Y-71669612D01*
X53768935Y-71715968D01*
X53757204Y-71754638D01*
X53738154Y-71790277D01*
X53712517Y-71821517D01*
X53681277Y-71847154D01*
X53645638Y-71866204D01*
X53606968Y-71877935D01*
X53560612Y-71882500D01*
X52484388Y-71882500D01*
X52438032Y-71877935D01*
X52399362Y-71866204D01*
X52363723Y-71847154D01*
X52332483Y-71821517D01*
X52306846Y-71790277D01*
X52287796Y-71754638D01*
X52276065Y-71715968D01*
X52271500Y-71669612D01*
X52271500Y-71018388D01*
X52276065Y-70972032D01*
X52287796Y-70933362D01*
X52306846Y-70897723D01*
X52332483Y-70866483D01*
X52363723Y-70840846D01*
X52399362Y-70821796D01*
X52438032Y-70810065D01*
X52484388Y-70805500D01*
X53560612Y-70805500D01*
X53606968Y-70810065D01*
X53606968Y-70810065D01*
G37*
G36*
X102358142Y-69793718D02*
G01*
X102424327Y-69800237D01*
X102594166Y-69851757D01*
X102750691Y-69935422D01*
X102764210Y-69946517D01*
X102887886Y-70048014D01*
X102971148Y-70149471D01*
X103000478Y-70185209D01*
X103084143Y-70341734D01*
X103135663Y-70511573D01*
X103153059Y-70688200D01*
X103135663Y-70864827D01*
X103084143Y-71034666D01*
X103084142Y-71034668D01*
X103042311Y-71112928D01*
X103000478Y-71191191D01*
X102977820Y-71218800D01*
X102887886Y-71328386D01*
X102786429Y-71411648D01*
X102750691Y-71440978D01*
X102594166Y-71524643D01*
X102424327Y-71576163D01*
X102374200Y-71581100D01*
X102291960Y-71589200D01*
X102203440Y-71589200D01*
X102121200Y-71581100D01*
X102071073Y-71576163D01*
X101901234Y-71524643D01*
X101744709Y-71440978D01*
X101708971Y-71411648D01*
X101607514Y-71328386D01*
X101517580Y-71218800D01*
X101494922Y-71191191D01*
X101453089Y-71112928D01*
X101411258Y-71034668D01*
X101411257Y-71034666D01*
X101359737Y-70864827D01*
X101342341Y-70688200D01*
X101359737Y-70511573D01*
X101411257Y-70341734D01*
X101494922Y-70185209D01*
X101524252Y-70149471D01*
X101607514Y-70048014D01*
X101731190Y-69946517D01*
X101744709Y-69935422D01*
X101901234Y-69851757D01*
X102071073Y-69800237D01*
X102137258Y-69793718D01*
X102203440Y-69787200D01*
X102291960Y-69787200D01*
X102358142Y-69793718D01*
X102358142Y-69793718D01*
G37*
G36*
X82038142Y-69793718D02*
G01*
X82104327Y-69800237D01*
X82274166Y-69851757D01*
X82430691Y-69935422D01*
X82444210Y-69946517D01*
X82567886Y-70048014D01*
X82651148Y-70149471D01*
X82680478Y-70185209D01*
X82764143Y-70341734D01*
X82815663Y-70511573D01*
X82833059Y-70688200D01*
X82815663Y-70864827D01*
X82764143Y-71034666D01*
X82764142Y-71034668D01*
X82722311Y-71112928D01*
X82680478Y-71191191D01*
X82657820Y-71218800D01*
X82567886Y-71328386D01*
X82466429Y-71411648D01*
X82430691Y-71440978D01*
X82274166Y-71524643D01*
X82104327Y-71576163D01*
X82054200Y-71581100D01*
X81971960Y-71589200D01*
X81883440Y-71589200D01*
X81801200Y-71581100D01*
X81751073Y-71576163D01*
X81581234Y-71524643D01*
X81424709Y-71440978D01*
X81388971Y-71411648D01*
X81287514Y-71328386D01*
X81197580Y-71218800D01*
X81174922Y-71191191D01*
X81133089Y-71112928D01*
X81091258Y-71034668D01*
X81091257Y-71034666D01*
X81039737Y-70864827D01*
X81022341Y-70688200D01*
X81039737Y-70511573D01*
X81091257Y-70341734D01*
X81174922Y-70185209D01*
X81204252Y-70149471D01*
X81287514Y-70048014D01*
X81411190Y-69946517D01*
X81424709Y-69935422D01*
X81581234Y-69851757D01*
X81751073Y-69800237D01*
X81817258Y-69793718D01*
X81883440Y-69787200D01*
X81971960Y-69787200D01*
X82038142Y-69793718D01*
X82038142Y-69793718D01*
G37*
G36*
X72267700Y-71581100D02*
G01*
X70845700Y-71581100D01*
X70845700Y-70159100D01*
X72267700Y-70159100D01*
X72267700Y-71581100D01*
X72267700Y-71581100D01*
G37*
G36*
X70167700Y-71581100D02*
G01*
X68745700Y-71581100D01*
X68745700Y-70159100D01*
X70167700Y-70159100D01*
X70167700Y-71581100D01*
X70167700Y-71581100D01*
G37*
G36*
X68067700Y-71581100D02*
G01*
X66645700Y-71581100D01*
X66645700Y-70159100D01*
X68067700Y-70159100D01*
X68067700Y-71581100D01*
X68067700Y-71581100D01*
G37*
G36*
X65967700Y-71581100D02*
G01*
X64545700Y-71581100D01*
X64545700Y-70159100D01*
X65967700Y-70159100D01*
X65967700Y-71581100D01*
X65967700Y-71581100D01*
G37*
G36*
X63867700Y-71581100D02*
G01*
X62445700Y-71581100D01*
X62445700Y-70159100D01*
X63867700Y-70159100D01*
X63867700Y-71581100D01*
X63867700Y-71581100D01*
G37*
G36*
X61767700Y-71581100D02*
G01*
X60345700Y-71581100D01*
X60345700Y-70159100D01*
X61767700Y-70159100D01*
X61767700Y-71581100D01*
X61767700Y-71581100D01*
G37*
G36*
X53606968Y-68935065D02*
G01*
X53645638Y-68946796D01*
X53681277Y-68965846D01*
X53712517Y-68991483D01*
X53738154Y-69022723D01*
X53757204Y-69058362D01*
X53768935Y-69097032D01*
X53773500Y-69143388D01*
X53773500Y-69794612D01*
X53768935Y-69840968D01*
X53757204Y-69879638D01*
X53738154Y-69915277D01*
X53712517Y-69946517D01*
X53681277Y-69972154D01*
X53645638Y-69991204D01*
X53606968Y-70002935D01*
X53560612Y-70007500D01*
X52484388Y-70007500D01*
X52438032Y-70002935D01*
X52399362Y-69991204D01*
X52363723Y-69972154D01*
X52332483Y-69946517D01*
X52306846Y-69915277D01*
X52287796Y-69879638D01*
X52276065Y-69840968D01*
X52271500Y-69794612D01*
X52271500Y-69143388D01*
X52276065Y-69097032D01*
X52287796Y-69058362D01*
X52306846Y-69022723D01*
X52332483Y-68991483D01*
X52363723Y-68965846D01*
X52399362Y-68946796D01*
X52438032Y-68935065D01*
X52484388Y-68930500D01*
X53560612Y-68930500D01*
X53606968Y-68935065D01*
X53606968Y-68935065D01*
G37*
G36*
X55791368Y-68935065D02*
G01*
X55830038Y-68946796D01*
X55865677Y-68965846D01*
X55896917Y-68991483D01*
X55922554Y-69022723D01*
X55941604Y-69058362D01*
X55953335Y-69097032D01*
X55957900Y-69143388D01*
X55957900Y-69794612D01*
X55953335Y-69840968D01*
X55941604Y-69879638D01*
X55922554Y-69915277D01*
X55896917Y-69946517D01*
X55865677Y-69972154D01*
X55830038Y-69991204D01*
X55791368Y-70002935D01*
X55745012Y-70007500D01*
X54668788Y-70007500D01*
X54622432Y-70002935D01*
X54583762Y-69991204D01*
X54548123Y-69972154D01*
X54516883Y-69946517D01*
X54491246Y-69915277D01*
X54472196Y-69879638D01*
X54460465Y-69840968D01*
X54455900Y-69794612D01*
X54455900Y-69143388D01*
X54460465Y-69097032D01*
X54472196Y-69058362D01*
X54491246Y-69022723D01*
X54516883Y-68991483D01*
X54548123Y-68965846D01*
X54583762Y-68946796D01*
X54622432Y-68935065D01*
X54668788Y-68930500D01*
X55745012Y-68930500D01*
X55791368Y-68935065D01*
X55791368Y-68935065D01*
G37*
G36*
X78199868Y-68252665D02*
G01*
X78238538Y-68264396D01*
X78274177Y-68283446D01*
X78305417Y-68309083D01*
X78331054Y-68340323D01*
X78350104Y-68375962D01*
X78361835Y-68414632D01*
X78366400Y-68460988D01*
X78366400Y-69537212D01*
X78361835Y-69583568D01*
X78350104Y-69622238D01*
X78331054Y-69657877D01*
X78305417Y-69689117D01*
X78274177Y-69714754D01*
X78238538Y-69733804D01*
X78199868Y-69745535D01*
X78153512Y-69750100D01*
X77502288Y-69750100D01*
X77455932Y-69745535D01*
X77417262Y-69733804D01*
X77381623Y-69714754D01*
X77350383Y-69689117D01*
X77324746Y-69657877D01*
X77305696Y-69622238D01*
X77293965Y-69583568D01*
X77289400Y-69537212D01*
X77289400Y-68460988D01*
X77293965Y-68414632D01*
X77305696Y-68375962D01*
X77324746Y-68340323D01*
X77350383Y-68309083D01*
X77381623Y-68283446D01*
X77417262Y-68264396D01*
X77455932Y-68252665D01*
X77502288Y-68248100D01*
X78153512Y-68248100D01*
X78199868Y-68252665D01*
X78199868Y-68252665D01*
G37*
G36*
X80074868Y-68252665D02*
G01*
X80113538Y-68264396D01*
X80149177Y-68283446D01*
X80180417Y-68309083D01*
X80206054Y-68340323D01*
X80225104Y-68375962D01*
X80236835Y-68414632D01*
X80241400Y-68460988D01*
X80241400Y-69537212D01*
X80236835Y-69583568D01*
X80225104Y-69622238D01*
X80206054Y-69657877D01*
X80180417Y-69689117D01*
X80149177Y-69714754D01*
X80113538Y-69733804D01*
X80074868Y-69745535D01*
X80028512Y-69750100D01*
X79377288Y-69750100D01*
X79330932Y-69745535D01*
X79292262Y-69733804D01*
X79256623Y-69714754D01*
X79225383Y-69689117D01*
X79199746Y-69657877D01*
X79180696Y-69622238D01*
X79168965Y-69583568D01*
X79164400Y-69537212D01*
X79164400Y-68460988D01*
X79168965Y-68414632D01*
X79180696Y-68375962D01*
X79199746Y-68340323D01*
X79225383Y-68309083D01*
X79256623Y-68283446D01*
X79292262Y-68264396D01*
X79330932Y-68252665D01*
X79377288Y-68248100D01*
X80028512Y-68248100D01*
X80074868Y-68252665D01*
X80074868Y-68252665D01*
G37*
G36*
X72267700Y-69481100D02*
G01*
X70845700Y-69481100D01*
X70845700Y-68059100D01*
X72267700Y-68059100D01*
X72267700Y-69481100D01*
X72267700Y-69481100D01*
G37*
G36*
X65967700Y-69481100D02*
G01*
X64545700Y-69481100D01*
X64545700Y-68059100D01*
X65967700Y-68059100D01*
X65967700Y-69481100D01*
X65967700Y-69481100D01*
G37*
G36*
X63867700Y-69481100D02*
G01*
X62445700Y-69481100D01*
X62445700Y-68059100D01*
X63867700Y-68059100D01*
X63867700Y-69481100D01*
X63867700Y-69481100D01*
G37*
G36*
X61767700Y-69481100D02*
G01*
X60345700Y-69481100D01*
X60345700Y-68059100D01*
X61767700Y-68059100D01*
X61767700Y-69481100D01*
X61767700Y-69481100D01*
G37*
G36*
X68067700Y-69481100D02*
G01*
X66645700Y-69481100D01*
X66645700Y-68059100D01*
X68067700Y-68059100D01*
X68067700Y-69481100D01*
X68067700Y-69481100D01*
G37*
G36*
X70167700Y-69481100D02*
G01*
X68745700Y-69481100D01*
X68745700Y-68059100D01*
X70167700Y-68059100D01*
X70167700Y-69481100D01*
X70167700Y-69481100D01*
G37*
G36*
X102358142Y-67253718D02*
G01*
X102424327Y-67260237D01*
X102594166Y-67311757D01*
X102750691Y-67395422D01*
X102777863Y-67417722D01*
X102887886Y-67508014D01*
X102971148Y-67609471D01*
X103000478Y-67645209D01*
X103000479Y-67645211D01*
X103070515Y-67776237D01*
X103084143Y-67801734D01*
X103135663Y-67971573D01*
X103153059Y-68148200D01*
X103135663Y-68324827D01*
X103084143Y-68494666D01*
X103000478Y-68651191D01*
X102971148Y-68686929D01*
X102887886Y-68788386D01*
X102786429Y-68871648D01*
X102750691Y-68900978D01*
X102750689Y-68900979D01*
X102629333Y-68965846D01*
X102594166Y-68984643D01*
X102424327Y-69036163D01*
X102358143Y-69042681D01*
X102291960Y-69049200D01*
X102203440Y-69049200D01*
X102137257Y-69042681D01*
X102071073Y-69036163D01*
X101901234Y-68984643D01*
X101866068Y-68965846D01*
X101744711Y-68900979D01*
X101744709Y-68900978D01*
X101708971Y-68871648D01*
X101607514Y-68788386D01*
X101524252Y-68686929D01*
X101494922Y-68651191D01*
X101411257Y-68494666D01*
X101359737Y-68324827D01*
X101342341Y-68148200D01*
X101359737Y-67971573D01*
X101411257Y-67801734D01*
X101424886Y-67776237D01*
X101494921Y-67645211D01*
X101494922Y-67645209D01*
X101524252Y-67609471D01*
X101607514Y-67508014D01*
X101717537Y-67417722D01*
X101744709Y-67395422D01*
X101901234Y-67311757D01*
X102071073Y-67260237D01*
X102137258Y-67253718D01*
X102203440Y-67247200D01*
X102291960Y-67247200D01*
X102358142Y-67253718D01*
X102358142Y-67253718D01*
G37*
G36*
X82038142Y-67253718D02*
G01*
X82104327Y-67260237D01*
X82274166Y-67311757D01*
X82430691Y-67395422D01*
X82457863Y-67417722D01*
X82567886Y-67508014D01*
X82651148Y-67609471D01*
X82680478Y-67645209D01*
X82680479Y-67645211D01*
X82750515Y-67776237D01*
X82764143Y-67801734D01*
X82815663Y-67971573D01*
X82833059Y-68148200D01*
X82815663Y-68324827D01*
X82764143Y-68494666D01*
X82680478Y-68651191D01*
X82651148Y-68686929D01*
X82567886Y-68788386D01*
X82466429Y-68871648D01*
X82430691Y-68900978D01*
X82430689Y-68900979D01*
X82309333Y-68965846D01*
X82274166Y-68984643D01*
X82104327Y-69036163D01*
X82038143Y-69042681D01*
X81971960Y-69049200D01*
X81883440Y-69049200D01*
X81817257Y-69042681D01*
X81751073Y-69036163D01*
X81581234Y-68984643D01*
X81546068Y-68965846D01*
X81424711Y-68900979D01*
X81424709Y-68900978D01*
X81388971Y-68871648D01*
X81287514Y-68788386D01*
X81204252Y-68686929D01*
X81174922Y-68651191D01*
X81091257Y-68494666D01*
X81039737Y-68324827D01*
X81022341Y-68148200D01*
X81039737Y-67971573D01*
X81091257Y-67801734D01*
X81104886Y-67776237D01*
X81174921Y-67645211D01*
X81174922Y-67645209D01*
X81204252Y-67609471D01*
X81287514Y-67508014D01*
X81397537Y-67417722D01*
X81424709Y-67395422D01*
X81581234Y-67311757D01*
X81751073Y-67260237D01*
X81817258Y-67253718D01*
X81883440Y-67247200D01*
X81971960Y-67247200D01*
X82038142Y-67253718D01*
X82038142Y-67253718D01*
G37*
G36*
X57340768Y-67205565D02*
G01*
X57379438Y-67217296D01*
X57415077Y-67236346D01*
X57446317Y-67261983D01*
X57471954Y-67293223D01*
X57491004Y-67328862D01*
X57502735Y-67367532D01*
X57507300Y-67413888D01*
X57507300Y-68065112D01*
X57502735Y-68111468D01*
X57491004Y-68150138D01*
X57471954Y-68185777D01*
X57446317Y-68217017D01*
X57415077Y-68242654D01*
X57379438Y-68261704D01*
X57340768Y-68273435D01*
X57294412Y-68278000D01*
X56218188Y-68278000D01*
X56171832Y-68273435D01*
X56133162Y-68261704D01*
X56097523Y-68242654D01*
X56066283Y-68217017D01*
X56040646Y-68185777D01*
X56021596Y-68150138D01*
X56009865Y-68111468D01*
X56005300Y-68065112D01*
X56005300Y-67413888D01*
X56009865Y-67367532D01*
X56021596Y-67328862D01*
X56040646Y-67293223D01*
X56066283Y-67261983D01*
X56097523Y-67236346D01*
X56133162Y-67217296D01*
X56171832Y-67205565D01*
X56218188Y-67201000D01*
X57294412Y-67201000D01*
X57340768Y-67205565D01*
X57340768Y-67205565D01*
G37*
G36*
X53038100Y-67913200D02*
G01*
X50736100Y-67913200D01*
X50736100Y-66761200D01*
X53038100Y-66761200D01*
X53038100Y-67913200D01*
X53038100Y-67913200D01*
G37*
G36*
X79122368Y-66398465D02*
G01*
X79161038Y-66410196D01*
X79196677Y-66429246D01*
X79227917Y-66454883D01*
X79253554Y-66486123D01*
X79272604Y-66521762D01*
X79284335Y-66560432D01*
X79288900Y-66606788D01*
X79288900Y-67683012D01*
X79284335Y-67729368D01*
X79272604Y-67768038D01*
X79253554Y-67803677D01*
X79227917Y-67834917D01*
X79196677Y-67860554D01*
X79161038Y-67879604D01*
X79122368Y-67891335D01*
X79076012Y-67895900D01*
X78424788Y-67895900D01*
X78378432Y-67891335D01*
X78339762Y-67879604D01*
X78304123Y-67860554D01*
X78272883Y-67834917D01*
X78247246Y-67803677D01*
X78228196Y-67768038D01*
X78216465Y-67729368D01*
X78211900Y-67683012D01*
X78211900Y-66606788D01*
X78216465Y-66560432D01*
X78228196Y-66521762D01*
X78247246Y-66486123D01*
X78272883Y-66454883D01*
X78304123Y-66429246D01*
X78339762Y-66410196D01*
X78378432Y-66398465D01*
X78424788Y-66393900D01*
X79076012Y-66393900D01*
X79122368Y-66398465D01*
X79122368Y-66398465D01*
G37*
G36*
X77247368Y-66398465D02*
G01*
X77286038Y-66410196D01*
X77321677Y-66429246D01*
X77352917Y-66454883D01*
X77378554Y-66486123D01*
X77397604Y-66521762D01*
X77409335Y-66560432D01*
X77413900Y-66606788D01*
X77413900Y-67683012D01*
X77409335Y-67729368D01*
X77397604Y-67768038D01*
X77378554Y-67803677D01*
X77352917Y-67834917D01*
X77321677Y-67860554D01*
X77286038Y-67879604D01*
X77247368Y-67891335D01*
X77201012Y-67895900D01*
X76549788Y-67895900D01*
X76503432Y-67891335D01*
X76464762Y-67879604D01*
X76429123Y-67860554D01*
X76397883Y-67834917D01*
X76372246Y-67803677D01*
X76353196Y-67768038D01*
X76341465Y-67729368D01*
X76336900Y-67683012D01*
X76336900Y-66606788D01*
X76341465Y-66560432D01*
X76353196Y-66521762D01*
X76372246Y-66486123D01*
X76397883Y-66454883D01*
X76429123Y-66429246D01*
X76464762Y-66410196D01*
X76503432Y-66398465D01*
X76549788Y-66393900D01*
X77201012Y-66393900D01*
X77247368Y-66398465D01*
X77247368Y-66398465D01*
G37*
G36*
X70167700Y-67381100D02*
G01*
X68745700Y-67381100D01*
X68745700Y-65959100D01*
X70167700Y-65959100D01*
X70167700Y-67381100D01*
X70167700Y-67381100D01*
G37*
G36*
X72267700Y-67381100D02*
G01*
X70845700Y-67381100D01*
X70845700Y-65959100D01*
X72267700Y-65959100D01*
X72267700Y-67381100D01*
X72267700Y-67381100D01*
G37*
G36*
X68067700Y-67381100D02*
G01*
X66645700Y-67381100D01*
X66645700Y-65959100D01*
X68067700Y-65959100D01*
X68067700Y-67381100D01*
X68067700Y-67381100D01*
G37*
G36*
X65967700Y-67381100D02*
G01*
X64545700Y-67381100D01*
X64545700Y-65959100D01*
X65967700Y-65959100D01*
X65967700Y-67381100D01*
X65967700Y-67381100D01*
G37*
G36*
X63867700Y-67381100D02*
G01*
X62445700Y-67381100D01*
X62445700Y-65959100D01*
X63867700Y-65959100D01*
X63867700Y-67381100D01*
X63867700Y-67381100D01*
G37*
G36*
X61767700Y-67381100D02*
G01*
X60345700Y-67381100D01*
X60345700Y-65959100D01*
X61767700Y-65959100D01*
X61767700Y-67381100D01*
X61767700Y-67381100D01*
G37*
G36*
X82038143Y-64713719D02*
G01*
X82104327Y-64720237D01*
X82274166Y-64771757D01*
X82430691Y-64855422D01*
X82466429Y-64884752D01*
X82567886Y-64968014D01*
X82651148Y-65069471D01*
X82680478Y-65105209D01*
X82764143Y-65261734D01*
X82815663Y-65431573D01*
X82833059Y-65608200D01*
X82815663Y-65784827D01*
X82764143Y-65954666D01*
X82680478Y-66111191D01*
X82661964Y-66133750D01*
X82567886Y-66248386D01*
X82491861Y-66310777D01*
X82430691Y-66360978D01*
X82274166Y-66444643D01*
X82104327Y-66496163D01*
X82038142Y-66502682D01*
X81971960Y-66509200D01*
X81883440Y-66509200D01*
X81817258Y-66502682D01*
X81751073Y-66496163D01*
X81581234Y-66444643D01*
X81424709Y-66360978D01*
X81363539Y-66310777D01*
X81287514Y-66248386D01*
X81193436Y-66133750D01*
X81174922Y-66111191D01*
X81091257Y-65954666D01*
X81039737Y-65784827D01*
X81022341Y-65608200D01*
X81039737Y-65431573D01*
X81091257Y-65261734D01*
X81174922Y-65105209D01*
X81204252Y-65069471D01*
X81287514Y-64968014D01*
X81388971Y-64884752D01*
X81424709Y-64855422D01*
X81581234Y-64771757D01*
X81751073Y-64720237D01*
X81817257Y-64713719D01*
X81883440Y-64707200D01*
X81971960Y-64707200D01*
X82038143Y-64713719D01*
X82038143Y-64713719D01*
G37*
G36*
X102358143Y-64713719D02*
G01*
X102424327Y-64720237D01*
X102594166Y-64771757D01*
X102750691Y-64855422D01*
X102786429Y-64884752D01*
X102887886Y-64968014D01*
X102971148Y-65069471D01*
X103000478Y-65105209D01*
X103084143Y-65261734D01*
X103135663Y-65431573D01*
X103153059Y-65608200D01*
X103135663Y-65784827D01*
X103084143Y-65954666D01*
X103000478Y-66111191D01*
X102981964Y-66133750D01*
X102887886Y-66248386D01*
X102811861Y-66310777D01*
X102750691Y-66360978D01*
X102594166Y-66444643D01*
X102424327Y-66496163D01*
X102358142Y-66502682D01*
X102291960Y-66509200D01*
X102203440Y-66509200D01*
X102137258Y-66502682D01*
X102071073Y-66496163D01*
X101901234Y-66444643D01*
X101744709Y-66360978D01*
X101683539Y-66310777D01*
X101607514Y-66248386D01*
X101513436Y-66133750D01*
X101494922Y-66111191D01*
X101411257Y-65954666D01*
X101359737Y-65784827D01*
X101342341Y-65608200D01*
X101359737Y-65431573D01*
X101411257Y-65261734D01*
X101494922Y-65105209D01*
X101524252Y-65069471D01*
X101607514Y-64968014D01*
X101708971Y-64884752D01*
X101744709Y-64855422D01*
X101901234Y-64771757D01*
X102071073Y-64720237D01*
X102137257Y-64713719D01*
X102203440Y-64707200D01*
X102291960Y-64707200D01*
X102358143Y-64713719D01*
X102358143Y-64713719D01*
G37*
G36*
X53988100Y-66413200D02*
G01*
X52836100Y-66413200D01*
X52836100Y-65311200D01*
X53988100Y-65311200D01*
X53988100Y-66413200D01*
X53988100Y-66413200D01*
G37*
G36*
X57340768Y-65330565D02*
G01*
X57379438Y-65342296D01*
X57415077Y-65361346D01*
X57446317Y-65386983D01*
X57471954Y-65418223D01*
X57491004Y-65453862D01*
X57502735Y-65492532D01*
X57507300Y-65538888D01*
X57507300Y-66190112D01*
X57502735Y-66236468D01*
X57491004Y-66275138D01*
X57471954Y-66310777D01*
X57446317Y-66342017D01*
X57415077Y-66367654D01*
X57379438Y-66386704D01*
X57340768Y-66398435D01*
X57294412Y-66403000D01*
X56218188Y-66403000D01*
X56171832Y-66398435D01*
X56133162Y-66386704D01*
X56097523Y-66367654D01*
X56066283Y-66342017D01*
X56040646Y-66310777D01*
X56021596Y-66275138D01*
X56009865Y-66236468D01*
X56005300Y-66190112D01*
X56005300Y-65538888D01*
X56009865Y-65492532D01*
X56021596Y-65453862D01*
X56040646Y-65418223D01*
X56066283Y-65386983D01*
X56097523Y-65361346D01*
X56133162Y-65342296D01*
X56171832Y-65330565D01*
X56218188Y-65326000D01*
X57294412Y-65326000D01*
X57340768Y-65330565D01*
X57340768Y-65330565D01*
G37*
G36*
X77234668Y-64582365D02*
G01*
X77273338Y-64594096D01*
X77308977Y-64613146D01*
X77340217Y-64638783D01*
X77365854Y-64670023D01*
X77384904Y-64705662D01*
X77396635Y-64744332D01*
X77401200Y-64790688D01*
X77401200Y-65866912D01*
X77396635Y-65913268D01*
X77384904Y-65951938D01*
X77365854Y-65987577D01*
X77340217Y-66018817D01*
X77308977Y-66044454D01*
X77273338Y-66063504D01*
X77234668Y-66075235D01*
X77188312Y-66079800D01*
X76537088Y-66079800D01*
X76490732Y-66075235D01*
X76452062Y-66063504D01*
X76416423Y-66044454D01*
X76385183Y-66018817D01*
X76359546Y-65987577D01*
X76340496Y-65951938D01*
X76328765Y-65913268D01*
X76324200Y-65866912D01*
X76324200Y-64790688D01*
X76328765Y-64744332D01*
X76340496Y-64705662D01*
X76359546Y-64670023D01*
X76385183Y-64638783D01*
X76416423Y-64613146D01*
X76452062Y-64594096D01*
X76490732Y-64582365D01*
X76537088Y-64577800D01*
X77188312Y-64577800D01*
X77234668Y-64582365D01*
X77234668Y-64582365D01*
G37*
G36*
X79109668Y-64582365D02*
G01*
X79148338Y-64594096D01*
X79183977Y-64613146D01*
X79215217Y-64638783D01*
X79240854Y-64670023D01*
X79259904Y-64705662D01*
X79271635Y-64744332D01*
X79276200Y-64790688D01*
X79276200Y-65866912D01*
X79271635Y-65913268D01*
X79259904Y-65951938D01*
X79240854Y-65987577D01*
X79215217Y-66018817D01*
X79183977Y-66044454D01*
X79148338Y-66063504D01*
X79109668Y-66075235D01*
X79063312Y-66079800D01*
X78412088Y-66079800D01*
X78365732Y-66075235D01*
X78327062Y-66063504D01*
X78291423Y-66044454D01*
X78260183Y-66018817D01*
X78234546Y-65987577D01*
X78215496Y-65951938D01*
X78203765Y-65913268D01*
X78199200Y-65866912D01*
X78199200Y-64790688D01*
X78203765Y-64744332D01*
X78215496Y-64705662D01*
X78234546Y-64670023D01*
X78260183Y-64638783D01*
X78291423Y-64613146D01*
X78327062Y-64594096D01*
X78365732Y-64582365D01*
X78412088Y-64577800D01*
X79063312Y-64577800D01*
X79109668Y-64582365D01*
X79109668Y-64582365D01*
G37*
G36*
X68067700Y-65281100D02*
G01*
X66645700Y-65281100D01*
X66645700Y-63859100D01*
X68067700Y-63859100D01*
X68067700Y-65281100D01*
X68067700Y-65281100D01*
G37*
G36*
X70167700Y-65281100D02*
G01*
X68745700Y-65281100D01*
X68745700Y-63859100D01*
X70167700Y-63859100D01*
X70167700Y-65281100D01*
X70167700Y-65281100D01*
G37*
G36*
X65967700Y-65281100D02*
G01*
X64545700Y-65281100D01*
X64545700Y-63859100D01*
X65967700Y-63859100D01*
X65967700Y-65281100D01*
X65967700Y-65281100D01*
G37*
G36*
X72267700Y-65281100D02*
G01*
X70845700Y-65281100D01*
X70845700Y-63859100D01*
X72267700Y-63859100D01*
X72267700Y-65281100D01*
X72267700Y-65281100D01*
G37*
G36*
X63867700Y-65281100D02*
G01*
X62445700Y-65281100D01*
X62445700Y-63859100D01*
X63867700Y-63859100D01*
X63867700Y-65281100D01*
X63867700Y-65281100D01*
G37*
G36*
X61767700Y-65281100D02*
G01*
X60345700Y-65281100D01*
X60345700Y-63859100D01*
X61767700Y-63859100D01*
X61767700Y-65281100D01*
X61767700Y-65281100D01*
G37*
G36*
X53038100Y-64963200D02*
G01*
X50736100Y-64963200D01*
X50736100Y-63811200D01*
X53038100Y-63811200D01*
X53038100Y-64963200D01*
X53038100Y-64963200D01*
G37*
G36*
X77234668Y-62753565D02*
G01*
X77273338Y-62765296D01*
X77308977Y-62784346D01*
X77340217Y-62809983D01*
X77365854Y-62841223D01*
X77384904Y-62876862D01*
X77396635Y-62915532D01*
X77401200Y-62961888D01*
X77401200Y-64038112D01*
X77396635Y-64084468D01*
X77384904Y-64123138D01*
X77365854Y-64158777D01*
X77340217Y-64190017D01*
X77308977Y-64215654D01*
X77273338Y-64234704D01*
X77234668Y-64246435D01*
X77188312Y-64251000D01*
X76537088Y-64251000D01*
X76490732Y-64246435D01*
X76452062Y-64234704D01*
X76416423Y-64215654D01*
X76385183Y-64190017D01*
X76359546Y-64158777D01*
X76340496Y-64123138D01*
X76328765Y-64084468D01*
X76324200Y-64038112D01*
X76324200Y-62961888D01*
X76328765Y-62915532D01*
X76340496Y-62876862D01*
X76359546Y-62841223D01*
X76385183Y-62809983D01*
X76416423Y-62784346D01*
X76452062Y-62765296D01*
X76490732Y-62753565D01*
X76537088Y-62749000D01*
X77188312Y-62749000D01*
X77234668Y-62753565D01*
X77234668Y-62753565D01*
G37*
G36*
X79109668Y-62753565D02*
G01*
X79148338Y-62765296D01*
X79183977Y-62784346D01*
X79215217Y-62809983D01*
X79240854Y-62841223D01*
X79259904Y-62876862D01*
X79271635Y-62915532D01*
X79276200Y-62961888D01*
X79276200Y-64038112D01*
X79271635Y-64084468D01*
X79259904Y-64123138D01*
X79240854Y-64158777D01*
X79215217Y-64190017D01*
X79183977Y-64215654D01*
X79148338Y-64234704D01*
X79109668Y-64246435D01*
X79063312Y-64251000D01*
X78412088Y-64251000D01*
X78365732Y-64246435D01*
X78327062Y-64234704D01*
X78291423Y-64215654D01*
X78260183Y-64190017D01*
X78234546Y-64158777D01*
X78215496Y-64123138D01*
X78203765Y-64084468D01*
X78199200Y-64038112D01*
X78199200Y-62961888D01*
X78203765Y-62915532D01*
X78215496Y-62876862D01*
X78234546Y-62841223D01*
X78260183Y-62809983D01*
X78291423Y-62784346D01*
X78327062Y-62765296D01*
X78365732Y-62753565D01*
X78412088Y-62749000D01*
X79063312Y-62749000D01*
X79109668Y-62753565D01*
X79109668Y-62753565D01*
G37*
G36*
X102358142Y-62173718D02*
G01*
X102424327Y-62180237D01*
X102594166Y-62231757D01*
X102750691Y-62315422D01*
X102786429Y-62344752D01*
X102887886Y-62428014D01*
X102971148Y-62529471D01*
X103000478Y-62565209D01*
X103084143Y-62721734D01*
X103135663Y-62891573D01*
X103153059Y-63068200D01*
X103135663Y-63244827D01*
X103084143Y-63414666D01*
X103000478Y-63571191D01*
X102971148Y-63606929D01*
X102887886Y-63708386D01*
X102786429Y-63791648D01*
X102750691Y-63820978D01*
X102594166Y-63904643D01*
X102424327Y-63956163D01*
X102358143Y-63962681D01*
X102291960Y-63969200D01*
X102203440Y-63969200D01*
X102137257Y-63962681D01*
X102071073Y-63956163D01*
X101901234Y-63904643D01*
X101744709Y-63820978D01*
X101708971Y-63791648D01*
X101607514Y-63708386D01*
X101524252Y-63606929D01*
X101494922Y-63571191D01*
X101411257Y-63414666D01*
X101359737Y-63244827D01*
X101342341Y-63068200D01*
X101359737Y-62891573D01*
X101411257Y-62721734D01*
X101494922Y-62565209D01*
X101524252Y-62529471D01*
X101607514Y-62428014D01*
X101708971Y-62344752D01*
X101744709Y-62315422D01*
X101901234Y-62231757D01*
X102071073Y-62180237D01*
X102137258Y-62173718D01*
X102203440Y-62167200D01*
X102291960Y-62167200D01*
X102358142Y-62173718D01*
X102358142Y-62173718D01*
G37*
G36*
X82038142Y-62173718D02*
G01*
X82104327Y-62180237D01*
X82274166Y-62231757D01*
X82430691Y-62315422D01*
X82466429Y-62344752D01*
X82567886Y-62428014D01*
X82651148Y-62529471D01*
X82680478Y-62565209D01*
X82764143Y-62721734D01*
X82815663Y-62891573D01*
X82833059Y-63068200D01*
X82815663Y-63244827D01*
X82764143Y-63414666D01*
X82680478Y-63571191D01*
X82651148Y-63606929D01*
X82567886Y-63708386D01*
X82466429Y-63791648D01*
X82430691Y-63820978D01*
X82274166Y-63904643D01*
X82104327Y-63956163D01*
X82038143Y-63962681D01*
X81971960Y-63969200D01*
X81883440Y-63969200D01*
X81817257Y-63962681D01*
X81751073Y-63956163D01*
X81581234Y-63904643D01*
X81424709Y-63820978D01*
X81388971Y-63791648D01*
X81287514Y-63708386D01*
X81204252Y-63606929D01*
X81174922Y-63571191D01*
X81091257Y-63414666D01*
X81039737Y-63244827D01*
X81022341Y-63068200D01*
X81039737Y-62891573D01*
X81091257Y-62721734D01*
X81174922Y-62565209D01*
X81204252Y-62529471D01*
X81287514Y-62428014D01*
X81388971Y-62344752D01*
X81424709Y-62315422D01*
X81581234Y-62231757D01*
X81751073Y-62180237D01*
X81817258Y-62173718D01*
X81883440Y-62167200D01*
X81971960Y-62167200D01*
X82038142Y-62173718D01*
X82038142Y-62173718D01*
G37*
G36*
X73437700Y-62921100D02*
G01*
X59175700Y-62921100D01*
X59175700Y-61019100D01*
X73437700Y-61019100D01*
X73437700Y-62921100D01*
X73437700Y-62921100D01*
G37*
G36*
X51758468Y-60480265D02*
G01*
X51797138Y-60491996D01*
X51832777Y-60511046D01*
X51864017Y-60536683D01*
X51889654Y-60567923D01*
X51908704Y-60603562D01*
X51920435Y-60642232D01*
X51925000Y-60688588D01*
X51925000Y-61764812D01*
X51920435Y-61811168D01*
X51908704Y-61849838D01*
X51889654Y-61885477D01*
X51864017Y-61916717D01*
X51832777Y-61942354D01*
X51797138Y-61961404D01*
X51758468Y-61973135D01*
X51712112Y-61977700D01*
X51060888Y-61977700D01*
X51014532Y-61973135D01*
X50975862Y-61961404D01*
X50940223Y-61942354D01*
X50908983Y-61916717D01*
X50883346Y-61885477D01*
X50864296Y-61849838D01*
X50852565Y-61811168D01*
X50848000Y-61764812D01*
X50848000Y-60688588D01*
X50852565Y-60642232D01*
X50864296Y-60603562D01*
X50883346Y-60567923D01*
X50908983Y-60536683D01*
X50940223Y-60511046D01*
X50975862Y-60491996D01*
X51014532Y-60480265D01*
X51060888Y-60475700D01*
X51712112Y-60475700D01*
X51758468Y-60480265D01*
X51758468Y-60480265D01*
G37*
G36*
X53633468Y-60480265D02*
G01*
X53672138Y-60491996D01*
X53707777Y-60511046D01*
X53739017Y-60536683D01*
X53764654Y-60567923D01*
X53783704Y-60603562D01*
X53795435Y-60642232D01*
X53800000Y-60688588D01*
X53800000Y-61764812D01*
X53795435Y-61811168D01*
X53783704Y-61849838D01*
X53764654Y-61885477D01*
X53739017Y-61916717D01*
X53707777Y-61942354D01*
X53672138Y-61961404D01*
X53633468Y-61973135D01*
X53587112Y-61977700D01*
X52935888Y-61977700D01*
X52889532Y-61973135D01*
X52850862Y-61961404D01*
X52815223Y-61942354D01*
X52783983Y-61916717D01*
X52758346Y-61885477D01*
X52739296Y-61849838D01*
X52727565Y-61811168D01*
X52723000Y-61764812D01*
X52723000Y-60688588D01*
X52727565Y-60642232D01*
X52739296Y-60603562D01*
X52758346Y-60567923D01*
X52783983Y-60536683D01*
X52815223Y-60511046D01*
X52850862Y-60491996D01*
X52889532Y-60480265D01*
X52935888Y-60475700D01*
X53587112Y-60475700D01*
X53633468Y-60480265D01*
X53633468Y-60480265D01*
G37*
G36*
X103148700Y-61429200D02*
G01*
X101346700Y-61429200D01*
X101346700Y-59627200D01*
X103148700Y-59627200D01*
X103148700Y-61429200D01*
X103148700Y-61429200D01*
G37*
G36*
X82038142Y-59633718D02*
G01*
X82104327Y-59640237D01*
X82274166Y-59691757D01*
X82430691Y-59775422D01*
X82466429Y-59804752D01*
X82567886Y-59888014D01*
X82651148Y-59989471D01*
X82680478Y-60025209D01*
X82764143Y-60181734D01*
X82815663Y-60351573D01*
X82833059Y-60528200D01*
X82815663Y-60704827D01*
X82764143Y-60874666D01*
X82680478Y-61031191D01*
X82651148Y-61066929D01*
X82567886Y-61168386D01*
X82466429Y-61251648D01*
X82430691Y-61280978D01*
X82274166Y-61364643D01*
X82104327Y-61416163D01*
X82038142Y-61422682D01*
X81971960Y-61429200D01*
X81883440Y-61429200D01*
X81817258Y-61422682D01*
X81751073Y-61416163D01*
X81581234Y-61364643D01*
X81424709Y-61280978D01*
X81388971Y-61251648D01*
X81287514Y-61168386D01*
X81204252Y-61066929D01*
X81174922Y-61031191D01*
X81091257Y-60874666D01*
X81039737Y-60704827D01*
X81022341Y-60528200D01*
X81039737Y-60351573D01*
X81091257Y-60181734D01*
X81174922Y-60025209D01*
X81204252Y-59989471D01*
X81287514Y-59888014D01*
X81388971Y-59804752D01*
X81424709Y-59775422D01*
X81581234Y-59691757D01*
X81751073Y-59640237D01*
X81817258Y-59633718D01*
X81883440Y-59627200D01*
X81971960Y-59627200D01*
X82038142Y-59633718D01*
X82038142Y-59633718D01*
G37*
G36*
X77260068Y-59337265D02*
G01*
X77298738Y-59348996D01*
X77334377Y-59368046D01*
X77365617Y-59393683D01*
X77391254Y-59424923D01*
X77410304Y-59460562D01*
X77422035Y-59499232D01*
X77426600Y-59545588D01*
X77426600Y-60621812D01*
X77422035Y-60668168D01*
X77410304Y-60706838D01*
X77391254Y-60742477D01*
X77365617Y-60773717D01*
X77334377Y-60799354D01*
X77298738Y-60818404D01*
X77260068Y-60830135D01*
X77213712Y-60834700D01*
X76562488Y-60834700D01*
X76516132Y-60830135D01*
X76477462Y-60818404D01*
X76441823Y-60799354D01*
X76410583Y-60773717D01*
X76384946Y-60742477D01*
X76365896Y-60706838D01*
X76354165Y-60668168D01*
X76349600Y-60621812D01*
X76349600Y-59545588D01*
X76354165Y-59499232D01*
X76365896Y-59460562D01*
X76384946Y-59424923D01*
X76410583Y-59393683D01*
X76441823Y-59368046D01*
X76477462Y-59348996D01*
X76516132Y-59337265D01*
X76562488Y-59332700D01*
X77213712Y-59332700D01*
X77260068Y-59337265D01*
X77260068Y-59337265D01*
G37*
G36*
X79135068Y-59337265D02*
G01*
X79173738Y-59348996D01*
X79209377Y-59368046D01*
X79240617Y-59393683D01*
X79266254Y-59424923D01*
X79285304Y-59460562D01*
X79297035Y-59499232D01*
X79301600Y-59545588D01*
X79301600Y-60621812D01*
X79297035Y-60668168D01*
X79285304Y-60706838D01*
X79266254Y-60742477D01*
X79240617Y-60773717D01*
X79209377Y-60799354D01*
X79173738Y-60818404D01*
X79135068Y-60830135D01*
X79088712Y-60834700D01*
X78437488Y-60834700D01*
X78391132Y-60830135D01*
X78352462Y-60818404D01*
X78316823Y-60799354D01*
X78285583Y-60773717D01*
X78259946Y-60742477D01*
X78240896Y-60706838D01*
X78229165Y-60668168D01*
X78224600Y-60621812D01*
X78224600Y-59545588D01*
X78229165Y-59499232D01*
X78240896Y-59460562D01*
X78259946Y-59424923D01*
X78285583Y-59393683D01*
X78316823Y-59368046D01*
X78352462Y-59348996D01*
X78391132Y-59337265D01*
X78437488Y-59332700D01*
X79088712Y-59332700D01*
X79135068Y-59337265D01*
X79135068Y-59337265D01*
G37*
G36*
X79668468Y-57432265D02*
G01*
X79707138Y-57443996D01*
X79742777Y-57463046D01*
X79774017Y-57488683D01*
X79799654Y-57519923D01*
X79818704Y-57555562D01*
X79830435Y-57594232D01*
X79835000Y-57640588D01*
X79835000Y-58716812D01*
X79830435Y-58763168D01*
X79818704Y-58801838D01*
X79799654Y-58837477D01*
X79774017Y-58868717D01*
X79742777Y-58894354D01*
X79707138Y-58913404D01*
X79668468Y-58925135D01*
X79622112Y-58929700D01*
X78970888Y-58929700D01*
X78924532Y-58925135D01*
X78885862Y-58913404D01*
X78850223Y-58894354D01*
X78818983Y-58868717D01*
X78793346Y-58837477D01*
X78774296Y-58801838D01*
X78762565Y-58763168D01*
X78758000Y-58716812D01*
X78758000Y-57640588D01*
X78762565Y-57594232D01*
X78774296Y-57555562D01*
X78793346Y-57519923D01*
X78818983Y-57488683D01*
X78850223Y-57463046D01*
X78885862Y-57443996D01*
X78924532Y-57432265D01*
X78970888Y-57427700D01*
X79622112Y-57427700D01*
X79668468Y-57432265D01*
X79668468Y-57432265D01*
G37*
G36*
X77793468Y-57432265D02*
G01*
X77832138Y-57443996D01*
X77867777Y-57463046D01*
X77899017Y-57488683D01*
X77924654Y-57519923D01*
X77943704Y-57555562D01*
X77955435Y-57594232D01*
X77960000Y-57640588D01*
X77960000Y-58716812D01*
X77955435Y-58763168D01*
X77943704Y-58801838D01*
X77924654Y-58837477D01*
X77899017Y-58868717D01*
X77867777Y-58894354D01*
X77832138Y-58913404D01*
X77793468Y-58925135D01*
X77747112Y-58929700D01*
X77095888Y-58929700D01*
X77049532Y-58925135D01*
X77010862Y-58913404D01*
X76975223Y-58894354D01*
X76943983Y-58868717D01*
X76918346Y-58837477D01*
X76899296Y-58801838D01*
X76887565Y-58763168D01*
X76883000Y-58716812D01*
X76883000Y-57640588D01*
X76887565Y-57594232D01*
X76899296Y-57555562D01*
X76918346Y-57519923D01*
X76943983Y-57488683D01*
X76975223Y-57463046D01*
X77010862Y-57443996D01*
X77049532Y-57432265D01*
X77095888Y-57427700D01*
X77747112Y-57427700D01*
X77793468Y-57432265D01*
X77793468Y-57432265D01*
G37*
G36*
X82038142Y-57093718D02*
G01*
X82104327Y-57100237D01*
X82274166Y-57151757D01*
X82430691Y-57235422D01*
X82466429Y-57264752D01*
X82567886Y-57348014D01*
X82646655Y-57443996D01*
X82680478Y-57485209D01*
X82689520Y-57502126D01*
X82763531Y-57640588D01*
X82764143Y-57641734D01*
X82815663Y-57811573D01*
X82833059Y-57988200D01*
X82815663Y-58164827D01*
X82764143Y-58334666D01*
X82680478Y-58491191D01*
X82651148Y-58526929D01*
X82567886Y-58628386D01*
X82466429Y-58711648D01*
X82430691Y-58740978D01*
X82274166Y-58824643D01*
X82104327Y-58876163D01*
X82038142Y-58882682D01*
X81971960Y-58889200D01*
X81883440Y-58889200D01*
X81817258Y-58882682D01*
X81751073Y-58876163D01*
X81581234Y-58824643D01*
X81424709Y-58740978D01*
X81388971Y-58711648D01*
X81287514Y-58628386D01*
X81204252Y-58526929D01*
X81174922Y-58491191D01*
X81091257Y-58334666D01*
X81039737Y-58164827D01*
X81022341Y-57988200D01*
X81039737Y-57811573D01*
X81091257Y-57641734D01*
X81091870Y-57640588D01*
X81165880Y-57502126D01*
X81174922Y-57485209D01*
X81208745Y-57443996D01*
X81287514Y-57348014D01*
X81388971Y-57264752D01*
X81424709Y-57235422D01*
X81581234Y-57151757D01*
X81751073Y-57100237D01*
X81817258Y-57093718D01*
X81883440Y-57087200D01*
X81971960Y-57087200D01*
X82038142Y-57093718D01*
X82038142Y-57093718D01*
G37*
G36*
X53468368Y-56594065D02*
G01*
X53507038Y-56605796D01*
X53542677Y-56624846D01*
X53573917Y-56650483D01*
X53599554Y-56681723D01*
X53618604Y-56717362D01*
X53630335Y-56756032D01*
X53634900Y-56802388D01*
X53634900Y-57878612D01*
X53630335Y-57924968D01*
X53618604Y-57963638D01*
X53599554Y-57999277D01*
X53573917Y-58030517D01*
X53542677Y-58056154D01*
X53507038Y-58075204D01*
X53468368Y-58086935D01*
X53422012Y-58091500D01*
X52770788Y-58091500D01*
X52724432Y-58086935D01*
X52685762Y-58075204D01*
X52650123Y-58056154D01*
X52618883Y-58030517D01*
X52593246Y-57999277D01*
X52574196Y-57963638D01*
X52562465Y-57924968D01*
X52557900Y-57878612D01*
X52557900Y-56802388D01*
X52562465Y-56756032D01*
X52574196Y-56717362D01*
X52593246Y-56681723D01*
X52618883Y-56650483D01*
X52650123Y-56624846D01*
X52685762Y-56605796D01*
X52724432Y-56594065D01*
X52770788Y-56589500D01*
X53422012Y-56589500D01*
X53468368Y-56594065D01*
X53468368Y-56594065D01*
G37*
G36*
X51593368Y-56594065D02*
G01*
X51632038Y-56605796D01*
X51667677Y-56624846D01*
X51698917Y-56650483D01*
X51724554Y-56681723D01*
X51743604Y-56717362D01*
X51755335Y-56756032D01*
X51759900Y-56802388D01*
X51759900Y-57878612D01*
X51755335Y-57924968D01*
X51743604Y-57963638D01*
X51724554Y-57999277D01*
X51698917Y-58030517D01*
X51667677Y-58056154D01*
X51632038Y-58075204D01*
X51593368Y-58086935D01*
X51547012Y-58091500D01*
X50895788Y-58091500D01*
X50849432Y-58086935D01*
X50810762Y-58075204D01*
X50775123Y-58056154D01*
X50743883Y-58030517D01*
X50718246Y-57999277D01*
X50699196Y-57963638D01*
X50687465Y-57924968D01*
X50682900Y-57878612D01*
X50682900Y-56802388D01*
X50687465Y-56756032D01*
X50699196Y-56717362D01*
X50718246Y-56681723D01*
X50743883Y-56650483D01*
X50775123Y-56624846D01*
X50810762Y-56605796D01*
X50849432Y-56594065D01*
X50895788Y-56589500D01*
X51547012Y-56589500D01*
X51593368Y-56594065D01*
X51593368Y-56594065D01*
G37*
G36*
X74808200Y-57992800D02*
G01*
X74056200Y-57992800D01*
X74056200Y-56830800D01*
X74808200Y-56830800D01*
X74808200Y-57992800D01*
X74808200Y-57992800D01*
G37*
G36*
X72908200Y-57992800D02*
G01*
X72156200Y-57992800D01*
X72156200Y-56830800D01*
X72908200Y-56830800D01*
X72908200Y-57992800D01*
X72908200Y-57992800D01*
G37*
G36*
X71653668Y-56867765D02*
G01*
X71692338Y-56879496D01*
X71727977Y-56898546D01*
X71759217Y-56924183D01*
X71784854Y-56955423D01*
X71803904Y-56991062D01*
X71815635Y-57029732D01*
X71820200Y-57076088D01*
X71820200Y-57727312D01*
X71815635Y-57773668D01*
X71803904Y-57812338D01*
X71784854Y-57847977D01*
X71759217Y-57879217D01*
X71727977Y-57904854D01*
X71692338Y-57923904D01*
X71653668Y-57935635D01*
X71607312Y-57940200D01*
X70531088Y-57940200D01*
X70484732Y-57935635D01*
X70446062Y-57923904D01*
X70410423Y-57904854D01*
X70379183Y-57879217D01*
X70353546Y-57847977D01*
X70334496Y-57812338D01*
X70322765Y-57773668D01*
X70318200Y-57727312D01*
X70318200Y-57076088D01*
X70322765Y-57029732D01*
X70334496Y-56991062D01*
X70353546Y-56955423D01*
X70379183Y-56924183D01*
X70410423Y-56898546D01*
X70446062Y-56879496D01*
X70484732Y-56867765D01*
X70531088Y-56863200D01*
X71607312Y-56863200D01*
X71653668Y-56867765D01*
X71653668Y-56867765D01*
G37*
G36*
X69787868Y-56009865D02*
G01*
X69826538Y-56021596D01*
X69862177Y-56040646D01*
X69893417Y-56066283D01*
X69919054Y-56097523D01*
X69938104Y-56133162D01*
X69949835Y-56171832D01*
X69954400Y-56218188D01*
X69954400Y-57294412D01*
X69949835Y-57340768D01*
X69938104Y-57379438D01*
X69919054Y-57415077D01*
X69893417Y-57446317D01*
X69862177Y-57471954D01*
X69826538Y-57491004D01*
X69787868Y-57502735D01*
X69741512Y-57507300D01*
X69090288Y-57507300D01*
X69043932Y-57502735D01*
X69005262Y-57491004D01*
X68969623Y-57471954D01*
X68938383Y-57446317D01*
X68912746Y-57415077D01*
X68893696Y-57379438D01*
X68881965Y-57340768D01*
X68877400Y-57294412D01*
X68877400Y-56218188D01*
X68881965Y-56171832D01*
X68893696Y-56133162D01*
X68912746Y-56097523D01*
X68938383Y-56066283D01*
X68969623Y-56040646D01*
X69005262Y-56021596D01*
X69043932Y-56009865D01*
X69090288Y-56005300D01*
X69741512Y-56005300D01*
X69787868Y-56009865D01*
X69787868Y-56009865D01*
G37*
G36*
X67912868Y-56009865D02*
G01*
X67951538Y-56021596D01*
X67987177Y-56040646D01*
X68018417Y-56066283D01*
X68044054Y-56097523D01*
X68063104Y-56133162D01*
X68074835Y-56171832D01*
X68079400Y-56218188D01*
X68079400Y-57294412D01*
X68074835Y-57340768D01*
X68063104Y-57379438D01*
X68044054Y-57415077D01*
X68018417Y-57446317D01*
X67987177Y-57471954D01*
X67951538Y-57491004D01*
X67912868Y-57502735D01*
X67866512Y-57507300D01*
X67215288Y-57507300D01*
X67168932Y-57502735D01*
X67130262Y-57491004D01*
X67094623Y-57471954D01*
X67063383Y-57446317D01*
X67037746Y-57415077D01*
X67018696Y-57379438D01*
X67006965Y-57340768D01*
X67002400Y-57294412D01*
X67002400Y-56218188D01*
X67006965Y-56171832D01*
X67018696Y-56133162D01*
X67037746Y-56097523D01*
X67063383Y-56066283D01*
X67094623Y-56040646D01*
X67130262Y-56021596D01*
X67168932Y-56009865D01*
X67215288Y-56005300D01*
X67866512Y-56005300D01*
X67912868Y-56009865D01*
X67912868Y-56009865D01*
G37*
G36*
X77660768Y-55927965D02*
G01*
X77699438Y-55939696D01*
X77735077Y-55958746D01*
X77766317Y-55984383D01*
X77791954Y-56015623D01*
X77811004Y-56051262D01*
X77822735Y-56089932D01*
X77827300Y-56136288D01*
X77827300Y-56787512D01*
X77822735Y-56833868D01*
X77811004Y-56872538D01*
X77791954Y-56908177D01*
X77766317Y-56939417D01*
X77735077Y-56965054D01*
X77699438Y-56984104D01*
X77660768Y-56995835D01*
X77614412Y-57000400D01*
X76538188Y-57000400D01*
X76491832Y-56995835D01*
X76453162Y-56984104D01*
X76417523Y-56965054D01*
X76386283Y-56939417D01*
X76360646Y-56908177D01*
X76341596Y-56872538D01*
X76329865Y-56833868D01*
X76325300Y-56787512D01*
X76325300Y-56136288D01*
X76329865Y-56089932D01*
X76341596Y-56051262D01*
X76360646Y-56015623D01*
X76386283Y-55984383D01*
X76417523Y-55958746D01*
X76453162Y-55939696D01*
X76491832Y-55927965D01*
X76538188Y-55923400D01*
X77614412Y-55923400D01*
X77660768Y-55927965D01*
X77660768Y-55927965D01*
G37*
G36*
X82038143Y-54553719D02*
G01*
X82104327Y-54560237D01*
X82274166Y-54611757D01*
X82430691Y-54695422D01*
X82466429Y-54724752D01*
X82567886Y-54808014D01*
X82650498Y-54908678D01*
X82680478Y-54945209D01*
X82680479Y-54945211D01*
X82744197Y-55064417D01*
X82764143Y-55101734D01*
X82815663Y-55271573D01*
X82833059Y-55448200D01*
X82815663Y-55624827D01*
X82764143Y-55794666D01*
X82680478Y-55951191D01*
X82656219Y-55980750D01*
X82567886Y-56088386D01*
X82467050Y-56171139D01*
X82430691Y-56200978D01*
X82274166Y-56284643D01*
X82104327Y-56336163D01*
X82038142Y-56342682D01*
X81971960Y-56349200D01*
X81883440Y-56349200D01*
X81817258Y-56342682D01*
X81751073Y-56336163D01*
X81581234Y-56284643D01*
X81424709Y-56200978D01*
X81388350Y-56171139D01*
X81287514Y-56088386D01*
X81199181Y-55980750D01*
X81174922Y-55951191D01*
X81091257Y-55794666D01*
X81039737Y-55624827D01*
X81022341Y-55448200D01*
X81039737Y-55271573D01*
X81091257Y-55101734D01*
X81111204Y-55064417D01*
X81174921Y-54945211D01*
X81174922Y-54945209D01*
X81204902Y-54908678D01*
X81287514Y-54808014D01*
X81388971Y-54724752D01*
X81424709Y-54695422D01*
X81581234Y-54611757D01*
X81751073Y-54560237D01*
X81817257Y-54553719D01*
X81883440Y-54547200D01*
X81971960Y-54547200D01*
X82038143Y-54553719D01*
X82038143Y-54553719D01*
G37*
G36*
X53468368Y-54752565D02*
G01*
X53507038Y-54764296D01*
X53542677Y-54783346D01*
X53573917Y-54808983D01*
X53599554Y-54840223D01*
X53618604Y-54875862D01*
X53630335Y-54914532D01*
X53634900Y-54960888D01*
X53634900Y-56037112D01*
X53630335Y-56083468D01*
X53618604Y-56122138D01*
X53599554Y-56157777D01*
X53573917Y-56189017D01*
X53542677Y-56214654D01*
X53507038Y-56233704D01*
X53468368Y-56245435D01*
X53422012Y-56250000D01*
X52770788Y-56250000D01*
X52724432Y-56245435D01*
X52685762Y-56233704D01*
X52650123Y-56214654D01*
X52618883Y-56189017D01*
X52593246Y-56157777D01*
X52574196Y-56122138D01*
X52562465Y-56083468D01*
X52557900Y-56037112D01*
X52557900Y-54960888D01*
X52562465Y-54914532D01*
X52574196Y-54875862D01*
X52593246Y-54840223D01*
X52618883Y-54808983D01*
X52650123Y-54783346D01*
X52685762Y-54764296D01*
X52724432Y-54752565D01*
X52770788Y-54748000D01*
X53422012Y-54748000D01*
X53468368Y-54752565D01*
X53468368Y-54752565D01*
G37*
G36*
X51593368Y-54752565D02*
G01*
X51632038Y-54764296D01*
X51667677Y-54783346D01*
X51698917Y-54808983D01*
X51724554Y-54840223D01*
X51743604Y-54875862D01*
X51755335Y-54914532D01*
X51759900Y-54960888D01*
X51759900Y-56037112D01*
X51755335Y-56083468D01*
X51743604Y-56122138D01*
X51724554Y-56157777D01*
X51698917Y-56189017D01*
X51667677Y-56214654D01*
X51632038Y-56233704D01*
X51593368Y-56245435D01*
X51547012Y-56250000D01*
X50895788Y-56250000D01*
X50849432Y-56245435D01*
X50810762Y-56233704D01*
X50775123Y-56214654D01*
X50743883Y-56189017D01*
X50718246Y-56157777D01*
X50699196Y-56122138D01*
X50687465Y-56083468D01*
X50682900Y-56037112D01*
X50682900Y-54960888D01*
X50687465Y-54914532D01*
X50699196Y-54875862D01*
X50718246Y-54840223D01*
X50743883Y-54808983D01*
X50775123Y-54783346D01*
X50810762Y-54764296D01*
X50849432Y-54752565D01*
X50895788Y-54748000D01*
X51547012Y-54748000D01*
X51593368Y-54752565D01*
X51593368Y-54752565D01*
G37*
G36*
X71653668Y-54992765D02*
G01*
X71692338Y-55004496D01*
X71727977Y-55023546D01*
X71759217Y-55049183D01*
X71784854Y-55080423D01*
X71803904Y-55116062D01*
X71815635Y-55154732D01*
X71820200Y-55201088D01*
X71820200Y-55852312D01*
X71815635Y-55898668D01*
X71803904Y-55937338D01*
X71784854Y-55972977D01*
X71759217Y-56004217D01*
X71727977Y-56029854D01*
X71692338Y-56048904D01*
X71653668Y-56060635D01*
X71607312Y-56065200D01*
X70531088Y-56065200D01*
X70484732Y-56060635D01*
X70446062Y-56048904D01*
X70410423Y-56029854D01*
X70379183Y-56004217D01*
X70353546Y-55972977D01*
X70334496Y-55937338D01*
X70322765Y-55898668D01*
X70318200Y-55852312D01*
X70318200Y-55201088D01*
X70322765Y-55154732D01*
X70334496Y-55116062D01*
X70353546Y-55080423D01*
X70379183Y-55049183D01*
X70410423Y-55023546D01*
X70446062Y-55004496D01*
X70484732Y-54992765D01*
X70531088Y-54988200D01*
X71607312Y-54988200D01*
X71653668Y-54992765D01*
X71653668Y-54992765D01*
G37*
G36*
X74808200Y-55792800D02*
G01*
X72156200Y-55792800D01*
X72156200Y-54630800D01*
X74808200Y-54630800D01*
X74808200Y-55792800D01*
X74808200Y-55792800D01*
G37*
G36*
X77660768Y-54052965D02*
G01*
X77699438Y-54064696D01*
X77735077Y-54083746D01*
X77766317Y-54109383D01*
X77791954Y-54140623D01*
X77811004Y-54176262D01*
X77822735Y-54214932D01*
X77827300Y-54261288D01*
X77827300Y-54912512D01*
X77822735Y-54958868D01*
X77811004Y-54997538D01*
X77791954Y-55033177D01*
X77766317Y-55064417D01*
X77735077Y-55090054D01*
X77699438Y-55109104D01*
X77660768Y-55120835D01*
X77614412Y-55125400D01*
X76538188Y-55125400D01*
X76491832Y-55120835D01*
X76453162Y-55109104D01*
X76417523Y-55090054D01*
X76386283Y-55064417D01*
X76360646Y-55033177D01*
X76341596Y-54997538D01*
X76329865Y-54958868D01*
X76325300Y-54912512D01*
X76325300Y-54261288D01*
X76329865Y-54214932D01*
X76341596Y-54176262D01*
X76360646Y-54140623D01*
X76386283Y-54109383D01*
X76417523Y-54083746D01*
X76453162Y-54064696D01*
X76491832Y-54052965D01*
X76538188Y-54048400D01*
X77614412Y-54048400D01*
X77660768Y-54052965D01*
X77660768Y-54052965D01*
G37*
G36*
X53468368Y-52923765D02*
G01*
X53507038Y-52935496D01*
X53542677Y-52954546D01*
X53573917Y-52980183D01*
X53599554Y-53011423D01*
X53618604Y-53047062D01*
X53630335Y-53085732D01*
X53634900Y-53132088D01*
X53634900Y-54208312D01*
X53630335Y-54254668D01*
X53618604Y-54293338D01*
X53599554Y-54328977D01*
X53573917Y-54360217D01*
X53542677Y-54385854D01*
X53507038Y-54404904D01*
X53468368Y-54416635D01*
X53422012Y-54421200D01*
X52770788Y-54421200D01*
X52724432Y-54416635D01*
X52685762Y-54404904D01*
X52650123Y-54385854D01*
X52618883Y-54360217D01*
X52593246Y-54328977D01*
X52574196Y-54293338D01*
X52562465Y-54254668D01*
X52557900Y-54208312D01*
X52557900Y-53132088D01*
X52562465Y-53085732D01*
X52574196Y-53047062D01*
X52593246Y-53011423D01*
X52618883Y-52980183D01*
X52650123Y-52954546D01*
X52685762Y-52935496D01*
X52724432Y-52923765D01*
X52770788Y-52919200D01*
X53422012Y-52919200D01*
X53468368Y-52923765D01*
X53468368Y-52923765D01*
G37*
G36*
X51593368Y-52923765D02*
G01*
X51632038Y-52935496D01*
X51667677Y-52954546D01*
X51698917Y-52980183D01*
X51724554Y-53011423D01*
X51743604Y-53047062D01*
X51755335Y-53085732D01*
X51759900Y-53132088D01*
X51759900Y-54208312D01*
X51755335Y-54254668D01*
X51743604Y-54293338D01*
X51724554Y-54328977D01*
X51698917Y-54360217D01*
X51667677Y-54385854D01*
X51632038Y-54404904D01*
X51593368Y-54416635D01*
X51547012Y-54421200D01*
X50895788Y-54421200D01*
X50849432Y-54416635D01*
X50810762Y-54404904D01*
X50775123Y-54385854D01*
X50743883Y-54360217D01*
X50718246Y-54328977D01*
X50699196Y-54293338D01*
X50687465Y-54254668D01*
X50682900Y-54208312D01*
X50682900Y-53132088D01*
X50687465Y-53085732D01*
X50699196Y-53047062D01*
X50718246Y-53011423D01*
X50743883Y-52980183D01*
X50775123Y-52954546D01*
X50810762Y-52935496D01*
X50849432Y-52923765D01*
X50895788Y-52919200D01*
X51547012Y-52919200D01*
X51593368Y-52923765D01*
X51593368Y-52923765D01*
G37*
G36*
X82038142Y-52013718D02*
G01*
X82104327Y-52020237D01*
X82274166Y-52071757D01*
X82430691Y-52155422D01*
X82466429Y-52184752D01*
X82567886Y-52268014D01*
X82633979Y-52348550D01*
X82680478Y-52405209D01*
X82764143Y-52561734D01*
X82815663Y-52731573D01*
X82833059Y-52908200D01*
X82815663Y-53084827D01*
X82764143Y-53254666D01*
X82680478Y-53411191D01*
X82655951Y-53441077D01*
X82567886Y-53548386D01*
X82466429Y-53631648D01*
X82430691Y-53660978D01*
X82274166Y-53744643D01*
X82104327Y-53796163D01*
X82038143Y-53802681D01*
X81971960Y-53809200D01*
X81883440Y-53809200D01*
X81817257Y-53802681D01*
X81751073Y-53796163D01*
X81581234Y-53744643D01*
X81424709Y-53660978D01*
X81388971Y-53631648D01*
X81287514Y-53548386D01*
X81199449Y-53441077D01*
X81174922Y-53411191D01*
X81091257Y-53254666D01*
X81039737Y-53084827D01*
X81022341Y-52908200D01*
X81039737Y-52731573D01*
X81091257Y-52561734D01*
X81174922Y-52405209D01*
X81221421Y-52348550D01*
X81287514Y-52268014D01*
X81388971Y-52184752D01*
X81424709Y-52155422D01*
X81581234Y-52071757D01*
X81751073Y-52020237D01*
X81817258Y-52013718D01*
X81883440Y-52007200D01*
X81971960Y-52007200D01*
X82038142Y-52013718D01*
X82038142Y-52013718D01*
G37*
G36*
X79781668Y-52460865D02*
G01*
X79820338Y-52472596D01*
X79855977Y-52491646D01*
X79887217Y-52517283D01*
X79912854Y-52548523D01*
X79931904Y-52584162D01*
X79943635Y-52622832D01*
X79948200Y-52669188D01*
X79948200Y-53320412D01*
X79943635Y-53366768D01*
X79931904Y-53405438D01*
X79912854Y-53441077D01*
X79887217Y-53472317D01*
X79855977Y-53497954D01*
X79820338Y-53517004D01*
X79781668Y-53528735D01*
X79735312Y-53533300D01*
X78659088Y-53533300D01*
X78612732Y-53528735D01*
X78574062Y-53517004D01*
X78538423Y-53497954D01*
X78507183Y-53472317D01*
X78481546Y-53441077D01*
X78462496Y-53405438D01*
X78450765Y-53366768D01*
X78446200Y-53320412D01*
X78446200Y-52669188D01*
X78450765Y-52622832D01*
X78462496Y-52584162D01*
X78481546Y-52548523D01*
X78507183Y-52517283D01*
X78538423Y-52491646D01*
X78574062Y-52472596D01*
X78612732Y-52460865D01*
X78659088Y-52456300D01*
X79735312Y-52456300D01*
X79781668Y-52460865D01*
X79781668Y-52460865D01*
G37*
G36*
X53468368Y-51120365D02*
G01*
X53507038Y-51132096D01*
X53542677Y-51151146D01*
X53573917Y-51176783D01*
X53599554Y-51208023D01*
X53618604Y-51243662D01*
X53630335Y-51282332D01*
X53634900Y-51328688D01*
X53634900Y-52404912D01*
X53630335Y-52451268D01*
X53618604Y-52489938D01*
X53599554Y-52525577D01*
X53573917Y-52556817D01*
X53542677Y-52582454D01*
X53507038Y-52601504D01*
X53468368Y-52613235D01*
X53422012Y-52617800D01*
X52770788Y-52617800D01*
X52724432Y-52613235D01*
X52685762Y-52601504D01*
X52650123Y-52582454D01*
X52618883Y-52556817D01*
X52593246Y-52525577D01*
X52574196Y-52489938D01*
X52562465Y-52451268D01*
X52557900Y-52404912D01*
X52557900Y-51328688D01*
X52562465Y-51282332D01*
X52574196Y-51243662D01*
X52593246Y-51208023D01*
X52618883Y-51176783D01*
X52650123Y-51151146D01*
X52685762Y-51132096D01*
X52724432Y-51120365D01*
X52770788Y-51115800D01*
X53422012Y-51115800D01*
X53468368Y-51120365D01*
X53468368Y-51120365D01*
G37*
G36*
X51593368Y-51120365D02*
G01*
X51632038Y-51132096D01*
X51667677Y-51151146D01*
X51698917Y-51176783D01*
X51724554Y-51208023D01*
X51743604Y-51243662D01*
X51755335Y-51282332D01*
X51759900Y-51328688D01*
X51759900Y-52404912D01*
X51755335Y-52451268D01*
X51743604Y-52489938D01*
X51724554Y-52525577D01*
X51698917Y-52556817D01*
X51667677Y-52582454D01*
X51632038Y-52601504D01*
X51593368Y-52613235D01*
X51547012Y-52617800D01*
X50895788Y-52617800D01*
X50849432Y-52613235D01*
X50810762Y-52601504D01*
X50775123Y-52582454D01*
X50743883Y-52556817D01*
X50718246Y-52525577D01*
X50699196Y-52489938D01*
X50687465Y-52451268D01*
X50682900Y-52404912D01*
X50682900Y-51328688D01*
X50687465Y-51282332D01*
X50699196Y-51243662D01*
X50718246Y-51208023D01*
X50743883Y-51176783D01*
X50775123Y-51151146D01*
X50810762Y-51132096D01*
X50849432Y-51120365D01*
X50895788Y-51115800D01*
X51547012Y-51115800D01*
X51593368Y-51120365D01*
X51593368Y-51120365D01*
G37*
G36*
X75834600Y-51871200D02*
G01*
X74482600Y-51871200D01*
X74482600Y-50770200D01*
X75834600Y-50770200D01*
X75834600Y-51871200D01*
X75834600Y-51871200D01*
G37*
G36*
X79781668Y-50585865D02*
G01*
X79820338Y-50597596D01*
X79855977Y-50616646D01*
X79887217Y-50642283D01*
X79912854Y-50673523D01*
X79931904Y-50709162D01*
X79943635Y-50747832D01*
X79948200Y-50794188D01*
X79948200Y-51445412D01*
X79943635Y-51491768D01*
X79931904Y-51530438D01*
X79912854Y-51566077D01*
X79887217Y-51597317D01*
X79855977Y-51622954D01*
X79820338Y-51642004D01*
X79781668Y-51653735D01*
X79735312Y-51658300D01*
X78659088Y-51658300D01*
X78612732Y-51653735D01*
X78574062Y-51642004D01*
X78538423Y-51622954D01*
X78507183Y-51597317D01*
X78481546Y-51566077D01*
X78462496Y-51530438D01*
X78450765Y-51491768D01*
X78446200Y-51445412D01*
X78446200Y-50794188D01*
X78450765Y-50747832D01*
X78462496Y-50709162D01*
X78481546Y-50673523D01*
X78507183Y-50642283D01*
X78538423Y-50616646D01*
X78574062Y-50597596D01*
X78612732Y-50585865D01*
X78659088Y-50581300D01*
X79735312Y-50581300D01*
X79781668Y-50585865D01*
X79781668Y-50585865D01*
G37*
G36*
X82828700Y-51269200D02*
G01*
X81026700Y-51269200D01*
X81026700Y-49467200D01*
X82828700Y-49467200D01*
X82828700Y-51269200D01*
X82828700Y-51269200D01*
G37*
G36*
X66586368Y-49476365D02*
G01*
X66625038Y-49488096D01*
X66660677Y-49507146D01*
X66691917Y-49532783D01*
X66717554Y-49564023D01*
X66736604Y-49599662D01*
X66748335Y-49638332D01*
X66752900Y-49684688D01*
X66752900Y-50335912D01*
X66748335Y-50382268D01*
X66736604Y-50420938D01*
X66717554Y-50456577D01*
X66691917Y-50487817D01*
X66660677Y-50513454D01*
X66625038Y-50532504D01*
X66586368Y-50544235D01*
X66540012Y-50548800D01*
X65463788Y-50548800D01*
X65417432Y-50544235D01*
X65378762Y-50532504D01*
X65343123Y-50513454D01*
X65311883Y-50487817D01*
X65286246Y-50456577D01*
X65267196Y-50420938D01*
X65255465Y-50382268D01*
X65250900Y-50335912D01*
X65250900Y-49684688D01*
X65255465Y-49638332D01*
X65267196Y-49599662D01*
X65286246Y-49564023D01*
X65311883Y-49532783D01*
X65343123Y-49507146D01*
X65378762Y-49488096D01*
X65417432Y-49476365D01*
X65463788Y-49471800D01*
X66540012Y-49471800D01*
X66586368Y-49476365D01*
X66586368Y-49476365D01*
G37*
G36*
X68389768Y-49450965D02*
G01*
X68428438Y-49462696D01*
X68464077Y-49481746D01*
X68495317Y-49507383D01*
X68520954Y-49538623D01*
X68540004Y-49574262D01*
X68551735Y-49612932D01*
X68556300Y-49659288D01*
X68556300Y-50310512D01*
X68551735Y-50356868D01*
X68540004Y-50395538D01*
X68520954Y-50431177D01*
X68495317Y-50462417D01*
X68464077Y-50488054D01*
X68428438Y-50507104D01*
X68389768Y-50518835D01*
X68343412Y-50523400D01*
X67267188Y-50523400D01*
X67220832Y-50518835D01*
X67182162Y-50507104D01*
X67146523Y-50488054D01*
X67115283Y-50462417D01*
X67089646Y-50431177D01*
X67070596Y-50395538D01*
X67058865Y-50356868D01*
X67054300Y-50310512D01*
X67054300Y-49659288D01*
X67058865Y-49612932D01*
X67070596Y-49574262D01*
X67089646Y-49538623D01*
X67115283Y-49507383D01*
X67146523Y-49481746D01*
X67182162Y-49462696D01*
X67220832Y-49450965D01*
X67267188Y-49446400D01*
X68343412Y-49446400D01*
X68389768Y-49450965D01*
X68389768Y-49450965D01*
G37*
G36*
X64795668Y-49438265D02*
G01*
X64834338Y-49449996D01*
X64869977Y-49469046D01*
X64901217Y-49494683D01*
X64926854Y-49525923D01*
X64945904Y-49561562D01*
X64957635Y-49600232D01*
X64962200Y-49646588D01*
X64962200Y-50297812D01*
X64957635Y-50344168D01*
X64945904Y-50382838D01*
X64926854Y-50418477D01*
X64901217Y-50449717D01*
X64869977Y-50475354D01*
X64834338Y-50494404D01*
X64795668Y-50506135D01*
X64749312Y-50510700D01*
X63673088Y-50510700D01*
X63626732Y-50506135D01*
X63588062Y-50494404D01*
X63552423Y-50475354D01*
X63521183Y-50449717D01*
X63495546Y-50418477D01*
X63476496Y-50382838D01*
X63464765Y-50344168D01*
X63460200Y-50297812D01*
X63460200Y-49646588D01*
X63464765Y-49600232D01*
X63476496Y-49561562D01*
X63495546Y-49525923D01*
X63521183Y-49494683D01*
X63552423Y-49469046D01*
X63588062Y-49449996D01*
X63626732Y-49438265D01*
X63673088Y-49433700D01*
X64749312Y-49433700D01*
X64795668Y-49438265D01*
X64795668Y-49438265D01*
G37*
G36*
X74880900Y-46625900D02*
G01*
X73533399Y-46625900D01*
X73509013Y-46628302D01*
X73485564Y-46635415D01*
X73463953Y-46646966D01*
X73445011Y-46662511D01*
X73429466Y-46681453D01*
X73417915Y-46703064D01*
X73410802Y-46726513D01*
X73408400Y-46750899D01*
X73408400Y-47418901D01*
X73410802Y-47443287D01*
X73417915Y-47466736D01*
X73429466Y-47488347D01*
X73445011Y-47507289D01*
X73463953Y-47522834D01*
X73485564Y-47534385D01*
X73509013Y-47541498D01*
X73533399Y-47543900D01*
X76631401Y-47543900D01*
X76655787Y-47541498D01*
X76679236Y-47534385D01*
X76700847Y-47522834D01*
X76719789Y-47507289D01*
X76735334Y-47488347D01*
X76746885Y-47466736D01*
X76753998Y-47443287D01*
X76756400Y-47418901D01*
X76756400Y-46750899D01*
X76753998Y-46726513D01*
X76746885Y-46703064D01*
X76735334Y-46681453D01*
X76719789Y-46662511D01*
X76700847Y-46646966D01*
X76679236Y-46635415D01*
X76655787Y-46628302D01*
X76631401Y-46625900D01*
X75283900Y-46625900D01*
X75283900Y-44623900D01*
X79230900Y-44623900D01*
X79230900Y-46625900D01*
X78458399Y-46625900D01*
X78434013Y-46628302D01*
X78410564Y-46635415D01*
X78388953Y-46646966D01*
X78370011Y-46662511D01*
X78354466Y-46681453D01*
X78342915Y-46703064D01*
X78335802Y-46726513D01*
X78333400Y-46750899D01*
X78333400Y-49025900D01*
X71831400Y-49025900D01*
X71831400Y-46750899D01*
X71828998Y-46726513D01*
X71821885Y-46703064D01*
X71810334Y-46681453D01*
X71794789Y-46662511D01*
X71775847Y-46646966D01*
X71754236Y-46635415D01*
X71730787Y-46628302D01*
X71706401Y-46625900D01*
X70933900Y-46625900D01*
X70933900Y-44623900D01*
X74880900Y-44623900D01*
X74880900Y-46625900D01*
X74880900Y-46625900D01*
G37*
G36*
X66586368Y-47601365D02*
G01*
X66625038Y-47613096D01*
X66660677Y-47632146D01*
X66691917Y-47657783D01*
X66717554Y-47689023D01*
X66736604Y-47724662D01*
X66748335Y-47763332D01*
X66752900Y-47809688D01*
X66752900Y-48460912D01*
X66748335Y-48507268D01*
X66736604Y-48545938D01*
X66717554Y-48581577D01*
X66691917Y-48612817D01*
X66660677Y-48638454D01*
X66625038Y-48657504D01*
X66586368Y-48669235D01*
X66540012Y-48673800D01*
X65463788Y-48673800D01*
X65417432Y-48669235D01*
X65378762Y-48657504D01*
X65343123Y-48638454D01*
X65311883Y-48612817D01*
X65286246Y-48581577D01*
X65267196Y-48545938D01*
X65255465Y-48507268D01*
X65250900Y-48460912D01*
X65250900Y-47809688D01*
X65255465Y-47763332D01*
X65267196Y-47724662D01*
X65286246Y-47689023D01*
X65311883Y-47657783D01*
X65343123Y-47632146D01*
X65378762Y-47613096D01*
X65417432Y-47601365D01*
X65463788Y-47596800D01*
X66540012Y-47596800D01*
X66586368Y-47601365D01*
X66586368Y-47601365D01*
G37*
G36*
X68389768Y-47575965D02*
G01*
X68428438Y-47587696D01*
X68464077Y-47606746D01*
X68495317Y-47632383D01*
X68520954Y-47663623D01*
X68540004Y-47699262D01*
X68551735Y-47737932D01*
X68556300Y-47784288D01*
X68556300Y-48435512D01*
X68551735Y-48481868D01*
X68540004Y-48520538D01*
X68520954Y-48556177D01*
X68495317Y-48587417D01*
X68464077Y-48613054D01*
X68428438Y-48632104D01*
X68389768Y-48643835D01*
X68343412Y-48648400D01*
X67267188Y-48648400D01*
X67220832Y-48643835D01*
X67182162Y-48632104D01*
X67146523Y-48613054D01*
X67115283Y-48587417D01*
X67089646Y-48556177D01*
X67070596Y-48520538D01*
X67058865Y-48481868D01*
X67054300Y-48435512D01*
X67054300Y-47784288D01*
X67058865Y-47737932D01*
X67070596Y-47699262D01*
X67089646Y-47663623D01*
X67115283Y-47632383D01*
X67146523Y-47606746D01*
X67182162Y-47587696D01*
X67220832Y-47575965D01*
X67267188Y-47571400D01*
X68343412Y-47571400D01*
X68389768Y-47575965D01*
X68389768Y-47575965D01*
G37*
G36*
X64795668Y-47563265D02*
G01*
X64834338Y-47574996D01*
X64869977Y-47594046D01*
X64901217Y-47619683D01*
X64926854Y-47650923D01*
X64945904Y-47686562D01*
X64957635Y-47725232D01*
X64962200Y-47771588D01*
X64962200Y-48422812D01*
X64957635Y-48469168D01*
X64945904Y-48507838D01*
X64926854Y-48543477D01*
X64901217Y-48574717D01*
X64869977Y-48600354D01*
X64834338Y-48619404D01*
X64795668Y-48631135D01*
X64749312Y-48635700D01*
X63673088Y-48635700D01*
X63626732Y-48631135D01*
X63588062Y-48619404D01*
X63552423Y-48600354D01*
X63521183Y-48574717D01*
X63495546Y-48543477D01*
X63476496Y-48507838D01*
X63464765Y-48469168D01*
X63460200Y-48422812D01*
X63460200Y-47771588D01*
X63464765Y-47725232D01*
X63476496Y-47686562D01*
X63495546Y-47650923D01*
X63521183Y-47619683D01*
X63552423Y-47594046D01*
X63588062Y-47574996D01*
X63626732Y-47563265D01*
X63673088Y-47558700D01*
X64749312Y-47558700D01*
X64795668Y-47563265D01*
X64795668Y-47563265D01*
G37*
G36*
X101546785Y-44682175D02*
G01*
X101901843Y-44829245D01*
X101901845Y-44829246D01*
X102221390Y-45042759D01*
X102493141Y-45314510D01*
X102616356Y-45498915D01*
X102706655Y-45634057D01*
X102853725Y-45989115D01*
X102928700Y-46366042D01*
X102928700Y-46750358D01*
X102853725Y-47127285D01*
X102706655Y-47482343D01*
X102706654Y-47482345D01*
X102493141Y-47801890D01*
X102221390Y-48073641D01*
X101901845Y-48287154D01*
X101901844Y-48287155D01*
X101901843Y-48287155D01*
X101546785Y-48434225D01*
X101169858Y-48509200D01*
X100785542Y-48509200D01*
X100408615Y-48434225D01*
X100053557Y-48287155D01*
X100053556Y-48287155D01*
X100053555Y-48287154D01*
X99734010Y-48073641D01*
X99462259Y-47801890D01*
X99248746Y-47482345D01*
X99248745Y-47482343D01*
X99101675Y-47127285D01*
X99026700Y-46750358D01*
X99026700Y-46366042D01*
X99101675Y-45989115D01*
X99248745Y-45634057D01*
X99339044Y-45498915D01*
X99462259Y-45314510D01*
X99734010Y-45042759D01*
X100053555Y-44829246D01*
X100053557Y-44829245D01*
X100408615Y-44682175D01*
X100785542Y-44607200D01*
X101169858Y-44607200D01*
X101546785Y-44682175D01*
X101546785Y-44682175D01*
G37*
G36*
X83766785Y-44682175D02*
G01*
X84121843Y-44829245D01*
X84121845Y-44829246D01*
X84441390Y-45042759D01*
X84713141Y-45314510D01*
X84836356Y-45498915D01*
X84926655Y-45634057D01*
X85073725Y-45989115D01*
X85148700Y-46366042D01*
X85148700Y-46750358D01*
X85073725Y-47127285D01*
X84926655Y-47482343D01*
X84926654Y-47482345D01*
X84713141Y-47801890D01*
X84441390Y-48073641D01*
X84121845Y-48287154D01*
X84121844Y-48287155D01*
X84121843Y-48287155D01*
X83766785Y-48434225D01*
X83389858Y-48509200D01*
X83005542Y-48509200D01*
X82628615Y-48434225D01*
X82273557Y-48287155D01*
X82273556Y-48287155D01*
X82273555Y-48287154D01*
X81954010Y-48073641D01*
X81682259Y-47801890D01*
X81468746Y-47482345D01*
X81468745Y-47482343D01*
X81321675Y-47127285D01*
X81246700Y-46750358D01*
X81246700Y-46366042D01*
X81321675Y-45989115D01*
X81468745Y-45634057D01*
X81559044Y-45498915D01*
X81682259Y-45314510D01*
X81954010Y-45042759D01*
X82273555Y-44829246D01*
X82273557Y-44829245D01*
X82628615Y-44682175D01*
X83005542Y-44607200D01*
X83389858Y-44607200D01*
X83766785Y-44682175D01*
X83766785Y-44682175D01*
G37*
G36*
X52551900Y-47040100D02*
G01*
X50749900Y-47040100D01*
X50749900Y-45238100D01*
X52551900Y-45238100D01*
X52551900Y-47040100D01*
X52551900Y-47040100D01*
G37*
G36*
X61921343Y-45244619D02*
G01*
X61987527Y-45251137D01*
X62157366Y-45302657D01*
X62313891Y-45386322D01*
X62349629Y-45415652D01*
X62451086Y-45498914D01*
X62534348Y-45600371D01*
X62563678Y-45636109D01*
X62647343Y-45792634D01*
X62698863Y-45962473D01*
X62716259Y-46139100D01*
X62698863Y-46315727D01*
X62647343Y-46485566D01*
X62563678Y-46642091D01*
X62534348Y-46677829D01*
X62451086Y-46779286D01*
X62349629Y-46862548D01*
X62313891Y-46891878D01*
X62157366Y-46975543D01*
X61987527Y-47027063D01*
X61921342Y-47033582D01*
X61855160Y-47040100D01*
X61766640Y-47040100D01*
X61700457Y-47033581D01*
X61634273Y-47027063D01*
X61464434Y-46975543D01*
X61307909Y-46891878D01*
X61272171Y-46862548D01*
X61170714Y-46779286D01*
X61087452Y-46677829D01*
X61058122Y-46642091D01*
X60974457Y-46485566D01*
X60922937Y-46315727D01*
X60905541Y-46139100D01*
X60922937Y-45962473D01*
X60974457Y-45792634D01*
X61058122Y-45636109D01*
X61087452Y-45600371D01*
X61170714Y-45498914D01*
X61272171Y-45415652D01*
X61307909Y-45386322D01*
X61464434Y-45302657D01*
X61634273Y-45251137D01*
X61700457Y-45244619D01*
X61766640Y-45238100D01*
X61855160Y-45238100D01*
X61921343Y-45244619D01*
X61921343Y-45244619D01*
G37*
G36*
X56841343Y-45244619D02*
G01*
X56907527Y-45251137D01*
X57077366Y-45302657D01*
X57233891Y-45386322D01*
X57269629Y-45415652D01*
X57371086Y-45498914D01*
X57454348Y-45600371D01*
X57483678Y-45636109D01*
X57567343Y-45792634D01*
X57618863Y-45962473D01*
X57636259Y-46139100D01*
X57618863Y-46315727D01*
X57567343Y-46485566D01*
X57483678Y-46642091D01*
X57454348Y-46677829D01*
X57371086Y-46779286D01*
X57269629Y-46862548D01*
X57233891Y-46891878D01*
X57077366Y-46975543D01*
X56907527Y-47027063D01*
X56841343Y-47033581D01*
X56775160Y-47040100D01*
X56686640Y-47040100D01*
X56620457Y-47033581D01*
X56554273Y-47027063D01*
X56384434Y-46975543D01*
X56227909Y-46891878D01*
X56192171Y-46862548D01*
X56090714Y-46779286D01*
X56007452Y-46677829D01*
X55978122Y-46642091D01*
X55894457Y-46485566D01*
X55842937Y-46315727D01*
X55825541Y-46139100D01*
X55842937Y-45962473D01*
X55894457Y-45792634D01*
X55978122Y-45636109D01*
X56007452Y-45600371D01*
X56090714Y-45498914D01*
X56192171Y-45415652D01*
X56227909Y-45386322D01*
X56384434Y-45302657D01*
X56554273Y-45251137D01*
X56620457Y-45244619D01*
X56686640Y-45238100D01*
X56775160Y-45238100D01*
X56841343Y-45244619D01*
X56841343Y-45244619D01*
G37*
G36*
X59381343Y-45244619D02*
G01*
X59447527Y-45251137D01*
X59617366Y-45302657D01*
X59773891Y-45386322D01*
X59809629Y-45415652D01*
X59911086Y-45498914D01*
X59994348Y-45600371D01*
X60023678Y-45636109D01*
X60107343Y-45792634D01*
X60158863Y-45962473D01*
X60176259Y-46139100D01*
X60158863Y-46315727D01*
X60107343Y-46485566D01*
X60023678Y-46642091D01*
X59994348Y-46677829D01*
X59911086Y-46779286D01*
X59809629Y-46862548D01*
X59773891Y-46891878D01*
X59617366Y-46975543D01*
X59447527Y-47027063D01*
X59381342Y-47033582D01*
X59315160Y-47040100D01*
X59226640Y-47040100D01*
X59160457Y-47033581D01*
X59094273Y-47027063D01*
X58924434Y-46975543D01*
X58767909Y-46891878D01*
X58732171Y-46862548D01*
X58630714Y-46779286D01*
X58547452Y-46677829D01*
X58518122Y-46642091D01*
X58434457Y-46485566D01*
X58382937Y-46315727D01*
X58365541Y-46139100D01*
X58382937Y-45962473D01*
X58434457Y-45792634D01*
X58518122Y-45636109D01*
X58547452Y-45600371D01*
X58630714Y-45498914D01*
X58732171Y-45415652D01*
X58767909Y-45386322D01*
X58924434Y-45302657D01*
X59094273Y-45251137D01*
X59160457Y-45244619D01*
X59226640Y-45238100D01*
X59315160Y-45238100D01*
X59381343Y-45244619D01*
X59381343Y-45244619D01*
G37*
G36*
X64461343Y-45244619D02*
G01*
X64527527Y-45251137D01*
X64697366Y-45302657D01*
X64853891Y-45386322D01*
X64889629Y-45415652D01*
X64991086Y-45498914D01*
X65074348Y-45600371D01*
X65103678Y-45636109D01*
X65187343Y-45792634D01*
X65238863Y-45962473D01*
X65256259Y-46139100D01*
X65238863Y-46315727D01*
X65187343Y-46485566D01*
X65103678Y-46642091D01*
X65074348Y-46677829D01*
X64991086Y-46779286D01*
X64889629Y-46862548D01*
X64853891Y-46891878D01*
X64697366Y-46975543D01*
X64527527Y-47027063D01*
X64461342Y-47033582D01*
X64395160Y-47040100D01*
X64306640Y-47040100D01*
X64240457Y-47033581D01*
X64174273Y-47027063D01*
X64004434Y-46975543D01*
X63847909Y-46891878D01*
X63812171Y-46862548D01*
X63710714Y-46779286D01*
X63627452Y-46677829D01*
X63598122Y-46642091D01*
X63514457Y-46485566D01*
X63462937Y-46315727D01*
X63445541Y-46139100D01*
X63462937Y-45962473D01*
X63514457Y-45792634D01*
X63598122Y-45636109D01*
X63627452Y-45600371D01*
X63710714Y-45498914D01*
X63812171Y-45415652D01*
X63847909Y-45386322D01*
X64004434Y-45302657D01*
X64174273Y-45251137D01*
X64240457Y-45244619D01*
X64306640Y-45238100D01*
X64395160Y-45238100D01*
X64461343Y-45244619D01*
X64461343Y-45244619D01*
G37*
G36*
X67001343Y-45244619D02*
G01*
X67067527Y-45251137D01*
X67237366Y-45302657D01*
X67393891Y-45386322D01*
X67429629Y-45415652D01*
X67531086Y-45498914D01*
X67614348Y-45600371D01*
X67643678Y-45636109D01*
X67727343Y-45792634D01*
X67778863Y-45962473D01*
X67796259Y-46139100D01*
X67778863Y-46315727D01*
X67727343Y-46485566D01*
X67643678Y-46642091D01*
X67614348Y-46677829D01*
X67531086Y-46779286D01*
X67429629Y-46862548D01*
X67393891Y-46891878D01*
X67237366Y-46975543D01*
X67067527Y-47027063D01*
X67001342Y-47033582D01*
X66935160Y-47040100D01*
X66846640Y-47040100D01*
X66780457Y-47033581D01*
X66714273Y-47027063D01*
X66544434Y-46975543D01*
X66387909Y-46891878D01*
X66352171Y-46862548D01*
X66250714Y-46779286D01*
X66167452Y-46677829D01*
X66138122Y-46642091D01*
X66054457Y-46485566D01*
X66002937Y-46315727D01*
X65985541Y-46139100D01*
X66002937Y-45962473D01*
X66054457Y-45792634D01*
X66138122Y-45636109D01*
X66167452Y-45600371D01*
X66250714Y-45498914D01*
X66352171Y-45415652D01*
X66387909Y-45386322D01*
X66544434Y-45302657D01*
X66714273Y-45251137D01*
X66780457Y-45244619D01*
X66846640Y-45238100D01*
X66935160Y-45238100D01*
X67001343Y-45244619D01*
X67001343Y-45244619D01*
G37*
G36*
X54301343Y-45244619D02*
G01*
X54367527Y-45251137D01*
X54537366Y-45302657D01*
X54693891Y-45386322D01*
X54729629Y-45415652D01*
X54831086Y-45498914D01*
X54914348Y-45600371D01*
X54943678Y-45636109D01*
X55027343Y-45792634D01*
X55078863Y-45962473D01*
X55096259Y-46139100D01*
X55078863Y-46315727D01*
X55027343Y-46485566D01*
X54943678Y-46642091D01*
X54914348Y-46677829D01*
X54831086Y-46779286D01*
X54729629Y-46862548D01*
X54693891Y-46891878D01*
X54537366Y-46975543D01*
X54367527Y-47027063D01*
X54301343Y-47033581D01*
X54235160Y-47040100D01*
X54146640Y-47040100D01*
X54080457Y-47033581D01*
X54014273Y-47027063D01*
X53844434Y-46975543D01*
X53687909Y-46891878D01*
X53652171Y-46862548D01*
X53550714Y-46779286D01*
X53467452Y-46677829D01*
X53438122Y-46642091D01*
X53354457Y-46485566D01*
X53302937Y-46315727D01*
X53285541Y-46139100D01*
X53302937Y-45962473D01*
X53354457Y-45792634D01*
X53438122Y-45636109D01*
X53467452Y-45600371D01*
X53550714Y-45498914D01*
X53652171Y-45415652D01*
X53687909Y-45386322D01*
X53844434Y-45302657D01*
X54014273Y-45251137D01*
X54080457Y-45244619D01*
X54146640Y-45238100D01*
X54235160Y-45238100D01*
X54301343Y-45244619D01*
X54301343Y-45244619D01*
G37*
M02*
