M48
; DRILL file {KiCad (5.1.4)-1} date 11/16/2019 11:51:00 AM
; FORMAT={-:-/ absolute / inch / decimal}
; #@! TF.CreationDate,2019-11-16T11:51:00-05:00
; #@! TF.GenerationSoftware,Kicad,Pcbnew,(5.1.4)-1
; #@! TF.FileFunction,Plated,1,2,PTH
FMAT,2
INCH
T1C0.0120
T2C0.0130
T3C0.0394
T4C0.0866
%
G90
G05
T1
X1.898Y-3.8235
X2.001Y-2.3305
X2.0285Y-3.365
X2.0465Y-2.4775
X2.1165Y-3.366
X2.1985Y-3.4515
X2.87Y-3.1585
X2.903Y-3.3605
X2.905Y-3.3275
X2.928Y-3.304
X2.928Y-3.383
X3.003Y-3.3845
X3.004Y-3.2995
X3.036Y-3.3615
X3.0545Y-3.326
X3.4345Y-2.984
X3.4345Y-3.0805
X3.4345Y-3.183
X3.4345Y-3.325
X3.4345Y-3.423
X3.5145Y-3.4345
X3.5165Y-3.4745
X3.544Y-3.4075
X3.5655Y-3.121
X3.573Y-3.493
X3.579Y-3.3995
X3.615Y-3.498
X3.639Y-3.393
X3.641Y-3.4325
X3.6415Y-3.4735
X3.6835Y-3.67
X3.744Y-3.099
X3.744Y-3.1615
X3.758Y-3.3155
X3.799Y-3.0995
X3.799Y-3.163
X3.8455Y-3.1015
T2
X1.752Y-1.803
X1.752Y-1.985
X1.752Y-2.1669
X1.752Y-2.3489
X1.752Y-2.5308
X1.752Y-2.7128
X1.752Y-2.8947
X1.752Y-3.0767
X1.752Y-3.2586
X1.752Y-3.4406
X1.752Y-3.6225
X1.752Y-3.8045
X1.7545Y-3.95
X1.811Y-3.9895
X1.864Y-2.9045
X1.8705Y-3.2555
X1.872Y-2.724
X1.8735Y-3.089
X1.8745Y-2.162
X1.8745Y-2.3675
X1.8745Y-2.535
X1.8795Y-3.431
X1.8795Y-3.557
X1.8815Y-3.5165
X1.884Y-1.802
X1.8875Y-1.989
X1.8935Y-3.6475
X1.96Y-3.429
X1.9695Y-3.345
X1.9725Y-1.973
X1.9935Y-1.889
X1.9965Y-2.825
X1.9985Y-2.936
X2.0025Y-3.0295
X2.0255Y-2.7405
X2.0428Y-2.6932
X2.0475Y-2.624
X2.0535Y-2.5705
X2.054Y-2.5955
X2.0555Y-2.886
X2.0595Y-3.0795
X2.069Y-2.544
X2.0709Y-2.6511
X2.077Y-1.742
X2.079Y-1.9785
X2.085Y-2.9405
X2.097Y-1.8705
X2.1045Y-2.549
X2.1045Y-2.6385
X2.1155Y-3.1475
X2.13Y-2.331
X2.131Y-2.8545
X2.1315Y-2.638
X2.1325Y-3.0315
X2.133Y-2.549
X2.1515Y-2.4355
X2.1596Y-2.6366
X2.1615Y-2.5495
X2.184Y-2.668
X2.1855Y-2.9495
X2.186Y-3.198
X2.1886Y-2.6366
X2.1895Y-1.742
X2.19Y-3.3465
X2.1925Y-3.3985
X2.1935Y-2.549
X2.199Y-1.8815
X2.2095Y-1.9735
X2.214Y-2.4845
X2.2145Y-3.2635
X2.221Y-2.8545
X2.223Y-2.7285
X2.224Y-2.7805
X2.2255Y-2.5475
X2.228Y-3.037
X2.2295Y-3.0835
X2.23Y-3.147
X2.2315Y-3.1955
X2.2325Y-2.9565
X2.248Y-2.7095
X2.257Y-2.5485
X2.2575Y-2.7455
X2.26Y-2.775
X2.261Y-3.267
X2.265Y-3.444
X2.266Y-2.5185
X2.27Y-2.6315
X2.275Y-3.361
X2.276Y-2.0445
X2.2945Y-2.514
X2.297Y-2.434
X2.3Y-2.4875
X2.3025Y-1.8885
X2.3055Y-3.1645
X2.3105Y-2.1465
X2.3265Y-2.514
X2.334Y-3.335
X2.336Y-3.4665
X2.3395Y-3.1635
X2.35Y-2.2155
X2.3535Y-1.947
X2.356Y-2.514
X2.367Y-2.6375
X2.371Y-3.1665
X2.373Y-2.5385
X2.374Y-2.5655
X2.374Y-2.9135
X2.375Y-2.5945
X2.375Y-2.996
X2.375Y-3.0795
X2.3755Y-2.6675
X2.376Y-2.834
X2.3775Y-2.7505
X2.393Y-2.62
X2.397Y-2.04
X2.397Y-2.1445
X2.4015Y-1.8855
X2.403Y-3.411
X2.4245Y-2.3025
X2.443Y-2.7485
X2.4435Y-2.9145
X2.4435Y-3.082
X2.444Y-2.332
X2.444Y-2.832
X2.444Y-3.0005
X2.445Y-2.206
X2.4455Y-2.4975
X2.4455Y-2.584
X2.4455Y-3.162
X2.4465Y-2.666
X2.449Y-3.467
X2.452Y-2.2815
X2.4655Y-1.8865
X2.466Y-1.952
X2.4725Y-2.351
X2.476Y-2.257
X2.507Y-2.3585
X2.511Y-2.2335
X2.512Y-2.1445
X2.512Y-3.454
X2.5245Y-2.7525
X2.525Y-3.164
X2.526Y-2.6635
X2.5265Y-2.5825
X2.5275Y-3.079
X2.528Y-2.829
X2.528Y-2.916
X2.5295Y-2.4975
X2.5315Y-2.999
X2.532Y-2.04
X2.548Y-3.452
X2.548Y-3.555
X2.5495Y-3.4135
X2.562Y-2.1715
X2.5685Y-3.6015
X2.578Y-2.0095
X2.5945Y-2.383
X2.602Y-3.6095
X2.6045Y-3.4135
X2.6058Y-2.1715
X2.607Y-2.8295
X2.6095Y-2.9955
X2.61Y-2.584
X2.6105Y-2.4965
X2.6105Y-3.078
X2.6115Y-3.1645
X2.612Y-2.7505
X2.6125Y-2.665
X2.6125Y-2.914
X2.619Y-2.2195
X2.6208Y-2.0095
X2.6285Y-2.375
X2.6395Y-3.4135
X2.643Y-3.6285
X2.645Y-2.3445
X2.6495Y-2.1715
X2.66Y-3.555
X2.6635Y-2.0095
X2.6655Y-3.451
X2.666Y-3.3615
X2.6675Y-3.2985
X2.678Y-2.3355
X2.69Y-2.829
X2.6905Y-2.996
X2.6925Y-2.666
X2.693Y-2.584
X2.6935Y-2.4965
X2.6935Y-2.751
X2.6935Y-3.075
X2.695Y-2.913
X2.696Y-2.273
X2.6965Y-3.164
X2.6985Y-2.308
X2.702Y-2.0125
X2.702Y-2.1815
X2.723Y-3.5285
X2.732Y-3.6865
X2.739Y-2.0125
X2.739Y-2.183
X2.771Y-2.7495
X2.7745Y-2.5835
X2.7755Y-3.1655
X2.777Y-3.0815
X2.7775Y-2.4975
X2.7775Y-2.829
X2.7775Y-2.996
X2.7785Y-2.6655
X2.7805Y-2.916
X2.795Y-2.04
X2.795Y-2.1445
X2.8235Y-3.6765
X2.8355Y-3.788
X2.844Y-2.6655
X2.844Y-3.0775
X2.8445Y-2.747
X2.845Y-2.5825
X2.845Y-2.9155
X2.845Y-2.9965
X2.847Y-2.83
X2.8485Y-2.0515
X2.8495Y-3.5315
X2.8555Y-2.4965
X2.879Y-2.35
X2.8895Y-3.5865
X2.904Y-2.5075
X2.905Y-1.9701
X2.9135Y-2.063
X2.93Y-2.4855
X2.9315Y-2.411
X2.932Y-2.3585
X2.935Y-3.728
X2.941Y-3.491
X2.9552Y-1.7963
X2.9595Y-1.973
X2.971Y-2.7845
X2.985Y-3.904
X2.9855Y-2.196
X2.9895Y-2.731
X2.992Y-2.882
X3.0045Y-2.0545
X3.006Y-3.6825
X3.0175Y-3.5925
X3.0235Y-2.8975
X3.0255Y-3.8165
X3.0275Y-2.768
X3.039Y-3.4875
X3.0425Y-3.4185
X3.045Y-2.857
X3.05Y-3.898
X3.057Y-2.91
X3.075Y-2.4325
X3.0945Y-3.3685
X3.107Y-3.2005
X3.115Y-3.57
X3.1265Y-2.4325
X3.14Y-3.8055
X3.1425Y-3.13
X3.1425Y-3.2905
X3.1475Y-3.444
X3.151Y-2.776
X3.1515Y-2.6595
X3.1535Y-3.987
X3.154Y-2.402
X3.155Y-2.5725
X3.1575Y-2.496
X3.16Y-2.214
X3.1695Y-3.6295
X3.1715Y-2.3365
X3.2225Y-3.5535
X3.2365Y-3.7125
X3.2395Y-3.906
X3.262Y-3.978
X3.276Y-2.134
X3.276Y-2.335
X3.2775Y-2.6325
X3.278Y-2.432
X3.279Y-2.233
X3.2805Y-2.534
X3.2805Y-3.2325
X3.282Y-2.726
X3.2825Y-2.046
X3.2875Y-2.9355
X3.314Y-3.2515
X3.3215Y-2.019
X3.322Y-2.617
X3.323Y-2.4325
X3.323Y-2.523
X3.324Y-1.935
X3.324Y-2.1345
X3.3245Y-3.57
X3.325Y-2.2315
X3.328Y-2.3335
X3.3325Y-2.913
X3.3525Y-3.7785
X3.364Y-3.4925
X3.39Y-1.7405
X3.3965Y-3.252
X3.3975Y-2.8415
X3.399Y-3.83
X3.3995Y-3.576
X3.404Y-3.975
X3.41Y-2.913
X3.4175Y-3.4805
X3.429Y-1.865
X3.429Y-2.404
X3.435Y-2.176
X3.4355Y-3.1345
X3.438Y-3.53
X3.441Y-2.6935
X3.4615Y-3.891
X3.4635Y-3.0305
X3.4775Y-3.4765
X3.4795Y-3.238
X3.483Y-3.757
X3.496Y-2.933
X3.4985Y-3.635
X3.502Y-3.319
X3.51Y-3.9785
X3.512Y-3.164
X3.524Y-3.0935
X3.5365Y-3.8265
X3.541Y-2.538
X3.5455Y-3.3525
X3.5565Y-2.035
X3.5645Y-3.564
X3.5675Y-1.741
X3.5725Y-2.9975
X3.576Y-3.18
X3.595Y-2.8475
X3.5955Y-3.6365
X3.5985Y-3.354
X3.599Y-3.264
X3.6065Y-3.0625
X3.6165Y-2.176
X3.626Y-1.911
X3.628Y-3.7525
X3.635Y-2.7055
X3.6415Y-2.3945
X3.663Y-3.3265
X3.6695Y-3.978
X3.6895Y-3.199
X3.7Y-3.051
X3.7085Y-3.77
X3.712Y-3.272
X3.7275Y-2.964
X3.7295Y-2.8625
X3.74Y-2.6225
X3.747Y-3.6575
X3.75Y-3.4585
X3.7575Y-3.5335
X3.794Y-3.4755
X3.7955Y-2.182
X3.7985Y-3.7075
X3.799Y-1.742
X3.7995Y-3.62
X3.801Y-3.349
X3.8065Y-3.0295
X3.807Y-2.953
X3.807Y-3.31
X3.811Y-2.773
X3.8115Y-3.9815
X3.812Y-2.8815
X3.823Y-2.5115
X3.8295Y-3.2215
X3.8355Y-1.914
X3.8625Y-2.067
X3.8755Y-2.3945
X3.8795Y-2.698
X3.889Y-3.0
X3.892Y-2.9075
X3.894Y-3.1545
X3.898Y-2.797
X3.898Y-3.1025
X3.9115Y-3.9755
X3.952Y-2.2415
X3.959Y-2.6225
X3.9685Y-2.724
X3.972Y-3.9785
X4.005Y-2.0125
X4.043Y-1.7495
X4.048Y-2.1695
X4.051Y-3.9665
T3
X2.523Y-3.8745
X2.623Y-3.8745
X2.723Y-3.8745
X2.823Y-3.8745
X2.923Y-3.8745
X3.2255Y-1.983
X3.2255Y-2.083
X3.2255Y-2.183
X3.2255Y-2.283
X3.2255Y-2.383
X3.2255Y-2.483
X3.2255Y-2.583
X3.2255Y-2.683
X3.2255Y-2.783
X3.2255Y-2.883
X3.2255Y-2.983
X3.2255Y-3.083
X3.2255Y-3.183
X3.2255Y-3.283
X3.2255Y-3.383
X3.2255Y-3.483
X2.0335Y-1.8165
X2.1335Y-1.8165
X2.2335Y-1.8165
X2.3335Y-1.8165
X2.4335Y-1.8165
X2.5335Y-1.8165
X2.6335Y-1.8165
X4.0255Y-2.383
X4.0255Y-2.483
X4.0255Y-2.583
X4.0255Y-2.683
X4.0255Y-2.783
X4.0255Y-2.883
X4.0255Y-2.983
X4.0255Y-3.083
X4.0255Y-3.183
X4.0255Y-3.283
X4.0255Y-3.383
X4.0255Y-3.483
X3.336Y-3.9045
X3.528Y-3.8985
X3.628Y-3.8985
X3.728Y-3.8985
X3.828Y-3.8985
X3.928Y-3.8985
X4.028Y-3.8985
T4
X3.9755Y-1.833
X3.2755Y-1.833
T0
M30
