G04 #@! TF.GenerationSoftware,KiCad,Pcbnew,(5.1.4)-1*
G04 #@! TF.CreationDate,2019-11-16T11:50:56-05:00*
G04 #@! TF.ProjectId,Feather-ZED-F9P-GPS,46656174-6865-4722-9d5a-45442d463950,rev?*
G04 #@! TF.SameCoordinates,Original*
G04 #@! TF.FileFunction,Copper,L2,Bot*
G04 #@! TF.FilePolarity,Positive*
%FSLAX46Y46*%
G04 Gerber Fmt 4.6, Leading zero omitted, Abs format (unit mm)*
G04 Created by KiCad (PCBNEW (5.1.4)-1) date 2019-11-16 11:50:56*
%MOMM*%
%LPD*%
G04 APERTURE LIST*
%ADD10C,0.100000*%
%ADD11O,1.700000X1.700000*%
%ADD12R,1.700000X1.700000*%
%ADD13C,2.000000*%
%ADD14C,0.500000*%
%ADD15C,3.800000*%
%ADD16C,0.660400*%
%ADD17C,0.609600*%
%ADD18C,0.152400*%
%ADD19C,0.508000*%
%ADD20C,0.254000*%
G04 APERTURE END LIST*
D10*
G36*
X93087000Y-79687700D02*
G01*
X92587000Y-79687700D01*
X92587000Y-79087700D01*
X93087000Y-79087700D01*
X93087000Y-79687700D01*
G37*
G36*
X84903500Y-84116900D02*
G01*
X85403500Y-84116900D01*
X85403500Y-84716900D01*
X84903500Y-84716900D01*
X84903500Y-84116900D01*
G37*
G36*
X95017400Y-86482200D02*
G01*
X94517400Y-86482200D01*
X94517400Y-85882200D01*
X95017400Y-85882200D01*
X95017400Y-86482200D01*
G37*
G36*
X84903500Y-86656900D02*
G01*
X85403500Y-86656900D01*
X85403500Y-87256900D01*
X84903500Y-87256900D01*
X84903500Y-86656900D01*
G37*
G36*
X54059100Y-86719600D02*
G01*
X54059100Y-87219600D01*
X53459100Y-87219600D01*
X53459100Y-86719600D01*
X54059100Y-86719600D01*
G37*
G36*
X51823900Y-86719600D02*
G01*
X51823900Y-87219600D01*
X51223900Y-87219600D01*
X51223900Y-86719600D01*
X51823900Y-86719600D01*
G37*
D11*
X66890900Y-46139100D03*
X64350900Y-46139100D03*
X61810900Y-46139100D03*
X59270900Y-46139100D03*
X56730900Y-46139100D03*
X54190900Y-46139100D03*
D12*
X51650900Y-46139100D03*
D11*
X102311200Y-99021900D03*
X99771200Y-99021900D03*
X97231200Y-99021900D03*
X94691200Y-99021900D03*
X92151200Y-99021900D03*
D12*
X89611200Y-99021900D03*
D13*
X84734400Y-99174300D03*
D11*
X74244200Y-98412300D03*
X71704200Y-98412300D03*
X69164200Y-98412300D03*
X66624200Y-98412300D03*
D12*
X64084200Y-98412300D03*
D14*
X84465400Y-75768200D03*
D10*
G36*
X84465400Y-76517598D02*
G01*
X84440866Y-76517598D01*
X84392035Y-76512788D01*
X84343910Y-76503216D01*
X84296955Y-76488972D01*
X84251622Y-76470195D01*
X84208349Y-76447064D01*
X84167550Y-76419804D01*
X84129621Y-76388676D01*
X84094924Y-76353979D01*
X84063796Y-76316050D01*
X84036536Y-76275251D01*
X84013405Y-76231978D01*
X83994628Y-76186645D01*
X83980384Y-76139690D01*
X83970812Y-76091565D01*
X83966002Y-76042734D01*
X83966002Y-76018200D01*
X83965400Y-76018200D01*
X83965400Y-75518200D01*
X83966002Y-75518200D01*
X83966002Y-75493666D01*
X83970812Y-75444835D01*
X83980384Y-75396710D01*
X83994628Y-75349755D01*
X84013405Y-75304422D01*
X84036536Y-75261149D01*
X84063796Y-75220350D01*
X84094924Y-75182421D01*
X84129621Y-75147724D01*
X84167550Y-75116596D01*
X84208349Y-75089336D01*
X84251622Y-75066205D01*
X84296955Y-75047428D01*
X84343910Y-75033184D01*
X84392035Y-75023612D01*
X84440866Y-75018802D01*
X84465400Y-75018802D01*
X84465400Y-75018200D01*
X84965400Y-75018200D01*
X84965400Y-76518200D01*
X84465400Y-76518200D01*
X84465400Y-76517598D01*
X84465400Y-76517598D01*
G37*
D14*
X85765400Y-75768200D03*
D10*
G36*
X85265400Y-75018200D02*
G01*
X85765400Y-75018200D01*
X85765400Y-75018802D01*
X85789934Y-75018802D01*
X85838765Y-75023612D01*
X85886890Y-75033184D01*
X85933845Y-75047428D01*
X85979178Y-75066205D01*
X86022451Y-75089336D01*
X86063250Y-75116596D01*
X86101179Y-75147724D01*
X86135876Y-75182421D01*
X86167004Y-75220350D01*
X86194264Y-75261149D01*
X86217395Y-75304422D01*
X86236172Y-75349755D01*
X86250416Y-75396710D01*
X86259988Y-75444835D01*
X86264798Y-75493666D01*
X86264798Y-75518200D01*
X86265400Y-75518200D01*
X86265400Y-76018200D01*
X86264798Y-76018200D01*
X86264798Y-76042734D01*
X86259988Y-76091565D01*
X86250416Y-76139690D01*
X86236172Y-76186645D01*
X86217395Y-76231978D01*
X86194264Y-76275251D01*
X86167004Y-76316050D01*
X86135876Y-76353979D01*
X86101179Y-76388676D01*
X86063250Y-76419804D01*
X86022451Y-76447064D01*
X85979178Y-76470195D01*
X85933845Y-76488972D01*
X85886890Y-76503216D01*
X85838765Y-76512788D01*
X85789934Y-76517598D01*
X85765400Y-76517598D01*
X85765400Y-76518200D01*
X85265400Y-76518200D01*
X85265400Y-75018200D01*
X85265400Y-75018200D01*
G37*
D14*
X93599000Y-92013800D03*
D10*
G36*
X94348398Y-92013800D02*
G01*
X94348398Y-92038334D01*
X94343588Y-92087165D01*
X94334016Y-92135290D01*
X94319772Y-92182245D01*
X94300995Y-92227578D01*
X94277864Y-92270851D01*
X94250604Y-92311650D01*
X94219476Y-92349579D01*
X94184779Y-92384276D01*
X94146850Y-92415404D01*
X94106051Y-92442664D01*
X94062778Y-92465795D01*
X94017445Y-92484572D01*
X93970490Y-92498816D01*
X93922365Y-92508388D01*
X93873534Y-92513198D01*
X93849000Y-92513198D01*
X93849000Y-92513800D01*
X93349000Y-92513800D01*
X93349000Y-92513198D01*
X93324466Y-92513198D01*
X93275635Y-92508388D01*
X93227510Y-92498816D01*
X93180555Y-92484572D01*
X93135222Y-92465795D01*
X93091949Y-92442664D01*
X93051150Y-92415404D01*
X93013221Y-92384276D01*
X92978524Y-92349579D01*
X92947396Y-92311650D01*
X92920136Y-92270851D01*
X92897005Y-92227578D01*
X92878228Y-92182245D01*
X92863984Y-92135290D01*
X92854412Y-92087165D01*
X92849602Y-92038334D01*
X92849602Y-92013800D01*
X92849000Y-92013800D01*
X92849000Y-91513800D01*
X94349000Y-91513800D01*
X94349000Y-92013800D01*
X94348398Y-92013800D01*
X94348398Y-92013800D01*
G37*
D14*
X93599000Y-90713800D03*
D10*
G36*
X92849000Y-91213800D02*
G01*
X92849000Y-90713800D01*
X92849602Y-90713800D01*
X92849602Y-90689266D01*
X92854412Y-90640435D01*
X92863984Y-90592310D01*
X92878228Y-90545355D01*
X92897005Y-90500022D01*
X92920136Y-90456749D01*
X92947396Y-90415950D01*
X92978524Y-90378021D01*
X93013221Y-90343324D01*
X93051150Y-90312196D01*
X93091949Y-90284936D01*
X93135222Y-90261805D01*
X93180555Y-90243028D01*
X93227510Y-90228784D01*
X93275635Y-90219212D01*
X93324466Y-90214402D01*
X93349000Y-90214402D01*
X93349000Y-90213800D01*
X93849000Y-90213800D01*
X93849000Y-90214402D01*
X93873534Y-90214402D01*
X93922365Y-90219212D01*
X93970490Y-90228784D01*
X94017445Y-90243028D01*
X94062778Y-90261805D01*
X94106051Y-90284936D01*
X94146850Y-90312196D01*
X94184779Y-90343324D01*
X94219476Y-90378021D01*
X94250604Y-90415950D01*
X94277864Y-90456749D01*
X94300995Y-90500022D01*
X94319772Y-90545355D01*
X94334016Y-90592310D01*
X94343588Y-90640435D01*
X94348398Y-90689266D01*
X94348398Y-90713800D01*
X94349000Y-90713800D01*
X94349000Y-91213800D01*
X92849000Y-91213800D01*
X92849000Y-91213800D01*
G37*
D14*
X84452700Y-80848200D03*
D10*
G36*
X84452700Y-81597598D02*
G01*
X84428166Y-81597598D01*
X84379335Y-81592788D01*
X84331210Y-81583216D01*
X84284255Y-81568972D01*
X84238922Y-81550195D01*
X84195649Y-81527064D01*
X84154850Y-81499804D01*
X84116921Y-81468676D01*
X84082224Y-81433979D01*
X84051096Y-81396050D01*
X84023836Y-81355251D01*
X84000705Y-81311978D01*
X83981928Y-81266645D01*
X83967684Y-81219690D01*
X83958112Y-81171565D01*
X83953302Y-81122734D01*
X83953302Y-81098200D01*
X83952700Y-81098200D01*
X83952700Y-80598200D01*
X83953302Y-80598200D01*
X83953302Y-80573666D01*
X83958112Y-80524835D01*
X83967684Y-80476710D01*
X83981928Y-80429755D01*
X84000705Y-80384422D01*
X84023836Y-80341149D01*
X84051096Y-80300350D01*
X84082224Y-80262421D01*
X84116921Y-80227724D01*
X84154850Y-80196596D01*
X84195649Y-80169336D01*
X84238922Y-80146205D01*
X84284255Y-80127428D01*
X84331210Y-80113184D01*
X84379335Y-80103612D01*
X84428166Y-80098802D01*
X84452700Y-80098802D01*
X84452700Y-80098200D01*
X84952700Y-80098200D01*
X84952700Y-81598200D01*
X84452700Y-81598200D01*
X84452700Y-81597598D01*
X84452700Y-81597598D01*
G37*
D14*
X85752700Y-80848200D03*
D10*
G36*
X85252700Y-80098200D02*
G01*
X85752700Y-80098200D01*
X85752700Y-80098802D01*
X85777234Y-80098802D01*
X85826065Y-80103612D01*
X85874190Y-80113184D01*
X85921145Y-80127428D01*
X85966478Y-80146205D01*
X86009751Y-80169336D01*
X86050550Y-80196596D01*
X86088479Y-80227724D01*
X86123176Y-80262421D01*
X86154304Y-80300350D01*
X86181564Y-80341149D01*
X86204695Y-80384422D01*
X86223472Y-80429755D01*
X86237716Y-80476710D01*
X86247288Y-80524835D01*
X86252098Y-80573666D01*
X86252098Y-80598200D01*
X86252700Y-80598200D01*
X86252700Y-81098200D01*
X86252098Y-81098200D01*
X86252098Y-81122734D01*
X86247288Y-81171565D01*
X86237716Y-81219690D01*
X86223472Y-81266645D01*
X86204695Y-81311978D01*
X86181564Y-81355251D01*
X86154304Y-81396050D01*
X86123176Y-81433979D01*
X86088479Y-81468676D01*
X86050550Y-81499804D01*
X86009751Y-81527064D01*
X85966478Y-81550195D01*
X85921145Y-81568972D01*
X85874190Y-81583216D01*
X85826065Y-81592788D01*
X85777234Y-81597598D01*
X85752700Y-81597598D01*
X85752700Y-81598200D01*
X85252700Y-81598200D01*
X85252700Y-80098200D01*
X85252700Y-80098200D01*
G37*
D14*
X84452700Y-78308200D03*
D10*
G36*
X84452700Y-79057598D02*
G01*
X84428166Y-79057598D01*
X84379335Y-79052788D01*
X84331210Y-79043216D01*
X84284255Y-79028972D01*
X84238922Y-79010195D01*
X84195649Y-78987064D01*
X84154850Y-78959804D01*
X84116921Y-78928676D01*
X84082224Y-78893979D01*
X84051096Y-78856050D01*
X84023836Y-78815251D01*
X84000705Y-78771978D01*
X83981928Y-78726645D01*
X83967684Y-78679690D01*
X83958112Y-78631565D01*
X83953302Y-78582734D01*
X83953302Y-78558200D01*
X83952700Y-78558200D01*
X83952700Y-78058200D01*
X83953302Y-78058200D01*
X83953302Y-78033666D01*
X83958112Y-77984835D01*
X83967684Y-77936710D01*
X83981928Y-77889755D01*
X84000705Y-77844422D01*
X84023836Y-77801149D01*
X84051096Y-77760350D01*
X84082224Y-77722421D01*
X84116921Y-77687724D01*
X84154850Y-77656596D01*
X84195649Y-77629336D01*
X84238922Y-77606205D01*
X84284255Y-77587428D01*
X84331210Y-77573184D01*
X84379335Y-77563612D01*
X84428166Y-77558802D01*
X84452700Y-77558802D01*
X84452700Y-77558200D01*
X84952700Y-77558200D01*
X84952700Y-79058200D01*
X84452700Y-79058200D01*
X84452700Y-79057598D01*
X84452700Y-79057598D01*
G37*
D14*
X85752700Y-78308200D03*
D10*
G36*
X85252700Y-77558200D02*
G01*
X85752700Y-77558200D01*
X85752700Y-77558802D01*
X85777234Y-77558802D01*
X85826065Y-77563612D01*
X85874190Y-77573184D01*
X85921145Y-77587428D01*
X85966478Y-77606205D01*
X86009751Y-77629336D01*
X86050550Y-77656596D01*
X86088479Y-77687724D01*
X86123176Y-77722421D01*
X86154304Y-77760350D01*
X86181564Y-77801149D01*
X86204695Y-77844422D01*
X86223472Y-77889755D01*
X86237716Y-77936710D01*
X86247288Y-77984835D01*
X86252098Y-78033666D01*
X86252098Y-78058200D01*
X86252700Y-78058200D01*
X86252700Y-78558200D01*
X86252098Y-78558200D01*
X86252098Y-78582734D01*
X86247288Y-78631565D01*
X86237716Y-78679690D01*
X86223472Y-78726645D01*
X86204695Y-78771978D01*
X86181564Y-78815251D01*
X86154304Y-78856050D01*
X86123176Y-78893979D01*
X86088479Y-78928676D01*
X86050550Y-78959804D01*
X86009751Y-78987064D01*
X85966478Y-79010195D01*
X85921145Y-79028972D01*
X85874190Y-79043216D01*
X85826065Y-79052788D01*
X85777234Y-79057598D01*
X85752700Y-79057598D01*
X85752700Y-79058200D01*
X85252700Y-79058200D01*
X85252700Y-77558200D01*
X85252700Y-77558200D01*
G37*
D14*
X92187000Y-79387700D03*
D10*
G36*
X92687000Y-80137700D02*
G01*
X92187000Y-80137700D01*
X92187000Y-80137098D01*
X92162466Y-80137098D01*
X92113635Y-80132288D01*
X92065510Y-80122716D01*
X92018555Y-80108472D01*
X91973222Y-80089695D01*
X91929949Y-80066564D01*
X91889150Y-80039304D01*
X91851221Y-80008176D01*
X91816524Y-79973479D01*
X91785396Y-79935550D01*
X91758136Y-79894751D01*
X91735005Y-79851478D01*
X91716228Y-79806145D01*
X91701984Y-79759190D01*
X91692412Y-79711065D01*
X91687602Y-79662234D01*
X91687602Y-79637700D01*
X91687000Y-79637700D01*
X91687000Y-79137700D01*
X91687602Y-79137700D01*
X91687602Y-79113166D01*
X91692412Y-79064335D01*
X91701984Y-79016210D01*
X91716228Y-78969255D01*
X91735005Y-78923922D01*
X91758136Y-78880649D01*
X91785396Y-78839850D01*
X91816524Y-78801921D01*
X91851221Y-78767224D01*
X91889150Y-78736096D01*
X91929949Y-78708836D01*
X91973222Y-78685705D01*
X92018555Y-78666928D01*
X92065510Y-78652684D01*
X92113635Y-78643112D01*
X92162466Y-78638302D01*
X92187000Y-78638302D01*
X92187000Y-78637700D01*
X92687000Y-78637700D01*
X92687000Y-80137700D01*
X92687000Y-80137700D01*
G37*
D14*
X93487000Y-79387700D03*
D10*
G36*
X93487000Y-78638302D02*
G01*
X93511534Y-78638302D01*
X93560365Y-78643112D01*
X93608490Y-78652684D01*
X93655445Y-78666928D01*
X93700778Y-78685705D01*
X93744051Y-78708836D01*
X93784850Y-78736096D01*
X93822779Y-78767224D01*
X93857476Y-78801921D01*
X93888604Y-78839850D01*
X93915864Y-78880649D01*
X93938995Y-78923922D01*
X93957772Y-78969255D01*
X93972016Y-79016210D01*
X93981588Y-79064335D01*
X93986398Y-79113166D01*
X93986398Y-79137700D01*
X93987000Y-79137700D01*
X93987000Y-79637700D01*
X93986398Y-79637700D01*
X93986398Y-79662234D01*
X93981588Y-79711065D01*
X93972016Y-79759190D01*
X93957772Y-79806145D01*
X93938995Y-79851478D01*
X93915864Y-79894751D01*
X93888604Y-79935550D01*
X93857476Y-79973479D01*
X93822779Y-80008176D01*
X93784850Y-80039304D01*
X93744051Y-80066564D01*
X93700778Y-80089695D01*
X93655445Y-80108472D01*
X93608490Y-80122716D01*
X93560365Y-80132288D01*
X93511534Y-80137098D01*
X93487000Y-80137098D01*
X93487000Y-80137700D01*
X92987000Y-80137700D01*
X92987000Y-78637700D01*
X93487000Y-78637700D01*
X93487000Y-78638302D01*
X93487000Y-78638302D01*
G37*
D14*
X85803500Y-84416900D03*
D10*
G36*
X85303500Y-83666900D02*
G01*
X85803500Y-83666900D01*
X85803500Y-83667502D01*
X85828034Y-83667502D01*
X85876865Y-83672312D01*
X85924990Y-83681884D01*
X85971945Y-83696128D01*
X86017278Y-83714905D01*
X86060551Y-83738036D01*
X86101350Y-83765296D01*
X86139279Y-83796424D01*
X86173976Y-83831121D01*
X86205104Y-83869050D01*
X86232364Y-83909849D01*
X86255495Y-83953122D01*
X86274272Y-83998455D01*
X86288516Y-84045410D01*
X86298088Y-84093535D01*
X86302898Y-84142366D01*
X86302898Y-84166900D01*
X86303500Y-84166900D01*
X86303500Y-84666900D01*
X86302898Y-84666900D01*
X86302898Y-84691434D01*
X86298088Y-84740265D01*
X86288516Y-84788390D01*
X86274272Y-84835345D01*
X86255495Y-84880678D01*
X86232364Y-84923951D01*
X86205104Y-84964750D01*
X86173976Y-85002679D01*
X86139279Y-85037376D01*
X86101350Y-85068504D01*
X86060551Y-85095764D01*
X86017278Y-85118895D01*
X85971945Y-85137672D01*
X85924990Y-85151916D01*
X85876865Y-85161488D01*
X85828034Y-85166298D01*
X85803500Y-85166298D01*
X85803500Y-85166900D01*
X85303500Y-85166900D01*
X85303500Y-83666900D01*
X85303500Y-83666900D01*
G37*
D14*
X84503500Y-84416900D03*
D10*
G36*
X84503500Y-85166298D02*
G01*
X84478966Y-85166298D01*
X84430135Y-85161488D01*
X84382010Y-85151916D01*
X84335055Y-85137672D01*
X84289722Y-85118895D01*
X84246449Y-85095764D01*
X84205650Y-85068504D01*
X84167721Y-85037376D01*
X84133024Y-85002679D01*
X84101896Y-84964750D01*
X84074636Y-84923951D01*
X84051505Y-84880678D01*
X84032728Y-84835345D01*
X84018484Y-84788390D01*
X84008912Y-84740265D01*
X84004102Y-84691434D01*
X84004102Y-84666900D01*
X84003500Y-84666900D01*
X84003500Y-84166900D01*
X84004102Y-84166900D01*
X84004102Y-84142366D01*
X84008912Y-84093535D01*
X84018484Y-84045410D01*
X84032728Y-83998455D01*
X84051505Y-83953122D01*
X84074636Y-83909849D01*
X84101896Y-83869050D01*
X84133024Y-83831121D01*
X84167721Y-83796424D01*
X84205650Y-83765296D01*
X84246449Y-83738036D01*
X84289722Y-83714905D01*
X84335055Y-83696128D01*
X84382010Y-83681884D01*
X84430135Y-83672312D01*
X84478966Y-83667502D01*
X84503500Y-83667502D01*
X84503500Y-83666900D01*
X85003500Y-83666900D01*
X85003500Y-85166900D01*
X84503500Y-85166900D01*
X84503500Y-85166298D01*
X84503500Y-85166298D01*
G37*
D14*
X94117400Y-86182200D03*
D10*
G36*
X94617400Y-86932200D02*
G01*
X94117400Y-86932200D01*
X94117400Y-86931598D01*
X94092866Y-86931598D01*
X94044035Y-86926788D01*
X93995910Y-86917216D01*
X93948955Y-86902972D01*
X93903622Y-86884195D01*
X93860349Y-86861064D01*
X93819550Y-86833804D01*
X93781621Y-86802676D01*
X93746924Y-86767979D01*
X93715796Y-86730050D01*
X93688536Y-86689251D01*
X93665405Y-86645978D01*
X93646628Y-86600645D01*
X93632384Y-86553690D01*
X93622812Y-86505565D01*
X93618002Y-86456734D01*
X93618002Y-86432200D01*
X93617400Y-86432200D01*
X93617400Y-85932200D01*
X93618002Y-85932200D01*
X93618002Y-85907666D01*
X93622812Y-85858835D01*
X93632384Y-85810710D01*
X93646628Y-85763755D01*
X93665405Y-85718422D01*
X93688536Y-85675149D01*
X93715796Y-85634350D01*
X93746924Y-85596421D01*
X93781621Y-85561724D01*
X93819550Y-85530596D01*
X93860349Y-85503336D01*
X93903622Y-85480205D01*
X93948955Y-85461428D01*
X93995910Y-85447184D01*
X94044035Y-85437612D01*
X94092866Y-85432802D01*
X94117400Y-85432802D01*
X94117400Y-85432200D01*
X94617400Y-85432200D01*
X94617400Y-86932200D01*
X94617400Y-86932200D01*
G37*
D14*
X95417400Y-86182200D03*
D10*
G36*
X95417400Y-85432802D02*
G01*
X95441934Y-85432802D01*
X95490765Y-85437612D01*
X95538890Y-85447184D01*
X95585845Y-85461428D01*
X95631178Y-85480205D01*
X95674451Y-85503336D01*
X95715250Y-85530596D01*
X95753179Y-85561724D01*
X95787876Y-85596421D01*
X95819004Y-85634350D01*
X95846264Y-85675149D01*
X95869395Y-85718422D01*
X95888172Y-85763755D01*
X95902416Y-85810710D01*
X95911988Y-85858835D01*
X95916798Y-85907666D01*
X95916798Y-85932200D01*
X95917400Y-85932200D01*
X95917400Y-86432200D01*
X95916798Y-86432200D01*
X95916798Y-86456734D01*
X95911988Y-86505565D01*
X95902416Y-86553690D01*
X95888172Y-86600645D01*
X95869395Y-86645978D01*
X95846264Y-86689251D01*
X95819004Y-86730050D01*
X95787876Y-86767979D01*
X95753179Y-86802676D01*
X95715250Y-86833804D01*
X95674451Y-86861064D01*
X95631178Y-86884195D01*
X95585845Y-86902972D01*
X95538890Y-86917216D01*
X95490765Y-86926788D01*
X95441934Y-86931598D01*
X95417400Y-86931598D01*
X95417400Y-86932200D01*
X94917400Y-86932200D01*
X94917400Y-85432200D01*
X95417400Y-85432200D01*
X95417400Y-85432802D01*
X95417400Y-85432802D01*
G37*
D14*
X85803500Y-86956900D03*
D10*
G36*
X85303500Y-86206900D02*
G01*
X85803500Y-86206900D01*
X85803500Y-86207502D01*
X85828034Y-86207502D01*
X85876865Y-86212312D01*
X85924990Y-86221884D01*
X85971945Y-86236128D01*
X86017278Y-86254905D01*
X86060551Y-86278036D01*
X86101350Y-86305296D01*
X86139279Y-86336424D01*
X86173976Y-86371121D01*
X86205104Y-86409050D01*
X86232364Y-86449849D01*
X86255495Y-86493122D01*
X86274272Y-86538455D01*
X86288516Y-86585410D01*
X86298088Y-86633535D01*
X86302898Y-86682366D01*
X86302898Y-86706900D01*
X86303500Y-86706900D01*
X86303500Y-87206900D01*
X86302898Y-87206900D01*
X86302898Y-87231434D01*
X86298088Y-87280265D01*
X86288516Y-87328390D01*
X86274272Y-87375345D01*
X86255495Y-87420678D01*
X86232364Y-87463951D01*
X86205104Y-87504750D01*
X86173976Y-87542679D01*
X86139279Y-87577376D01*
X86101350Y-87608504D01*
X86060551Y-87635764D01*
X86017278Y-87658895D01*
X85971945Y-87677672D01*
X85924990Y-87691916D01*
X85876865Y-87701488D01*
X85828034Y-87706298D01*
X85803500Y-87706298D01*
X85803500Y-87706900D01*
X85303500Y-87706900D01*
X85303500Y-86206900D01*
X85303500Y-86206900D01*
G37*
D14*
X84503500Y-86956900D03*
D10*
G36*
X84503500Y-87706298D02*
G01*
X84478966Y-87706298D01*
X84430135Y-87701488D01*
X84382010Y-87691916D01*
X84335055Y-87677672D01*
X84289722Y-87658895D01*
X84246449Y-87635764D01*
X84205650Y-87608504D01*
X84167721Y-87577376D01*
X84133024Y-87542679D01*
X84101896Y-87504750D01*
X84074636Y-87463951D01*
X84051505Y-87420678D01*
X84032728Y-87375345D01*
X84018484Y-87328390D01*
X84008912Y-87280265D01*
X84004102Y-87231434D01*
X84004102Y-87206900D01*
X84003500Y-87206900D01*
X84003500Y-86706900D01*
X84004102Y-86706900D01*
X84004102Y-86682366D01*
X84008912Y-86633535D01*
X84018484Y-86585410D01*
X84032728Y-86538455D01*
X84051505Y-86493122D01*
X84074636Y-86449849D01*
X84101896Y-86409050D01*
X84133024Y-86371121D01*
X84167721Y-86336424D01*
X84205650Y-86305296D01*
X84246449Y-86278036D01*
X84289722Y-86254905D01*
X84335055Y-86236128D01*
X84382010Y-86221884D01*
X84430135Y-86212312D01*
X84478966Y-86207502D01*
X84503500Y-86207502D01*
X84503500Y-86206900D01*
X85003500Y-86206900D01*
X85003500Y-87706900D01*
X84503500Y-87706900D01*
X84503500Y-87706298D01*
X84503500Y-87706298D01*
G37*
D11*
X81927700Y-88468200D03*
X81927700Y-85928200D03*
X81927700Y-83388200D03*
X81927700Y-80848200D03*
X81927700Y-78308200D03*
X81927700Y-75768200D03*
X81927700Y-73228200D03*
X81927700Y-70688200D03*
X81927700Y-68148200D03*
X81927700Y-65608200D03*
X81927700Y-63068200D03*
X81927700Y-60528200D03*
X81927700Y-57988200D03*
X81927700Y-55448200D03*
X81927700Y-52908200D03*
D12*
X81927700Y-50368200D03*
D11*
X102247700Y-88468200D03*
X102247700Y-85928200D03*
X102247700Y-83388200D03*
X102247700Y-80848200D03*
X102247700Y-78308200D03*
X102247700Y-75768200D03*
X102247700Y-73228200D03*
X102247700Y-70688200D03*
X102247700Y-68148200D03*
X102247700Y-65608200D03*
X102247700Y-63068200D03*
D12*
X102247700Y-60528200D03*
D15*
X83197700Y-46558200D03*
X100977700Y-46558200D03*
D14*
X53759100Y-87619600D03*
D10*
G36*
X54509100Y-87119600D02*
G01*
X54509100Y-87619600D01*
X54508498Y-87619600D01*
X54508498Y-87644134D01*
X54503688Y-87692965D01*
X54494116Y-87741090D01*
X54479872Y-87788045D01*
X54461095Y-87833378D01*
X54437964Y-87876651D01*
X54410704Y-87917450D01*
X54379576Y-87955379D01*
X54344879Y-87990076D01*
X54306950Y-88021204D01*
X54266151Y-88048464D01*
X54222878Y-88071595D01*
X54177545Y-88090372D01*
X54130590Y-88104616D01*
X54082465Y-88114188D01*
X54033634Y-88118998D01*
X54009100Y-88118998D01*
X54009100Y-88119600D01*
X53509100Y-88119600D01*
X53509100Y-88118998D01*
X53484566Y-88118998D01*
X53435735Y-88114188D01*
X53387610Y-88104616D01*
X53340655Y-88090372D01*
X53295322Y-88071595D01*
X53252049Y-88048464D01*
X53211250Y-88021204D01*
X53173321Y-87990076D01*
X53138624Y-87955379D01*
X53107496Y-87917450D01*
X53080236Y-87876651D01*
X53057105Y-87833378D01*
X53038328Y-87788045D01*
X53024084Y-87741090D01*
X53014512Y-87692965D01*
X53009702Y-87644134D01*
X53009702Y-87619600D01*
X53009100Y-87619600D01*
X53009100Y-87119600D01*
X54509100Y-87119600D01*
X54509100Y-87119600D01*
G37*
D14*
X53759100Y-86319600D03*
D10*
G36*
X53009702Y-86319600D02*
G01*
X53009702Y-86295066D01*
X53014512Y-86246235D01*
X53024084Y-86198110D01*
X53038328Y-86151155D01*
X53057105Y-86105822D01*
X53080236Y-86062549D01*
X53107496Y-86021750D01*
X53138624Y-85983821D01*
X53173321Y-85949124D01*
X53211250Y-85917996D01*
X53252049Y-85890736D01*
X53295322Y-85867605D01*
X53340655Y-85848828D01*
X53387610Y-85834584D01*
X53435735Y-85825012D01*
X53484566Y-85820202D01*
X53509100Y-85820202D01*
X53509100Y-85819600D01*
X54009100Y-85819600D01*
X54009100Y-85820202D01*
X54033634Y-85820202D01*
X54082465Y-85825012D01*
X54130590Y-85834584D01*
X54177545Y-85848828D01*
X54222878Y-85867605D01*
X54266151Y-85890736D01*
X54306950Y-85917996D01*
X54344879Y-85949124D01*
X54379576Y-85983821D01*
X54410704Y-86021750D01*
X54437964Y-86062549D01*
X54461095Y-86105822D01*
X54479872Y-86151155D01*
X54494116Y-86198110D01*
X54503688Y-86246235D01*
X54508498Y-86295066D01*
X54508498Y-86319600D01*
X54509100Y-86319600D01*
X54509100Y-86819600D01*
X53009100Y-86819600D01*
X53009100Y-86319600D01*
X53009702Y-86319600D01*
X53009702Y-86319600D01*
G37*
D14*
X51508900Y-59169300D03*
D10*
G36*
X51508900Y-59918698D02*
G01*
X51484366Y-59918698D01*
X51435535Y-59913888D01*
X51387410Y-59904316D01*
X51340455Y-59890072D01*
X51295122Y-59871295D01*
X51251849Y-59848164D01*
X51211050Y-59820904D01*
X51173121Y-59789776D01*
X51138424Y-59755079D01*
X51107296Y-59717150D01*
X51080036Y-59676351D01*
X51056905Y-59633078D01*
X51038128Y-59587745D01*
X51023884Y-59540790D01*
X51014312Y-59492665D01*
X51009502Y-59443834D01*
X51009502Y-59419300D01*
X51008900Y-59419300D01*
X51008900Y-58919300D01*
X51009502Y-58919300D01*
X51009502Y-58894766D01*
X51014312Y-58845935D01*
X51023884Y-58797810D01*
X51038128Y-58750855D01*
X51056905Y-58705522D01*
X51080036Y-58662249D01*
X51107296Y-58621450D01*
X51138424Y-58583521D01*
X51173121Y-58548824D01*
X51211050Y-58517696D01*
X51251849Y-58490436D01*
X51295122Y-58467305D01*
X51340455Y-58448528D01*
X51387410Y-58434284D01*
X51435535Y-58424712D01*
X51484366Y-58419902D01*
X51508900Y-58419902D01*
X51508900Y-58419300D01*
X52008900Y-58419300D01*
X52008900Y-59919300D01*
X51508900Y-59919300D01*
X51508900Y-59918698D01*
X51508900Y-59918698D01*
G37*
D14*
X52808900Y-59169300D03*
D10*
G36*
X52308900Y-58419300D02*
G01*
X52808900Y-58419300D01*
X52808900Y-58419902D01*
X52833434Y-58419902D01*
X52882265Y-58424712D01*
X52930390Y-58434284D01*
X52977345Y-58448528D01*
X53022678Y-58467305D01*
X53065951Y-58490436D01*
X53106750Y-58517696D01*
X53144679Y-58548824D01*
X53179376Y-58583521D01*
X53210504Y-58621450D01*
X53237764Y-58662249D01*
X53260895Y-58705522D01*
X53279672Y-58750855D01*
X53293916Y-58797810D01*
X53303488Y-58845935D01*
X53308298Y-58894766D01*
X53308298Y-58919300D01*
X53308900Y-58919300D01*
X53308900Y-59419300D01*
X53308298Y-59419300D01*
X53308298Y-59443834D01*
X53303488Y-59492665D01*
X53293916Y-59540790D01*
X53279672Y-59587745D01*
X53260895Y-59633078D01*
X53237764Y-59676351D01*
X53210504Y-59717150D01*
X53179376Y-59755079D01*
X53144679Y-59789776D01*
X53106750Y-59820904D01*
X53065951Y-59848164D01*
X53022678Y-59871295D01*
X52977345Y-59890072D01*
X52930390Y-59904316D01*
X52882265Y-59913888D01*
X52833434Y-59918698D01*
X52808900Y-59918698D01*
X52808900Y-59919300D01*
X52308900Y-59919300D01*
X52308900Y-58419300D01*
X52308900Y-58419300D01*
G37*
D14*
X51523900Y-87619600D03*
D10*
G36*
X52273900Y-87119600D02*
G01*
X52273900Y-87619600D01*
X52273298Y-87619600D01*
X52273298Y-87644134D01*
X52268488Y-87692965D01*
X52258916Y-87741090D01*
X52244672Y-87788045D01*
X52225895Y-87833378D01*
X52202764Y-87876651D01*
X52175504Y-87917450D01*
X52144376Y-87955379D01*
X52109679Y-87990076D01*
X52071750Y-88021204D01*
X52030951Y-88048464D01*
X51987678Y-88071595D01*
X51942345Y-88090372D01*
X51895390Y-88104616D01*
X51847265Y-88114188D01*
X51798434Y-88118998D01*
X51773900Y-88118998D01*
X51773900Y-88119600D01*
X51273900Y-88119600D01*
X51273900Y-88118998D01*
X51249366Y-88118998D01*
X51200535Y-88114188D01*
X51152410Y-88104616D01*
X51105455Y-88090372D01*
X51060122Y-88071595D01*
X51016849Y-88048464D01*
X50976050Y-88021204D01*
X50938121Y-87990076D01*
X50903424Y-87955379D01*
X50872296Y-87917450D01*
X50845036Y-87876651D01*
X50821905Y-87833378D01*
X50803128Y-87788045D01*
X50788884Y-87741090D01*
X50779312Y-87692965D01*
X50774502Y-87644134D01*
X50774502Y-87619600D01*
X50773900Y-87619600D01*
X50773900Y-87119600D01*
X52273900Y-87119600D01*
X52273900Y-87119600D01*
G37*
D14*
X51523900Y-86319600D03*
D10*
G36*
X50774502Y-86319600D02*
G01*
X50774502Y-86295066D01*
X50779312Y-86246235D01*
X50788884Y-86198110D01*
X50803128Y-86151155D01*
X50821905Y-86105822D01*
X50845036Y-86062549D01*
X50872296Y-86021750D01*
X50903424Y-85983821D01*
X50938121Y-85949124D01*
X50976050Y-85917996D01*
X51016849Y-85890736D01*
X51060122Y-85867605D01*
X51105455Y-85848828D01*
X51152410Y-85834584D01*
X51200535Y-85825012D01*
X51249366Y-85820202D01*
X51273900Y-85820202D01*
X51273900Y-85819600D01*
X51773900Y-85819600D01*
X51773900Y-85820202D01*
X51798434Y-85820202D01*
X51847265Y-85825012D01*
X51895390Y-85834584D01*
X51942345Y-85848828D01*
X51987678Y-85867605D01*
X52030951Y-85890736D01*
X52071750Y-85917996D01*
X52109679Y-85949124D01*
X52144376Y-85983821D01*
X52175504Y-86021750D01*
X52202764Y-86062549D01*
X52225895Y-86105822D01*
X52244672Y-86151155D01*
X52258916Y-86198110D01*
X52268488Y-86246235D01*
X52273298Y-86295066D01*
X52273298Y-86319600D01*
X52273900Y-86319600D01*
X52273900Y-86819600D01*
X50773900Y-86819600D01*
X50773900Y-86319600D01*
X50774502Y-86319600D01*
X50774502Y-86319600D01*
G37*
D16*
X60782200Y-66548000D03*
X52552600Y-64617600D03*
X60883800Y-54470300D03*
X70993000Y-54470300D03*
X75171300Y-50114200D03*
X73787000Y-50040540D03*
X75831700Y-55778400D03*
X60883800Y-51816000D03*
X77647800Y-73914000D03*
X70993000Y-51816000D03*
X66522600Y-56375300D03*
X65900300Y-60528200D03*
X63779400Y-56730900D03*
X63677800Y-59905900D03*
X75463400Y-70726300D03*
X77343000Y-72567800D03*
X75996800Y-73202800D03*
X67564000Y-90297000D03*
X64719200Y-90297000D03*
X67703700Y-87655400D03*
X80048100Y-67551300D03*
X76898500Y-70307200D03*
X48094900Y-92646500D03*
X64719200Y-87680800D03*
D17*
X74371200Y-83921600D03*
X74371200Y-85928200D03*
X76276200Y-85966300D03*
X76301600Y-83807300D03*
X48209200Y-97116900D03*
X51981100Y-62928500D03*
X50825400Y-59194700D03*
X72898000Y-80225900D03*
X95097600Y-78714600D03*
X95097600Y-80302100D03*
X96494600Y-80340200D03*
X96494600Y-78727300D03*
X89319100Y-88252300D03*
X90754200Y-88722200D03*
X90906600Y-86347300D03*
X92481400Y-87185500D03*
D16*
X55613300Y-44246800D03*
X52755800Y-44246800D03*
X44500800Y-45796200D03*
X44500800Y-50417845D03*
X44500800Y-55039490D03*
X44500800Y-59661135D03*
X44500800Y-64282780D03*
X44500800Y-68904425D03*
X44500800Y-73526070D03*
X44500800Y-78147715D03*
X44500800Y-82769360D03*
X44500800Y-87391005D03*
X44500800Y-92012650D03*
X44500800Y-96634300D03*
X44564300Y-100330000D03*
X45999400Y-101333300D03*
X47510700Y-82689700D03*
X47586900Y-78460600D03*
X47345600Y-73774300D03*
X47548800Y-69189600D03*
X47612300Y-64389000D03*
X47612300Y-60134500D03*
X47612300Y-54914800D03*
X47942500Y-50520600D03*
X47853600Y-45770800D03*
X54648100Y-61861700D03*
X58343800Y-61823600D03*
X58420000Y-63182500D03*
X56235600Y-63106300D03*
X60121800Y-66992500D03*
X60274200Y-64477900D03*
X54902100Y-64757300D03*
X54854300Y-66970100D03*
X54140100Y-67005200D03*
X55590900Y-66970100D03*
X53454300Y-67017900D03*
X53454300Y-64744600D03*
X54178200Y-64744600D03*
X55714900Y-64744600D03*
X56527700Y-64706500D03*
X57327800Y-64731900D03*
X52158900Y-65290700D03*
X52171600Y-65925700D03*
X52006500Y-66649600D03*
X52601600Y-67337200D03*
X57658000Y-66840100D03*
X57556400Y-63969900D03*
X58280300Y-63855600D03*
X59093100Y-63855600D03*
X59842400Y-63855600D03*
X60299600Y-65163700D03*
X60325000Y-65900300D03*
X55473600Y-67767200D03*
X57099200Y-68821300D03*
X56464200Y-69303900D03*
X57340500Y-69735700D03*
X57404000Y-70485000D03*
X60337700Y-67754500D03*
X60388500Y-69862700D03*
X60350400Y-71983600D03*
X60299600Y-74002900D03*
X60325000Y-76098400D03*
X60325000Y-78219300D03*
X60223400Y-80429100D03*
X59423300Y-80352900D03*
X58559700Y-80378300D03*
X56489600Y-70624700D03*
X54127400Y-72504300D03*
X56413400Y-72504300D03*
X51887100Y-68407300D03*
X51447700Y-69608700D03*
X52806600Y-50253900D03*
X50634900Y-47980600D03*
X50101500Y-50114200D03*
X53263800Y-47510700D03*
X55854600Y-47790100D03*
X58483500Y-47967900D03*
X60998100Y-47891700D03*
X62623700Y-47917100D03*
X56121300Y-50126900D03*
X57810400Y-51930300D03*
X56680100Y-81165700D03*
X56642000Y-79933800D03*
X56629300Y-78320900D03*
X56591200Y-77139800D03*
X56705500Y-75095100D03*
X50711100Y-71755000D03*
X52209700Y-73304400D03*
X50761900Y-74574400D03*
X50863500Y-76949300D03*
X52311300Y-78219300D03*
X53733700Y-79946500D03*
X55524400Y-81229200D03*
X52959000Y-74688700D03*
X55511700Y-74917300D03*
X54165500Y-77000100D03*
X56248300Y-82892900D03*
X50025300Y-84963000D03*
X47739300Y-87147400D03*
X47790100Y-89319100D03*
X47739300Y-90347800D03*
X49784000Y-87096600D03*
X55689500Y-86321900D03*
X55626000Y-85001100D03*
X63804800Y-87731600D03*
X62204600Y-88061800D03*
X59334400Y-88049100D03*
X57531000Y-87477600D03*
X57429400Y-82981800D03*
X59283600Y-84709000D03*
X61036200Y-86639400D03*
X57785000Y-85369400D03*
X58686700Y-54521100D03*
X63804800Y-54470300D03*
X59690000Y-56273700D03*
X62103000Y-56032400D03*
X73126600Y-59690000D03*
X74472800Y-59905900D03*
X74460100Y-61239400D03*
X74422000Y-63131700D03*
X73761600Y-63690500D03*
X67754500Y-83781900D03*
X67716400Y-85382100D03*
X62636400Y-49580800D03*
X59778900Y-49453800D03*
X72351900Y-52108100D03*
X80264000Y-56235600D03*
X80556100Y-59347100D03*
X80111600Y-61010800D03*
X78105000Y-61785500D03*
X79413100Y-61785500D03*
X80200500Y-63398400D03*
X80137000Y-65341500D03*
X80035400Y-70510400D03*
X84429600Y-49149000D03*
X84366100Y-51282600D03*
X84429600Y-54216300D03*
X84455000Y-56680100D03*
X84531200Y-59270900D03*
X84404200Y-61785500D03*
X84404200Y-64084200D03*
X84378800Y-66471800D03*
X83362800Y-69240400D03*
X83375500Y-51968400D03*
X83210400Y-54203600D03*
X83286600Y-56718200D03*
X83210400Y-59309000D03*
X83261200Y-61772800D03*
X83324700Y-64363600D03*
X83248500Y-66865500D03*
X86106000Y-44208700D03*
X102692200Y-44437300D03*
X90614500Y-44221400D03*
X96494600Y-44246800D03*
X79819500Y-79502000D03*
X78917800Y-81292700D03*
X79819500Y-83578700D03*
X78600300Y-85559900D03*
X79946500Y-87477600D03*
X77279500Y-86829900D03*
X77190600Y-88582500D03*
X79121000Y-90678000D03*
X84442300Y-90678000D03*
X81851500Y-90258900D03*
X80505300Y-92189300D03*
X82207100Y-94297500D03*
X74701400Y-88671400D03*
X69164200Y-89623900D03*
X72377300Y-89700100D03*
X76644500Y-91249500D03*
X69392800Y-93637100D03*
X72021700Y-96215200D03*
X75819000Y-99161600D03*
X77470000Y-99009200D03*
X79756000Y-96659700D03*
X76847700Y-96939100D03*
X76352400Y-93535500D03*
X73393300Y-91097100D03*
X71716900Y-93383100D03*
X74549000Y-94691200D03*
X83324700Y-82105500D03*
X84175600Y-82588100D03*
X86271100Y-82600800D03*
X88328500Y-88303100D03*
X86804500Y-88404700D03*
X85445600Y-88709500D03*
X86347300Y-90830400D03*
X87325200Y-89662000D03*
X87972900Y-76974700D03*
X89509600Y-78574900D03*
X87261700Y-79616300D03*
X89204800Y-80365600D03*
X91605100Y-77787500D03*
X90741500Y-76136500D03*
X88798400Y-74498200D03*
X100799900Y-69189600D03*
X96824800Y-73190100D03*
X99009200Y-71043800D03*
X96697800Y-75006200D03*
X96685100Y-76949300D03*
X98856800Y-73850500D03*
X98780600Y-76200000D03*
X99009200Y-78803500D03*
X98907600Y-80124300D03*
X97269300Y-81826100D03*
X96697800Y-84074000D03*
X102895400Y-100749100D03*
X100888800Y-101053900D03*
X99352100Y-100977700D03*
X96812100Y-101130100D03*
X93205300Y-101041200D03*
X89154000Y-101053900D03*
X86461600Y-100965000D03*
X82854800Y-101041200D03*
X80098900Y-101269800D03*
X82283300Y-99212400D03*
X87922100Y-98831400D03*
X85153500Y-95973900D03*
X88468200Y-95427800D03*
X86334600Y-97282000D03*
X88861900Y-92329000D03*
X90538300Y-90525600D03*
X91325700Y-92367100D03*
X89827100Y-97193100D03*
X92151200Y-95313500D03*
X94195900Y-95758000D03*
X96481900Y-94170500D03*
X95173800Y-92900500D03*
X96507300Y-91948000D03*
X95440500Y-89750900D03*
X96367600Y-88277700D03*
X95250000Y-87845900D03*
X96545400Y-85064600D03*
X90830400Y-80772000D03*
X93713300Y-81254600D03*
X94284800Y-83108800D03*
X88379300Y-82245200D03*
X88950800Y-84302600D03*
X90055700Y-85153500D03*
X91401900Y-85191600D03*
X93040200Y-84493100D03*
X91414600Y-82905600D03*
X93980000Y-77495400D03*
X94678500Y-75285600D03*
X94729300Y-72707500D03*
X96799400Y-70434200D03*
X98539300Y-68529200D03*
X100558600Y-66611500D03*
X83502500Y-74561700D03*
X84645500Y-73990200D03*
X86614000Y-73990200D03*
X86296500Y-72174100D03*
X87096600Y-47371000D03*
X87249000Y-55270400D03*
X87096600Y-61061600D03*
X87401400Y-68414900D03*
X92329000Y-68719700D03*
X91313000Y-72326500D03*
X92494100Y-60820300D03*
X98437700Y-60820300D03*
X102819200Y-55105300D03*
X96405700Y-55422800D03*
X91859100Y-55270400D03*
X92100400Y-48539400D03*
X97421700Y-48615600D03*
X101727000Y-51117500D03*
X97104200Y-63792100D03*
X89941400Y-64465200D03*
X94996000Y-66611500D03*
X64312800Y-51816000D03*
X98107500Y-52501800D03*
X100380800Y-56934100D03*
X90335100Y-51689000D03*
X62115700Y-65633600D03*
X62141100Y-67716400D03*
X62052200Y-69811900D03*
X62077600Y-71932800D03*
X62064900Y-74028300D03*
X62077600Y-76212700D03*
X62064900Y-78282800D03*
X62115700Y-80314800D03*
X64135000Y-80365600D03*
X66332100Y-80378300D03*
X68491100Y-80365600D03*
X70497700Y-80403700D03*
X72237600Y-78168500D03*
X72263000Y-76111100D03*
X72263000Y-74053700D03*
X72313800Y-71882000D03*
X72250300Y-69773800D03*
X72237600Y-67703700D03*
X72263000Y-65595500D03*
X72529700Y-63411100D03*
X70548500Y-63436500D03*
X68414900Y-63411100D03*
X66306700Y-63411100D03*
X62115700Y-63436500D03*
X64249300Y-63436500D03*
X64173100Y-65595500D03*
X66294000Y-65633600D03*
X68402200Y-65633600D03*
X70472300Y-65620900D03*
X70573900Y-67703700D03*
X68389500Y-67716400D03*
X66357500Y-67691000D03*
X64160400Y-67652900D03*
X64122300Y-69913500D03*
X66344800Y-69862700D03*
X68414900Y-69875400D03*
X70383400Y-69837300D03*
X70548500Y-71856600D03*
X68326000Y-71856600D03*
X66217800Y-71869300D03*
X64211200Y-71856600D03*
X64211200Y-74066400D03*
X66357500Y-74015600D03*
X68453000Y-73990200D03*
X70624700Y-74066400D03*
X70548500Y-76098400D03*
X68338700Y-76098400D03*
X66281300Y-76085700D03*
X64300100Y-76174600D03*
X64198500Y-78206600D03*
X66306700Y-78181200D03*
X68414900Y-78105000D03*
X70535800Y-78270100D03*
D17*
X55841900Y-87668100D03*
D16*
X68630800Y-51117500D03*
X68630800Y-55410100D03*
X69570600Y-51117500D03*
X74002900Y-52400200D03*
X76314300Y-52184300D03*
X69570600Y-55448200D03*
X75933300Y-69367400D03*
X76796900Y-73596500D03*
X67132200Y-92163900D03*
X67043300Y-86702900D03*
X65239900Y-91478100D03*
X64757300Y-86702900D03*
X66090800Y-91681300D03*
X66154300Y-86702900D03*
D17*
X51523900Y-85471000D03*
D16*
X66763900Y-60325000D03*
X62801500Y-59715400D03*
X54102000Y-59207400D03*
D17*
X53759100Y-85496400D03*
D16*
X67652900Y-51041300D03*
X67297300Y-55156100D03*
X65481200Y-51041300D03*
X65074800Y-55156100D03*
X68021200Y-59321700D03*
X61582300Y-58483500D03*
D17*
X92430600Y-86182200D03*
D16*
X67183000Y-59550300D03*
X62077600Y-59232800D03*
D17*
X90563700Y-79273400D03*
X87236300Y-75793600D03*
D16*
X62890400Y-57327800D03*
X68478400Y-57734200D03*
D17*
X87236300Y-80848200D03*
X87236300Y-84455000D03*
X92494100Y-88226900D03*
X90017600Y-86550500D03*
D16*
X68541900Y-58623200D03*
X62280800Y-57950100D03*
D17*
X87236300Y-86944200D03*
X87236300Y-78244700D03*
X89268300Y-87236300D03*
X91821000Y-88849200D03*
X73787000Y-84518500D03*
X77584300Y-84480400D03*
X73736200Y-85356700D03*
X77114400Y-85382100D03*
D16*
X66186050Y-55156100D03*
X66567050Y-51041300D03*
D17*
X95453200Y-84213700D03*
X97675700Y-78778100D03*
D16*
X75063200Y-45624900D03*
D17*
X93560900Y-93218000D03*
D18*
X51483500Y-59194700D02*
X51508900Y-59169300D01*
X50825400Y-59194700D02*
X51483500Y-59194700D01*
D19*
X53807600Y-87668100D02*
X53759100Y-87619600D01*
X55841900Y-87668100D02*
X53807600Y-87668100D01*
X53759100Y-87619600D02*
X51523900Y-87619600D01*
D18*
X68630800Y-51117500D02*
X68630800Y-51584473D01*
X68630800Y-51584473D02*
X68630800Y-55410100D01*
X68630800Y-55410100D02*
X68630800Y-55410100D01*
X76098400Y-52400200D02*
X76314300Y-52184300D01*
X74002900Y-52400200D02*
X76098400Y-52400200D01*
X69570600Y-51117500D02*
X69570600Y-55448200D01*
X69570600Y-55448200D02*
X69570600Y-55448200D01*
X76263499Y-69697599D02*
X75933300Y-69367400D01*
X76263499Y-72596126D02*
X76263499Y-69697599D01*
X76796900Y-73129527D02*
X76263499Y-72596126D01*
X76796900Y-73596500D02*
X76796900Y-73129527D01*
X67132200Y-91257974D02*
X67132200Y-92163900D01*
X66957599Y-91083373D02*
X67132200Y-91257974D01*
X66957599Y-87877874D02*
X66957599Y-91083373D01*
X67043300Y-87792173D02*
X67043300Y-86804500D01*
X66957599Y-87877874D02*
X67043300Y-87792173D01*
X65239900Y-91478100D02*
X66068589Y-90649411D01*
X66068589Y-90649411D02*
X66068589Y-87858600D01*
X66052700Y-87858600D02*
X65341500Y-87147400D01*
X66068589Y-87858600D02*
X66052700Y-87858600D01*
X65201800Y-87147400D02*
X64757300Y-86702900D01*
X65341500Y-87147400D02*
X65201800Y-87147400D01*
X66420999Y-91351101D02*
X66090800Y-91681300D01*
X66420999Y-87375999D02*
X66420999Y-91351101D01*
X66258826Y-87375999D02*
X66420999Y-87375999D01*
X66154300Y-87271473D02*
X66258826Y-87375999D01*
X66154300Y-86804500D02*
X66154300Y-87271473D01*
X51523900Y-86319600D02*
X51523900Y-85471000D01*
X66763900Y-60325000D02*
X66594574Y-60325000D01*
X65738399Y-59299499D02*
X66763900Y-60325000D01*
X62801500Y-59715400D02*
X63217401Y-59299499D01*
X63217401Y-59299499D02*
X65738399Y-59299499D01*
X52847000Y-59207400D02*
X52808900Y-59169300D01*
X54102000Y-59207400D02*
X52847000Y-59207400D01*
X53759100Y-86319600D02*
X53759100Y-85496400D01*
X67652900Y-54800500D02*
X67297300Y-55156100D01*
X67652900Y-51041300D02*
X67652900Y-54800500D01*
X65481200Y-54749700D02*
X65481200Y-51041300D01*
X65074800Y-55156100D02*
X65481200Y-54749700D01*
X68021200Y-59321700D02*
X67919600Y-59220100D01*
X67691001Y-58991501D02*
X68021200Y-59321700D01*
X67294179Y-58594679D02*
X67691001Y-58991501D01*
X62027905Y-58594679D02*
X67294179Y-58594679D01*
X61916726Y-58483500D02*
X62027905Y-58594679D01*
X61582300Y-58483500D02*
X61916726Y-58483500D01*
X92861652Y-86182200D02*
X94117400Y-86182200D01*
X92430600Y-86182200D02*
X92861652Y-86182200D01*
X94117400Y-90195400D02*
X93599000Y-90713800D01*
X94117400Y-86182200D02*
X94117400Y-90195400D01*
X66579789Y-58947089D02*
X67183000Y-59550300D01*
X62672337Y-58947089D02*
X66579789Y-58947089D01*
X62077600Y-59232800D02*
X62386626Y-59232800D01*
X62386626Y-59232800D02*
X62672337Y-58947089D01*
X85790800Y-75793600D02*
X85765400Y-75768200D01*
X87236300Y-75793600D02*
X85790800Y-75793600D01*
X92072700Y-79273400D02*
X92187000Y-79387700D01*
X90563700Y-79273400D02*
X92072700Y-79273400D01*
X68389500Y-57823100D02*
X68478400Y-57734200D01*
X68389500Y-58016799D02*
X68389500Y-57823100D01*
X62887201Y-57330999D02*
X62887201Y-57731001D01*
X62890400Y-57327800D02*
X62887201Y-57330999D01*
X62887201Y-57731001D02*
X63046059Y-57889859D01*
X63046059Y-57889859D02*
X67586125Y-57889859D01*
X67586125Y-57889859D02*
X67713065Y-58016799D01*
X67713065Y-58016799D02*
X68389500Y-58016799D01*
X87236300Y-80848200D02*
X85752700Y-80848200D01*
X87236300Y-84455000D02*
X85841600Y-84455000D01*
X92189301Y-87922101D02*
X92494100Y-88226900D01*
X91195501Y-86928301D02*
X92189301Y-87922101D01*
X90395401Y-86928301D02*
X91195501Y-86928301D01*
X90017600Y-86550500D02*
X90395401Y-86928301D01*
X68541900Y-58623200D02*
X68313300Y-58623200D01*
X68313300Y-58623200D02*
X68281589Y-58591489D01*
X68074927Y-58623200D02*
X68541900Y-58623200D01*
X67821083Y-58623200D02*
X68074927Y-58623200D01*
X67440152Y-58242269D02*
X67821083Y-58623200D01*
X62661869Y-58242269D02*
X67440152Y-58242269D01*
X62369700Y-57950100D02*
X62661869Y-58242269D01*
X62280800Y-57950100D02*
X62369700Y-57950100D01*
X85816200Y-78244700D02*
X85752700Y-78308200D01*
X87236300Y-78244700D02*
X85816200Y-78244700D01*
X87236300Y-86944200D02*
X85816200Y-86944200D01*
X90208100Y-87236300D02*
X89268300Y-87236300D01*
X91821000Y-88849200D02*
X90208100Y-87236300D01*
X77546200Y-84518500D02*
X77584300Y-84480400D01*
X73787000Y-84518500D02*
X77546200Y-84518500D01*
X76809601Y-85077301D02*
X77114400Y-85382100D01*
X76784201Y-85051901D02*
X76809601Y-85077301D01*
X74040999Y-85051901D02*
X76784201Y-85051901D01*
X73736200Y-85356700D02*
X74040999Y-85051901D01*
X66567050Y-54775100D02*
X66567050Y-51041300D01*
X66186050Y-55156100D02*
X66567050Y-54775100D01*
X95453200Y-86146400D02*
X95417400Y-86182200D01*
X95453200Y-84213700D02*
X95453200Y-86146400D01*
X93101400Y-79476600D02*
X93114100Y-79489300D01*
X94312500Y-79387700D02*
X93487000Y-79387700D01*
X94414100Y-79489300D02*
X94312500Y-79387700D01*
X97395552Y-79489300D02*
X94414100Y-79489300D01*
X97675700Y-78778100D02*
X97675700Y-79209152D01*
X97675700Y-79209152D02*
X97395552Y-79489300D01*
X83129781Y-86956900D02*
X84503500Y-86956900D01*
X82951080Y-86778199D02*
X83129781Y-86956900D01*
X82777699Y-86778199D02*
X82951080Y-86778199D01*
X81927700Y-85928200D02*
X82777699Y-86778199D01*
X81927700Y-80848200D02*
X84452700Y-80848200D01*
X83852700Y-78308200D02*
X81927700Y-78308200D01*
X84452700Y-78308200D02*
X83852700Y-78308200D01*
X83865400Y-75768200D02*
X81927700Y-75768200D01*
X84465400Y-75768200D02*
X83865400Y-75768200D01*
X83474800Y-83388200D02*
X81927700Y-83388200D01*
X84503500Y-84416900D02*
X83474800Y-83388200D01*
X93560900Y-92051900D02*
X93599000Y-92013800D01*
X93560900Y-93218000D02*
X93560900Y-92051900D01*
D20*
G36*
X70061928Y-49834815D02*
G01*
X70064371Y-49859591D01*
X70071601Y-49883414D01*
X70083340Y-49905370D01*
X70099136Y-49924613D01*
X70118383Y-49940405D01*
X70140341Y-49952138D01*
X70164166Y-49959363D01*
X70187957Y-49961796D01*
X80152702Y-50037996D01*
X80177496Y-50035746D01*
X80201375Y-50028701D01*
X80223421Y-50017133D01*
X80242786Y-50001487D01*
X80258727Y-49982363D01*
X80270631Y-49960497D01*
X80278040Y-49936728D01*
X80280673Y-49910747D01*
X80268783Y-43941600D01*
X101656621Y-43941600D01*
X102053445Y-43980509D01*
X102404108Y-44086380D01*
X102727525Y-44258344D01*
X103011384Y-44489854D01*
X103244865Y-44772086D01*
X103419083Y-45094295D01*
X103527402Y-45444214D01*
X103568901Y-45839052D01*
X103568901Y-59251404D01*
X103548885Y-59227015D01*
X103452194Y-59147663D01*
X103341880Y-59088698D01*
X103222182Y-59052388D01*
X103097700Y-59040128D01*
X101397700Y-59040128D01*
X101273218Y-59052388D01*
X101153520Y-59088698D01*
X101043206Y-59147663D01*
X100946515Y-59227015D01*
X100867163Y-59323706D01*
X100808198Y-59434020D01*
X100771888Y-59553718D01*
X100759628Y-59678200D01*
X100759628Y-61378200D01*
X100771888Y-61502682D01*
X100808198Y-61622380D01*
X100867163Y-61732694D01*
X100946515Y-61829385D01*
X101043206Y-61908737D01*
X101153520Y-61967702D01*
X101222387Y-61988593D01*
X101192566Y-62013066D01*
X101006994Y-62239186D01*
X100869101Y-62497166D01*
X100784187Y-62777089D01*
X100755515Y-63068200D01*
X100784187Y-63359311D01*
X100869101Y-63639234D01*
X101006994Y-63897214D01*
X101192566Y-64123334D01*
X101418686Y-64308906D01*
X101473491Y-64338200D01*
X101418686Y-64367494D01*
X101192566Y-64553066D01*
X101006994Y-64779186D01*
X100869101Y-65037166D01*
X100784187Y-65317089D01*
X100755515Y-65608200D01*
X100784187Y-65899311D01*
X100869101Y-66179234D01*
X101006994Y-66437214D01*
X101192566Y-66663334D01*
X101418686Y-66848906D01*
X101473491Y-66878200D01*
X101418686Y-66907494D01*
X101192566Y-67093066D01*
X101006994Y-67319186D01*
X100869101Y-67577166D01*
X100784187Y-67857089D01*
X100755515Y-68148200D01*
X100784187Y-68439311D01*
X100869101Y-68719234D01*
X101006994Y-68977214D01*
X101192566Y-69203334D01*
X101418686Y-69388906D01*
X101473491Y-69418200D01*
X101418686Y-69447494D01*
X101192566Y-69633066D01*
X101006994Y-69859186D01*
X100869101Y-70117166D01*
X100784187Y-70397089D01*
X100755515Y-70688200D01*
X100784187Y-70979311D01*
X100869101Y-71259234D01*
X101006994Y-71517214D01*
X101192566Y-71743334D01*
X101418686Y-71928906D01*
X101473491Y-71958200D01*
X101418686Y-71987494D01*
X101192566Y-72173066D01*
X101006994Y-72399186D01*
X100869101Y-72657166D01*
X100784187Y-72937089D01*
X100755515Y-73228200D01*
X100784187Y-73519311D01*
X100869101Y-73799234D01*
X101006994Y-74057214D01*
X101192566Y-74283334D01*
X101418686Y-74468906D01*
X101473491Y-74498200D01*
X101418686Y-74527494D01*
X101192566Y-74713066D01*
X101006994Y-74939186D01*
X100869101Y-75197166D01*
X100784187Y-75477089D01*
X100755515Y-75768200D01*
X100784187Y-76059311D01*
X100869101Y-76339234D01*
X101006994Y-76597214D01*
X101192566Y-76823334D01*
X101418686Y-77008906D01*
X101473491Y-77038200D01*
X101418686Y-77067494D01*
X101192566Y-77253066D01*
X101006994Y-77479186D01*
X100869101Y-77737166D01*
X100784187Y-78017089D01*
X100755515Y-78308200D01*
X100784187Y-78599311D01*
X100869101Y-78879234D01*
X101006994Y-79137214D01*
X101192566Y-79363334D01*
X101418686Y-79548906D01*
X101473491Y-79578200D01*
X101418686Y-79607494D01*
X101192566Y-79793066D01*
X101006994Y-80019186D01*
X100869101Y-80277166D01*
X100784187Y-80557089D01*
X100755515Y-80848200D01*
X100784187Y-81139311D01*
X100869101Y-81419234D01*
X101006994Y-81677214D01*
X101192566Y-81903334D01*
X101418686Y-82088906D01*
X101473491Y-82118200D01*
X101418686Y-82147494D01*
X101192566Y-82333066D01*
X101006994Y-82559186D01*
X100869101Y-82817166D01*
X100784187Y-83097089D01*
X100755515Y-83388200D01*
X100784187Y-83679311D01*
X100869101Y-83959234D01*
X101006994Y-84217214D01*
X101192566Y-84443334D01*
X101418686Y-84628906D01*
X101473491Y-84658200D01*
X101418686Y-84687494D01*
X101192566Y-84873066D01*
X101006994Y-85099186D01*
X100869101Y-85357166D01*
X100784187Y-85637089D01*
X100755515Y-85928200D01*
X100784187Y-86219311D01*
X100869101Y-86499234D01*
X101006994Y-86757214D01*
X101192566Y-86983334D01*
X101418686Y-87168906D01*
X101473491Y-87198200D01*
X101418686Y-87227494D01*
X101192566Y-87413066D01*
X101006994Y-87639186D01*
X100869101Y-87897166D01*
X100784187Y-88177089D01*
X100755515Y-88468200D01*
X100784187Y-88759311D01*
X100869101Y-89039234D01*
X101006994Y-89297214D01*
X101192566Y-89523334D01*
X101418686Y-89708906D01*
X101676666Y-89846799D01*
X101956589Y-89931713D01*
X102174750Y-89953200D01*
X102320650Y-89953200D01*
X102538811Y-89931713D01*
X102818734Y-89846799D01*
X103076714Y-89708906D01*
X103302834Y-89523334D01*
X103488406Y-89297214D01*
X103568900Y-89146620D01*
X103568900Y-98224680D01*
X103551906Y-98192886D01*
X103366334Y-97966766D01*
X103140214Y-97781194D01*
X102882234Y-97643301D01*
X102602311Y-97558387D01*
X102384150Y-97536900D01*
X102238250Y-97536900D01*
X102020089Y-97558387D01*
X101740166Y-97643301D01*
X101482186Y-97781194D01*
X101256066Y-97966766D01*
X101070494Y-98192886D01*
X101041200Y-98247691D01*
X101011906Y-98192886D01*
X100826334Y-97966766D01*
X100600214Y-97781194D01*
X100342234Y-97643301D01*
X100062311Y-97558387D01*
X99844150Y-97536900D01*
X99698250Y-97536900D01*
X99480089Y-97558387D01*
X99200166Y-97643301D01*
X98942186Y-97781194D01*
X98716066Y-97966766D01*
X98530494Y-98192886D01*
X98501200Y-98247691D01*
X98471906Y-98192886D01*
X98286334Y-97966766D01*
X98060214Y-97781194D01*
X97802234Y-97643301D01*
X97522311Y-97558387D01*
X97304150Y-97536900D01*
X97158250Y-97536900D01*
X96940089Y-97558387D01*
X96660166Y-97643301D01*
X96402186Y-97781194D01*
X96176066Y-97966766D01*
X95990494Y-98192886D01*
X95961200Y-98247691D01*
X95931906Y-98192886D01*
X95746334Y-97966766D01*
X95520214Y-97781194D01*
X95262234Y-97643301D01*
X94982311Y-97558387D01*
X94764150Y-97536900D01*
X94618250Y-97536900D01*
X94400089Y-97558387D01*
X94120166Y-97643301D01*
X93862186Y-97781194D01*
X93636066Y-97966766D01*
X93450494Y-98192886D01*
X93421200Y-98247691D01*
X93391906Y-98192886D01*
X93206334Y-97966766D01*
X92980214Y-97781194D01*
X92722234Y-97643301D01*
X92442311Y-97558387D01*
X92224150Y-97536900D01*
X92078250Y-97536900D01*
X91860089Y-97558387D01*
X91580166Y-97643301D01*
X91322186Y-97781194D01*
X91096066Y-97966766D01*
X91071593Y-97996587D01*
X91050702Y-97927720D01*
X90991737Y-97817406D01*
X90912385Y-97720715D01*
X90815694Y-97641363D01*
X90705380Y-97582398D01*
X90585682Y-97546088D01*
X90461200Y-97533828D01*
X88761200Y-97533828D01*
X88636718Y-97546088D01*
X88517020Y-97582398D01*
X88406706Y-97641363D01*
X88310015Y-97720715D01*
X88230663Y-97817406D01*
X88171698Y-97927720D01*
X88135388Y-98047418D01*
X88123128Y-98171900D01*
X88123128Y-99871900D01*
X88135388Y-99996382D01*
X88171698Y-100116080D01*
X88230663Y-100226394D01*
X88310015Y-100323085D01*
X88406706Y-100402437D01*
X88517020Y-100461402D01*
X88636718Y-100497712D01*
X88761200Y-100509972D01*
X90461200Y-100509972D01*
X90585682Y-100497712D01*
X90705380Y-100461402D01*
X90815694Y-100402437D01*
X90912385Y-100323085D01*
X90991737Y-100226394D01*
X91050702Y-100116080D01*
X91071593Y-100047213D01*
X91096066Y-100077034D01*
X91322186Y-100262606D01*
X91580166Y-100400499D01*
X91860089Y-100485413D01*
X92078250Y-100506900D01*
X92224150Y-100506900D01*
X92442311Y-100485413D01*
X92722234Y-100400499D01*
X92980214Y-100262606D01*
X93206334Y-100077034D01*
X93391906Y-99850914D01*
X93421200Y-99796109D01*
X93450494Y-99850914D01*
X93636066Y-100077034D01*
X93862186Y-100262606D01*
X94120166Y-100400499D01*
X94400089Y-100485413D01*
X94618250Y-100506900D01*
X94764150Y-100506900D01*
X94982311Y-100485413D01*
X95262234Y-100400499D01*
X95520214Y-100262606D01*
X95746334Y-100077034D01*
X95931906Y-99850914D01*
X95961200Y-99796109D01*
X95990494Y-99850914D01*
X96176066Y-100077034D01*
X96402186Y-100262606D01*
X96660166Y-100400499D01*
X96940089Y-100485413D01*
X97158250Y-100506900D01*
X97304150Y-100506900D01*
X97522311Y-100485413D01*
X97802234Y-100400499D01*
X98060214Y-100262606D01*
X98286334Y-100077034D01*
X98471906Y-99850914D01*
X98501200Y-99796109D01*
X98530494Y-99850914D01*
X98716066Y-100077034D01*
X98942186Y-100262606D01*
X99200166Y-100400499D01*
X99480089Y-100485413D01*
X99698250Y-100506900D01*
X99844150Y-100506900D01*
X100062311Y-100485413D01*
X100342234Y-100400499D01*
X100600214Y-100262606D01*
X100826334Y-100077034D01*
X101011906Y-99850914D01*
X101041200Y-99796109D01*
X101070494Y-99850914D01*
X101256066Y-100077034D01*
X101482186Y-100262606D01*
X101740166Y-100400499D01*
X102020089Y-100485413D01*
X102238250Y-100506900D01*
X102384150Y-100506900D01*
X102602311Y-100485413D01*
X102882234Y-100400499D01*
X103140214Y-100262606D01*
X103366334Y-100077034D01*
X103551906Y-99850914D01*
X103559270Y-99837137D01*
X103529991Y-100135745D01*
X103424120Y-100486406D01*
X103252157Y-100809823D01*
X103020648Y-101093682D01*
X102738414Y-101327165D01*
X102416204Y-101501384D01*
X102066285Y-101609702D01*
X101671457Y-101651200D01*
X45803479Y-101651200D01*
X45406655Y-101612291D01*
X45055994Y-101506420D01*
X44732577Y-101334457D01*
X44448718Y-101102948D01*
X44215235Y-100820714D01*
X44041016Y-100498504D01*
X43932698Y-100148585D01*
X43891200Y-99753757D01*
X43891200Y-97562300D01*
X62596128Y-97562300D01*
X62596128Y-99262300D01*
X62608388Y-99386782D01*
X62644698Y-99506480D01*
X62703663Y-99616794D01*
X62783015Y-99713485D01*
X62879706Y-99792837D01*
X62990020Y-99851802D01*
X63109718Y-99888112D01*
X63234200Y-99900372D01*
X64934200Y-99900372D01*
X65058682Y-99888112D01*
X65178380Y-99851802D01*
X65288694Y-99792837D01*
X65385385Y-99713485D01*
X65464737Y-99616794D01*
X65523702Y-99506480D01*
X65548166Y-99425834D01*
X65623931Y-99509888D01*
X65857280Y-99683941D01*
X66120101Y-99809125D01*
X66267310Y-99853776D01*
X66497200Y-99732455D01*
X66497200Y-98539300D01*
X66477200Y-98539300D01*
X66477200Y-98285300D01*
X66497200Y-98285300D01*
X66497200Y-97092145D01*
X66751200Y-97092145D01*
X66751200Y-98285300D01*
X66771200Y-98285300D01*
X66771200Y-98539300D01*
X66751200Y-98539300D01*
X66751200Y-99732455D01*
X66981090Y-99853776D01*
X67128299Y-99809125D01*
X67391120Y-99683941D01*
X67624469Y-99509888D01*
X67819378Y-99293655D01*
X67888999Y-99176777D01*
X67923494Y-99241314D01*
X68109066Y-99467434D01*
X68335186Y-99653006D01*
X68593166Y-99790899D01*
X68873089Y-99875813D01*
X69091250Y-99897300D01*
X69237150Y-99897300D01*
X69455311Y-99875813D01*
X69735234Y-99790899D01*
X69993214Y-99653006D01*
X70219334Y-99467434D01*
X70404906Y-99241314D01*
X70434200Y-99186509D01*
X70463494Y-99241314D01*
X70649066Y-99467434D01*
X70875186Y-99653006D01*
X71133166Y-99790899D01*
X71413089Y-99875813D01*
X71631250Y-99897300D01*
X71777150Y-99897300D01*
X71995311Y-99875813D01*
X72275234Y-99790899D01*
X72533214Y-99653006D01*
X72759334Y-99467434D01*
X72944906Y-99241314D01*
X72974200Y-99186509D01*
X73003494Y-99241314D01*
X73189066Y-99467434D01*
X73415186Y-99653006D01*
X73673166Y-99790899D01*
X73953089Y-99875813D01*
X74171250Y-99897300D01*
X74317150Y-99897300D01*
X74535311Y-99875813D01*
X74815234Y-99790899D01*
X75073214Y-99653006D01*
X75299334Y-99467434D01*
X75484906Y-99241314D01*
X75606799Y-99013267D01*
X83099400Y-99013267D01*
X83099400Y-99335333D01*
X83162232Y-99651212D01*
X83285482Y-99948763D01*
X83464413Y-100216552D01*
X83692148Y-100444287D01*
X83959937Y-100623218D01*
X84257488Y-100746468D01*
X84573367Y-100809300D01*
X84895433Y-100809300D01*
X85211312Y-100746468D01*
X85508863Y-100623218D01*
X85776652Y-100444287D01*
X86004387Y-100216552D01*
X86183318Y-99948763D01*
X86306568Y-99651212D01*
X86369400Y-99335333D01*
X86369400Y-99013267D01*
X86306568Y-98697388D01*
X86183318Y-98399837D01*
X86004387Y-98132048D01*
X85776652Y-97904313D01*
X85508863Y-97725382D01*
X85211312Y-97602132D01*
X84895433Y-97539300D01*
X84573367Y-97539300D01*
X84257488Y-97602132D01*
X83959937Y-97725382D01*
X83692148Y-97904313D01*
X83464413Y-98132048D01*
X83285482Y-98399837D01*
X83162232Y-98697388D01*
X83099400Y-99013267D01*
X75606799Y-99013267D01*
X75622799Y-98983334D01*
X75707713Y-98703411D01*
X75736385Y-98412300D01*
X75707713Y-98121189D01*
X75622799Y-97841266D01*
X75484906Y-97583286D01*
X75299334Y-97357166D01*
X75073214Y-97171594D01*
X74815234Y-97033701D01*
X74535311Y-96948787D01*
X74317150Y-96927300D01*
X74171250Y-96927300D01*
X73953089Y-96948787D01*
X73673166Y-97033701D01*
X73415186Y-97171594D01*
X73189066Y-97357166D01*
X73003494Y-97583286D01*
X72974200Y-97638091D01*
X72944906Y-97583286D01*
X72759334Y-97357166D01*
X72533214Y-97171594D01*
X72275234Y-97033701D01*
X71995311Y-96948787D01*
X71777150Y-96927300D01*
X71631250Y-96927300D01*
X71413089Y-96948787D01*
X71133166Y-97033701D01*
X70875186Y-97171594D01*
X70649066Y-97357166D01*
X70463494Y-97583286D01*
X70434200Y-97638091D01*
X70404906Y-97583286D01*
X70219334Y-97357166D01*
X69993214Y-97171594D01*
X69735234Y-97033701D01*
X69455311Y-96948787D01*
X69237150Y-96927300D01*
X69091250Y-96927300D01*
X68873089Y-96948787D01*
X68593166Y-97033701D01*
X68335186Y-97171594D01*
X68109066Y-97357166D01*
X67923494Y-97583286D01*
X67888999Y-97647823D01*
X67819378Y-97530945D01*
X67624469Y-97314712D01*
X67391120Y-97140659D01*
X67128299Y-97015475D01*
X66981090Y-96970824D01*
X66751200Y-97092145D01*
X66497200Y-97092145D01*
X66267310Y-96970824D01*
X66120101Y-97015475D01*
X65857280Y-97140659D01*
X65623931Y-97314712D01*
X65548166Y-97398766D01*
X65523702Y-97318120D01*
X65464737Y-97207806D01*
X65385385Y-97111115D01*
X65288694Y-97031763D01*
X65178380Y-96972798D01*
X65058682Y-96936488D01*
X64934200Y-96924228D01*
X63234200Y-96924228D01*
X63109718Y-96936488D01*
X62990020Y-96972798D01*
X62879706Y-97031763D01*
X62783015Y-97111115D01*
X62703663Y-97207806D01*
X62644698Y-97318120D01*
X62608388Y-97437818D01*
X62596128Y-97562300D01*
X43891200Y-97562300D01*
X43891200Y-86319600D01*
X50135828Y-86319600D01*
X50135828Y-86819600D01*
X50148088Y-86944082D01*
X50155829Y-86969600D01*
X50148088Y-86995118D01*
X50135828Y-87119600D01*
X50135828Y-87619600D01*
X50138236Y-87644050D01*
X50138236Y-87668609D01*
X50150496Y-87793090D01*
X50169618Y-87889223D01*
X50205927Y-88008919D01*
X50243436Y-88099475D01*
X50302402Y-88209792D01*
X50356858Y-88291291D01*
X50436210Y-88387982D01*
X50505518Y-88457290D01*
X50602209Y-88536642D01*
X50683708Y-88591098D01*
X50794025Y-88650064D01*
X50884581Y-88687573D01*
X51004277Y-88723882D01*
X51100410Y-88743004D01*
X51224891Y-88755264D01*
X51249450Y-88755264D01*
X51273900Y-88757672D01*
X51773900Y-88757672D01*
X51798350Y-88755264D01*
X51822909Y-88755264D01*
X51947390Y-88743004D01*
X52043523Y-88723882D01*
X52163219Y-88687573D01*
X52253775Y-88650064D01*
X52364092Y-88591098D01*
X52445591Y-88536642D01*
X52479760Y-88508600D01*
X52803240Y-88508600D01*
X52837409Y-88536642D01*
X52918908Y-88591098D01*
X53029225Y-88650064D01*
X53119781Y-88687573D01*
X53239477Y-88723882D01*
X53335610Y-88743004D01*
X53460091Y-88755264D01*
X53484650Y-88755264D01*
X53509100Y-88757672D01*
X54009100Y-88757672D01*
X54033550Y-88755264D01*
X54058109Y-88755264D01*
X54182590Y-88743004D01*
X54278723Y-88723882D01*
X54398419Y-88687573D01*
X54488975Y-88650064D01*
X54599292Y-88591098D01*
X54650174Y-88557100D01*
X55532321Y-88557100D01*
X55567771Y-88571784D01*
X55749338Y-88607900D01*
X55934462Y-88607900D01*
X56116029Y-88571784D01*
X56287062Y-88500940D01*
X56440987Y-88398090D01*
X56571890Y-88267187D01*
X56674740Y-88113262D01*
X56745584Y-87942229D01*
X56781700Y-87760662D01*
X56781700Y-87575538D01*
X56745584Y-87393971D01*
X56674740Y-87222938D01*
X56571890Y-87069013D01*
X56440987Y-86938110D01*
X56287062Y-86835260D01*
X56116029Y-86764416D01*
X55934462Y-86728300D01*
X55749338Y-86728300D01*
X55567771Y-86764416D01*
X55532321Y-86779100D01*
X55147172Y-86779100D01*
X55147172Y-86607836D01*
X63792100Y-86607836D01*
X63792100Y-86797964D01*
X63829192Y-86984438D01*
X63901951Y-87160094D01*
X64007580Y-87318179D01*
X64142021Y-87452620D01*
X64300106Y-87558249D01*
X64475762Y-87631008D01*
X64662236Y-87668100D01*
X64715205Y-87668100D01*
X64804767Y-87741602D01*
X64928319Y-87807642D01*
X65025405Y-87837093D01*
X65357390Y-88169078D01*
X65357389Y-90354822D01*
X65199312Y-90512900D01*
X65144836Y-90512900D01*
X64958362Y-90549992D01*
X64782706Y-90622751D01*
X64624621Y-90728380D01*
X64490180Y-90862821D01*
X64384551Y-91020906D01*
X64311792Y-91196562D01*
X64274700Y-91383036D01*
X64274700Y-91573164D01*
X64311792Y-91759638D01*
X64384551Y-91935294D01*
X64490180Y-92093379D01*
X64624621Y-92227820D01*
X64782706Y-92333449D01*
X64958362Y-92406208D01*
X65144836Y-92443300D01*
X65334964Y-92443300D01*
X65462444Y-92417943D01*
X65475521Y-92431020D01*
X65633606Y-92536649D01*
X65809262Y-92609408D01*
X65995736Y-92646500D01*
X66185864Y-92646500D01*
X66281161Y-92627544D01*
X66382480Y-92779179D01*
X66516921Y-92913620D01*
X66675006Y-93019249D01*
X66850662Y-93092008D01*
X67037136Y-93129100D01*
X67227264Y-93129100D01*
X67413738Y-93092008D01*
X67589394Y-93019249D01*
X67747479Y-92913620D01*
X67881920Y-92779179D01*
X67987549Y-92621094D01*
X68060308Y-92445438D01*
X68097400Y-92258964D01*
X68097400Y-92092544D01*
X81312700Y-92092544D01*
X81312700Y-92463856D01*
X81385139Y-92828034D01*
X81527234Y-93171082D01*
X81733525Y-93479818D01*
X81996082Y-93742375D01*
X82304818Y-93948666D01*
X82647866Y-94090761D01*
X83012044Y-94163200D01*
X83383356Y-94163200D01*
X83747534Y-94090761D01*
X84090582Y-93948666D01*
X84399318Y-93742375D01*
X84661875Y-93479818D01*
X84868166Y-93171082D01*
X85010261Y-92828034D01*
X85082700Y-92463856D01*
X85082700Y-92092544D01*
X85010261Y-91728366D01*
X84868166Y-91385318D01*
X84661875Y-91076582D01*
X84399318Y-90814025D01*
X84090582Y-90607734D01*
X83747534Y-90465639D01*
X83383356Y-90393200D01*
X83012044Y-90393200D01*
X82647866Y-90465639D01*
X82304818Y-90607734D01*
X81996082Y-90814025D01*
X81733525Y-91076582D01*
X81527234Y-91385318D01*
X81385139Y-91728366D01*
X81312700Y-92092544D01*
X68097400Y-92092544D01*
X68097400Y-92068836D01*
X68060308Y-91882362D01*
X67987549Y-91706706D01*
X67881920Y-91548621D01*
X67843400Y-91510101D01*
X67843400Y-91292899D01*
X67846840Y-91257973D01*
X67843400Y-91223047D01*
X67843400Y-91223038D01*
X67833109Y-91118554D01*
X67792442Y-90984493D01*
X67726402Y-90860941D01*
X67668799Y-90790753D01*
X67668799Y-88825090D01*
X80486224Y-88825090D01*
X80530875Y-88972299D01*
X80656059Y-89235120D01*
X80830112Y-89468469D01*
X81046345Y-89663378D01*
X81296448Y-89812357D01*
X81570809Y-89909681D01*
X81800700Y-89789014D01*
X81800700Y-88595200D01*
X82054700Y-88595200D01*
X82054700Y-89789014D01*
X82284591Y-89909681D01*
X82558952Y-89812357D01*
X82809055Y-89663378D01*
X83025288Y-89468469D01*
X83199341Y-89235120D01*
X83324525Y-88972299D01*
X83369176Y-88825090D01*
X83247855Y-88595200D01*
X82054700Y-88595200D01*
X81800700Y-88595200D01*
X80607545Y-88595200D01*
X80486224Y-88825090D01*
X67668799Y-88825090D01*
X67668799Y-88130654D01*
X67703542Y-88065654D01*
X67744209Y-87931593D01*
X67754500Y-87827109D01*
X67754500Y-87827101D01*
X67757940Y-87792173D01*
X67754500Y-87757245D01*
X67754500Y-87356699D01*
X67793020Y-87318179D01*
X67898649Y-87160094D01*
X67971408Y-86984438D01*
X68008500Y-86797964D01*
X68008500Y-86607836D01*
X67971408Y-86421362D01*
X67898649Y-86245706D01*
X67793020Y-86087621D01*
X67658579Y-85953180D01*
X67500494Y-85847551D01*
X67324838Y-85774792D01*
X67138364Y-85737700D01*
X66948236Y-85737700D01*
X66761762Y-85774792D01*
X66598800Y-85842293D01*
X66435838Y-85774792D01*
X66249364Y-85737700D01*
X66059236Y-85737700D01*
X65872762Y-85774792D01*
X65697106Y-85847551D01*
X65539021Y-85953180D01*
X65455800Y-86036401D01*
X65372579Y-85953180D01*
X65214494Y-85847551D01*
X65038838Y-85774792D01*
X64852364Y-85737700D01*
X64662236Y-85737700D01*
X64475762Y-85774792D01*
X64300106Y-85847551D01*
X64142021Y-85953180D01*
X64007580Y-86087621D01*
X63901951Y-86245706D01*
X63829192Y-86421362D01*
X63792100Y-86607836D01*
X55147172Y-86607836D01*
X55147172Y-86319600D01*
X55144764Y-86295150D01*
X55144764Y-86270591D01*
X55132504Y-86146110D01*
X55113382Y-86049977D01*
X55077073Y-85930281D01*
X55039564Y-85839725D01*
X54980598Y-85729408D01*
X54926142Y-85647909D01*
X54846790Y-85551218D01*
X54777482Y-85481910D01*
X54698900Y-85417420D01*
X54698900Y-85403838D01*
X54671112Y-85264138D01*
X72796400Y-85264138D01*
X72796400Y-85449262D01*
X72832516Y-85630829D01*
X72903360Y-85801862D01*
X73006210Y-85955787D01*
X73137113Y-86086690D01*
X73291038Y-86189540D01*
X73462071Y-86260384D01*
X73643638Y-86296500D01*
X73828762Y-86296500D01*
X74010329Y-86260384D01*
X74181362Y-86189540D01*
X74335287Y-86086690D01*
X74466190Y-85955787D01*
X74569040Y-85801862D01*
X74585095Y-85763101D01*
X76254984Y-85763101D01*
X76281560Y-85827262D01*
X76384410Y-85981187D01*
X76515313Y-86112090D01*
X76669238Y-86214940D01*
X76840271Y-86285784D01*
X77021838Y-86321900D01*
X77206962Y-86321900D01*
X77388529Y-86285784D01*
X77559562Y-86214940D01*
X77713487Y-86112090D01*
X77844390Y-85981187D01*
X77947240Y-85827262D01*
X78018084Y-85656229D01*
X78054200Y-85474662D01*
X78054200Y-85296710D01*
X78183387Y-85210390D01*
X78314290Y-85079487D01*
X78417140Y-84925562D01*
X78487984Y-84754529D01*
X78524100Y-84572962D01*
X78524100Y-84387838D01*
X78487984Y-84206271D01*
X78417140Y-84035238D01*
X78314290Y-83881313D01*
X78183387Y-83750410D01*
X78029462Y-83647560D01*
X77858429Y-83576716D01*
X77676862Y-83540600D01*
X77491738Y-83540600D01*
X77310171Y-83576716D01*
X77139138Y-83647560D01*
X76985213Y-83750410D01*
X76928323Y-83807300D01*
X74404877Y-83807300D01*
X74386087Y-83788510D01*
X74232162Y-83685660D01*
X74061129Y-83614816D01*
X73879562Y-83578700D01*
X73694438Y-83578700D01*
X73512871Y-83614816D01*
X73341838Y-83685660D01*
X73187913Y-83788510D01*
X73057010Y-83919413D01*
X72954160Y-84073338D01*
X72883316Y-84244371D01*
X72847200Y-84425938D01*
X72847200Y-84611062D01*
X72883316Y-84792629D01*
X72921392Y-84884552D01*
X72903360Y-84911538D01*
X72832516Y-85082571D01*
X72796400Y-85264138D01*
X54671112Y-85264138D01*
X54662784Y-85222271D01*
X54591940Y-85051238D01*
X54489090Y-84897313D01*
X54358187Y-84766410D01*
X54204262Y-84663560D01*
X54033229Y-84592716D01*
X53851662Y-84556600D01*
X53666538Y-84556600D01*
X53484971Y-84592716D01*
X53313938Y-84663560D01*
X53160013Y-84766410D01*
X53029110Y-84897313D01*
X52926260Y-85051238D01*
X52855416Y-85222271D01*
X52819300Y-85403838D01*
X52819300Y-85417420D01*
X52740718Y-85481910D01*
X52671410Y-85551218D01*
X52641500Y-85587664D01*
X52611590Y-85551218D01*
X52542282Y-85481910D01*
X52463700Y-85417420D01*
X52463700Y-85378438D01*
X52427584Y-85196871D01*
X52356740Y-85025838D01*
X52253890Y-84871913D01*
X52122987Y-84741010D01*
X51969062Y-84638160D01*
X51798029Y-84567316D01*
X51616462Y-84531200D01*
X51431338Y-84531200D01*
X51249771Y-84567316D01*
X51078738Y-84638160D01*
X50924813Y-84741010D01*
X50793910Y-84871913D01*
X50691060Y-85025838D01*
X50620216Y-85196871D01*
X50584100Y-85378438D01*
X50584100Y-85417420D01*
X50505518Y-85481910D01*
X50436210Y-85551218D01*
X50356858Y-85647909D01*
X50302402Y-85729408D01*
X50243436Y-85839725D01*
X50205927Y-85930281D01*
X50169618Y-86049977D01*
X50150496Y-86146110D01*
X50138236Y-86270591D01*
X50138236Y-86295150D01*
X50135828Y-86319600D01*
X43891200Y-86319600D01*
X43891200Y-69272336D01*
X74968100Y-69272336D01*
X74968100Y-69462464D01*
X75005192Y-69648938D01*
X75077951Y-69824594D01*
X75183580Y-69982679D01*
X75318021Y-70117120D01*
X75476106Y-70222749D01*
X75552300Y-70254309D01*
X75552299Y-72561200D01*
X75548859Y-72596126D01*
X75552299Y-72631052D01*
X75552299Y-72631061D01*
X75562590Y-72735545D01*
X75603257Y-72869606D01*
X75669297Y-72993158D01*
X75758172Y-73101452D01*
X75785309Y-73123723D01*
X75900353Y-73238767D01*
X75868792Y-73314962D01*
X75831700Y-73501436D01*
X75831700Y-73691564D01*
X75868792Y-73878038D01*
X75941551Y-74053694D01*
X76047180Y-74211779D01*
X76181621Y-74346220D01*
X76339706Y-74451849D01*
X76515362Y-74524608D01*
X76701836Y-74561700D01*
X76891964Y-74561700D01*
X77078438Y-74524608D01*
X77254094Y-74451849D01*
X77412179Y-74346220D01*
X77546620Y-74211779D01*
X77652249Y-74053694D01*
X77725008Y-73878038D01*
X77762100Y-73691564D01*
X77762100Y-73501436D01*
X77725008Y-73314962D01*
X77652249Y-73139306D01*
X77546620Y-72981221D01*
X77472686Y-72907287D01*
X77457142Y-72856046D01*
X77391102Y-72732494D01*
X77302227Y-72624200D01*
X77275090Y-72601929D01*
X76974699Y-72301539D01*
X76974699Y-69732527D01*
X76978139Y-69697599D01*
X76974699Y-69662670D01*
X76974699Y-69662663D01*
X76964408Y-69558179D01*
X76923741Y-69424118D01*
X76898500Y-69376895D01*
X76898500Y-69272336D01*
X76861408Y-69085862D01*
X76788649Y-68910206D01*
X76683020Y-68752121D01*
X76548579Y-68617680D01*
X76390494Y-68512051D01*
X76214838Y-68439292D01*
X76028364Y-68402200D01*
X75838236Y-68402200D01*
X75651762Y-68439292D01*
X75476106Y-68512051D01*
X75318021Y-68617680D01*
X75183580Y-68752121D01*
X75077951Y-68910206D01*
X75005192Y-69085862D01*
X74968100Y-69272336D01*
X43891200Y-69272336D01*
X43891200Y-58419300D01*
X51670828Y-58419300D01*
X51670828Y-59919300D01*
X51683088Y-60043782D01*
X51719398Y-60163480D01*
X51778363Y-60273794D01*
X51857715Y-60370485D01*
X51954406Y-60449837D01*
X52064720Y-60508802D01*
X52184418Y-60545112D01*
X52308900Y-60557372D01*
X52808900Y-60557372D01*
X52833350Y-60554964D01*
X52857909Y-60554964D01*
X52982390Y-60542704D01*
X53078523Y-60523582D01*
X53198219Y-60487273D01*
X53288775Y-60449764D01*
X53399092Y-60390798D01*
X53480591Y-60336342D01*
X53577282Y-60256990D01*
X53646590Y-60187682D01*
X53722656Y-60094995D01*
X53820462Y-60135508D01*
X54006936Y-60172600D01*
X54197064Y-60172600D01*
X54383538Y-60135508D01*
X54559194Y-60062749D01*
X54717279Y-59957120D01*
X54851720Y-59822679D01*
X54957349Y-59664594D01*
X55030108Y-59488938D01*
X55067200Y-59302464D01*
X55067200Y-59112336D01*
X55030108Y-58925862D01*
X54957349Y-58750206D01*
X54851720Y-58592121D01*
X54717279Y-58457680D01*
X54613649Y-58388436D01*
X60617100Y-58388436D01*
X60617100Y-58578564D01*
X60654192Y-58765038D01*
X60726951Y-58940694D01*
X60832580Y-59098779D01*
X60967021Y-59233220D01*
X61112972Y-59330742D01*
X61149492Y-59514338D01*
X61222251Y-59689994D01*
X61327880Y-59848079D01*
X61462321Y-59982520D01*
X61620406Y-60088149D01*
X61796062Y-60160908D01*
X61960152Y-60193547D01*
X62051780Y-60330679D01*
X62186221Y-60465120D01*
X62344306Y-60570749D01*
X62519962Y-60643508D01*
X62706436Y-60680600D01*
X62896564Y-60680600D01*
X63083038Y-60643508D01*
X63258694Y-60570749D01*
X63416779Y-60465120D01*
X63551220Y-60330679D01*
X63656849Y-60172594D01*
X63723908Y-60010699D01*
X65443812Y-60010699D01*
X65798700Y-60365588D01*
X65798700Y-60420064D01*
X65835792Y-60606538D01*
X65908551Y-60782194D01*
X66014180Y-60940279D01*
X66148621Y-61074720D01*
X66306706Y-61180349D01*
X66482362Y-61253108D01*
X66668836Y-61290200D01*
X66858964Y-61290200D01*
X67045438Y-61253108D01*
X67221094Y-61180349D01*
X67379179Y-61074720D01*
X67513620Y-60940279D01*
X67619249Y-60782194D01*
X67692008Y-60606538D01*
X67707590Y-60528200D01*
X80435515Y-60528200D01*
X80464187Y-60819311D01*
X80549101Y-61099234D01*
X80686994Y-61357214D01*
X80872566Y-61583334D01*
X81098686Y-61768906D01*
X81153491Y-61798200D01*
X81098686Y-61827494D01*
X80872566Y-62013066D01*
X80686994Y-62239186D01*
X80549101Y-62497166D01*
X80464187Y-62777089D01*
X80435515Y-63068200D01*
X80464187Y-63359311D01*
X80549101Y-63639234D01*
X80686994Y-63897214D01*
X80872566Y-64123334D01*
X81098686Y-64308906D01*
X81153491Y-64338200D01*
X81098686Y-64367494D01*
X80872566Y-64553066D01*
X80686994Y-64779186D01*
X80549101Y-65037166D01*
X80464187Y-65317089D01*
X80435515Y-65608200D01*
X80464187Y-65899311D01*
X80549101Y-66179234D01*
X80686994Y-66437214D01*
X80872566Y-66663334D01*
X81098686Y-66848906D01*
X81153491Y-66878200D01*
X81098686Y-66907494D01*
X80872566Y-67093066D01*
X80686994Y-67319186D01*
X80549101Y-67577166D01*
X80464187Y-67857089D01*
X80435515Y-68148200D01*
X80464187Y-68439311D01*
X80549101Y-68719234D01*
X80686994Y-68977214D01*
X80872566Y-69203334D01*
X81098686Y-69388906D01*
X81153491Y-69418200D01*
X81098686Y-69447494D01*
X80872566Y-69633066D01*
X80686994Y-69859186D01*
X80549101Y-70117166D01*
X80464187Y-70397089D01*
X80435515Y-70688200D01*
X80464187Y-70979311D01*
X80549101Y-71259234D01*
X80686994Y-71517214D01*
X80872566Y-71743334D01*
X81098686Y-71928906D01*
X81153491Y-71958200D01*
X81098686Y-71987494D01*
X80872566Y-72173066D01*
X80686994Y-72399186D01*
X80549101Y-72657166D01*
X80464187Y-72937089D01*
X80435515Y-73228200D01*
X80464187Y-73519311D01*
X80549101Y-73799234D01*
X80686994Y-74057214D01*
X80872566Y-74283334D01*
X81098686Y-74468906D01*
X81153491Y-74498200D01*
X81098686Y-74527494D01*
X80872566Y-74713066D01*
X80686994Y-74939186D01*
X80549101Y-75197166D01*
X80464187Y-75477089D01*
X80435515Y-75768200D01*
X80464187Y-76059311D01*
X80549101Y-76339234D01*
X80686994Y-76597214D01*
X80872566Y-76823334D01*
X81098686Y-77008906D01*
X81153491Y-77038200D01*
X81098686Y-77067494D01*
X80872566Y-77253066D01*
X80686994Y-77479186D01*
X80549101Y-77737166D01*
X80464187Y-78017089D01*
X80435515Y-78308200D01*
X80464187Y-78599311D01*
X80549101Y-78879234D01*
X80686994Y-79137214D01*
X80872566Y-79363334D01*
X81098686Y-79548906D01*
X81153491Y-79578200D01*
X81098686Y-79607494D01*
X80872566Y-79793066D01*
X80686994Y-80019186D01*
X80549101Y-80277166D01*
X80464187Y-80557089D01*
X80435515Y-80848200D01*
X80464187Y-81139311D01*
X80549101Y-81419234D01*
X80686994Y-81677214D01*
X80872566Y-81903334D01*
X81098686Y-82088906D01*
X81153491Y-82118200D01*
X81098686Y-82147494D01*
X80872566Y-82333066D01*
X80686994Y-82559186D01*
X80549101Y-82817166D01*
X80464187Y-83097089D01*
X80435515Y-83388200D01*
X80464187Y-83679311D01*
X80549101Y-83959234D01*
X80686994Y-84217214D01*
X80872566Y-84443334D01*
X81098686Y-84628906D01*
X81153491Y-84658200D01*
X81098686Y-84687494D01*
X80872566Y-84873066D01*
X80686994Y-85099186D01*
X80549101Y-85357166D01*
X80464187Y-85637089D01*
X80435515Y-85928200D01*
X80464187Y-86219311D01*
X80549101Y-86499234D01*
X80686994Y-86757214D01*
X80872566Y-86983334D01*
X81098686Y-87168906D01*
X81163223Y-87203401D01*
X81046345Y-87273022D01*
X80830112Y-87467931D01*
X80656059Y-87701280D01*
X80530875Y-87964101D01*
X80486224Y-88111310D01*
X80607545Y-88341200D01*
X81800700Y-88341200D01*
X81800700Y-88321200D01*
X82054700Y-88321200D01*
X82054700Y-88341200D01*
X83247855Y-88341200D01*
X83369176Y-88111310D01*
X83324525Y-87964101D01*
X83199341Y-87701280D01*
X83174592Y-87668100D01*
X83465301Y-87668100D01*
X83473036Y-87686775D01*
X83532002Y-87797092D01*
X83586458Y-87878591D01*
X83665810Y-87975282D01*
X83735118Y-88044590D01*
X83831809Y-88123942D01*
X83913308Y-88178398D01*
X84023625Y-88237364D01*
X84114181Y-88274873D01*
X84233877Y-88311182D01*
X84330010Y-88330304D01*
X84454491Y-88342564D01*
X84479050Y-88342564D01*
X84503500Y-88344972D01*
X85003500Y-88344972D01*
X85127982Y-88332712D01*
X85153500Y-88324971D01*
X85179018Y-88332712D01*
X85303500Y-88344972D01*
X85803500Y-88344972D01*
X85827950Y-88342564D01*
X85852509Y-88342564D01*
X85976990Y-88330304D01*
X86073123Y-88311182D01*
X86192819Y-88274873D01*
X86283375Y-88237364D01*
X86393692Y-88178398D01*
X86475191Y-88123942D01*
X86571882Y-88044590D01*
X86641190Y-87975282D01*
X86720542Y-87878591D01*
X86774998Y-87797092D01*
X86787143Y-87774371D01*
X86791138Y-87777040D01*
X86962171Y-87847884D01*
X87143738Y-87884000D01*
X87328862Y-87884000D01*
X87510429Y-87847884D01*
X87681462Y-87777040D01*
X87835387Y-87674190D01*
X87966290Y-87543287D01*
X88069140Y-87389362D01*
X88139984Y-87218329D01*
X88154821Y-87143738D01*
X88328500Y-87143738D01*
X88328500Y-87328862D01*
X88364616Y-87510429D01*
X88435460Y-87681462D01*
X88538310Y-87835387D01*
X88669213Y-87966290D01*
X88823138Y-88069140D01*
X88994171Y-88139984D01*
X89175738Y-88176100D01*
X89360862Y-88176100D01*
X89542429Y-88139984D01*
X89713462Y-88069140D01*
X89867387Y-87966290D01*
X89886177Y-87947500D01*
X89913513Y-87947500D01*
X90881200Y-88915188D01*
X90881200Y-88941762D01*
X90917316Y-89123329D01*
X90988160Y-89294362D01*
X91091010Y-89448287D01*
X91221913Y-89579190D01*
X91375838Y-89682040D01*
X91546871Y-89752884D01*
X91728438Y-89789000D01*
X91913562Y-89789000D01*
X92095129Y-89752884D01*
X92266162Y-89682040D01*
X92420087Y-89579190D01*
X92550990Y-89448287D01*
X92653840Y-89294362D01*
X92717499Y-89140675D01*
X92768229Y-89130584D01*
X92939262Y-89059740D01*
X93093187Y-88956890D01*
X93224090Y-88825987D01*
X93326940Y-88672062D01*
X93397784Y-88501029D01*
X93406201Y-88458716D01*
X93406201Y-89575728D01*
X93349000Y-89575728D01*
X93324550Y-89578136D01*
X93299991Y-89578136D01*
X93175510Y-89590396D01*
X93079377Y-89609518D01*
X92959681Y-89645827D01*
X92869125Y-89683336D01*
X92758808Y-89742302D01*
X92677309Y-89796758D01*
X92580618Y-89876110D01*
X92511310Y-89945418D01*
X92431958Y-90042109D01*
X92377502Y-90123608D01*
X92318536Y-90233925D01*
X92281027Y-90324481D01*
X92244718Y-90444177D01*
X92225596Y-90540310D01*
X92213336Y-90664791D01*
X92213336Y-90689350D01*
X92210928Y-90713800D01*
X92210928Y-91213800D01*
X92223188Y-91338282D01*
X92230929Y-91363800D01*
X92223188Y-91389318D01*
X92210928Y-91513800D01*
X92210928Y-92013800D01*
X92213336Y-92038250D01*
X92213336Y-92062809D01*
X92225596Y-92187290D01*
X92244718Y-92283423D01*
X92281027Y-92403119D01*
X92318536Y-92493675D01*
X92377502Y-92603992D01*
X92431958Y-92685491D01*
X92511310Y-92782182D01*
X92580618Y-92851490D01*
X92666341Y-92921841D01*
X92657216Y-92943871D01*
X92621100Y-93125438D01*
X92621100Y-93310562D01*
X92657216Y-93492129D01*
X92728060Y-93663162D01*
X92830910Y-93817087D01*
X92961813Y-93947990D01*
X93115738Y-94050840D01*
X93286771Y-94121684D01*
X93468338Y-94157800D01*
X93653462Y-94157800D01*
X93835029Y-94121684D01*
X94006062Y-94050840D01*
X94159987Y-93947990D01*
X94290890Y-93817087D01*
X94393740Y-93663162D01*
X94464584Y-93492129D01*
X94500700Y-93310562D01*
X94500700Y-93125438D01*
X94468879Y-92965462D01*
X94520691Y-92930842D01*
X94617382Y-92851490D01*
X94686690Y-92782182D01*
X94766042Y-92685491D01*
X94820498Y-92603992D01*
X94879464Y-92493675D01*
X94916973Y-92403119D01*
X94953282Y-92283423D01*
X94972404Y-92187290D01*
X94981735Y-92092544D01*
X99092700Y-92092544D01*
X99092700Y-92463856D01*
X99165139Y-92828034D01*
X99307234Y-93171082D01*
X99513525Y-93479818D01*
X99776082Y-93742375D01*
X100084818Y-93948666D01*
X100427866Y-94090761D01*
X100792044Y-94163200D01*
X101163356Y-94163200D01*
X101527534Y-94090761D01*
X101870582Y-93948666D01*
X102179318Y-93742375D01*
X102441875Y-93479818D01*
X102648166Y-93171082D01*
X102790261Y-92828034D01*
X102862700Y-92463856D01*
X102862700Y-92092544D01*
X102790261Y-91728366D01*
X102648166Y-91385318D01*
X102441875Y-91076582D01*
X102179318Y-90814025D01*
X101870582Y-90607734D01*
X101527534Y-90465639D01*
X101163356Y-90393200D01*
X100792044Y-90393200D01*
X100427866Y-90465639D01*
X100084818Y-90607734D01*
X99776082Y-90814025D01*
X99513525Y-91076582D01*
X99307234Y-91385318D01*
X99165139Y-91728366D01*
X99092700Y-92092544D01*
X94981735Y-92092544D01*
X94984664Y-92062809D01*
X94984664Y-92038250D01*
X94987072Y-92013800D01*
X94987072Y-91513800D01*
X94974812Y-91389318D01*
X94967071Y-91363800D01*
X94974812Y-91338282D01*
X94987072Y-91213800D01*
X94987072Y-90713800D01*
X94984664Y-90689350D01*
X94984664Y-90664791D01*
X94972404Y-90540310D01*
X94953282Y-90444177D01*
X94916973Y-90324481D01*
X94879464Y-90233925D01*
X94828600Y-90138766D01*
X94828600Y-87561526D01*
X94917400Y-87570272D01*
X95417400Y-87570272D01*
X95441850Y-87567864D01*
X95466409Y-87567864D01*
X95590890Y-87555604D01*
X95687023Y-87536482D01*
X95806719Y-87500173D01*
X95897275Y-87462664D01*
X96007592Y-87403698D01*
X96089091Y-87349242D01*
X96185782Y-87269890D01*
X96255090Y-87200582D01*
X96334442Y-87103891D01*
X96388898Y-87022392D01*
X96447864Y-86912075D01*
X96485373Y-86821519D01*
X96521682Y-86701823D01*
X96540804Y-86605690D01*
X96553064Y-86481209D01*
X96553064Y-86456650D01*
X96555472Y-86432200D01*
X96555472Y-85932200D01*
X96553064Y-85907750D01*
X96553064Y-85883191D01*
X96540804Y-85758710D01*
X96521682Y-85662577D01*
X96485373Y-85542881D01*
X96447864Y-85452325D01*
X96388898Y-85342008D01*
X96334442Y-85260509D01*
X96255090Y-85163818D01*
X96185782Y-85094510D01*
X96164400Y-85076962D01*
X96164400Y-84831577D01*
X96183190Y-84812787D01*
X96286040Y-84658862D01*
X96356884Y-84487829D01*
X96393000Y-84306262D01*
X96393000Y-84121138D01*
X96356884Y-83939571D01*
X96286040Y-83768538D01*
X96183190Y-83614613D01*
X96052287Y-83483710D01*
X95898362Y-83380860D01*
X95727329Y-83310016D01*
X95545762Y-83273900D01*
X95360638Y-83273900D01*
X95179071Y-83310016D01*
X95008038Y-83380860D01*
X94854113Y-83483710D01*
X94723210Y-83614613D01*
X94620360Y-83768538D01*
X94549516Y-83939571D01*
X94513400Y-84121138D01*
X94513400Y-84306262D01*
X94549516Y-84487829D01*
X94620360Y-84658862D01*
X94717318Y-84803969D01*
X94617400Y-84794128D01*
X94117400Y-84794128D01*
X94092950Y-84796536D01*
X94068391Y-84796536D01*
X93943910Y-84808796D01*
X93847777Y-84827918D01*
X93728081Y-84864227D01*
X93637525Y-84901736D01*
X93527208Y-84960702D01*
X93445709Y-85015158D01*
X93349018Y-85094510D01*
X93279710Y-85163818D01*
X93200358Y-85260509D01*
X93145902Y-85342008D01*
X93086936Y-85452325D01*
X93079201Y-85471000D01*
X93048477Y-85471000D01*
X93029687Y-85452210D01*
X92875762Y-85349360D01*
X92704729Y-85278516D01*
X92523162Y-85242400D01*
X92338038Y-85242400D01*
X92156471Y-85278516D01*
X91985438Y-85349360D01*
X91831513Y-85452210D01*
X91700610Y-85583113D01*
X91597760Y-85737038D01*
X91526916Y-85908071D01*
X91490800Y-86089638D01*
X91490800Y-86274762D01*
X91491904Y-86280311D01*
X91468982Y-86268059D01*
X91334921Y-86227392D01*
X91230437Y-86217101D01*
X91230427Y-86217101D01*
X91195501Y-86213661D01*
X91160575Y-86217101D01*
X90896734Y-86217101D01*
X90850440Y-86105338D01*
X90747590Y-85951413D01*
X90616687Y-85820510D01*
X90462762Y-85717660D01*
X90291729Y-85646816D01*
X90110162Y-85610700D01*
X89925038Y-85610700D01*
X89743471Y-85646816D01*
X89572438Y-85717660D01*
X89418513Y-85820510D01*
X89287610Y-85951413D01*
X89184760Y-86105338D01*
X89113916Y-86276371D01*
X89107200Y-86310133D01*
X88994171Y-86332616D01*
X88823138Y-86403460D01*
X88669213Y-86506310D01*
X88538310Y-86637213D01*
X88435460Y-86791138D01*
X88364616Y-86962171D01*
X88328500Y-87143738D01*
X88154821Y-87143738D01*
X88176100Y-87036762D01*
X88176100Y-86851638D01*
X88139984Y-86670071D01*
X88069140Y-86499038D01*
X87966290Y-86345113D01*
X87835387Y-86214210D01*
X87681462Y-86111360D01*
X87510429Y-86040516D01*
X87328862Y-86004400D01*
X87143738Y-86004400D01*
X86962171Y-86040516D01*
X86791138Y-86111360D01*
X86777139Y-86120714D01*
X86774998Y-86116708D01*
X86720542Y-86035209D01*
X86641190Y-85938518D01*
X86571882Y-85869210D01*
X86475191Y-85789858D01*
X86393692Y-85735402D01*
X86302952Y-85686900D01*
X86393692Y-85638398D01*
X86475191Y-85583942D01*
X86571882Y-85504590D01*
X86641190Y-85435282D01*
X86720542Y-85338591D01*
X86765776Y-85270894D01*
X86791138Y-85287840D01*
X86962171Y-85358684D01*
X87143738Y-85394800D01*
X87328862Y-85394800D01*
X87510429Y-85358684D01*
X87681462Y-85287840D01*
X87835387Y-85184990D01*
X87966290Y-85054087D01*
X88069140Y-84900162D01*
X88139984Y-84729129D01*
X88176100Y-84547562D01*
X88176100Y-84362438D01*
X88139984Y-84180871D01*
X88069140Y-84009838D01*
X87966290Y-83855913D01*
X87835387Y-83725010D01*
X87681462Y-83622160D01*
X87510429Y-83551316D01*
X87328862Y-83515200D01*
X87143738Y-83515200D01*
X86962171Y-83551316D01*
X86797815Y-83619394D01*
X86774998Y-83576708D01*
X86720542Y-83495209D01*
X86641190Y-83398518D01*
X86571882Y-83329210D01*
X86475191Y-83249858D01*
X86393692Y-83195402D01*
X86283375Y-83136436D01*
X86192819Y-83098927D01*
X86073123Y-83062618D01*
X85976990Y-83043496D01*
X85852509Y-83031236D01*
X85827950Y-83031236D01*
X85803500Y-83028828D01*
X85303500Y-83028828D01*
X85179018Y-83041088D01*
X85153500Y-83048829D01*
X85127982Y-83041088D01*
X85003500Y-83028828D01*
X84503500Y-83028828D01*
X84479050Y-83031236D01*
X84454491Y-83031236D01*
X84330010Y-83043496D01*
X84233877Y-83062618D01*
X84173362Y-83080975D01*
X84002401Y-82910014D01*
X83980127Y-82882873D01*
X83871833Y-82793998D01*
X83748281Y-82727958D01*
X83614220Y-82687291D01*
X83509736Y-82677000D01*
X83509726Y-82677000D01*
X83474800Y-82673560D01*
X83439874Y-82677000D01*
X83231379Y-82677000D01*
X83168406Y-82559186D01*
X82982834Y-82333066D01*
X82756714Y-82147494D01*
X82701909Y-82118200D01*
X82756714Y-82088906D01*
X82982834Y-81903334D01*
X83168406Y-81677214D01*
X83231379Y-81559400D01*
X83414501Y-81559400D01*
X83422236Y-81578075D01*
X83481202Y-81688392D01*
X83535658Y-81769891D01*
X83615010Y-81866582D01*
X83684318Y-81935890D01*
X83781009Y-82015242D01*
X83862508Y-82069698D01*
X83972825Y-82128664D01*
X84063381Y-82166173D01*
X84183077Y-82202482D01*
X84279210Y-82221604D01*
X84403691Y-82233864D01*
X84428250Y-82233864D01*
X84452700Y-82236272D01*
X84952700Y-82236272D01*
X85077182Y-82224012D01*
X85102700Y-82216271D01*
X85128218Y-82224012D01*
X85252700Y-82236272D01*
X85752700Y-82236272D01*
X85777150Y-82233864D01*
X85801709Y-82233864D01*
X85926190Y-82221604D01*
X86022323Y-82202482D01*
X86142019Y-82166173D01*
X86232575Y-82128664D01*
X86342892Y-82069698D01*
X86424391Y-82015242D01*
X86521082Y-81935890D01*
X86590390Y-81866582D01*
X86669742Y-81769891D01*
X86724198Y-81688392D01*
X86744710Y-81650017D01*
X86791138Y-81681040D01*
X86962171Y-81751884D01*
X87143738Y-81788000D01*
X87328862Y-81788000D01*
X87510429Y-81751884D01*
X87681462Y-81681040D01*
X87835387Y-81578190D01*
X87966290Y-81447287D01*
X88069140Y-81293362D01*
X88139984Y-81122329D01*
X88176100Y-80940762D01*
X88176100Y-80755638D01*
X88139984Y-80574071D01*
X88069140Y-80403038D01*
X87966290Y-80249113D01*
X87835387Y-80118210D01*
X87681462Y-80015360D01*
X87510429Y-79944516D01*
X87328862Y-79908400D01*
X87143738Y-79908400D01*
X86962171Y-79944516D01*
X86791138Y-80015360D01*
X86744710Y-80046383D01*
X86724198Y-80008008D01*
X86669742Y-79926509D01*
X86590390Y-79829818D01*
X86521082Y-79760510D01*
X86424391Y-79681158D01*
X86342892Y-79626702D01*
X86252152Y-79578200D01*
X86342892Y-79529698D01*
X86424391Y-79475242D01*
X86521082Y-79395890D01*
X86590390Y-79326582D01*
X86669742Y-79229891D01*
X86724198Y-79148392D01*
X86769719Y-79063228D01*
X86791138Y-79077540D01*
X86962171Y-79148384D01*
X87143738Y-79184500D01*
X87328862Y-79184500D01*
X87347272Y-79180838D01*
X89623900Y-79180838D01*
X89623900Y-79365962D01*
X89660016Y-79547529D01*
X89730860Y-79718562D01*
X89833710Y-79872487D01*
X89964613Y-80003390D01*
X90118538Y-80106240D01*
X90289571Y-80177084D01*
X90471138Y-80213200D01*
X90656262Y-80213200D01*
X90837829Y-80177084D01*
X91008862Y-80106240D01*
X91120847Y-80031413D01*
X91156536Y-80117575D01*
X91215502Y-80227892D01*
X91269958Y-80309391D01*
X91349310Y-80406082D01*
X91418618Y-80475390D01*
X91515309Y-80554742D01*
X91596808Y-80609198D01*
X91707125Y-80668164D01*
X91797681Y-80705673D01*
X91917377Y-80741982D01*
X92013510Y-80761104D01*
X92137991Y-80773364D01*
X92162550Y-80773364D01*
X92187000Y-80775772D01*
X92687000Y-80775772D01*
X92811482Y-80763512D01*
X92837000Y-80755771D01*
X92862518Y-80763512D01*
X92987000Y-80775772D01*
X93487000Y-80775772D01*
X93511450Y-80773364D01*
X93536009Y-80773364D01*
X93660490Y-80761104D01*
X93756623Y-80741982D01*
X93876319Y-80705673D01*
X93966875Y-80668164D01*
X94077192Y-80609198D01*
X94158691Y-80554742D01*
X94255382Y-80475390D01*
X94324690Y-80406082D01*
X94404042Y-80309391D01*
X94458498Y-80227892D01*
X94473139Y-80200500D01*
X97360626Y-80200500D01*
X97395552Y-80203940D01*
X97430478Y-80200500D01*
X97430488Y-80200500D01*
X97534972Y-80190209D01*
X97669033Y-80149542D01*
X97792585Y-80083502D01*
X97900879Y-79994627D01*
X97923154Y-79967485D01*
X98153885Y-79736754D01*
X98181027Y-79714479D01*
X98269902Y-79606185D01*
X98335942Y-79482633D01*
X98351486Y-79431391D01*
X98405690Y-79377187D01*
X98508540Y-79223262D01*
X98579384Y-79052229D01*
X98615500Y-78870662D01*
X98615500Y-78685538D01*
X98579384Y-78503971D01*
X98508540Y-78332938D01*
X98405690Y-78179013D01*
X98274787Y-78048110D01*
X98120862Y-77945260D01*
X97949829Y-77874416D01*
X97768262Y-77838300D01*
X97583138Y-77838300D01*
X97401571Y-77874416D01*
X97230538Y-77945260D01*
X97076613Y-78048110D01*
X96945710Y-78179013D01*
X96842860Y-78332938D01*
X96772016Y-78503971D01*
X96735900Y-78685538D01*
X96735900Y-78778100D01*
X94680725Y-78778100D01*
X94585981Y-78727458D01*
X94540605Y-78713693D01*
X94517464Y-78657825D01*
X94458498Y-78547508D01*
X94404042Y-78466009D01*
X94324690Y-78369318D01*
X94255382Y-78300010D01*
X94158691Y-78220658D01*
X94077192Y-78166202D01*
X93966875Y-78107236D01*
X93876319Y-78069727D01*
X93756623Y-78033418D01*
X93660490Y-78014296D01*
X93536009Y-78002036D01*
X93511450Y-78002036D01*
X93487000Y-77999628D01*
X92987000Y-77999628D01*
X92862518Y-78011888D01*
X92837000Y-78019629D01*
X92811482Y-78011888D01*
X92687000Y-77999628D01*
X92187000Y-77999628D01*
X92162550Y-78002036D01*
X92137991Y-78002036D01*
X92013510Y-78014296D01*
X91917377Y-78033418D01*
X91797681Y-78069727D01*
X91707125Y-78107236D01*
X91596808Y-78166202D01*
X91515309Y-78220658D01*
X91418618Y-78300010D01*
X91349310Y-78369318D01*
X91269958Y-78466009D01*
X91215502Y-78547508D01*
X91207649Y-78562200D01*
X91181577Y-78562200D01*
X91162787Y-78543410D01*
X91008862Y-78440560D01*
X90837829Y-78369716D01*
X90656262Y-78333600D01*
X90471138Y-78333600D01*
X90289571Y-78369716D01*
X90118538Y-78440560D01*
X89964613Y-78543410D01*
X89833710Y-78674313D01*
X89730860Y-78828238D01*
X89660016Y-78999271D01*
X89623900Y-79180838D01*
X87347272Y-79180838D01*
X87510429Y-79148384D01*
X87681462Y-79077540D01*
X87835387Y-78974690D01*
X87966290Y-78843787D01*
X88069140Y-78689862D01*
X88139984Y-78518829D01*
X88176100Y-78337262D01*
X88176100Y-78152138D01*
X88139984Y-77970571D01*
X88069140Y-77799538D01*
X87966290Y-77645613D01*
X87835387Y-77514710D01*
X87681462Y-77411860D01*
X87510429Y-77341016D01*
X87328862Y-77304900D01*
X87143738Y-77304900D01*
X86962171Y-77341016D01*
X86791138Y-77411860D01*
X86718923Y-77460113D01*
X86669742Y-77386509D01*
X86590390Y-77289818D01*
X86521082Y-77220510D01*
X86424391Y-77141158D01*
X86342892Y-77086702D01*
X86258502Y-77041594D01*
X86355592Y-76989698D01*
X86437091Y-76935242D01*
X86533782Y-76855890D01*
X86603090Y-76786582D01*
X86682442Y-76689891D01*
X86736898Y-76608392D01*
X86744064Y-76594986D01*
X86791138Y-76626440D01*
X86962171Y-76697284D01*
X87143738Y-76733400D01*
X87328862Y-76733400D01*
X87510429Y-76697284D01*
X87681462Y-76626440D01*
X87835387Y-76523590D01*
X87966290Y-76392687D01*
X88069140Y-76238762D01*
X88139984Y-76067729D01*
X88176100Y-75886162D01*
X88176100Y-75701038D01*
X88139984Y-75519471D01*
X88069140Y-75348438D01*
X87966290Y-75194513D01*
X87835387Y-75063610D01*
X87681462Y-74960760D01*
X87510429Y-74889916D01*
X87328862Y-74853800D01*
X87143738Y-74853800D01*
X86962171Y-74889916D01*
X86791138Y-74960760D01*
X86764071Y-74978845D01*
X86736898Y-74928008D01*
X86682442Y-74846509D01*
X86603090Y-74749818D01*
X86533782Y-74680510D01*
X86437091Y-74601158D01*
X86355592Y-74546702D01*
X86245275Y-74487736D01*
X86154719Y-74450227D01*
X86035023Y-74413918D01*
X85938890Y-74394796D01*
X85814409Y-74382536D01*
X85789850Y-74382536D01*
X85765400Y-74380128D01*
X85265400Y-74380128D01*
X85140918Y-74392388D01*
X85115400Y-74400129D01*
X85089882Y-74392388D01*
X84965400Y-74380128D01*
X84465400Y-74380128D01*
X84440950Y-74382536D01*
X84416391Y-74382536D01*
X84291910Y-74394796D01*
X84195777Y-74413918D01*
X84076081Y-74450227D01*
X83985525Y-74487736D01*
X83875208Y-74546702D01*
X83793709Y-74601158D01*
X83697018Y-74680510D01*
X83627710Y-74749818D01*
X83548358Y-74846509D01*
X83493902Y-74928008D01*
X83434936Y-75038325D01*
X83427201Y-75057000D01*
X83231379Y-75057000D01*
X83168406Y-74939186D01*
X82982834Y-74713066D01*
X82756714Y-74527494D01*
X82701909Y-74498200D01*
X82756714Y-74468906D01*
X82982834Y-74283334D01*
X83168406Y-74057214D01*
X83306299Y-73799234D01*
X83391213Y-73519311D01*
X83419885Y-73228200D01*
X83391213Y-72937089D01*
X83306299Y-72657166D01*
X83168406Y-72399186D01*
X82982834Y-72173066D01*
X82756714Y-71987494D01*
X82701909Y-71958200D01*
X82756714Y-71928906D01*
X82982834Y-71743334D01*
X83168406Y-71517214D01*
X83306299Y-71259234D01*
X83391213Y-70979311D01*
X83419885Y-70688200D01*
X83391213Y-70397089D01*
X83306299Y-70117166D01*
X83168406Y-69859186D01*
X82982834Y-69633066D01*
X82756714Y-69447494D01*
X82701909Y-69418200D01*
X82756714Y-69388906D01*
X82982834Y-69203334D01*
X83168406Y-68977214D01*
X83306299Y-68719234D01*
X83391213Y-68439311D01*
X83419885Y-68148200D01*
X83391213Y-67857089D01*
X83306299Y-67577166D01*
X83168406Y-67319186D01*
X82982834Y-67093066D01*
X82756714Y-66907494D01*
X82701909Y-66878200D01*
X82756714Y-66848906D01*
X82982834Y-66663334D01*
X83168406Y-66437214D01*
X83306299Y-66179234D01*
X83391213Y-65899311D01*
X83419885Y-65608200D01*
X83391213Y-65317089D01*
X83306299Y-65037166D01*
X83168406Y-64779186D01*
X82982834Y-64553066D01*
X82756714Y-64367494D01*
X82701909Y-64338200D01*
X82756714Y-64308906D01*
X82982834Y-64123334D01*
X83168406Y-63897214D01*
X83306299Y-63639234D01*
X83391213Y-63359311D01*
X83419885Y-63068200D01*
X83391213Y-62777089D01*
X83306299Y-62497166D01*
X83168406Y-62239186D01*
X82982834Y-62013066D01*
X82756714Y-61827494D01*
X82701909Y-61798200D01*
X82756714Y-61768906D01*
X82982834Y-61583334D01*
X83168406Y-61357214D01*
X83306299Y-61099234D01*
X83391213Y-60819311D01*
X83419885Y-60528200D01*
X83391213Y-60237089D01*
X83306299Y-59957166D01*
X83168406Y-59699186D01*
X82982834Y-59473066D01*
X82756714Y-59287494D01*
X82692177Y-59252999D01*
X82809055Y-59183378D01*
X83025288Y-58988469D01*
X83199341Y-58755120D01*
X83324525Y-58492299D01*
X83369176Y-58345090D01*
X83247855Y-58115200D01*
X82054700Y-58115200D01*
X82054700Y-58135200D01*
X81800700Y-58135200D01*
X81800700Y-58115200D01*
X80607545Y-58115200D01*
X80486224Y-58345090D01*
X80530875Y-58492299D01*
X80656059Y-58755120D01*
X80830112Y-58988469D01*
X81046345Y-59183378D01*
X81163223Y-59252999D01*
X81098686Y-59287494D01*
X80872566Y-59473066D01*
X80686994Y-59699186D01*
X80549101Y-59957166D01*
X80464187Y-60237089D01*
X80435515Y-60528200D01*
X67707590Y-60528200D01*
X67729100Y-60420064D01*
X67729100Y-60346244D01*
X67798279Y-60300020D01*
X67830435Y-60267864D01*
X67926136Y-60286900D01*
X68116264Y-60286900D01*
X68302738Y-60249808D01*
X68478394Y-60177049D01*
X68636479Y-60071420D01*
X68770920Y-59936979D01*
X68876549Y-59778894D01*
X68949308Y-59603238D01*
X68971867Y-59489827D01*
X68999094Y-59478549D01*
X69157179Y-59372920D01*
X69291620Y-59238479D01*
X69397249Y-59080394D01*
X69470008Y-58904738D01*
X69507100Y-58718264D01*
X69507100Y-58528136D01*
X69470008Y-58341662D01*
X69397249Y-58166006D01*
X69364541Y-58117055D01*
X69406508Y-58015738D01*
X69443600Y-57829264D01*
X69443600Y-57639136D01*
X69406508Y-57452662D01*
X69333749Y-57277006D01*
X69228120Y-57118921D01*
X69093679Y-56984480D01*
X68935594Y-56878851D01*
X68759938Y-56806092D01*
X68573464Y-56769000D01*
X68383336Y-56769000D01*
X68196862Y-56806092D01*
X68021206Y-56878851D01*
X67863121Y-56984480D01*
X67728680Y-57118921D01*
X67684584Y-57184916D01*
X67621061Y-57178659D01*
X67621051Y-57178659D01*
X67586125Y-57175219D01*
X67551199Y-57178659D01*
X63844843Y-57178659D01*
X63818508Y-57046262D01*
X63745749Y-56870606D01*
X63640120Y-56712521D01*
X63505679Y-56578080D01*
X63347594Y-56472451D01*
X63171938Y-56399692D01*
X62985464Y-56362600D01*
X62795336Y-56362600D01*
X62608862Y-56399692D01*
X62433206Y-56472451D01*
X62275121Y-56578080D01*
X62140680Y-56712521D01*
X62035051Y-56870606D01*
X61966770Y-57035450D01*
X61823606Y-57094751D01*
X61665521Y-57200380D01*
X61531080Y-57334821D01*
X61425451Y-57492906D01*
X61408440Y-57533973D01*
X61300762Y-57555392D01*
X61125106Y-57628151D01*
X60967021Y-57733780D01*
X60832580Y-57868221D01*
X60726951Y-58026306D01*
X60654192Y-58201962D01*
X60617100Y-58388436D01*
X54613649Y-58388436D01*
X54559194Y-58352051D01*
X54383538Y-58279292D01*
X54197064Y-58242200D01*
X54006936Y-58242200D01*
X53820462Y-58279292D01*
X53763012Y-58303088D01*
X53725942Y-58247609D01*
X53646590Y-58150918D01*
X53577282Y-58081610D01*
X53480591Y-58002258D01*
X53399092Y-57947802D01*
X53288775Y-57888836D01*
X53198219Y-57851327D01*
X53078523Y-57815018D01*
X52982390Y-57795896D01*
X52857909Y-57783636D01*
X52833350Y-57783636D01*
X52808900Y-57781228D01*
X52308900Y-57781228D01*
X52184418Y-57793488D01*
X52064720Y-57829798D01*
X51954406Y-57888763D01*
X51857715Y-57968115D01*
X51778363Y-58064806D01*
X51719398Y-58175120D01*
X51683088Y-58294818D01*
X51670828Y-58419300D01*
X43891200Y-58419300D01*
X43891200Y-55061036D01*
X64109600Y-55061036D01*
X64109600Y-55251164D01*
X64146692Y-55437638D01*
X64219451Y-55613294D01*
X64325080Y-55771379D01*
X64459521Y-55905820D01*
X64617606Y-56011449D01*
X64793262Y-56084208D01*
X64979736Y-56121300D01*
X65169864Y-56121300D01*
X65356338Y-56084208D01*
X65531994Y-56011449D01*
X65630425Y-55945680D01*
X65728856Y-56011449D01*
X65904512Y-56084208D01*
X66090986Y-56121300D01*
X66281114Y-56121300D01*
X66467588Y-56084208D01*
X66643244Y-56011449D01*
X66741675Y-55945680D01*
X66840106Y-56011449D01*
X67015762Y-56084208D01*
X67202236Y-56121300D01*
X67392364Y-56121300D01*
X67578838Y-56084208D01*
X67754494Y-56011449D01*
X67835573Y-55957274D01*
X67881080Y-56025379D01*
X68015521Y-56159820D01*
X68173606Y-56265449D01*
X68349262Y-56338208D01*
X68535736Y-56375300D01*
X68725864Y-56375300D01*
X68912338Y-56338208D01*
X69068481Y-56273531D01*
X69113406Y-56303549D01*
X69289062Y-56376308D01*
X69475536Y-56413400D01*
X69665664Y-56413400D01*
X69852138Y-56376308D01*
X70027794Y-56303549D01*
X70185879Y-56197920D01*
X70320320Y-56063479D01*
X70425949Y-55905394D01*
X70498708Y-55729738D01*
X70535800Y-55543264D01*
X70535800Y-55353136D01*
X70498708Y-55166662D01*
X70425949Y-54991006D01*
X70320320Y-54832921D01*
X70281800Y-54794401D01*
X70281800Y-52305136D01*
X73037700Y-52305136D01*
X73037700Y-52495264D01*
X73074792Y-52681738D01*
X73147551Y-52857394D01*
X73253180Y-53015479D01*
X73387621Y-53149920D01*
X73545706Y-53255549D01*
X73721362Y-53328308D01*
X73907836Y-53365400D01*
X74097964Y-53365400D01*
X74284438Y-53328308D01*
X74460094Y-53255549D01*
X74618179Y-53149920D01*
X74656699Y-53111400D01*
X76030328Y-53111400D01*
X76032762Y-53112408D01*
X76219236Y-53149500D01*
X76409364Y-53149500D01*
X76595838Y-53112408D01*
X76771494Y-53039649D01*
X76929579Y-52934020D01*
X76955399Y-52908200D01*
X80435515Y-52908200D01*
X80464187Y-53199311D01*
X80549101Y-53479234D01*
X80686994Y-53737214D01*
X80872566Y-53963334D01*
X81098686Y-54148906D01*
X81153491Y-54178200D01*
X81098686Y-54207494D01*
X80872566Y-54393066D01*
X80686994Y-54619186D01*
X80549101Y-54877166D01*
X80464187Y-55157089D01*
X80435515Y-55448200D01*
X80464187Y-55739311D01*
X80549101Y-56019234D01*
X80686994Y-56277214D01*
X80872566Y-56503334D01*
X81098686Y-56688906D01*
X81163223Y-56723401D01*
X81046345Y-56793022D01*
X80830112Y-56987931D01*
X80656059Y-57221280D01*
X80530875Y-57484101D01*
X80486224Y-57631310D01*
X80607545Y-57861200D01*
X81800700Y-57861200D01*
X81800700Y-57841200D01*
X82054700Y-57841200D01*
X82054700Y-57861200D01*
X83247855Y-57861200D01*
X83369176Y-57631310D01*
X83324525Y-57484101D01*
X83199341Y-57221280D01*
X83025288Y-56987931D01*
X82809055Y-56793022D01*
X82692177Y-56723401D01*
X82756714Y-56688906D01*
X82982834Y-56503334D01*
X83168406Y-56277214D01*
X83306299Y-56019234D01*
X83391213Y-55739311D01*
X83419885Y-55448200D01*
X83391213Y-55157089D01*
X83306299Y-54877166D01*
X83168406Y-54619186D01*
X82982834Y-54393066D01*
X82756714Y-54207494D01*
X82701909Y-54178200D01*
X82756714Y-54148906D01*
X82982834Y-53963334D01*
X83168406Y-53737214D01*
X83306299Y-53479234D01*
X83391213Y-53199311D01*
X83419885Y-52908200D01*
X83391213Y-52617089D01*
X83306299Y-52337166D01*
X83168406Y-52079186D01*
X82982834Y-51853066D01*
X82953013Y-51828593D01*
X83021880Y-51807702D01*
X83132194Y-51748737D01*
X83228885Y-51669385D01*
X83308237Y-51572694D01*
X83367202Y-51462380D01*
X83403512Y-51342682D01*
X83415772Y-51218200D01*
X83415772Y-49518200D01*
X83403512Y-49393718D01*
X83367202Y-49274020D01*
X83308237Y-49163706D01*
X83250374Y-49093200D01*
X83447376Y-49093200D01*
X83937132Y-48995782D01*
X84398473Y-48804688D01*
X84813668Y-48527263D01*
X85166763Y-48174168D01*
X85444188Y-47758973D01*
X85635282Y-47297632D01*
X85732700Y-46807876D01*
X85732700Y-46308524D01*
X98442700Y-46308524D01*
X98442700Y-46807876D01*
X98540118Y-47297632D01*
X98731212Y-47758973D01*
X99008637Y-48174168D01*
X99361732Y-48527263D01*
X99776927Y-48804688D01*
X100238268Y-48995782D01*
X100728024Y-49093200D01*
X101227376Y-49093200D01*
X101717132Y-48995782D01*
X102178473Y-48804688D01*
X102593668Y-48527263D01*
X102946763Y-48174168D01*
X103224188Y-47758973D01*
X103415282Y-47297632D01*
X103512700Y-46807876D01*
X103512700Y-46308524D01*
X103415282Y-45818768D01*
X103224188Y-45357427D01*
X102946763Y-44942232D01*
X102593668Y-44589137D01*
X102178473Y-44311712D01*
X101717132Y-44120618D01*
X101227376Y-44023200D01*
X100728024Y-44023200D01*
X100238268Y-44120618D01*
X99776927Y-44311712D01*
X99361732Y-44589137D01*
X99008637Y-44942232D01*
X98731212Y-45357427D01*
X98540118Y-45818768D01*
X98442700Y-46308524D01*
X85732700Y-46308524D01*
X85635282Y-45818768D01*
X85444188Y-45357427D01*
X85166763Y-44942232D01*
X84813668Y-44589137D01*
X84398473Y-44311712D01*
X83937132Y-44120618D01*
X83447376Y-44023200D01*
X82948024Y-44023200D01*
X82458268Y-44120618D01*
X81996927Y-44311712D01*
X81581732Y-44589137D01*
X81228637Y-44942232D01*
X80951212Y-45357427D01*
X80760118Y-45818768D01*
X80662700Y-46308524D01*
X80662700Y-46807876D01*
X80760118Y-47297632D01*
X80951212Y-47758973D01*
X81228637Y-48174168D01*
X81581732Y-48527263D01*
X81996927Y-48804688D01*
X82179055Y-48880128D01*
X81077700Y-48880128D01*
X80953218Y-48892388D01*
X80833520Y-48928698D01*
X80723206Y-48987663D01*
X80626515Y-49067015D01*
X80547163Y-49163706D01*
X80488198Y-49274020D01*
X80451888Y-49393718D01*
X80439628Y-49518200D01*
X80439628Y-51218200D01*
X80451888Y-51342682D01*
X80488198Y-51462380D01*
X80547163Y-51572694D01*
X80626515Y-51669385D01*
X80723206Y-51748737D01*
X80833520Y-51807702D01*
X80902387Y-51828593D01*
X80872566Y-51853066D01*
X80686994Y-52079186D01*
X80549101Y-52337166D01*
X80464187Y-52617089D01*
X80435515Y-52908200D01*
X76955399Y-52908200D01*
X77064020Y-52799579D01*
X77169649Y-52641494D01*
X77242408Y-52465838D01*
X77279500Y-52279364D01*
X77279500Y-52089236D01*
X77242408Y-51902762D01*
X77169649Y-51727106D01*
X77064020Y-51569021D01*
X76929579Y-51434580D01*
X76771494Y-51328951D01*
X76595838Y-51256192D01*
X76409364Y-51219100D01*
X76219236Y-51219100D01*
X76032762Y-51256192D01*
X75857106Y-51328951D01*
X75699021Y-51434580D01*
X75564580Y-51569021D01*
X75484413Y-51689000D01*
X74656699Y-51689000D01*
X74618179Y-51650480D01*
X74460094Y-51544851D01*
X74284438Y-51472092D01*
X74097964Y-51435000D01*
X73907836Y-51435000D01*
X73721362Y-51472092D01*
X73545706Y-51544851D01*
X73387621Y-51650480D01*
X73253180Y-51784921D01*
X73147551Y-51943006D01*
X73074792Y-52118662D01*
X73037700Y-52305136D01*
X70281800Y-52305136D01*
X70281800Y-51771299D01*
X70320320Y-51732779D01*
X70425949Y-51574694D01*
X70498708Y-51399038D01*
X70535800Y-51212564D01*
X70535800Y-51022436D01*
X70498708Y-50835962D01*
X70425949Y-50660306D01*
X70320320Y-50502221D01*
X70185879Y-50367780D01*
X70027794Y-50262151D01*
X69852138Y-50189392D01*
X69665664Y-50152300D01*
X69475536Y-50152300D01*
X69289062Y-50189392D01*
X69113406Y-50262151D01*
X69100700Y-50270641D01*
X69087994Y-50262151D01*
X68912338Y-50189392D01*
X68725864Y-50152300D01*
X68535736Y-50152300D01*
X68349262Y-50189392D01*
X68204799Y-50249231D01*
X68110094Y-50185951D01*
X67934438Y-50113192D01*
X67747964Y-50076100D01*
X67557836Y-50076100D01*
X67371362Y-50113192D01*
X67195706Y-50185951D01*
X67109975Y-50243235D01*
X67024244Y-50185951D01*
X66848588Y-50113192D01*
X66662114Y-50076100D01*
X66471986Y-50076100D01*
X66285512Y-50113192D01*
X66109856Y-50185951D01*
X66024125Y-50243235D01*
X65938394Y-50185951D01*
X65762738Y-50113192D01*
X65576264Y-50076100D01*
X65386136Y-50076100D01*
X65199662Y-50113192D01*
X65024006Y-50185951D01*
X64865921Y-50291580D01*
X64731480Y-50426021D01*
X64625851Y-50584106D01*
X64553092Y-50759762D01*
X64516000Y-50946236D01*
X64516000Y-51136364D01*
X64553092Y-51322838D01*
X64625851Y-51498494D01*
X64731480Y-51656579D01*
X64770001Y-51695100D01*
X64770000Y-54237627D01*
X64617606Y-54300751D01*
X64459521Y-54406380D01*
X64325080Y-54540821D01*
X64219451Y-54698906D01*
X64146692Y-54874562D01*
X64109600Y-55061036D01*
X43891200Y-55061036D01*
X43891200Y-45853879D01*
X43930109Y-45457055D01*
X43980817Y-45289100D01*
X50162828Y-45289100D01*
X50162828Y-46989100D01*
X50175088Y-47113582D01*
X50211398Y-47233280D01*
X50270363Y-47343594D01*
X50349715Y-47440285D01*
X50446406Y-47519637D01*
X50556720Y-47578602D01*
X50676418Y-47614912D01*
X50800900Y-47627172D01*
X52500900Y-47627172D01*
X52625382Y-47614912D01*
X52745080Y-47578602D01*
X52855394Y-47519637D01*
X52952085Y-47440285D01*
X53031437Y-47343594D01*
X53090402Y-47233280D01*
X53114866Y-47152634D01*
X53190631Y-47236688D01*
X53423980Y-47410741D01*
X53686801Y-47535925D01*
X53834010Y-47580576D01*
X54063900Y-47459255D01*
X54063900Y-46266100D01*
X54043900Y-46266100D01*
X54043900Y-46012100D01*
X54063900Y-46012100D01*
X54063900Y-44818945D01*
X54317900Y-44818945D01*
X54317900Y-46012100D01*
X54337900Y-46012100D01*
X54337900Y-46266100D01*
X54317900Y-46266100D01*
X54317900Y-47459255D01*
X54547790Y-47580576D01*
X54694999Y-47535925D01*
X54957820Y-47410741D01*
X55191169Y-47236688D01*
X55386078Y-47020455D01*
X55455699Y-46903577D01*
X55490194Y-46968114D01*
X55675766Y-47194234D01*
X55901886Y-47379806D01*
X56159866Y-47517699D01*
X56439789Y-47602613D01*
X56657950Y-47624100D01*
X56803850Y-47624100D01*
X57022011Y-47602613D01*
X57301934Y-47517699D01*
X57559914Y-47379806D01*
X57786034Y-47194234D01*
X57971606Y-46968114D01*
X58000900Y-46913309D01*
X58030194Y-46968114D01*
X58215766Y-47194234D01*
X58441886Y-47379806D01*
X58699866Y-47517699D01*
X58979789Y-47602613D01*
X59197950Y-47624100D01*
X59343850Y-47624100D01*
X59562011Y-47602613D01*
X59841934Y-47517699D01*
X60099914Y-47379806D01*
X60326034Y-47194234D01*
X60511606Y-46968114D01*
X60540900Y-46913309D01*
X60570194Y-46968114D01*
X60755766Y-47194234D01*
X60981886Y-47379806D01*
X61239866Y-47517699D01*
X61519789Y-47602613D01*
X61737950Y-47624100D01*
X61883850Y-47624100D01*
X62102011Y-47602613D01*
X62381934Y-47517699D01*
X62639914Y-47379806D01*
X62866034Y-47194234D01*
X63051606Y-46968114D01*
X63080900Y-46913309D01*
X63110194Y-46968114D01*
X63295766Y-47194234D01*
X63521886Y-47379806D01*
X63779866Y-47517699D01*
X64059789Y-47602613D01*
X64277950Y-47624100D01*
X64423850Y-47624100D01*
X64642011Y-47602613D01*
X64921934Y-47517699D01*
X65179914Y-47379806D01*
X65406034Y-47194234D01*
X65591606Y-46968114D01*
X65620900Y-46913309D01*
X65650194Y-46968114D01*
X65835766Y-47194234D01*
X66061886Y-47379806D01*
X66319866Y-47517699D01*
X66599789Y-47602613D01*
X66817950Y-47624100D01*
X66963850Y-47624100D01*
X67182011Y-47602613D01*
X67461934Y-47517699D01*
X67719914Y-47379806D01*
X67946034Y-47194234D01*
X68131606Y-46968114D01*
X68269499Y-46710134D01*
X68354413Y-46430211D01*
X68383085Y-46139100D01*
X68354413Y-45847989D01*
X68269499Y-45568066D01*
X68131606Y-45310086D01*
X67946034Y-45083966D01*
X67719914Y-44898394D01*
X67461934Y-44760501D01*
X67182011Y-44675587D01*
X66963850Y-44654100D01*
X66817950Y-44654100D01*
X66599789Y-44675587D01*
X66319866Y-44760501D01*
X66061886Y-44898394D01*
X65835766Y-45083966D01*
X65650194Y-45310086D01*
X65620900Y-45364891D01*
X65591606Y-45310086D01*
X65406034Y-45083966D01*
X65179914Y-44898394D01*
X64921934Y-44760501D01*
X64642011Y-44675587D01*
X64423850Y-44654100D01*
X64277950Y-44654100D01*
X64059789Y-44675587D01*
X63779866Y-44760501D01*
X63521886Y-44898394D01*
X63295766Y-45083966D01*
X63110194Y-45310086D01*
X63080900Y-45364891D01*
X63051606Y-45310086D01*
X62866034Y-45083966D01*
X62639914Y-44898394D01*
X62381934Y-44760501D01*
X62102011Y-44675587D01*
X61883850Y-44654100D01*
X61737950Y-44654100D01*
X61519789Y-44675587D01*
X61239866Y-44760501D01*
X60981886Y-44898394D01*
X60755766Y-45083966D01*
X60570194Y-45310086D01*
X60540900Y-45364891D01*
X60511606Y-45310086D01*
X60326034Y-45083966D01*
X60099914Y-44898394D01*
X59841934Y-44760501D01*
X59562011Y-44675587D01*
X59343850Y-44654100D01*
X59197950Y-44654100D01*
X58979789Y-44675587D01*
X58699866Y-44760501D01*
X58441886Y-44898394D01*
X58215766Y-45083966D01*
X58030194Y-45310086D01*
X58000900Y-45364891D01*
X57971606Y-45310086D01*
X57786034Y-45083966D01*
X57559914Y-44898394D01*
X57301934Y-44760501D01*
X57022011Y-44675587D01*
X56803850Y-44654100D01*
X56657950Y-44654100D01*
X56439789Y-44675587D01*
X56159866Y-44760501D01*
X55901886Y-44898394D01*
X55675766Y-45083966D01*
X55490194Y-45310086D01*
X55455699Y-45374623D01*
X55386078Y-45257745D01*
X55191169Y-45041512D01*
X54957820Y-44867459D01*
X54694999Y-44742275D01*
X54547790Y-44697624D01*
X54317900Y-44818945D01*
X54063900Y-44818945D01*
X53834010Y-44697624D01*
X53686801Y-44742275D01*
X53423980Y-44867459D01*
X53190631Y-45041512D01*
X53114866Y-45125566D01*
X53090402Y-45044920D01*
X53031437Y-44934606D01*
X52952085Y-44837915D01*
X52855394Y-44758563D01*
X52745080Y-44699598D01*
X52625382Y-44663288D01*
X52500900Y-44651028D01*
X50800900Y-44651028D01*
X50676418Y-44663288D01*
X50556720Y-44699598D01*
X50446406Y-44758563D01*
X50349715Y-44837915D01*
X50270363Y-44934606D01*
X50211398Y-45044920D01*
X50175088Y-45164618D01*
X50162828Y-45289100D01*
X43980817Y-45289100D01*
X44035980Y-45106392D01*
X44207944Y-44782975D01*
X44439454Y-44499116D01*
X44721686Y-44265635D01*
X45043895Y-44091417D01*
X45393814Y-43983098D01*
X45788643Y-43941600D01*
X70061240Y-43941600D01*
X70061928Y-49834815D01*
X70061928Y-49834815D01*
G37*
X70061928Y-49834815D02*
X70064371Y-49859591D01*
X70071601Y-49883414D01*
X70083340Y-49905370D01*
X70099136Y-49924613D01*
X70118383Y-49940405D01*
X70140341Y-49952138D01*
X70164166Y-49959363D01*
X70187957Y-49961796D01*
X80152702Y-50037996D01*
X80177496Y-50035746D01*
X80201375Y-50028701D01*
X80223421Y-50017133D01*
X80242786Y-50001487D01*
X80258727Y-49982363D01*
X80270631Y-49960497D01*
X80278040Y-49936728D01*
X80280673Y-49910747D01*
X80268783Y-43941600D01*
X101656621Y-43941600D01*
X102053445Y-43980509D01*
X102404108Y-44086380D01*
X102727525Y-44258344D01*
X103011384Y-44489854D01*
X103244865Y-44772086D01*
X103419083Y-45094295D01*
X103527402Y-45444214D01*
X103568901Y-45839052D01*
X103568901Y-59251404D01*
X103548885Y-59227015D01*
X103452194Y-59147663D01*
X103341880Y-59088698D01*
X103222182Y-59052388D01*
X103097700Y-59040128D01*
X101397700Y-59040128D01*
X101273218Y-59052388D01*
X101153520Y-59088698D01*
X101043206Y-59147663D01*
X100946515Y-59227015D01*
X100867163Y-59323706D01*
X100808198Y-59434020D01*
X100771888Y-59553718D01*
X100759628Y-59678200D01*
X100759628Y-61378200D01*
X100771888Y-61502682D01*
X100808198Y-61622380D01*
X100867163Y-61732694D01*
X100946515Y-61829385D01*
X101043206Y-61908737D01*
X101153520Y-61967702D01*
X101222387Y-61988593D01*
X101192566Y-62013066D01*
X101006994Y-62239186D01*
X100869101Y-62497166D01*
X100784187Y-62777089D01*
X100755515Y-63068200D01*
X100784187Y-63359311D01*
X100869101Y-63639234D01*
X101006994Y-63897214D01*
X101192566Y-64123334D01*
X101418686Y-64308906D01*
X101473491Y-64338200D01*
X101418686Y-64367494D01*
X101192566Y-64553066D01*
X101006994Y-64779186D01*
X100869101Y-65037166D01*
X100784187Y-65317089D01*
X100755515Y-65608200D01*
X100784187Y-65899311D01*
X100869101Y-66179234D01*
X101006994Y-66437214D01*
X101192566Y-66663334D01*
X101418686Y-66848906D01*
X101473491Y-66878200D01*
X101418686Y-66907494D01*
X101192566Y-67093066D01*
X101006994Y-67319186D01*
X100869101Y-67577166D01*
X100784187Y-67857089D01*
X100755515Y-68148200D01*
X100784187Y-68439311D01*
X100869101Y-68719234D01*
X101006994Y-68977214D01*
X101192566Y-69203334D01*
X101418686Y-69388906D01*
X101473491Y-69418200D01*
X101418686Y-69447494D01*
X101192566Y-69633066D01*
X101006994Y-69859186D01*
X100869101Y-70117166D01*
X100784187Y-70397089D01*
X100755515Y-70688200D01*
X100784187Y-70979311D01*
X100869101Y-71259234D01*
X101006994Y-71517214D01*
X101192566Y-71743334D01*
X101418686Y-71928906D01*
X101473491Y-71958200D01*
X101418686Y-71987494D01*
X101192566Y-72173066D01*
X101006994Y-72399186D01*
X100869101Y-72657166D01*
X100784187Y-72937089D01*
X100755515Y-73228200D01*
X100784187Y-73519311D01*
X100869101Y-73799234D01*
X101006994Y-74057214D01*
X101192566Y-74283334D01*
X101418686Y-74468906D01*
X101473491Y-74498200D01*
X101418686Y-74527494D01*
X101192566Y-74713066D01*
X101006994Y-74939186D01*
X100869101Y-75197166D01*
X100784187Y-75477089D01*
X100755515Y-75768200D01*
X100784187Y-76059311D01*
X100869101Y-76339234D01*
X101006994Y-76597214D01*
X101192566Y-76823334D01*
X101418686Y-77008906D01*
X101473491Y-77038200D01*
X101418686Y-77067494D01*
X101192566Y-77253066D01*
X101006994Y-77479186D01*
X100869101Y-77737166D01*
X100784187Y-78017089D01*
X100755515Y-78308200D01*
X100784187Y-78599311D01*
X100869101Y-78879234D01*
X101006994Y-79137214D01*
X101192566Y-79363334D01*
X101418686Y-79548906D01*
X101473491Y-79578200D01*
X101418686Y-79607494D01*
X101192566Y-79793066D01*
X101006994Y-80019186D01*
X100869101Y-80277166D01*
X100784187Y-80557089D01*
X100755515Y-80848200D01*
X100784187Y-81139311D01*
X100869101Y-81419234D01*
X101006994Y-81677214D01*
X101192566Y-81903334D01*
X101418686Y-82088906D01*
X101473491Y-82118200D01*
X101418686Y-82147494D01*
X101192566Y-82333066D01*
X101006994Y-82559186D01*
X100869101Y-82817166D01*
X100784187Y-83097089D01*
X100755515Y-83388200D01*
X100784187Y-83679311D01*
X100869101Y-83959234D01*
X101006994Y-84217214D01*
X101192566Y-84443334D01*
X101418686Y-84628906D01*
X101473491Y-84658200D01*
X101418686Y-84687494D01*
X101192566Y-84873066D01*
X101006994Y-85099186D01*
X100869101Y-85357166D01*
X100784187Y-85637089D01*
X100755515Y-85928200D01*
X100784187Y-86219311D01*
X100869101Y-86499234D01*
X101006994Y-86757214D01*
X101192566Y-86983334D01*
X101418686Y-87168906D01*
X101473491Y-87198200D01*
X101418686Y-87227494D01*
X101192566Y-87413066D01*
X101006994Y-87639186D01*
X100869101Y-87897166D01*
X100784187Y-88177089D01*
X100755515Y-88468200D01*
X100784187Y-88759311D01*
X100869101Y-89039234D01*
X101006994Y-89297214D01*
X101192566Y-89523334D01*
X101418686Y-89708906D01*
X101676666Y-89846799D01*
X101956589Y-89931713D01*
X102174750Y-89953200D01*
X102320650Y-89953200D01*
X102538811Y-89931713D01*
X102818734Y-89846799D01*
X103076714Y-89708906D01*
X103302834Y-89523334D01*
X103488406Y-89297214D01*
X103568900Y-89146620D01*
X103568900Y-98224680D01*
X103551906Y-98192886D01*
X103366334Y-97966766D01*
X103140214Y-97781194D01*
X102882234Y-97643301D01*
X102602311Y-97558387D01*
X102384150Y-97536900D01*
X102238250Y-97536900D01*
X102020089Y-97558387D01*
X101740166Y-97643301D01*
X101482186Y-97781194D01*
X101256066Y-97966766D01*
X101070494Y-98192886D01*
X101041200Y-98247691D01*
X101011906Y-98192886D01*
X100826334Y-97966766D01*
X100600214Y-97781194D01*
X100342234Y-97643301D01*
X100062311Y-97558387D01*
X99844150Y-97536900D01*
X99698250Y-97536900D01*
X99480089Y-97558387D01*
X99200166Y-97643301D01*
X98942186Y-97781194D01*
X98716066Y-97966766D01*
X98530494Y-98192886D01*
X98501200Y-98247691D01*
X98471906Y-98192886D01*
X98286334Y-97966766D01*
X98060214Y-97781194D01*
X97802234Y-97643301D01*
X97522311Y-97558387D01*
X97304150Y-97536900D01*
X97158250Y-97536900D01*
X96940089Y-97558387D01*
X96660166Y-97643301D01*
X96402186Y-97781194D01*
X96176066Y-97966766D01*
X95990494Y-98192886D01*
X95961200Y-98247691D01*
X95931906Y-98192886D01*
X95746334Y-97966766D01*
X95520214Y-97781194D01*
X95262234Y-97643301D01*
X94982311Y-97558387D01*
X94764150Y-97536900D01*
X94618250Y-97536900D01*
X94400089Y-97558387D01*
X94120166Y-97643301D01*
X93862186Y-97781194D01*
X93636066Y-97966766D01*
X93450494Y-98192886D01*
X93421200Y-98247691D01*
X93391906Y-98192886D01*
X93206334Y-97966766D01*
X92980214Y-97781194D01*
X92722234Y-97643301D01*
X92442311Y-97558387D01*
X92224150Y-97536900D01*
X92078250Y-97536900D01*
X91860089Y-97558387D01*
X91580166Y-97643301D01*
X91322186Y-97781194D01*
X91096066Y-97966766D01*
X91071593Y-97996587D01*
X91050702Y-97927720D01*
X90991737Y-97817406D01*
X90912385Y-97720715D01*
X90815694Y-97641363D01*
X90705380Y-97582398D01*
X90585682Y-97546088D01*
X90461200Y-97533828D01*
X88761200Y-97533828D01*
X88636718Y-97546088D01*
X88517020Y-97582398D01*
X88406706Y-97641363D01*
X88310015Y-97720715D01*
X88230663Y-97817406D01*
X88171698Y-97927720D01*
X88135388Y-98047418D01*
X88123128Y-98171900D01*
X88123128Y-99871900D01*
X88135388Y-99996382D01*
X88171698Y-100116080D01*
X88230663Y-100226394D01*
X88310015Y-100323085D01*
X88406706Y-100402437D01*
X88517020Y-100461402D01*
X88636718Y-100497712D01*
X88761200Y-100509972D01*
X90461200Y-100509972D01*
X90585682Y-100497712D01*
X90705380Y-100461402D01*
X90815694Y-100402437D01*
X90912385Y-100323085D01*
X90991737Y-100226394D01*
X91050702Y-100116080D01*
X91071593Y-100047213D01*
X91096066Y-100077034D01*
X91322186Y-100262606D01*
X91580166Y-100400499D01*
X91860089Y-100485413D01*
X92078250Y-100506900D01*
X92224150Y-100506900D01*
X92442311Y-100485413D01*
X92722234Y-100400499D01*
X92980214Y-100262606D01*
X93206334Y-100077034D01*
X93391906Y-99850914D01*
X93421200Y-99796109D01*
X93450494Y-99850914D01*
X93636066Y-100077034D01*
X93862186Y-100262606D01*
X94120166Y-100400499D01*
X94400089Y-100485413D01*
X94618250Y-100506900D01*
X94764150Y-100506900D01*
X94982311Y-100485413D01*
X95262234Y-100400499D01*
X95520214Y-100262606D01*
X95746334Y-100077034D01*
X95931906Y-99850914D01*
X95961200Y-99796109D01*
X95990494Y-99850914D01*
X96176066Y-100077034D01*
X96402186Y-100262606D01*
X96660166Y-100400499D01*
X96940089Y-100485413D01*
X97158250Y-100506900D01*
X97304150Y-100506900D01*
X97522311Y-100485413D01*
X97802234Y-100400499D01*
X98060214Y-100262606D01*
X98286334Y-100077034D01*
X98471906Y-99850914D01*
X98501200Y-99796109D01*
X98530494Y-99850914D01*
X98716066Y-100077034D01*
X98942186Y-100262606D01*
X99200166Y-100400499D01*
X99480089Y-100485413D01*
X99698250Y-100506900D01*
X99844150Y-100506900D01*
X100062311Y-100485413D01*
X100342234Y-100400499D01*
X100600214Y-100262606D01*
X100826334Y-100077034D01*
X101011906Y-99850914D01*
X101041200Y-99796109D01*
X101070494Y-99850914D01*
X101256066Y-100077034D01*
X101482186Y-100262606D01*
X101740166Y-100400499D01*
X102020089Y-100485413D01*
X102238250Y-100506900D01*
X102384150Y-100506900D01*
X102602311Y-100485413D01*
X102882234Y-100400499D01*
X103140214Y-100262606D01*
X103366334Y-100077034D01*
X103551906Y-99850914D01*
X103559270Y-99837137D01*
X103529991Y-100135745D01*
X103424120Y-100486406D01*
X103252157Y-100809823D01*
X103020648Y-101093682D01*
X102738414Y-101327165D01*
X102416204Y-101501384D01*
X102066285Y-101609702D01*
X101671457Y-101651200D01*
X45803479Y-101651200D01*
X45406655Y-101612291D01*
X45055994Y-101506420D01*
X44732577Y-101334457D01*
X44448718Y-101102948D01*
X44215235Y-100820714D01*
X44041016Y-100498504D01*
X43932698Y-100148585D01*
X43891200Y-99753757D01*
X43891200Y-97562300D01*
X62596128Y-97562300D01*
X62596128Y-99262300D01*
X62608388Y-99386782D01*
X62644698Y-99506480D01*
X62703663Y-99616794D01*
X62783015Y-99713485D01*
X62879706Y-99792837D01*
X62990020Y-99851802D01*
X63109718Y-99888112D01*
X63234200Y-99900372D01*
X64934200Y-99900372D01*
X65058682Y-99888112D01*
X65178380Y-99851802D01*
X65288694Y-99792837D01*
X65385385Y-99713485D01*
X65464737Y-99616794D01*
X65523702Y-99506480D01*
X65548166Y-99425834D01*
X65623931Y-99509888D01*
X65857280Y-99683941D01*
X66120101Y-99809125D01*
X66267310Y-99853776D01*
X66497200Y-99732455D01*
X66497200Y-98539300D01*
X66477200Y-98539300D01*
X66477200Y-98285300D01*
X66497200Y-98285300D01*
X66497200Y-97092145D01*
X66751200Y-97092145D01*
X66751200Y-98285300D01*
X66771200Y-98285300D01*
X66771200Y-98539300D01*
X66751200Y-98539300D01*
X66751200Y-99732455D01*
X66981090Y-99853776D01*
X67128299Y-99809125D01*
X67391120Y-99683941D01*
X67624469Y-99509888D01*
X67819378Y-99293655D01*
X67888999Y-99176777D01*
X67923494Y-99241314D01*
X68109066Y-99467434D01*
X68335186Y-99653006D01*
X68593166Y-99790899D01*
X68873089Y-99875813D01*
X69091250Y-99897300D01*
X69237150Y-99897300D01*
X69455311Y-99875813D01*
X69735234Y-99790899D01*
X69993214Y-99653006D01*
X70219334Y-99467434D01*
X70404906Y-99241314D01*
X70434200Y-99186509D01*
X70463494Y-99241314D01*
X70649066Y-99467434D01*
X70875186Y-99653006D01*
X71133166Y-99790899D01*
X71413089Y-99875813D01*
X71631250Y-99897300D01*
X71777150Y-99897300D01*
X71995311Y-99875813D01*
X72275234Y-99790899D01*
X72533214Y-99653006D01*
X72759334Y-99467434D01*
X72944906Y-99241314D01*
X72974200Y-99186509D01*
X73003494Y-99241314D01*
X73189066Y-99467434D01*
X73415186Y-99653006D01*
X73673166Y-99790899D01*
X73953089Y-99875813D01*
X74171250Y-99897300D01*
X74317150Y-99897300D01*
X74535311Y-99875813D01*
X74815234Y-99790899D01*
X75073214Y-99653006D01*
X75299334Y-99467434D01*
X75484906Y-99241314D01*
X75606799Y-99013267D01*
X83099400Y-99013267D01*
X83099400Y-99335333D01*
X83162232Y-99651212D01*
X83285482Y-99948763D01*
X83464413Y-100216552D01*
X83692148Y-100444287D01*
X83959937Y-100623218D01*
X84257488Y-100746468D01*
X84573367Y-100809300D01*
X84895433Y-100809300D01*
X85211312Y-100746468D01*
X85508863Y-100623218D01*
X85776652Y-100444287D01*
X86004387Y-100216552D01*
X86183318Y-99948763D01*
X86306568Y-99651212D01*
X86369400Y-99335333D01*
X86369400Y-99013267D01*
X86306568Y-98697388D01*
X86183318Y-98399837D01*
X86004387Y-98132048D01*
X85776652Y-97904313D01*
X85508863Y-97725382D01*
X85211312Y-97602132D01*
X84895433Y-97539300D01*
X84573367Y-97539300D01*
X84257488Y-97602132D01*
X83959937Y-97725382D01*
X83692148Y-97904313D01*
X83464413Y-98132048D01*
X83285482Y-98399837D01*
X83162232Y-98697388D01*
X83099400Y-99013267D01*
X75606799Y-99013267D01*
X75622799Y-98983334D01*
X75707713Y-98703411D01*
X75736385Y-98412300D01*
X75707713Y-98121189D01*
X75622799Y-97841266D01*
X75484906Y-97583286D01*
X75299334Y-97357166D01*
X75073214Y-97171594D01*
X74815234Y-97033701D01*
X74535311Y-96948787D01*
X74317150Y-96927300D01*
X74171250Y-96927300D01*
X73953089Y-96948787D01*
X73673166Y-97033701D01*
X73415186Y-97171594D01*
X73189066Y-97357166D01*
X73003494Y-97583286D01*
X72974200Y-97638091D01*
X72944906Y-97583286D01*
X72759334Y-97357166D01*
X72533214Y-97171594D01*
X72275234Y-97033701D01*
X71995311Y-96948787D01*
X71777150Y-96927300D01*
X71631250Y-96927300D01*
X71413089Y-96948787D01*
X71133166Y-97033701D01*
X70875186Y-97171594D01*
X70649066Y-97357166D01*
X70463494Y-97583286D01*
X70434200Y-97638091D01*
X70404906Y-97583286D01*
X70219334Y-97357166D01*
X69993214Y-97171594D01*
X69735234Y-97033701D01*
X69455311Y-96948787D01*
X69237150Y-96927300D01*
X69091250Y-96927300D01*
X68873089Y-96948787D01*
X68593166Y-97033701D01*
X68335186Y-97171594D01*
X68109066Y-97357166D01*
X67923494Y-97583286D01*
X67888999Y-97647823D01*
X67819378Y-97530945D01*
X67624469Y-97314712D01*
X67391120Y-97140659D01*
X67128299Y-97015475D01*
X66981090Y-96970824D01*
X66751200Y-97092145D01*
X66497200Y-97092145D01*
X66267310Y-96970824D01*
X66120101Y-97015475D01*
X65857280Y-97140659D01*
X65623931Y-97314712D01*
X65548166Y-97398766D01*
X65523702Y-97318120D01*
X65464737Y-97207806D01*
X65385385Y-97111115D01*
X65288694Y-97031763D01*
X65178380Y-96972798D01*
X65058682Y-96936488D01*
X64934200Y-96924228D01*
X63234200Y-96924228D01*
X63109718Y-96936488D01*
X62990020Y-96972798D01*
X62879706Y-97031763D01*
X62783015Y-97111115D01*
X62703663Y-97207806D01*
X62644698Y-97318120D01*
X62608388Y-97437818D01*
X62596128Y-97562300D01*
X43891200Y-97562300D01*
X43891200Y-86319600D01*
X50135828Y-86319600D01*
X50135828Y-86819600D01*
X50148088Y-86944082D01*
X50155829Y-86969600D01*
X50148088Y-86995118D01*
X50135828Y-87119600D01*
X50135828Y-87619600D01*
X50138236Y-87644050D01*
X50138236Y-87668609D01*
X50150496Y-87793090D01*
X50169618Y-87889223D01*
X50205927Y-88008919D01*
X50243436Y-88099475D01*
X50302402Y-88209792D01*
X50356858Y-88291291D01*
X50436210Y-88387982D01*
X50505518Y-88457290D01*
X50602209Y-88536642D01*
X50683708Y-88591098D01*
X50794025Y-88650064D01*
X50884581Y-88687573D01*
X51004277Y-88723882D01*
X51100410Y-88743004D01*
X51224891Y-88755264D01*
X51249450Y-88755264D01*
X51273900Y-88757672D01*
X51773900Y-88757672D01*
X51798350Y-88755264D01*
X51822909Y-88755264D01*
X51947390Y-88743004D01*
X52043523Y-88723882D01*
X52163219Y-88687573D01*
X52253775Y-88650064D01*
X52364092Y-88591098D01*
X52445591Y-88536642D01*
X52479760Y-88508600D01*
X52803240Y-88508600D01*
X52837409Y-88536642D01*
X52918908Y-88591098D01*
X53029225Y-88650064D01*
X53119781Y-88687573D01*
X53239477Y-88723882D01*
X53335610Y-88743004D01*
X53460091Y-88755264D01*
X53484650Y-88755264D01*
X53509100Y-88757672D01*
X54009100Y-88757672D01*
X54033550Y-88755264D01*
X54058109Y-88755264D01*
X54182590Y-88743004D01*
X54278723Y-88723882D01*
X54398419Y-88687573D01*
X54488975Y-88650064D01*
X54599292Y-88591098D01*
X54650174Y-88557100D01*
X55532321Y-88557100D01*
X55567771Y-88571784D01*
X55749338Y-88607900D01*
X55934462Y-88607900D01*
X56116029Y-88571784D01*
X56287062Y-88500940D01*
X56440987Y-88398090D01*
X56571890Y-88267187D01*
X56674740Y-88113262D01*
X56745584Y-87942229D01*
X56781700Y-87760662D01*
X56781700Y-87575538D01*
X56745584Y-87393971D01*
X56674740Y-87222938D01*
X56571890Y-87069013D01*
X56440987Y-86938110D01*
X56287062Y-86835260D01*
X56116029Y-86764416D01*
X55934462Y-86728300D01*
X55749338Y-86728300D01*
X55567771Y-86764416D01*
X55532321Y-86779100D01*
X55147172Y-86779100D01*
X55147172Y-86607836D01*
X63792100Y-86607836D01*
X63792100Y-86797964D01*
X63829192Y-86984438D01*
X63901951Y-87160094D01*
X64007580Y-87318179D01*
X64142021Y-87452620D01*
X64300106Y-87558249D01*
X64475762Y-87631008D01*
X64662236Y-87668100D01*
X64715205Y-87668100D01*
X64804767Y-87741602D01*
X64928319Y-87807642D01*
X65025405Y-87837093D01*
X65357390Y-88169078D01*
X65357389Y-90354822D01*
X65199312Y-90512900D01*
X65144836Y-90512900D01*
X64958362Y-90549992D01*
X64782706Y-90622751D01*
X64624621Y-90728380D01*
X64490180Y-90862821D01*
X64384551Y-91020906D01*
X64311792Y-91196562D01*
X64274700Y-91383036D01*
X64274700Y-91573164D01*
X64311792Y-91759638D01*
X64384551Y-91935294D01*
X64490180Y-92093379D01*
X64624621Y-92227820D01*
X64782706Y-92333449D01*
X64958362Y-92406208D01*
X65144836Y-92443300D01*
X65334964Y-92443300D01*
X65462444Y-92417943D01*
X65475521Y-92431020D01*
X65633606Y-92536649D01*
X65809262Y-92609408D01*
X65995736Y-92646500D01*
X66185864Y-92646500D01*
X66281161Y-92627544D01*
X66382480Y-92779179D01*
X66516921Y-92913620D01*
X66675006Y-93019249D01*
X66850662Y-93092008D01*
X67037136Y-93129100D01*
X67227264Y-93129100D01*
X67413738Y-93092008D01*
X67589394Y-93019249D01*
X67747479Y-92913620D01*
X67881920Y-92779179D01*
X67987549Y-92621094D01*
X68060308Y-92445438D01*
X68097400Y-92258964D01*
X68097400Y-92092544D01*
X81312700Y-92092544D01*
X81312700Y-92463856D01*
X81385139Y-92828034D01*
X81527234Y-93171082D01*
X81733525Y-93479818D01*
X81996082Y-93742375D01*
X82304818Y-93948666D01*
X82647866Y-94090761D01*
X83012044Y-94163200D01*
X83383356Y-94163200D01*
X83747534Y-94090761D01*
X84090582Y-93948666D01*
X84399318Y-93742375D01*
X84661875Y-93479818D01*
X84868166Y-93171082D01*
X85010261Y-92828034D01*
X85082700Y-92463856D01*
X85082700Y-92092544D01*
X85010261Y-91728366D01*
X84868166Y-91385318D01*
X84661875Y-91076582D01*
X84399318Y-90814025D01*
X84090582Y-90607734D01*
X83747534Y-90465639D01*
X83383356Y-90393200D01*
X83012044Y-90393200D01*
X82647866Y-90465639D01*
X82304818Y-90607734D01*
X81996082Y-90814025D01*
X81733525Y-91076582D01*
X81527234Y-91385318D01*
X81385139Y-91728366D01*
X81312700Y-92092544D01*
X68097400Y-92092544D01*
X68097400Y-92068836D01*
X68060308Y-91882362D01*
X67987549Y-91706706D01*
X67881920Y-91548621D01*
X67843400Y-91510101D01*
X67843400Y-91292899D01*
X67846840Y-91257973D01*
X67843400Y-91223047D01*
X67843400Y-91223038D01*
X67833109Y-91118554D01*
X67792442Y-90984493D01*
X67726402Y-90860941D01*
X67668799Y-90790753D01*
X67668799Y-88825090D01*
X80486224Y-88825090D01*
X80530875Y-88972299D01*
X80656059Y-89235120D01*
X80830112Y-89468469D01*
X81046345Y-89663378D01*
X81296448Y-89812357D01*
X81570809Y-89909681D01*
X81800700Y-89789014D01*
X81800700Y-88595200D01*
X82054700Y-88595200D01*
X82054700Y-89789014D01*
X82284591Y-89909681D01*
X82558952Y-89812357D01*
X82809055Y-89663378D01*
X83025288Y-89468469D01*
X83199341Y-89235120D01*
X83324525Y-88972299D01*
X83369176Y-88825090D01*
X83247855Y-88595200D01*
X82054700Y-88595200D01*
X81800700Y-88595200D01*
X80607545Y-88595200D01*
X80486224Y-88825090D01*
X67668799Y-88825090D01*
X67668799Y-88130654D01*
X67703542Y-88065654D01*
X67744209Y-87931593D01*
X67754500Y-87827109D01*
X67754500Y-87827101D01*
X67757940Y-87792173D01*
X67754500Y-87757245D01*
X67754500Y-87356699D01*
X67793020Y-87318179D01*
X67898649Y-87160094D01*
X67971408Y-86984438D01*
X68008500Y-86797964D01*
X68008500Y-86607836D01*
X67971408Y-86421362D01*
X67898649Y-86245706D01*
X67793020Y-86087621D01*
X67658579Y-85953180D01*
X67500494Y-85847551D01*
X67324838Y-85774792D01*
X67138364Y-85737700D01*
X66948236Y-85737700D01*
X66761762Y-85774792D01*
X66598800Y-85842293D01*
X66435838Y-85774792D01*
X66249364Y-85737700D01*
X66059236Y-85737700D01*
X65872762Y-85774792D01*
X65697106Y-85847551D01*
X65539021Y-85953180D01*
X65455800Y-86036401D01*
X65372579Y-85953180D01*
X65214494Y-85847551D01*
X65038838Y-85774792D01*
X64852364Y-85737700D01*
X64662236Y-85737700D01*
X64475762Y-85774792D01*
X64300106Y-85847551D01*
X64142021Y-85953180D01*
X64007580Y-86087621D01*
X63901951Y-86245706D01*
X63829192Y-86421362D01*
X63792100Y-86607836D01*
X55147172Y-86607836D01*
X55147172Y-86319600D01*
X55144764Y-86295150D01*
X55144764Y-86270591D01*
X55132504Y-86146110D01*
X55113382Y-86049977D01*
X55077073Y-85930281D01*
X55039564Y-85839725D01*
X54980598Y-85729408D01*
X54926142Y-85647909D01*
X54846790Y-85551218D01*
X54777482Y-85481910D01*
X54698900Y-85417420D01*
X54698900Y-85403838D01*
X54671112Y-85264138D01*
X72796400Y-85264138D01*
X72796400Y-85449262D01*
X72832516Y-85630829D01*
X72903360Y-85801862D01*
X73006210Y-85955787D01*
X73137113Y-86086690D01*
X73291038Y-86189540D01*
X73462071Y-86260384D01*
X73643638Y-86296500D01*
X73828762Y-86296500D01*
X74010329Y-86260384D01*
X74181362Y-86189540D01*
X74335287Y-86086690D01*
X74466190Y-85955787D01*
X74569040Y-85801862D01*
X74585095Y-85763101D01*
X76254984Y-85763101D01*
X76281560Y-85827262D01*
X76384410Y-85981187D01*
X76515313Y-86112090D01*
X76669238Y-86214940D01*
X76840271Y-86285784D01*
X77021838Y-86321900D01*
X77206962Y-86321900D01*
X77388529Y-86285784D01*
X77559562Y-86214940D01*
X77713487Y-86112090D01*
X77844390Y-85981187D01*
X77947240Y-85827262D01*
X78018084Y-85656229D01*
X78054200Y-85474662D01*
X78054200Y-85296710D01*
X78183387Y-85210390D01*
X78314290Y-85079487D01*
X78417140Y-84925562D01*
X78487984Y-84754529D01*
X78524100Y-84572962D01*
X78524100Y-84387838D01*
X78487984Y-84206271D01*
X78417140Y-84035238D01*
X78314290Y-83881313D01*
X78183387Y-83750410D01*
X78029462Y-83647560D01*
X77858429Y-83576716D01*
X77676862Y-83540600D01*
X77491738Y-83540600D01*
X77310171Y-83576716D01*
X77139138Y-83647560D01*
X76985213Y-83750410D01*
X76928323Y-83807300D01*
X74404877Y-83807300D01*
X74386087Y-83788510D01*
X74232162Y-83685660D01*
X74061129Y-83614816D01*
X73879562Y-83578700D01*
X73694438Y-83578700D01*
X73512871Y-83614816D01*
X73341838Y-83685660D01*
X73187913Y-83788510D01*
X73057010Y-83919413D01*
X72954160Y-84073338D01*
X72883316Y-84244371D01*
X72847200Y-84425938D01*
X72847200Y-84611062D01*
X72883316Y-84792629D01*
X72921392Y-84884552D01*
X72903360Y-84911538D01*
X72832516Y-85082571D01*
X72796400Y-85264138D01*
X54671112Y-85264138D01*
X54662784Y-85222271D01*
X54591940Y-85051238D01*
X54489090Y-84897313D01*
X54358187Y-84766410D01*
X54204262Y-84663560D01*
X54033229Y-84592716D01*
X53851662Y-84556600D01*
X53666538Y-84556600D01*
X53484971Y-84592716D01*
X53313938Y-84663560D01*
X53160013Y-84766410D01*
X53029110Y-84897313D01*
X52926260Y-85051238D01*
X52855416Y-85222271D01*
X52819300Y-85403838D01*
X52819300Y-85417420D01*
X52740718Y-85481910D01*
X52671410Y-85551218D01*
X52641500Y-85587664D01*
X52611590Y-85551218D01*
X52542282Y-85481910D01*
X52463700Y-85417420D01*
X52463700Y-85378438D01*
X52427584Y-85196871D01*
X52356740Y-85025838D01*
X52253890Y-84871913D01*
X52122987Y-84741010D01*
X51969062Y-84638160D01*
X51798029Y-84567316D01*
X51616462Y-84531200D01*
X51431338Y-84531200D01*
X51249771Y-84567316D01*
X51078738Y-84638160D01*
X50924813Y-84741010D01*
X50793910Y-84871913D01*
X50691060Y-85025838D01*
X50620216Y-85196871D01*
X50584100Y-85378438D01*
X50584100Y-85417420D01*
X50505518Y-85481910D01*
X50436210Y-85551218D01*
X50356858Y-85647909D01*
X50302402Y-85729408D01*
X50243436Y-85839725D01*
X50205927Y-85930281D01*
X50169618Y-86049977D01*
X50150496Y-86146110D01*
X50138236Y-86270591D01*
X50138236Y-86295150D01*
X50135828Y-86319600D01*
X43891200Y-86319600D01*
X43891200Y-69272336D01*
X74968100Y-69272336D01*
X74968100Y-69462464D01*
X75005192Y-69648938D01*
X75077951Y-69824594D01*
X75183580Y-69982679D01*
X75318021Y-70117120D01*
X75476106Y-70222749D01*
X75552300Y-70254309D01*
X75552299Y-72561200D01*
X75548859Y-72596126D01*
X75552299Y-72631052D01*
X75552299Y-72631061D01*
X75562590Y-72735545D01*
X75603257Y-72869606D01*
X75669297Y-72993158D01*
X75758172Y-73101452D01*
X75785309Y-73123723D01*
X75900353Y-73238767D01*
X75868792Y-73314962D01*
X75831700Y-73501436D01*
X75831700Y-73691564D01*
X75868792Y-73878038D01*
X75941551Y-74053694D01*
X76047180Y-74211779D01*
X76181621Y-74346220D01*
X76339706Y-74451849D01*
X76515362Y-74524608D01*
X76701836Y-74561700D01*
X76891964Y-74561700D01*
X77078438Y-74524608D01*
X77254094Y-74451849D01*
X77412179Y-74346220D01*
X77546620Y-74211779D01*
X77652249Y-74053694D01*
X77725008Y-73878038D01*
X77762100Y-73691564D01*
X77762100Y-73501436D01*
X77725008Y-73314962D01*
X77652249Y-73139306D01*
X77546620Y-72981221D01*
X77472686Y-72907287D01*
X77457142Y-72856046D01*
X77391102Y-72732494D01*
X77302227Y-72624200D01*
X77275090Y-72601929D01*
X76974699Y-72301539D01*
X76974699Y-69732527D01*
X76978139Y-69697599D01*
X76974699Y-69662670D01*
X76974699Y-69662663D01*
X76964408Y-69558179D01*
X76923741Y-69424118D01*
X76898500Y-69376895D01*
X76898500Y-69272336D01*
X76861408Y-69085862D01*
X76788649Y-68910206D01*
X76683020Y-68752121D01*
X76548579Y-68617680D01*
X76390494Y-68512051D01*
X76214838Y-68439292D01*
X76028364Y-68402200D01*
X75838236Y-68402200D01*
X75651762Y-68439292D01*
X75476106Y-68512051D01*
X75318021Y-68617680D01*
X75183580Y-68752121D01*
X75077951Y-68910206D01*
X75005192Y-69085862D01*
X74968100Y-69272336D01*
X43891200Y-69272336D01*
X43891200Y-58419300D01*
X51670828Y-58419300D01*
X51670828Y-59919300D01*
X51683088Y-60043782D01*
X51719398Y-60163480D01*
X51778363Y-60273794D01*
X51857715Y-60370485D01*
X51954406Y-60449837D01*
X52064720Y-60508802D01*
X52184418Y-60545112D01*
X52308900Y-60557372D01*
X52808900Y-60557372D01*
X52833350Y-60554964D01*
X52857909Y-60554964D01*
X52982390Y-60542704D01*
X53078523Y-60523582D01*
X53198219Y-60487273D01*
X53288775Y-60449764D01*
X53399092Y-60390798D01*
X53480591Y-60336342D01*
X53577282Y-60256990D01*
X53646590Y-60187682D01*
X53722656Y-60094995D01*
X53820462Y-60135508D01*
X54006936Y-60172600D01*
X54197064Y-60172600D01*
X54383538Y-60135508D01*
X54559194Y-60062749D01*
X54717279Y-59957120D01*
X54851720Y-59822679D01*
X54957349Y-59664594D01*
X55030108Y-59488938D01*
X55067200Y-59302464D01*
X55067200Y-59112336D01*
X55030108Y-58925862D01*
X54957349Y-58750206D01*
X54851720Y-58592121D01*
X54717279Y-58457680D01*
X54613649Y-58388436D01*
X60617100Y-58388436D01*
X60617100Y-58578564D01*
X60654192Y-58765038D01*
X60726951Y-58940694D01*
X60832580Y-59098779D01*
X60967021Y-59233220D01*
X61112972Y-59330742D01*
X61149492Y-59514338D01*
X61222251Y-59689994D01*
X61327880Y-59848079D01*
X61462321Y-59982520D01*
X61620406Y-60088149D01*
X61796062Y-60160908D01*
X61960152Y-60193547D01*
X62051780Y-60330679D01*
X62186221Y-60465120D01*
X62344306Y-60570749D01*
X62519962Y-60643508D01*
X62706436Y-60680600D01*
X62896564Y-60680600D01*
X63083038Y-60643508D01*
X63258694Y-60570749D01*
X63416779Y-60465120D01*
X63551220Y-60330679D01*
X63656849Y-60172594D01*
X63723908Y-60010699D01*
X65443812Y-60010699D01*
X65798700Y-60365588D01*
X65798700Y-60420064D01*
X65835792Y-60606538D01*
X65908551Y-60782194D01*
X66014180Y-60940279D01*
X66148621Y-61074720D01*
X66306706Y-61180349D01*
X66482362Y-61253108D01*
X66668836Y-61290200D01*
X66858964Y-61290200D01*
X67045438Y-61253108D01*
X67221094Y-61180349D01*
X67379179Y-61074720D01*
X67513620Y-60940279D01*
X67619249Y-60782194D01*
X67692008Y-60606538D01*
X67707590Y-60528200D01*
X80435515Y-60528200D01*
X80464187Y-60819311D01*
X80549101Y-61099234D01*
X80686994Y-61357214D01*
X80872566Y-61583334D01*
X81098686Y-61768906D01*
X81153491Y-61798200D01*
X81098686Y-61827494D01*
X80872566Y-62013066D01*
X80686994Y-62239186D01*
X80549101Y-62497166D01*
X80464187Y-62777089D01*
X80435515Y-63068200D01*
X80464187Y-63359311D01*
X80549101Y-63639234D01*
X80686994Y-63897214D01*
X80872566Y-64123334D01*
X81098686Y-64308906D01*
X81153491Y-64338200D01*
X81098686Y-64367494D01*
X80872566Y-64553066D01*
X80686994Y-64779186D01*
X80549101Y-65037166D01*
X80464187Y-65317089D01*
X80435515Y-65608200D01*
X80464187Y-65899311D01*
X80549101Y-66179234D01*
X80686994Y-66437214D01*
X80872566Y-66663334D01*
X81098686Y-66848906D01*
X81153491Y-66878200D01*
X81098686Y-66907494D01*
X80872566Y-67093066D01*
X80686994Y-67319186D01*
X80549101Y-67577166D01*
X80464187Y-67857089D01*
X80435515Y-68148200D01*
X80464187Y-68439311D01*
X80549101Y-68719234D01*
X80686994Y-68977214D01*
X80872566Y-69203334D01*
X81098686Y-69388906D01*
X81153491Y-69418200D01*
X81098686Y-69447494D01*
X80872566Y-69633066D01*
X80686994Y-69859186D01*
X80549101Y-70117166D01*
X80464187Y-70397089D01*
X80435515Y-70688200D01*
X80464187Y-70979311D01*
X80549101Y-71259234D01*
X80686994Y-71517214D01*
X80872566Y-71743334D01*
X81098686Y-71928906D01*
X81153491Y-71958200D01*
X81098686Y-71987494D01*
X80872566Y-72173066D01*
X80686994Y-72399186D01*
X80549101Y-72657166D01*
X80464187Y-72937089D01*
X80435515Y-73228200D01*
X80464187Y-73519311D01*
X80549101Y-73799234D01*
X80686994Y-74057214D01*
X80872566Y-74283334D01*
X81098686Y-74468906D01*
X81153491Y-74498200D01*
X81098686Y-74527494D01*
X80872566Y-74713066D01*
X80686994Y-74939186D01*
X80549101Y-75197166D01*
X80464187Y-75477089D01*
X80435515Y-75768200D01*
X80464187Y-76059311D01*
X80549101Y-76339234D01*
X80686994Y-76597214D01*
X80872566Y-76823334D01*
X81098686Y-77008906D01*
X81153491Y-77038200D01*
X81098686Y-77067494D01*
X80872566Y-77253066D01*
X80686994Y-77479186D01*
X80549101Y-77737166D01*
X80464187Y-78017089D01*
X80435515Y-78308200D01*
X80464187Y-78599311D01*
X80549101Y-78879234D01*
X80686994Y-79137214D01*
X80872566Y-79363334D01*
X81098686Y-79548906D01*
X81153491Y-79578200D01*
X81098686Y-79607494D01*
X80872566Y-79793066D01*
X80686994Y-80019186D01*
X80549101Y-80277166D01*
X80464187Y-80557089D01*
X80435515Y-80848200D01*
X80464187Y-81139311D01*
X80549101Y-81419234D01*
X80686994Y-81677214D01*
X80872566Y-81903334D01*
X81098686Y-82088906D01*
X81153491Y-82118200D01*
X81098686Y-82147494D01*
X80872566Y-82333066D01*
X80686994Y-82559186D01*
X80549101Y-82817166D01*
X80464187Y-83097089D01*
X80435515Y-83388200D01*
X80464187Y-83679311D01*
X80549101Y-83959234D01*
X80686994Y-84217214D01*
X80872566Y-84443334D01*
X81098686Y-84628906D01*
X81153491Y-84658200D01*
X81098686Y-84687494D01*
X80872566Y-84873066D01*
X80686994Y-85099186D01*
X80549101Y-85357166D01*
X80464187Y-85637089D01*
X80435515Y-85928200D01*
X80464187Y-86219311D01*
X80549101Y-86499234D01*
X80686994Y-86757214D01*
X80872566Y-86983334D01*
X81098686Y-87168906D01*
X81163223Y-87203401D01*
X81046345Y-87273022D01*
X80830112Y-87467931D01*
X80656059Y-87701280D01*
X80530875Y-87964101D01*
X80486224Y-88111310D01*
X80607545Y-88341200D01*
X81800700Y-88341200D01*
X81800700Y-88321200D01*
X82054700Y-88321200D01*
X82054700Y-88341200D01*
X83247855Y-88341200D01*
X83369176Y-88111310D01*
X83324525Y-87964101D01*
X83199341Y-87701280D01*
X83174592Y-87668100D01*
X83465301Y-87668100D01*
X83473036Y-87686775D01*
X83532002Y-87797092D01*
X83586458Y-87878591D01*
X83665810Y-87975282D01*
X83735118Y-88044590D01*
X83831809Y-88123942D01*
X83913308Y-88178398D01*
X84023625Y-88237364D01*
X84114181Y-88274873D01*
X84233877Y-88311182D01*
X84330010Y-88330304D01*
X84454491Y-88342564D01*
X84479050Y-88342564D01*
X84503500Y-88344972D01*
X85003500Y-88344972D01*
X85127982Y-88332712D01*
X85153500Y-88324971D01*
X85179018Y-88332712D01*
X85303500Y-88344972D01*
X85803500Y-88344972D01*
X85827950Y-88342564D01*
X85852509Y-88342564D01*
X85976990Y-88330304D01*
X86073123Y-88311182D01*
X86192819Y-88274873D01*
X86283375Y-88237364D01*
X86393692Y-88178398D01*
X86475191Y-88123942D01*
X86571882Y-88044590D01*
X86641190Y-87975282D01*
X86720542Y-87878591D01*
X86774998Y-87797092D01*
X86787143Y-87774371D01*
X86791138Y-87777040D01*
X86962171Y-87847884D01*
X87143738Y-87884000D01*
X87328862Y-87884000D01*
X87510429Y-87847884D01*
X87681462Y-87777040D01*
X87835387Y-87674190D01*
X87966290Y-87543287D01*
X88069140Y-87389362D01*
X88139984Y-87218329D01*
X88154821Y-87143738D01*
X88328500Y-87143738D01*
X88328500Y-87328862D01*
X88364616Y-87510429D01*
X88435460Y-87681462D01*
X88538310Y-87835387D01*
X88669213Y-87966290D01*
X88823138Y-88069140D01*
X88994171Y-88139984D01*
X89175738Y-88176100D01*
X89360862Y-88176100D01*
X89542429Y-88139984D01*
X89713462Y-88069140D01*
X89867387Y-87966290D01*
X89886177Y-87947500D01*
X89913513Y-87947500D01*
X90881200Y-88915188D01*
X90881200Y-88941762D01*
X90917316Y-89123329D01*
X90988160Y-89294362D01*
X91091010Y-89448287D01*
X91221913Y-89579190D01*
X91375838Y-89682040D01*
X91546871Y-89752884D01*
X91728438Y-89789000D01*
X91913562Y-89789000D01*
X92095129Y-89752884D01*
X92266162Y-89682040D01*
X92420087Y-89579190D01*
X92550990Y-89448287D01*
X92653840Y-89294362D01*
X92717499Y-89140675D01*
X92768229Y-89130584D01*
X92939262Y-89059740D01*
X93093187Y-88956890D01*
X93224090Y-88825987D01*
X93326940Y-88672062D01*
X93397784Y-88501029D01*
X93406201Y-88458716D01*
X93406201Y-89575728D01*
X93349000Y-89575728D01*
X93324550Y-89578136D01*
X93299991Y-89578136D01*
X93175510Y-89590396D01*
X93079377Y-89609518D01*
X92959681Y-89645827D01*
X92869125Y-89683336D01*
X92758808Y-89742302D01*
X92677309Y-89796758D01*
X92580618Y-89876110D01*
X92511310Y-89945418D01*
X92431958Y-90042109D01*
X92377502Y-90123608D01*
X92318536Y-90233925D01*
X92281027Y-90324481D01*
X92244718Y-90444177D01*
X92225596Y-90540310D01*
X92213336Y-90664791D01*
X92213336Y-90689350D01*
X92210928Y-90713800D01*
X92210928Y-91213800D01*
X92223188Y-91338282D01*
X92230929Y-91363800D01*
X92223188Y-91389318D01*
X92210928Y-91513800D01*
X92210928Y-92013800D01*
X92213336Y-92038250D01*
X92213336Y-92062809D01*
X92225596Y-92187290D01*
X92244718Y-92283423D01*
X92281027Y-92403119D01*
X92318536Y-92493675D01*
X92377502Y-92603992D01*
X92431958Y-92685491D01*
X92511310Y-92782182D01*
X92580618Y-92851490D01*
X92666341Y-92921841D01*
X92657216Y-92943871D01*
X92621100Y-93125438D01*
X92621100Y-93310562D01*
X92657216Y-93492129D01*
X92728060Y-93663162D01*
X92830910Y-93817087D01*
X92961813Y-93947990D01*
X93115738Y-94050840D01*
X93286771Y-94121684D01*
X93468338Y-94157800D01*
X93653462Y-94157800D01*
X93835029Y-94121684D01*
X94006062Y-94050840D01*
X94159987Y-93947990D01*
X94290890Y-93817087D01*
X94393740Y-93663162D01*
X94464584Y-93492129D01*
X94500700Y-93310562D01*
X94500700Y-93125438D01*
X94468879Y-92965462D01*
X94520691Y-92930842D01*
X94617382Y-92851490D01*
X94686690Y-92782182D01*
X94766042Y-92685491D01*
X94820498Y-92603992D01*
X94879464Y-92493675D01*
X94916973Y-92403119D01*
X94953282Y-92283423D01*
X94972404Y-92187290D01*
X94981735Y-92092544D01*
X99092700Y-92092544D01*
X99092700Y-92463856D01*
X99165139Y-92828034D01*
X99307234Y-93171082D01*
X99513525Y-93479818D01*
X99776082Y-93742375D01*
X100084818Y-93948666D01*
X100427866Y-94090761D01*
X100792044Y-94163200D01*
X101163356Y-94163200D01*
X101527534Y-94090761D01*
X101870582Y-93948666D01*
X102179318Y-93742375D01*
X102441875Y-93479818D01*
X102648166Y-93171082D01*
X102790261Y-92828034D01*
X102862700Y-92463856D01*
X102862700Y-92092544D01*
X102790261Y-91728366D01*
X102648166Y-91385318D01*
X102441875Y-91076582D01*
X102179318Y-90814025D01*
X101870582Y-90607734D01*
X101527534Y-90465639D01*
X101163356Y-90393200D01*
X100792044Y-90393200D01*
X100427866Y-90465639D01*
X100084818Y-90607734D01*
X99776082Y-90814025D01*
X99513525Y-91076582D01*
X99307234Y-91385318D01*
X99165139Y-91728366D01*
X99092700Y-92092544D01*
X94981735Y-92092544D01*
X94984664Y-92062809D01*
X94984664Y-92038250D01*
X94987072Y-92013800D01*
X94987072Y-91513800D01*
X94974812Y-91389318D01*
X94967071Y-91363800D01*
X94974812Y-91338282D01*
X94987072Y-91213800D01*
X94987072Y-90713800D01*
X94984664Y-90689350D01*
X94984664Y-90664791D01*
X94972404Y-90540310D01*
X94953282Y-90444177D01*
X94916973Y-90324481D01*
X94879464Y-90233925D01*
X94828600Y-90138766D01*
X94828600Y-87561526D01*
X94917400Y-87570272D01*
X95417400Y-87570272D01*
X95441850Y-87567864D01*
X95466409Y-87567864D01*
X95590890Y-87555604D01*
X95687023Y-87536482D01*
X95806719Y-87500173D01*
X95897275Y-87462664D01*
X96007592Y-87403698D01*
X96089091Y-87349242D01*
X96185782Y-87269890D01*
X96255090Y-87200582D01*
X96334442Y-87103891D01*
X96388898Y-87022392D01*
X96447864Y-86912075D01*
X96485373Y-86821519D01*
X96521682Y-86701823D01*
X96540804Y-86605690D01*
X96553064Y-86481209D01*
X96553064Y-86456650D01*
X96555472Y-86432200D01*
X96555472Y-85932200D01*
X96553064Y-85907750D01*
X96553064Y-85883191D01*
X96540804Y-85758710D01*
X96521682Y-85662577D01*
X96485373Y-85542881D01*
X96447864Y-85452325D01*
X96388898Y-85342008D01*
X96334442Y-85260509D01*
X96255090Y-85163818D01*
X96185782Y-85094510D01*
X96164400Y-85076962D01*
X96164400Y-84831577D01*
X96183190Y-84812787D01*
X96286040Y-84658862D01*
X96356884Y-84487829D01*
X96393000Y-84306262D01*
X96393000Y-84121138D01*
X96356884Y-83939571D01*
X96286040Y-83768538D01*
X96183190Y-83614613D01*
X96052287Y-83483710D01*
X95898362Y-83380860D01*
X95727329Y-83310016D01*
X95545762Y-83273900D01*
X95360638Y-83273900D01*
X95179071Y-83310016D01*
X95008038Y-83380860D01*
X94854113Y-83483710D01*
X94723210Y-83614613D01*
X94620360Y-83768538D01*
X94549516Y-83939571D01*
X94513400Y-84121138D01*
X94513400Y-84306262D01*
X94549516Y-84487829D01*
X94620360Y-84658862D01*
X94717318Y-84803969D01*
X94617400Y-84794128D01*
X94117400Y-84794128D01*
X94092950Y-84796536D01*
X94068391Y-84796536D01*
X93943910Y-84808796D01*
X93847777Y-84827918D01*
X93728081Y-84864227D01*
X93637525Y-84901736D01*
X93527208Y-84960702D01*
X93445709Y-85015158D01*
X93349018Y-85094510D01*
X93279710Y-85163818D01*
X93200358Y-85260509D01*
X93145902Y-85342008D01*
X93086936Y-85452325D01*
X93079201Y-85471000D01*
X93048477Y-85471000D01*
X93029687Y-85452210D01*
X92875762Y-85349360D01*
X92704729Y-85278516D01*
X92523162Y-85242400D01*
X92338038Y-85242400D01*
X92156471Y-85278516D01*
X91985438Y-85349360D01*
X91831513Y-85452210D01*
X91700610Y-85583113D01*
X91597760Y-85737038D01*
X91526916Y-85908071D01*
X91490800Y-86089638D01*
X91490800Y-86274762D01*
X91491904Y-86280311D01*
X91468982Y-86268059D01*
X91334921Y-86227392D01*
X91230437Y-86217101D01*
X91230427Y-86217101D01*
X91195501Y-86213661D01*
X91160575Y-86217101D01*
X90896734Y-86217101D01*
X90850440Y-86105338D01*
X90747590Y-85951413D01*
X90616687Y-85820510D01*
X90462762Y-85717660D01*
X90291729Y-85646816D01*
X90110162Y-85610700D01*
X89925038Y-85610700D01*
X89743471Y-85646816D01*
X89572438Y-85717660D01*
X89418513Y-85820510D01*
X89287610Y-85951413D01*
X89184760Y-86105338D01*
X89113916Y-86276371D01*
X89107200Y-86310133D01*
X88994171Y-86332616D01*
X88823138Y-86403460D01*
X88669213Y-86506310D01*
X88538310Y-86637213D01*
X88435460Y-86791138D01*
X88364616Y-86962171D01*
X88328500Y-87143738D01*
X88154821Y-87143738D01*
X88176100Y-87036762D01*
X88176100Y-86851638D01*
X88139984Y-86670071D01*
X88069140Y-86499038D01*
X87966290Y-86345113D01*
X87835387Y-86214210D01*
X87681462Y-86111360D01*
X87510429Y-86040516D01*
X87328862Y-86004400D01*
X87143738Y-86004400D01*
X86962171Y-86040516D01*
X86791138Y-86111360D01*
X86777139Y-86120714D01*
X86774998Y-86116708D01*
X86720542Y-86035209D01*
X86641190Y-85938518D01*
X86571882Y-85869210D01*
X86475191Y-85789858D01*
X86393692Y-85735402D01*
X86302952Y-85686900D01*
X86393692Y-85638398D01*
X86475191Y-85583942D01*
X86571882Y-85504590D01*
X86641190Y-85435282D01*
X86720542Y-85338591D01*
X86765776Y-85270894D01*
X86791138Y-85287840D01*
X86962171Y-85358684D01*
X87143738Y-85394800D01*
X87328862Y-85394800D01*
X87510429Y-85358684D01*
X87681462Y-85287840D01*
X87835387Y-85184990D01*
X87966290Y-85054087D01*
X88069140Y-84900162D01*
X88139984Y-84729129D01*
X88176100Y-84547562D01*
X88176100Y-84362438D01*
X88139984Y-84180871D01*
X88069140Y-84009838D01*
X87966290Y-83855913D01*
X87835387Y-83725010D01*
X87681462Y-83622160D01*
X87510429Y-83551316D01*
X87328862Y-83515200D01*
X87143738Y-83515200D01*
X86962171Y-83551316D01*
X86797815Y-83619394D01*
X86774998Y-83576708D01*
X86720542Y-83495209D01*
X86641190Y-83398518D01*
X86571882Y-83329210D01*
X86475191Y-83249858D01*
X86393692Y-83195402D01*
X86283375Y-83136436D01*
X86192819Y-83098927D01*
X86073123Y-83062618D01*
X85976990Y-83043496D01*
X85852509Y-83031236D01*
X85827950Y-83031236D01*
X85803500Y-83028828D01*
X85303500Y-83028828D01*
X85179018Y-83041088D01*
X85153500Y-83048829D01*
X85127982Y-83041088D01*
X85003500Y-83028828D01*
X84503500Y-83028828D01*
X84479050Y-83031236D01*
X84454491Y-83031236D01*
X84330010Y-83043496D01*
X84233877Y-83062618D01*
X84173362Y-83080975D01*
X84002401Y-82910014D01*
X83980127Y-82882873D01*
X83871833Y-82793998D01*
X83748281Y-82727958D01*
X83614220Y-82687291D01*
X83509736Y-82677000D01*
X83509726Y-82677000D01*
X83474800Y-82673560D01*
X83439874Y-82677000D01*
X83231379Y-82677000D01*
X83168406Y-82559186D01*
X82982834Y-82333066D01*
X82756714Y-82147494D01*
X82701909Y-82118200D01*
X82756714Y-82088906D01*
X82982834Y-81903334D01*
X83168406Y-81677214D01*
X83231379Y-81559400D01*
X83414501Y-81559400D01*
X83422236Y-81578075D01*
X83481202Y-81688392D01*
X83535658Y-81769891D01*
X83615010Y-81866582D01*
X83684318Y-81935890D01*
X83781009Y-82015242D01*
X83862508Y-82069698D01*
X83972825Y-82128664D01*
X84063381Y-82166173D01*
X84183077Y-82202482D01*
X84279210Y-82221604D01*
X84403691Y-82233864D01*
X84428250Y-82233864D01*
X84452700Y-82236272D01*
X84952700Y-82236272D01*
X85077182Y-82224012D01*
X85102700Y-82216271D01*
X85128218Y-82224012D01*
X85252700Y-82236272D01*
X85752700Y-82236272D01*
X85777150Y-82233864D01*
X85801709Y-82233864D01*
X85926190Y-82221604D01*
X86022323Y-82202482D01*
X86142019Y-82166173D01*
X86232575Y-82128664D01*
X86342892Y-82069698D01*
X86424391Y-82015242D01*
X86521082Y-81935890D01*
X86590390Y-81866582D01*
X86669742Y-81769891D01*
X86724198Y-81688392D01*
X86744710Y-81650017D01*
X86791138Y-81681040D01*
X86962171Y-81751884D01*
X87143738Y-81788000D01*
X87328862Y-81788000D01*
X87510429Y-81751884D01*
X87681462Y-81681040D01*
X87835387Y-81578190D01*
X87966290Y-81447287D01*
X88069140Y-81293362D01*
X88139984Y-81122329D01*
X88176100Y-80940762D01*
X88176100Y-80755638D01*
X88139984Y-80574071D01*
X88069140Y-80403038D01*
X87966290Y-80249113D01*
X87835387Y-80118210D01*
X87681462Y-80015360D01*
X87510429Y-79944516D01*
X87328862Y-79908400D01*
X87143738Y-79908400D01*
X86962171Y-79944516D01*
X86791138Y-80015360D01*
X86744710Y-80046383D01*
X86724198Y-80008008D01*
X86669742Y-79926509D01*
X86590390Y-79829818D01*
X86521082Y-79760510D01*
X86424391Y-79681158D01*
X86342892Y-79626702D01*
X86252152Y-79578200D01*
X86342892Y-79529698D01*
X86424391Y-79475242D01*
X86521082Y-79395890D01*
X86590390Y-79326582D01*
X86669742Y-79229891D01*
X86724198Y-79148392D01*
X86769719Y-79063228D01*
X86791138Y-79077540D01*
X86962171Y-79148384D01*
X87143738Y-79184500D01*
X87328862Y-79184500D01*
X87347272Y-79180838D01*
X89623900Y-79180838D01*
X89623900Y-79365962D01*
X89660016Y-79547529D01*
X89730860Y-79718562D01*
X89833710Y-79872487D01*
X89964613Y-80003390D01*
X90118538Y-80106240D01*
X90289571Y-80177084D01*
X90471138Y-80213200D01*
X90656262Y-80213200D01*
X90837829Y-80177084D01*
X91008862Y-80106240D01*
X91120847Y-80031413D01*
X91156536Y-80117575D01*
X91215502Y-80227892D01*
X91269958Y-80309391D01*
X91349310Y-80406082D01*
X91418618Y-80475390D01*
X91515309Y-80554742D01*
X91596808Y-80609198D01*
X91707125Y-80668164D01*
X91797681Y-80705673D01*
X91917377Y-80741982D01*
X92013510Y-80761104D01*
X92137991Y-80773364D01*
X92162550Y-80773364D01*
X92187000Y-80775772D01*
X92687000Y-80775772D01*
X92811482Y-80763512D01*
X92837000Y-80755771D01*
X92862518Y-80763512D01*
X92987000Y-80775772D01*
X93487000Y-80775772D01*
X93511450Y-80773364D01*
X93536009Y-80773364D01*
X93660490Y-80761104D01*
X93756623Y-80741982D01*
X93876319Y-80705673D01*
X93966875Y-80668164D01*
X94077192Y-80609198D01*
X94158691Y-80554742D01*
X94255382Y-80475390D01*
X94324690Y-80406082D01*
X94404042Y-80309391D01*
X94458498Y-80227892D01*
X94473139Y-80200500D01*
X97360626Y-80200500D01*
X97395552Y-80203940D01*
X97430478Y-80200500D01*
X97430488Y-80200500D01*
X97534972Y-80190209D01*
X97669033Y-80149542D01*
X97792585Y-80083502D01*
X97900879Y-79994627D01*
X97923154Y-79967485D01*
X98153885Y-79736754D01*
X98181027Y-79714479D01*
X98269902Y-79606185D01*
X98335942Y-79482633D01*
X98351486Y-79431391D01*
X98405690Y-79377187D01*
X98508540Y-79223262D01*
X98579384Y-79052229D01*
X98615500Y-78870662D01*
X98615500Y-78685538D01*
X98579384Y-78503971D01*
X98508540Y-78332938D01*
X98405690Y-78179013D01*
X98274787Y-78048110D01*
X98120862Y-77945260D01*
X97949829Y-77874416D01*
X97768262Y-77838300D01*
X97583138Y-77838300D01*
X97401571Y-77874416D01*
X97230538Y-77945260D01*
X97076613Y-78048110D01*
X96945710Y-78179013D01*
X96842860Y-78332938D01*
X96772016Y-78503971D01*
X96735900Y-78685538D01*
X96735900Y-78778100D01*
X94680725Y-78778100D01*
X94585981Y-78727458D01*
X94540605Y-78713693D01*
X94517464Y-78657825D01*
X94458498Y-78547508D01*
X94404042Y-78466009D01*
X94324690Y-78369318D01*
X94255382Y-78300010D01*
X94158691Y-78220658D01*
X94077192Y-78166202D01*
X93966875Y-78107236D01*
X93876319Y-78069727D01*
X93756623Y-78033418D01*
X93660490Y-78014296D01*
X93536009Y-78002036D01*
X93511450Y-78002036D01*
X93487000Y-77999628D01*
X92987000Y-77999628D01*
X92862518Y-78011888D01*
X92837000Y-78019629D01*
X92811482Y-78011888D01*
X92687000Y-77999628D01*
X92187000Y-77999628D01*
X92162550Y-78002036D01*
X92137991Y-78002036D01*
X92013510Y-78014296D01*
X91917377Y-78033418D01*
X91797681Y-78069727D01*
X91707125Y-78107236D01*
X91596808Y-78166202D01*
X91515309Y-78220658D01*
X91418618Y-78300010D01*
X91349310Y-78369318D01*
X91269958Y-78466009D01*
X91215502Y-78547508D01*
X91207649Y-78562200D01*
X91181577Y-78562200D01*
X91162787Y-78543410D01*
X91008862Y-78440560D01*
X90837829Y-78369716D01*
X90656262Y-78333600D01*
X90471138Y-78333600D01*
X90289571Y-78369716D01*
X90118538Y-78440560D01*
X89964613Y-78543410D01*
X89833710Y-78674313D01*
X89730860Y-78828238D01*
X89660016Y-78999271D01*
X89623900Y-79180838D01*
X87347272Y-79180838D01*
X87510429Y-79148384D01*
X87681462Y-79077540D01*
X87835387Y-78974690D01*
X87966290Y-78843787D01*
X88069140Y-78689862D01*
X88139984Y-78518829D01*
X88176100Y-78337262D01*
X88176100Y-78152138D01*
X88139984Y-77970571D01*
X88069140Y-77799538D01*
X87966290Y-77645613D01*
X87835387Y-77514710D01*
X87681462Y-77411860D01*
X87510429Y-77341016D01*
X87328862Y-77304900D01*
X87143738Y-77304900D01*
X86962171Y-77341016D01*
X86791138Y-77411860D01*
X86718923Y-77460113D01*
X86669742Y-77386509D01*
X86590390Y-77289818D01*
X86521082Y-77220510D01*
X86424391Y-77141158D01*
X86342892Y-77086702D01*
X86258502Y-77041594D01*
X86355592Y-76989698D01*
X86437091Y-76935242D01*
X86533782Y-76855890D01*
X86603090Y-76786582D01*
X86682442Y-76689891D01*
X86736898Y-76608392D01*
X86744064Y-76594986D01*
X86791138Y-76626440D01*
X86962171Y-76697284D01*
X87143738Y-76733400D01*
X87328862Y-76733400D01*
X87510429Y-76697284D01*
X87681462Y-76626440D01*
X87835387Y-76523590D01*
X87966290Y-76392687D01*
X88069140Y-76238762D01*
X88139984Y-76067729D01*
X88176100Y-75886162D01*
X88176100Y-75701038D01*
X88139984Y-75519471D01*
X88069140Y-75348438D01*
X87966290Y-75194513D01*
X87835387Y-75063610D01*
X87681462Y-74960760D01*
X87510429Y-74889916D01*
X87328862Y-74853800D01*
X87143738Y-74853800D01*
X86962171Y-74889916D01*
X86791138Y-74960760D01*
X86764071Y-74978845D01*
X86736898Y-74928008D01*
X86682442Y-74846509D01*
X86603090Y-74749818D01*
X86533782Y-74680510D01*
X86437091Y-74601158D01*
X86355592Y-74546702D01*
X86245275Y-74487736D01*
X86154719Y-74450227D01*
X86035023Y-74413918D01*
X85938890Y-74394796D01*
X85814409Y-74382536D01*
X85789850Y-74382536D01*
X85765400Y-74380128D01*
X85265400Y-74380128D01*
X85140918Y-74392388D01*
X85115400Y-74400129D01*
X85089882Y-74392388D01*
X84965400Y-74380128D01*
X84465400Y-74380128D01*
X84440950Y-74382536D01*
X84416391Y-74382536D01*
X84291910Y-74394796D01*
X84195777Y-74413918D01*
X84076081Y-74450227D01*
X83985525Y-74487736D01*
X83875208Y-74546702D01*
X83793709Y-74601158D01*
X83697018Y-74680510D01*
X83627710Y-74749818D01*
X83548358Y-74846509D01*
X83493902Y-74928008D01*
X83434936Y-75038325D01*
X83427201Y-75057000D01*
X83231379Y-75057000D01*
X83168406Y-74939186D01*
X82982834Y-74713066D01*
X82756714Y-74527494D01*
X82701909Y-74498200D01*
X82756714Y-74468906D01*
X82982834Y-74283334D01*
X83168406Y-74057214D01*
X83306299Y-73799234D01*
X83391213Y-73519311D01*
X83419885Y-73228200D01*
X83391213Y-72937089D01*
X83306299Y-72657166D01*
X83168406Y-72399186D01*
X82982834Y-72173066D01*
X82756714Y-71987494D01*
X82701909Y-71958200D01*
X82756714Y-71928906D01*
X82982834Y-71743334D01*
X83168406Y-71517214D01*
X83306299Y-71259234D01*
X83391213Y-70979311D01*
X83419885Y-70688200D01*
X83391213Y-70397089D01*
X83306299Y-70117166D01*
X83168406Y-69859186D01*
X82982834Y-69633066D01*
X82756714Y-69447494D01*
X82701909Y-69418200D01*
X82756714Y-69388906D01*
X82982834Y-69203334D01*
X83168406Y-68977214D01*
X83306299Y-68719234D01*
X83391213Y-68439311D01*
X83419885Y-68148200D01*
X83391213Y-67857089D01*
X83306299Y-67577166D01*
X83168406Y-67319186D01*
X82982834Y-67093066D01*
X82756714Y-66907494D01*
X82701909Y-66878200D01*
X82756714Y-66848906D01*
X82982834Y-66663334D01*
X83168406Y-66437214D01*
X83306299Y-66179234D01*
X83391213Y-65899311D01*
X83419885Y-65608200D01*
X83391213Y-65317089D01*
X83306299Y-65037166D01*
X83168406Y-64779186D01*
X82982834Y-64553066D01*
X82756714Y-64367494D01*
X82701909Y-64338200D01*
X82756714Y-64308906D01*
X82982834Y-64123334D01*
X83168406Y-63897214D01*
X83306299Y-63639234D01*
X83391213Y-63359311D01*
X83419885Y-63068200D01*
X83391213Y-62777089D01*
X83306299Y-62497166D01*
X83168406Y-62239186D01*
X82982834Y-62013066D01*
X82756714Y-61827494D01*
X82701909Y-61798200D01*
X82756714Y-61768906D01*
X82982834Y-61583334D01*
X83168406Y-61357214D01*
X83306299Y-61099234D01*
X83391213Y-60819311D01*
X83419885Y-60528200D01*
X83391213Y-60237089D01*
X83306299Y-59957166D01*
X83168406Y-59699186D01*
X82982834Y-59473066D01*
X82756714Y-59287494D01*
X82692177Y-59252999D01*
X82809055Y-59183378D01*
X83025288Y-58988469D01*
X83199341Y-58755120D01*
X83324525Y-58492299D01*
X83369176Y-58345090D01*
X83247855Y-58115200D01*
X82054700Y-58115200D01*
X82054700Y-58135200D01*
X81800700Y-58135200D01*
X81800700Y-58115200D01*
X80607545Y-58115200D01*
X80486224Y-58345090D01*
X80530875Y-58492299D01*
X80656059Y-58755120D01*
X80830112Y-58988469D01*
X81046345Y-59183378D01*
X81163223Y-59252999D01*
X81098686Y-59287494D01*
X80872566Y-59473066D01*
X80686994Y-59699186D01*
X80549101Y-59957166D01*
X80464187Y-60237089D01*
X80435515Y-60528200D01*
X67707590Y-60528200D01*
X67729100Y-60420064D01*
X67729100Y-60346244D01*
X67798279Y-60300020D01*
X67830435Y-60267864D01*
X67926136Y-60286900D01*
X68116264Y-60286900D01*
X68302738Y-60249808D01*
X68478394Y-60177049D01*
X68636479Y-60071420D01*
X68770920Y-59936979D01*
X68876549Y-59778894D01*
X68949308Y-59603238D01*
X68971867Y-59489827D01*
X68999094Y-59478549D01*
X69157179Y-59372920D01*
X69291620Y-59238479D01*
X69397249Y-59080394D01*
X69470008Y-58904738D01*
X69507100Y-58718264D01*
X69507100Y-58528136D01*
X69470008Y-58341662D01*
X69397249Y-58166006D01*
X69364541Y-58117055D01*
X69406508Y-58015738D01*
X69443600Y-57829264D01*
X69443600Y-57639136D01*
X69406508Y-57452662D01*
X69333749Y-57277006D01*
X69228120Y-57118921D01*
X69093679Y-56984480D01*
X68935594Y-56878851D01*
X68759938Y-56806092D01*
X68573464Y-56769000D01*
X68383336Y-56769000D01*
X68196862Y-56806092D01*
X68021206Y-56878851D01*
X67863121Y-56984480D01*
X67728680Y-57118921D01*
X67684584Y-57184916D01*
X67621061Y-57178659D01*
X67621051Y-57178659D01*
X67586125Y-57175219D01*
X67551199Y-57178659D01*
X63844843Y-57178659D01*
X63818508Y-57046262D01*
X63745749Y-56870606D01*
X63640120Y-56712521D01*
X63505679Y-56578080D01*
X63347594Y-56472451D01*
X63171938Y-56399692D01*
X62985464Y-56362600D01*
X62795336Y-56362600D01*
X62608862Y-56399692D01*
X62433206Y-56472451D01*
X62275121Y-56578080D01*
X62140680Y-56712521D01*
X62035051Y-56870606D01*
X61966770Y-57035450D01*
X61823606Y-57094751D01*
X61665521Y-57200380D01*
X61531080Y-57334821D01*
X61425451Y-57492906D01*
X61408440Y-57533973D01*
X61300762Y-57555392D01*
X61125106Y-57628151D01*
X60967021Y-57733780D01*
X60832580Y-57868221D01*
X60726951Y-58026306D01*
X60654192Y-58201962D01*
X60617100Y-58388436D01*
X54613649Y-58388436D01*
X54559194Y-58352051D01*
X54383538Y-58279292D01*
X54197064Y-58242200D01*
X54006936Y-58242200D01*
X53820462Y-58279292D01*
X53763012Y-58303088D01*
X53725942Y-58247609D01*
X53646590Y-58150918D01*
X53577282Y-58081610D01*
X53480591Y-58002258D01*
X53399092Y-57947802D01*
X53288775Y-57888836D01*
X53198219Y-57851327D01*
X53078523Y-57815018D01*
X52982390Y-57795896D01*
X52857909Y-57783636D01*
X52833350Y-57783636D01*
X52808900Y-57781228D01*
X52308900Y-57781228D01*
X52184418Y-57793488D01*
X52064720Y-57829798D01*
X51954406Y-57888763D01*
X51857715Y-57968115D01*
X51778363Y-58064806D01*
X51719398Y-58175120D01*
X51683088Y-58294818D01*
X51670828Y-58419300D01*
X43891200Y-58419300D01*
X43891200Y-55061036D01*
X64109600Y-55061036D01*
X64109600Y-55251164D01*
X64146692Y-55437638D01*
X64219451Y-55613294D01*
X64325080Y-55771379D01*
X64459521Y-55905820D01*
X64617606Y-56011449D01*
X64793262Y-56084208D01*
X64979736Y-56121300D01*
X65169864Y-56121300D01*
X65356338Y-56084208D01*
X65531994Y-56011449D01*
X65630425Y-55945680D01*
X65728856Y-56011449D01*
X65904512Y-56084208D01*
X66090986Y-56121300D01*
X66281114Y-56121300D01*
X66467588Y-56084208D01*
X66643244Y-56011449D01*
X66741675Y-55945680D01*
X66840106Y-56011449D01*
X67015762Y-56084208D01*
X67202236Y-56121300D01*
X67392364Y-56121300D01*
X67578838Y-56084208D01*
X67754494Y-56011449D01*
X67835573Y-55957274D01*
X67881080Y-56025379D01*
X68015521Y-56159820D01*
X68173606Y-56265449D01*
X68349262Y-56338208D01*
X68535736Y-56375300D01*
X68725864Y-56375300D01*
X68912338Y-56338208D01*
X69068481Y-56273531D01*
X69113406Y-56303549D01*
X69289062Y-56376308D01*
X69475536Y-56413400D01*
X69665664Y-56413400D01*
X69852138Y-56376308D01*
X70027794Y-56303549D01*
X70185879Y-56197920D01*
X70320320Y-56063479D01*
X70425949Y-55905394D01*
X70498708Y-55729738D01*
X70535800Y-55543264D01*
X70535800Y-55353136D01*
X70498708Y-55166662D01*
X70425949Y-54991006D01*
X70320320Y-54832921D01*
X70281800Y-54794401D01*
X70281800Y-52305136D01*
X73037700Y-52305136D01*
X73037700Y-52495264D01*
X73074792Y-52681738D01*
X73147551Y-52857394D01*
X73253180Y-53015479D01*
X73387621Y-53149920D01*
X73545706Y-53255549D01*
X73721362Y-53328308D01*
X73907836Y-53365400D01*
X74097964Y-53365400D01*
X74284438Y-53328308D01*
X74460094Y-53255549D01*
X74618179Y-53149920D01*
X74656699Y-53111400D01*
X76030328Y-53111400D01*
X76032762Y-53112408D01*
X76219236Y-53149500D01*
X76409364Y-53149500D01*
X76595838Y-53112408D01*
X76771494Y-53039649D01*
X76929579Y-52934020D01*
X76955399Y-52908200D01*
X80435515Y-52908200D01*
X80464187Y-53199311D01*
X80549101Y-53479234D01*
X80686994Y-53737214D01*
X80872566Y-53963334D01*
X81098686Y-54148906D01*
X81153491Y-54178200D01*
X81098686Y-54207494D01*
X80872566Y-54393066D01*
X80686994Y-54619186D01*
X80549101Y-54877166D01*
X80464187Y-55157089D01*
X80435515Y-55448200D01*
X80464187Y-55739311D01*
X80549101Y-56019234D01*
X80686994Y-56277214D01*
X80872566Y-56503334D01*
X81098686Y-56688906D01*
X81163223Y-56723401D01*
X81046345Y-56793022D01*
X80830112Y-56987931D01*
X80656059Y-57221280D01*
X80530875Y-57484101D01*
X80486224Y-57631310D01*
X80607545Y-57861200D01*
X81800700Y-57861200D01*
X81800700Y-57841200D01*
X82054700Y-57841200D01*
X82054700Y-57861200D01*
X83247855Y-57861200D01*
X83369176Y-57631310D01*
X83324525Y-57484101D01*
X83199341Y-57221280D01*
X83025288Y-56987931D01*
X82809055Y-56793022D01*
X82692177Y-56723401D01*
X82756714Y-56688906D01*
X82982834Y-56503334D01*
X83168406Y-56277214D01*
X83306299Y-56019234D01*
X83391213Y-55739311D01*
X83419885Y-55448200D01*
X83391213Y-55157089D01*
X83306299Y-54877166D01*
X83168406Y-54619186D01*
X82982834Y-54393066D01*
X82756714Y-54207494D01*
X82701909Y-54178200D01*
X82756714Y-54148906D01*
X82982834Y-53963334D01*
X83168406Y-53737214D01*
X83306299Y-53479234D01*
X83391213Y-53199311D01*
X83419885Y-52908200D01*
X83391213Y-52617089D01*
X83306299Y-52337166D01*
X83168406Y-52079186D01*
X82982834Y-51853066D01*
X82953013Y-51828593D01*
X83021880Y-51807702D01*
X83132194Y-51748737D01*
X83228885Y-51669385D01*
X83308237Y-51572694D01*
X83367202Y-51462380D01*
X83403512Y-51342682D01*
X83415772Y-51218200D01*
X83415772Y-49518200D01*
X83403512Y-49393718D01*
X83367202Y-49274020D01*
X83308237Y-49163706D01*
X83250374Y-49093200D01*
X83447376Y-49093200D01*
X83937132Y-48995782D01*
X84398473Y-48804688D01*
X84813668Y-48527263D01*
X85166763Y-48174168D01*
X85444188Y-47758973D01*
X85635282Y-47297632D01*
X85732700Y-46807876D01*
X85732700Y-46308524D01*
X98442700Y-46308524D01*
X98442700Y-46807876D01*
X98540118Y-47297632D01*
X98731212Y-47758973D01*
X99008637Y-48174168D01*
X99361732Y-48527263D01*
X99776927Y-48804688D01*
X100238268Y-48995782D01*
X100728024Y-49093200D01*
X101227376Y-49093200D01*
X101717132Y-48995782D01*
X102178473Y-48804688D01*
X102593668Y-48527263D01*
X102946763Y-48174168D01*
X103224188Y-47758973D01*
X103415282Y-47297632D01*
X103512700Y-46807876D01*
X103512700Y-46308524D01*
X103415282Y-45818768D01*
X103224188Y-45357427D01*
X102946763Y-44942232D01*
X102593668Y-44589137D01*
X102178473Y-44311712D01*
X101717132Y-44120618D01*
X101227376Y-44023200D01*
X100728024Y-44023200D01*
X100238268Y-44120618D01*
X99776927Y-44311712D01*
X99361732Y-44589137D01*
X99008637Y-44942232D01*
X98731212Y-45357427D01*
X98540118Y-45818768D01*
X98442700Y-46308524D01*
X85732700Y-46308524D01*
X85635282Y-45818768D01*
X85444188Y-45357427D01*
X85166763Y-44942232D01*
X84813668Y-44589137D01*
X84398473Y-44311712D01*
X83937132Y-44120618D01*
X83447376Y-44023200D01*
X82948024Y-44023200D01*
X82458268Y-44120618D01*
X81996927Y-44311712D01*
X81581732Y-44589137D01*
X81228637Y-44942232D01*
X80951212Y-45357427D01*
X80760118Y-45818768D01*
X80662700Y-46308524D01*
X80662700Y-46807876D01*
X80760118Y-47297632D01*
X80951212Y-47758973D01*
X81228637Y-48174168D01*
X81581732Y-48527263D01*
X81996927Y-48804688D01*
X82179055Y-48880128D01*
X81077700Y-48880128D01*
X80953218Y-48892388D01*
X80833520Y-48928698D01*
X80723206Y-48987663D01*
X80626515Y-49067015D01*
X80547163Y-49163706D01*
X80488198Y-49274020D01*
X80451888Y-49393718D01*
X80439628Y-49518200D01*
X80439628Y-51218200D01*
X80451888Y-51342682D01*
X80488198Y-51462380D01*
X80547163Y-51572694D01*
X80626515Y-51669385D01*
X80723206Y-51748737D01*
X80833520Y-51807702D01*
X80902387Y-51828593D01*
X80872566Y-51853066D01*
X80686994Y-52079186D01*
X80549101Y-52337166D01*
X80464187Y-52617089D01*
X80435515Y-52908200D01*
X76955399Y-52908200D01*
X77064020Y-52799579D01*
X77169649Y-52641494D01*
X77242408Y-52465838D01*
X77279500Y-52279364D01*
X77279500Y-52089236D01*
X77242408Y-51902762D01*
X77169649Y-51727106D01*
X77064020Y-51569021D01*
X76929579Y-51434580D01*
X76771494Y-51328951D01*
X76595838Y-51256192D01*
X76409364Y-51219100D01*
X76219236Y-51219100D01*
X76032762Y-51256192D01*
X75857106Y-51328951D01*
X75699021Y-51434580D01*
X75564580Y-51569021D01*
X75484413Y-51689000D01*
X74656699Y-51689000D01*
X74618179Y-51650480D01*
X74460094Y-51544851D01*
X74284438Y-51472092D01*
X74097964Y-51435000D01*
X73907836Y-51435000D01*
X73721362Y-51472092D01*
X73545706Y-51544851D01*
X73387621Y-51650480D01*
X73253180Y-51784921D01*
X73147551Y-51943006D01*
X73074792Y-52118662D01*
X73037700Y-52305136D01*
X70281800Y-52305136D01*
X70281800Y-51771299D01*
X70320320Y-51732779D01*
X70425949Y-51574694D01*
X70498708Y-51399038D01*
X70535800Y-51212564D01*
X70535800Y-51022436D01*
X70498708Y-50835962D01*
X70425949Y-50660306D01*
X70320320Y-50502221D01*
X70185879Y-50367780D01*
X70027794Y-50262151D01*
X69852138Y-50189392D01*
X69665664Y-50152300D01*
X69475536Y-50152300D01*
X69289062Y-50189392D01*
X69113406Y-50262151D01*
X69100700Y-50270641D01*
X69087994Y-50262151D01*
X68912338Y-50189392D01*
X68725864Y-50152300D01*
X68535736Y-50152300D01*
X68349262Y-50189392D01*
X68204799Y-50249231D01*
X68110094Y-50185951D01*
X67934438Y-50113192D01*
X67747964Y-50076100D01*
X67557836Y-50076100D01*
X67371362Y-50113192D01*
X67195706Y-50185951D01*
X67109975Y-50243235D01*
X67024244Y-50185951D01*
X66848588Y-50113192D01*
X66662114Y-50076100D01*
X66471986Y-50076100D01*
X66285512Y-50113192D01*
X66109856Y-50185951D01*
X66024125Y-50243235D01*
X65938394Y-50185951D01*
X65762738Y-50113192D01*
X65576264Y-50076100D01*
X65386136Y-50076100D01*
X65199662Y-50113192D01*
X65024006Y-50185951D01*
X64865921Y-50291580D01*
X64731480Y-50426021D01*
X64625851Y-50584106D01*
X64553092Y-50759762D01*
X64516000Y-50946236D01*
X64516000Y-51136364D01*
X64553092Y-51322838D01*
X64625851Y-51498494D01*
X64731480Y-51656579D01*
X64770001Y-51695100D01*
X64770000Y-54237627D01*
X64617606Y-54300751D01*
X64459521Y-54406380D01*
X64325080Y-54540821D01*
X64219451Y-54698906D01*
X64146692Y-54874562D01*
X64109600Y-55061036D01*
X43891200Y-55061036D01*
X43891200Y-45853879D01*
X43930109Y-45457055D01*
X43980817Y-45289100D01*
X50162828Y-45289100D01*
X50162828Y-46989100D01*
X50175088Y-47113582D01*
X50211398Y-47233280D01*
X50270363Y-47343594D01*
X50349715Y-47440285D01*
X50446406Y-47519637D01*
X50556720Y-47578602D01*
X50676418Y-47614912D01*
X50800900Y-47627172D01*
X52500900Y-47627172D01*
X52625382Y-47614912D01*
X52745080Y-47578602D01*
X52855394Y-47519637D01*
X52952085Y-47440285D01*
X53031437Y-47343594D01*
X53090402Y-47233280D01*
X53114866Y-47152634D01*
X53190631Y-47236688D01*
X53423980Y-47410741D01*
X53686801Y-47535925D01*
X53834010Y-47580576D01*
X54063900Y-47459255D01*
X54063900Y-46266100D01*
X54043900Y-46266100D01*
X54043900Y-46012100D01*
X54063900Y-46012100D01*
X54063900Y-44818945D01*
X54317900Y-44818945D01*
X54317900Y-46012100D01*
X54337900Y-46012100D01*
X54337900Y-46266100D01*
X54317900Y-46266100D01*
X54317900Y-47459255D01*
X54547790Y-47580576D01*
X54694999Y-47535925D01*
X54957820Y-47410741D01*
X55191169Y-47236688D01*
X55386078Y-47020455D01*
X55455699Y-46903577D01*
X55490194Y-46968114D01*
X55675766Y-47194234D01*
X55901886Y-47379806D01*
X56159866Y-47517699D01*
X56439789Y-47602613D01*
X56657950Y-47624100D01*
X56803850Y-47624100D01*
X57022011Y-47602613D01*
X57301934Y-47517699D01*
X57559914Y-47379806D01*
X57786034Y-47194234D01*
X57971606Y-46968114D01*
X58000900Y-46913309D01*
X58030194Y-46968114D01*
X58215766Y-47194234D01*
X58441886Y-47379806D01*
X58699866Y-47517699D01*
X58979789Y-47602613D01*
X59197950Y-47624100D01*
X59343850Y-47624100D01*
X59562011Y-47602613D01*
X59841934Y-47517699D01*
X60099914Y-47379806D01*
X60326034Y-47194234D01*
X60511606Y-46968114D01*
X60540900Y-46913309D01*
X60570194Y-46968114D01*
X60755766Y-47194234D01*
X60981886Y-47379806D01*
X61239866Y-47517699D01*
X61519789Y-47602613D01*
X61737950Y-47624100D01*
X61883850Y-47624100D01*
X62102011Y-47602613D01*
X62381934Y-47517699D01*
X62639914Y-47379806D01*
X62866034Y-47194234D01*
X63051606Y-46968114D01*
X63080900Y-46913309D01*
X63110194Y-46968114D01*
X63295766Y-47194234D01*
X63521886Y-47379806D01*
X63779866Y-47517699D01*
X64059789Y-47602613D01*
X64277950Y-47624100D01*
X64423850Y-47624100D01*
X64642011Y-47602613D01*
X64921934Y-47517699D01*
X65179914Y-47379806D01*
X65406034Y-47194234D01*
X65591606Y-46968114D01*
X65620900Y-46913309D01*
X65650194Y-46968114D01*
X65835766Y-47194234D01*
X66061886Y-47379806D01*
X66319866Y-47517699D01*
X66599789Y-47602613D01*
X66817950Y-47624100D01*
X66963850Y-47624100D01*
X67182011Y-47602613D01*
X67461934Y-47517699D01*
X67719914Y-47379806D01*
X67946034Y-47194234D01*
X68131606Y-46968114D01*
X68269499Y-46710134D01*
X68354413Y-46430211D01*
X68383085Y-46139100D01*
X68354413Y-45847989D01*
X68269499Y-45568066D01*
X68131606Y-45310086D01*
X67946034Y-45083966D01*
X67719914Y-44898394D01*
X67461934Y-44760501D01*
X67182011Y-44675587D01*
X66963850Y-44654100D01*
X66817950Y-44654100D01*
X66599789Y-44675587D01*
X66319866Y-44760501D01*
X66061886Y-44898394D01*
X65835766Y-45083966D01*
X65650194Y-45310086D01*
X65620900Y-45364891D01*
X65591606Y-45310086D01*
X65406034Y-45083966D01*
X65179914Y-44898394D01*
X64921934Y-44760501D01*
X64642011Y-44675587D01*
X64423850Y-44654100D01*
X64277950Y-44654100D01*
X64059789Y-44675587D01*
X63779866Y-44760501D01*
X63521886Y-44898394D01*
X63295766Y-45083966D01*
X63110194Y-45310086D01*
X63080900Y-45364891D01*
X63051606Y-45310086D01*
X62866034Y-45083966D01*
X62639914Y-44898394D01*
X62381934Y-44760501D01*
X62102011Y-44675587D01*
X61883850Y-44654100D01*
X61737950Y-44654100D01*
X61519789Y-44675587D01*
X61239866Y-44760501D01*
X60981886Y-44898394D01*
X60755766Y-45083966D01*
X60570194Y-45310086D01*
X60540900Y-45364891D01*
X60511606Y-45310086D01*
X60326034Y-45083966D01*
X60099914Y-44898394D01*
X59841934Y-44760501D01*
X59562011Y-44675587D01*
X59343850Y-44654100D01*
X59197950Y-44654100D01*
X58979789Y-44675587D01*
X58699866Y-44760501D01*
X58441886Y-44898394D01*
X58215766Y-45083966D01*
X58030194Y-45310086D01*
X58000900Y-45364891D01*
X57971606Y-45310086D01*
X57786034Y-45083966D01*
X57559914Y-44898394D01*
X57301934Y-44760501D01*
X57022011Y-44675587D01*
X56803850Y-44654100D01*
X56657950Y-44654100D01*
X56439789Y-44675587D01*
X56159866Y-44760501D01*
X55901886Y-44898394D01*
X55675766Y-45083966D01*
X55490194Y-45310086D01*
X55455699Y-45374623D01*
X55386078Y-45257745D01*
X55191169Y-45041512D01*
X54957820Y-44867459D01*
X54694999Y-44742275D01*
X54547790Y-44697624D01*
X54317900Y-44818945D01*
X54063900Y-44818945D01*
X53834010Y-44697624D01*
X53686801Y-44742275D01*
X53423980Y-44867459D01*
X53190631Y-45041512D01*
X53114866Y-45125566D01*
X53090402Y-45044920D01*
X53031437Y-44934606D01*
X52952085Y-44837915D01*
X52855394Y-44758563D01*
X52745080Y-44699598D01*
X52625382Y-44663288D01*
X52500900Y-44651028D01*
X50800900Y-44651028D01*
X50676418Y-44663288D01*
X50556720Y-44699598D01*
X50446406Y-44758563D01*
X50349715Y-44837915D01*
X50270363Y-44934606D01*
X50211398Y-45044920D01*
X50175088Y-45164618D01*
X50162828Y-45289100D01*
X43980817Y-45289100D01*
X44035980Y-45106392D01*
X44207944Y-44782975D01*
X44439454Y-44499116D01*
X44721686Y-44265635D01*
X45043895Y-44091417D01*
X45393814Y-43983098D01*
X45788643Y-43941600D01*
X70061240Y-43941600D01*
X70061928Y-49834815D01*
G36*
X93086936Y-86912075D02*
G01*
X93145902Y-87022392D01*
X93200358Y-87103891D01*
X93279710Y-87200582D01*
X93349018Y-87269890D01*
X93406200Y-87316818D01*
X93406200Y-87995083D01*
X93397784Y-87952771D01*
X93326940Y-87781738D01*
X93224090Y-87627813D01*
X93093187Y-87496910D01*
X92939262Y-87394060D01*
X92768229Y-87323216D01*
X92586662Y-87287100D01*
X92560089Y-87287100D01*
X92394988Y-87122000D01*
X92523162Y-87122000D01*
X92704729Y-87085884D01*
X92875762Y-87015040D01*
X93029687Y-86912190D01*
X93048477Y-86893400D01*
X93079201Y-86893400D01*
X93086936Y-86912075D01*
X93086936Y-86912075D01*
G37*
X93086936Y-86912075D02*
X93145902Y-87022392D01*
X93200358Y-87103891D01*
X93279710Y-87200582D01*
X93349018Y-87269890D01*
X93406200Y-87316818D01*
X93406200Y-87995083D01*
X93397784Y-87952771D01*
X93326940Y-87781738D01*
X93224090Y-87627813D01*
X93093187Y-87496910D01*
X92939262Y-87394060D01*
X92768229Y-87323216D01*
X92586662Y-87287100D01*
X92560089Y-87287100D01*
X92394988Y-87122000D01*
X92523162Y-87122000D01*
X92704729Y-87085884D01*
X92875762Y-87015040D01*
X93029687Y-86912190D01*
X93048477Y-86893400D01*
X93079201Y-86893400D01*
X93086936Y-86912075D01*
G36*
X70863617Y-44262250D02*
G01*
X70871539Y-44263030D01*
X70879198Y-44265155D01*
X70936123Y-44269391D01*
X70960581Y-44271800D01*
X70968494Y-44271800D01*
X71008848Y-44274803D01*
X71033326Y-44271800D01*
X79257082Y-44271800D01*
X79318206Y-44272494D01*
X79336900Y-44268996D01*
X79336900Y-49136484D01*
X74144824Y-49144031D01*
X74068538Y-49112432D01*
X73882064Y-49075340D01*
X73691936Y-49075340D01*
X73505462Y-49112432D01*
X73426656Y-49145075D01*
X70853300Y-49148815D01*
X70853300Y-44259120D01*
X70863617Y-44262250D01*
X70863617Y-44262250D01*
G37*
X70863617Y-44262250D02*
X70871539Y-44263030D01*
X70879198Y-44265155D01*
X70936123Y-44269391D01*
X70960581Y-44271800D01*
X70968494Y-44271800D01*
X71008848Y-44274803D01*
X71033326Y-44271800D01*
X79257082Y-44271800D01*
X79318206Y-44272494D01*
X79336900Y-44268996D01*
X79336900Y-49136484D01*
X74144824Y-49144031D01*
X74068538Y-49112432D01*
X73882064Y-49075340D01*
X73691936Y-49075340D01*
X73505462Y-49112432D01*
X73426656Y-49145075D01*
X70853300Y-49148815D01*
X70853300Y-44259120D01*
X70863617Y-44262250D01*
M02*
